<svg viewBox="0 0 1180.5 68.5234" x="0" y="0" fill="none" xmlns="http://www.w3.org/2000/svg"><defs><mask id="mask0_1_9" style="mask-type:luminance" maskUnits="userSpaceOnUse" x="0" y="0" width="137" height="48" xmlns="http://www.w3.org/2000/svg"><g id="clip0_469_847" data-node-id="1:168"><path id="Vector_33" data-node-id="1:169" d="M137,0h-137v48h137z" fill="white"/></g></mask></defs><g id="Frame 20" data-node-id="1:164" xmlns="http://www.w3.org/2000/svg"><g id="Group 19 2" data-node-id="1:165"><path id="Vector_32" data-node-id="1:166" d="M4.961,61.5078h3.141c0.492,0 0.742,-0.039 0.968,-0.1328c0.532,-0.2188 0.938,-0.6875 0.938,-1.3438c0,-0.6484 -0.391,-1.125 -0.938,-1.3515c-0.226,-0.0938 -0.468,-0.1406 -0.976,-0.1406h-3.133zM4.961,68h-1.867v-11.2031h5.234c0.867,0 1.438,0.1484 1.922,0.4297c0.969,0.5234 1.602,1.5312 1.602,2.7968c0,1.2344 -0.633,2.2578 -1.61,2.7891c-0.484,0.2734 -1.047,0.4297 -1.914,0.4297h-3.367zM18.869,56.7969h2.086l3.047,5.7422l2.953,-5.7422h2.086l-4.305,8.1015c-0.531,1 -0.875,1.5938 -1.375,2.1172c-0.578,0.5938 -1.281,1.0078 -2.219,1.0078c-0.664,0 -1.312,-0.2109 -1.875,-0.6015l0.953,-1.586c0.282,0.2032 0.61,0.3125 0.946,0.3125c0.656,0 1.054,-0.3906 1.562,-1.3046c0.008,-0.0313 0.258,-0.4766 0.258,-0.4766zM36.628,56.7969h1.008l4.851,5.8359l4.844,-5.8359h1.016v11.2031h-1.875v-7.6484l-3.985,4.8672l-3.992,-4.8672v7.6484h-1.867zM56.325,56.7891h9.469v1.75h-3.805v9.4609h-1.875v-9.4609h-3.789zM81.561,68v-7.8203l-6.781,7.8203h-1.016v-11.2031h1.875v7.8125c2.258,-2.6016 4.516,-5.211 6.781,-7.8125h1.016v11.2031zM100.773,64.6719c0,1.3125 -0.656,2.3515 -1.656,2.8984c-0.492,0.2735 -1.078,0.4297 -1.953,0.4297h-5.133v-11.2031h7.727v1.7422h-5.86v2.8125h3.266c0.875,0 1.461,0.1562 1.945,0.4375c1.008,0.539 1.664,1.6093 1.664,2.8828zM98.922,64.6719c0,-0.7031 -0.422,-1.211 -0.984,-1.4531c-0.235,-0.0938 -0.493,-0.1407 -0.993,-0.1407h-3.047v3.1875h3.04c0.515,0 0.773,-0.0468 1,-0.1484c0.57,-0.2344 0.984,-0.75 0.984,-1.4453zM108.853,56.7969h7.649v1.7343h-5.774v2.461h4.477v1.7187h-4.477v3.5547h5.774v1.7344h-7.649zM124.097,56.7891h9.469v1.75h-3.805v9.4609h-1.875v-9.4609h-3.789z" fill="white"/><g id="Clip path group" data-node-id="1:167"><mask id="mask0_1_9" style="mask-type:luminance" maskUnits="userSpaceOnUse" x="370" y="16" width="137" height="48"><g id="clip0_469_847" data-node-id="1:168"><path id="Vector_33" data-node-id="1:169" d="M507 16H370V64H507V16Z" fill="white"/></g></mask><g mask="url(#mask0_1_9)"><g id="Group_14" data-node-id="1:170"><path id="Vector_34" data-node-id="1:171" d="M0.153,27.9142c0.245,-0.058 24.662,-5.8793 43.047,-14.0334c2.045,-0.907 3.701,-1.4447 5.096,-1.6981c-1.563,1.5746 -10.756,5.5 -3.414,6.1956c6.737,0.6389 -4.361,8.6325 -9.448,11.5387c-13.381,4.2427 -22.065,5.9089 -22.221,5.9385l0.184,0.9816c0.045,-0.0087 0.823,-0.1578 2.231,-0.4692c7.376,-1.6325 32.137,-7.7458 60.544,-21.7162c3.984,-1.9592 7.235,-3.0457 9.972,-3.4489c-0.803,4.1158 -10.091,13.2172 4.743,15.5154c13.529,2.096 -13.602,7.4179 -23.714,10.1276c-1.458,0.3909 -2.563,0.7275 -3.14,0.9919c-4.465,2.0477 47.434,0.2058 70.643,0.1125c0.757,0.0267 1.53,0.042 2.324,0.042v-0.9989c-20.73,0 -28.072,-9.4797 -33.972,-17.0967c-6.131,-7.9157 -10.973,-14.1689 -27.296,-6.1413c-3.793,1.8642 -7.628,3.6429 -11.501,5.3349c-3.422,-1.218 -5.495,-2.9698 -7.311,-4.5075c-3.382,-2.8632 -5.825,-4.9322 -13.99,-1.3102c-18.327,8.1281 -42.686,13.9361 -42.93,13.9937z" fill="#FDFDFD"/></g></g></g></g><g id="Frame 1" data-node-id="1:172"><g id="Главное меню" data-node-id="1:173"><path id="Главная" data-node-id="1:174" d="M350.476,41.5v-12.69h8.154v1.566h-6.282v11.124zM357.39,41.734l-0.612,-1.44c0.528,-0.216 0.942,-0.51 1.242,-0.882c0.3,-0.384 0.516,-0.912 0.648,-1.584c0.132,-0.684 0.198,-1.566 0.198,-2.646v-2.466h6.696v8.784h-1.818v-7.326h-3.186v1.062c0,1.32 -0.108,2.418 -0.324,3.294c-0.216,0.876 -0.558,1.572 -1.026,2.088c-0.456,0.504 -1.062,0.876 -1.818,1.116zM371.124,41.662c-0.612,0 -1.158,-0.12 -1.638,-0.36c-0.48,-0.24 -0.864,-0.564 -1.152,-0.972c-0.276,-0.408 -0.414,-0.87 -0.414,-1.386c0,-0.648 0.162,-1.158 0.486,-1.53c0.336,-0.372 0.882,-0.642 1.638,-0.81c0.768,-0.168 1.8,-0.252 3.096,-0.252h0.612v-0.468c0,-0.684 -0.144,-1.176 -0.432,-1.476c-0.288,-0.3 -0.762,-0.45 -1.422,-0.45c-0.504,0 -1.008,0.078 -1.512,0.234c-0.504,0.144 -1.02,0.378 -1.548,0.702l-0.558,-1.278c0.456,-0.324 1.026,-0.582 1.71,-0.774c0.684,-0.192 1.338,-0.288 1.962,-0.288c1.2,0 2.088,0.288 2.664,0.864c0.576,0.564 0.864,1.452 0.864,2.664v5.418h-1.71v-1.458c-0.216,0.504 -0.552,0.9 -1.008,1.188c-0.456,0.288 -1.002,0.432 -1.638,0.432zM371.484,40.366c0.648,0 1.188,-0.228 1.62,-0.684c0.432,-0.456 0.648,-1.032 0.648,-1.728v-0.486h-0.594c-0.876,0 -1.566,0.042 -2.07,0.126c-0.492,0.084 -0.846,0.228 -1.062,0.432c-0.204,0.192 -0.306,0.462 -0.306,0.81c0,0.456 0.156,0.828 0.468,1.116c0.312,0.276 0.744,0.414 1.296,0.414zM378.177,41.5v-8.784h4.482c1.08,0 1.866,0.204 2.358,0.612c0.504,0.396 0.756,0.96 0.756,1.692c0,0.456 -0.132,0.858 -0.396,1.206c-0.252,0.336 -0.6,0.582 -1.044,0.738c0.552,0.132 0.978,0.384 1.278,0.756c0.3,0.372 0.45,0.816 0.45,1.332c0,0.756 -0.282,1.356 -0.846,1.8c-0.564,0.432 -1.368,0.648 -2.412,0.648zM379.887,36.442h2.646c0.492,0 0.87,-0.114 1.134,-0.342c0.276,-0.228 0.414,-0.54 0.414,-0.936c0,-0.408 -0.138,-0.72 -0.414,-0.936c-0.264,-0.216 -0.642,-0.324 -1.134,-0.324h-2.646zM379.887,40.33h2.808c1.128,0 1.692,-0.456 1.692,-1.368c0,-0.9 -0.564,-1.35 -1.692,-1.35h-2.808zM388.179,41.5v-8.784h1.818v3.546h4.374v-3.546h1.818v8.784h-1.818v-3.798h-4.374v3.798zM401.727,41.662c-0.612,0 -1.158,-0.12 -1.638,-0.36c-0.48,-0.24 -0.864,-0.564 -1.152,-0.972c-0.276,-0.408 -0.414,-0.87 -0.414,-1.386c0,-0.648 0.162,-1.158 0.486,-1.53c0.336,-0.372 0.882,-0.642 1.638,-0.81c0.768,-0.168 1.8,-0.252 3.096,-0.252h0.612v-0.468c0,-0.684 -0.144,-1.176 -0.432,-1.476c-0.288,-0.3 -0.762,-0.45 -1.422,-0.45c-0.504,0 -1.008,0.078 -1.512,0.234c-0.504,0.144 -1.02,0.378 -1.548,0.702l-0.558,-1.278c0.456,-0.324 1.026,-0.582 1.71,-0.774c0.684,-0.192 1.338,-0.288 1.962,-0.288c1.2,0 2.088,0.288 2.664,0.864c0.576,0.564 0.864,1.452 0.864,2.664v5.418h-1.71v-1.458c-0.216,0.504 -0.552,0.9 -1.008,1.188c-0.456,0.288 -1.002,0.432 -1.638,0.432zM402.087,40.366c0.648,0 1.188,-0.228 1.62,-0.684c0.432,-0.456 0.648,-1.032 0.648,-1.728v-0.486h-0.594c-0.876,0 -1.566,0.042 -2.07,0.126c-0.492,0.084 -0.846,0.228 -1.062,0.432c-0.204,0.192 -0.306,0.462 -0.306,0.81c0,0.456 0.156,0.828 0.468,1.116c0.312,0.276 0.744,0.414 1.296,0.414zM408.042,41.5l1.332,-2.304c0.348,-0.624 0.804,-1.038 1.368,-1.242c-0.744,-0.12 -1.314,-0.396 -1.71,-0.828c-0.396,-0.444 -0.594,-1.02 -0.594,-1.728c0,-0.816 0.276,-1.464 0.828,-1.944c0.552,-0.492 1.374,-0.738 2.466,-0.738h4.194v8.784h-1.692v-3.204h-1.134c-0.42,0 -0.78,0.114 -1.08,0.342c-0.3,0.216 -0.546,0.486 -0.738,0.81l-1.17,2.052zM412.11,37.054h2.124v-3.096h-2.124c-0.66,0 -1.146,0.138 -1.458,0.414c-0.312,0.264 -0.468,0.636 -0.468,1.116c0,0.492 0.156,0.876 0.468,1.152c0.312,0.276 0.798,0.414 1.458,0.414z" fill="#FDFDFD"/><path id="Про гида" data-node-id="1:175" d="M443.476,41.5v-12.69h10.728v12.69h-1.854v-11.124h-7.002v11.124zM457.079,44.74v-12.024h1.782v1.494c0.252,-0.504 0.636,-0.906 1.152,-1.206c0.516,-0.3 1.11,-0.45 1.782,-0.45c0.78,0 1.458,0.186 2.034,0.558c0.588,0.372 1.038,0.9 1.35,1.584c0.324,0.672 0.486,1.476 0.486,2.412c0,0.936 -0.162,1.746 -0.486,2.43c-0.312,0.684 -0.762,1.212 -1.35,1.584c-0.576,0.36 -1.254,0.54 -2.034,0.54c-0.648,0 -1.23,-0.138 -1.746,-0.414c-0.504,-0.288 -0.888,-0.678 -1.152,-1.17v4.662zM461.345,40.258c0.756,0 1.356,-0.27 1.8,-0.81c0.456,-0.54 0.684,-1.32 0.684,-2.34c0,-1.02 -0.228,-1.794 -0.684,-2.322c-0.444,-0.54 -1.044,-0.81 -1.8,-0.81c-0.756,0 -1.362,0.27 -1.818,0.81c-0.444,0.528 -0.666,1.302 -0.666,2.322c0,1.02 0.222,1.8 0.666,2.34c0.456,0.54 1.062,0.81 1.818,0.81zM471.723,41.662c-0.888,0 -1.656,-0.186 -2.304,-0.558c-0.648,-0.372 -1.152,-0.894 -1.512,-1.566c-0.348,-0.684 -0.522,-1.494 -0.522,-2.43c0,-0.936 0.174,-1.74 0.522,-2.412c0.36,-0.684 0.864,-1.212 1.512,-1.584c0.648,-0.372 1.416,-0.558 2.304,-0.558c0.864,0 1.62,0.186 2.268,0.558c0.648,0.372 1.152,0.9 1.512,1.584c0.36,0.672 0.54,1.476 0.54,2.412c0,0.936 -0.18,1.746 -0.54,2.43c-0.36,0.672 -0.864,1.194 -1.512,1.566c-0.648,0.372 -1.404,0.558 -2.268,0.558zM471.723,40.258c0.744,0 1.344,-0.27 1.8,-0.81c0.456,-0.54 0.684,-1.32 0.684,-2.34c0,-1.02 -0.228,-1.794 -0.684,-2.322c-0.456,-0.54 -1.056,-0.81 -1.8,-0.81c-0.756,0 -1.362,0.27 -1.818,0.81c-0.456,0.528 -0.684,1.302 -0.684,2.322c0,1.02 0.228,1.8 0.684,2.34c0.456,0.54 1.062,0.81 1.818,0.81zM483.007,41.5v-8.784h6.372v1.458h-4.554v7.326zM491.022,41.5v-8.784h1.656v6.372l4.752,-6.372h1.53v8.784h-1.656v-6.354l-4.752,6.354zM500.792,43.84v-3.78h0.972c0.384,-0.576 0.66,-1.242 0.828,-1.998c0.168,-0.768 0.252,-1.698 0.252,-2.79v-2.556h6.498v7.344h1.404v3.78h-1.548v-2.34h-6.84v2.34zM503.456,40.06h4.158v-5.922h-3.186v1.512c0,0.828 -0.084,1.632 -0.252,2.412c-0.168,0.78 -0.408,1.446 -0.72,1.998zM515.382,41.662c-0.612,0 -1.158,-0.12 -1.638,-0.36c-0.48,-0.24 -0.864,-0.564 -1.152,-0.972c-0.276,-0.408 -0.414,-0.87 -0.414,-1.386c0,-0.648 0.162,-1.158 0.486,-1.53c0.336,-0.372 0.882,-0.642 1.638,-0.81c0.768,-0.168 1.8,-0.252 3.096,-0.252h0.612v-0.468c0,-0.684 -0.144,-1.176 -0.432,-1.476c-0.288,-0.3 -0.762,-0.45 -1.422,-0.45c-0.504,0 -1.008,0.078 -1.512,0.234c-0.504,0.144 -1.02,0.378 -1.548,0.702l-0.558,-1.278c0.456,-0.324 1.026,-0.582 1.71,-0.774c0.684,-0.192 1.338,-0.288 1.962,-0.288c1.2,0 2.088,0.288 2.664,0.864c0.576,0.564 0.864,1.452 0.864,2.664v5.418h-1.71v-1.458c-0.216,0.504 -0.552,0.9 -1.008,1.188c-0.456,0.288 -1.002,0.432 -1.638,0.432zM515.742,40.366c0.648,0 1.188,-0.228 1.62,-0.684c0.432,-0.456 0.648,-1.032 0.648,-1.728v-0.486h-0.594c-0.876,0 -1.566,0.042 -2.07,0.126c-0.492,0.084 -0.846,0.228 -1.062,0.432c-0.204,0.192 -0.306,0.462 -0.306,0.81c0,0.456 0.156,0.828 0.468,1.116c0.312,0.276 0.744,0.414 1.296,0.414z" fill="#FDFDFD"/><path id="Программа тура" data-node-id="1:176" d="M547.476,41.5v-12.69h10.728v12.69h-1.854v-11.124h-7.002v11.124zM561.079,44.74v-12.024h1.782v1.494c0.252,-0.504 0.636,-0.906 1.152,-1.206c0.516,-0.3 1.11,-0.45 1.782,-0.45c0.78,0 1.458,0.186 2.034,0.558c0.588,0.372 1.038,0.9 1.35,1.584c0.324,0.672 0.486,1.476 0.486,2.412c0,0.936 -0.162,1.746 -0.486,2.43c-0.312,0.684 -0.762,1.212 -1.35,1.584c-0.576,0.36 -1.254,0.54 -2.034,0.54c-0.648,0 -1.23,-0.138 -1.746,-0.414c-0.504,-0.288 -0.888,-0.678 -1.152,-1.17v4.662zM565.345,40.258c0.756,0 1.356,-0.27 1.8,-0.81c0.456,-0.54 0.684,-1.32 0.684,-2.34c0,-1.02 -0.228,-1.794 -0.684,-2.322c-0.444,-0.54 -1.044,-0.81 -1.8,-0.81c-0.756,0 -1.362,0.27 -1.818,0.81c-0.444,0.528 -0.666,1.302 -0.666,2.322c0,1.02 0.222,1.8 0.666,2.34c0.456,0.54 1.062,0.81 1.818,0.81zM575.723,41.662c-0.888,0 -1.656,-0.186 -2.304,-0.558c-0.648,-0.372 -1.152,-0.894 -1.512,-1.566c-0.348,-0.684 -0.522,-1.494 -0.522,-2.43c0,-0.936 0.174,-1.74 0.522,-2.412c0.36,-0.684 0.864,-1.212 1.512,-1.584c0.648,-0.372 1.416,-0.558 2.304,-0.558c0.864,0 1.62,0.186 2.268,0.558c0.648,0.372 1.152,0.9 1.512,1.584c0.36,0.672 0.54,1.476 0.54,2.412c0,0.936 -0.18,1.746 -0.54,2.43c-0.36,0.672 -0.864,1.194 -1.512,1.566c-0.648,0.372 -1.404,0.558 -2.268,0.558zM575.723,40.258c0.744,0 1.344,-0.27 1.8,-0.81c0.456,-0.54 0.684,-1.32 0.684,-2.34c0,-1.02 -0.228,-1.794 -0.684,-2.322c-0.456,-0.54 -1.056,-0.81 -1.8,-0.81c-0.756,0 -1.362,0.27 -1.818,0.81c-0.456,0.528 -0.684,1.302 -0.684,2.322c0,1.02 0.228,1.8 0.684,2.34c0.456,0.54 1.062,0.81 1.818,0.81zM582.278,41.5v-8.784h6.372v1.458h-4.554v7.326zM590.312,44.74v-12.024h1.782v1.494c0.252,-0.504 0.636,-0.906 1.152,-1.206c0.516,-0.3 1.11,-0.45 1.782,-0.45c0.78,0 1.458,0.186 2.034,0.558c0.588,0.372 1.038,0.9 1.35,1.584c0.324,0.672 0.486,1.476 0.486,2.412c0,0.936 -0.162,1.746 -0.486,2.43c-0.312,0.684 -0.762,1.212 -1.35,1.584c-0.576,0.36 -1.254,0.54 -2.034,0.54c-0.648,0 -1.23,-0.138 -1.746,-0.414c-0.504,-0.288 -0.888,-0.678 -1.152,-1.17v4.662zM594.578,40.258c0.756,0 1.356,-0.27 1.8,-0.81c0.456,-0.54 0.684,-1.32 0.684,-2.34c0,-1.02 -0.228,-1.794 -0.684,-2.322c-0.444,-0.54 -1.044,-0.81 -1.8,-0.81c-0.756,0 -1.362,0.27 -1.818,0.81c-0.444,0.528 -0.666,1.302 -0.666,2.322c0,1.02 0.222,1.8 0.666,2.34c0.456,0.54 1.062,0.81 1.818,0.81zM603.948,41.662c-0.612,0 -1.158,-0.12 -1.638,-0.36c-0.48,-0.24 -0.864,-0.564 -1.152,-0.972c-0.276,-0.408 -0.414,-0.87 -0.414,-1.386c0,-0.648 0.162,-1.158 0.486,-1.53c0.336,-0.372 0.882,-0.642 1.638,-0.81c0.768,-0.168 1.8,-0.252 3.096,-0.252h0.612v-0.468c0,-0.684 -0.144,-1.176 -0.432,-1.476c-0.288,-0.3 -0.762,-0.45 -1.422,-0.45c-0.504,0 -1.008,0.078 -1.512,0.234c-0.504,0.144 -1.02,0.378 -1.548,0.702l-0.558,-1.278c0.456,-0.324 1.026,-0.582 1.71,-0.774c0.684,-0.192 1.338,-0.288 1.962,-0.288c1.2,0 2.088,0.288 2.664,0.864c0.576,0.564 0.864,1.452 0.864,2.664v5.418h-1.71v-1.458c-0.216,0.504 -0.552,0.9 -1.008,1.188c-0.456,0.288 -1.002,0.432 -1.638,0.432zM604.308,40.366c0.648,0 1.188,-0.228 1.62,-0.684c0.432,-0.456 0.648,-1.032 0.648,-1.728v-0.486h-0.594c-0.876,0 -1.566,0.042 -2.07,0.126c-0.492,0.084 -0.846,0.228 -1.062,0.432c-0.204,0.192 -0.306,0.462 -0.306,0.81c0,0.456 0.156,0.828 0.468,1.116c0.312,0.276 0.744,0.414 1.296,0.414zM611.001,41.5v-8.784h1.494l3.186,5.562l3.168,-5.562h1.494v8.784h-1.602v-5.958l-2.628,4.536h-0.882l-2.628,-4.536v5.958zM623.077,41.5v-8.784h1.494l3.186,5.562l3.163,-5.562h1.5v8.784h-1.6v-5.958l-2.631,4.536h-0.882l-2.628,-4.536v5.958zM637.98,41.662c-0.61,0 -1.16,-0.12 -1.64,-0.36c-0.48,-0.24 -0.86,-0.564 -1.15,-0.972c-0.28,-0.408 -0.41,-0.87 -0.41,-1.386c0,-0.648 0.16,-1.158 0.48,-1.53c0.34,-0.372 0.88,-0.642 1.64,-0.81c0.77,-0.168 1.8,-0.252 3.1,-0.252h0.61v-0.468c0,-0.684 -0.15,-1.176 -0.43,-1.476c-0.29,-0.3 -0.77,-0.45 -1.43,-0.45c-0.5,0 -1,0.078 -1.51,0.234c-0.5,0.144 -1.02,0.378 -1.55,0.702l-0.55,-1.278c0.45,-0.324 1.02,-0.582 1.71,-0.774c0.68,-0.192 1.33,-0.288 1.96,-0.288c1.2,0 2.09,0.288 2.66,0.864c0.58,0.564 0.87,1.452 0.87,2.664v5.418h-1.71v-1.458c-0.22,0.504 -0.56,0.9 -1.01,1.188c-0.46,0.288 -1,0.432 -1.64,0.432zM638.34,40.366c0.65,0 1.19,-0.228 1.62,-0.684c0.43,-0.456 0.65,-1.032 0.65,-1.728v-0.486h-0.6c-0.87,0 -1.56,0.042 -2.07,0.126c-0.49,0.084 -0.84,0.228 -1.06,0.432c-0.2,0.192 -0.3,0.462 -0.3,0.81c0,0.456 0.15,0.828 0.46,1.116c0.32,0.276 0.75,0.414 1.3,0.414zM651.6,41.5v-7.326h-3.1v-1.458h8.03v1.458h-3.12v7.326zM658.96,44.74l1.56,-3.474l-3.67,-8.55h1.95l2.7,6.678l2.73,-6.678h1.87l-5.23,12.024zM667.62,44.74v-12.024h1.78v1.494c0.25,-0.504 0.64,-0.906 1.15,-1.206c0.52,-0.3 1.11,-0.45 1.79,-0.45c0.78,0 1.45,0.186 2.03,0.558c0.59,0.372 1.04,0.9 1.35,1.584c0.32,0.672 0.49,1.476 0.49,2.412c0,0.936 -0.17,1.746 -0.49,2.43c-0.31,0.684 -0.76,1.212 -1.35,1.584c-0.58,0.36 -1.25,0.54 -2.03,0.54c-0.65,0 -1.23,-0.138 -1.75,-0.414c-0.5,-0.288 -0.89,-0.678 -1.15,-1.17v4.662zM671.89,40.258c0.75,0 1.35,-0.27 1.8,-0.81c0.45,-0.54 0.68,-1.32 0.68,-2.34c0,-1.02 -0.23,-1.794 -0.68,-2.322c-0.45,-0.54 -1.05,-0.81 -1.8,-0.81c-0.76,0 -1.37,0.27 -1.82,0.81c-0.45,0.528 -0.67,1.302 -0.67,2.322c0,1.02 0.22,1.8 0.67,2.34c0.45,0.54 1.06,0.81 1.82,0.81zM681.26,41.662c-0.62,0 -1.16,-0.12 -1.64,-0.36c-0.48,-0.24 -0.87,-0.564 -1.15,-0.972c-0.28,-0.408 -0.42,-0.87 -0.42,-1.386c0,-0.648 0.16,-1.158 0.49,-1.53c0.33,-0.372 0.88,-0.642 1.64,-0.81c0.76,-0.168 1.8,-0.252 3.09,-0.252h0.61v-0.468c0,-0.684 -0.14,-1.176 -0.43,-1.476c-0.29,-0.3 -0.76,-0.45 -1.42,-0.45c-0.5,0 -1.01,0.078 -1.51,0.234c-0.51,0.144 -1.02,0.378 -1.55,0.702l-0.56,-1.278c0.46,-0.324 1.03,-0.582 1.71,-0.774c0.69,-0.192 1.34,-0.288 1.96,-0.288c1.2,0 2.09,0.288 2.67,0.864c0.57,0.564 0.86,1.452 0.86,2.664v5.418h-1.71v-1.458c-0.21,0.504 -0.55,0.9 -1.01,1.188c-0.45,0.288 -1,0.432 -1.63,0.432zM681.62,40.366c0.64,0 1.18,-0.228 1.62,-0.684c0.43,-0.456 0.64,-1.032 0.64,-1.728v-0.486h-0.59c-0.88,0 -1.57,0.042 -2.07,0.126c-0.49,0.084 -0.85,0.228 -1.06,0.432c-0.21,0.192 -0.31,0.462 -0.31,0.81c0,0.456 0.16,0.828 0.47,1.116c0.31,0.276 0.74,0.414 1.3,0.414z" fill="#FDFDFD"/><path id="Стоимость" data-node-id="1:177" d="M718.16,41.662c-1.28,0 -2.38,-0.264 -3.29,-0.792c-0.91,-0.528 -1.61,-1.278 -2.11,-2.25c-0.48,-0.984 -0.72,-2.142 -0.72,-3.474c0,-1.332 0.24,-2.484 0.72,-3.456c0.5,-0.972 1.2,-1.722 2.11,-2.25c0.91,-0.528 2.01,-0.792 3.29,-0.792c0.87,0 1.67,0.138 2.42,0.414c0.75,0.264 1.38,0.648 1.89,1.152l-0.65,1.494c-0.55,-0.492 -1.12,-0.846 -1.71,-1.062c-0.58,-0.228 -1.21,-0.342 -1.89,-0.342c-1.37,0 -2.41,0.42 -3.13,1.26c-0.72,0.84 -1.08,2.034 -1.08,3.582c0,1.548 0.36,2.748 1.08,3.6c0.72,0.84 1.76,1.26 3.13,1.26c0.68,0 1.31,-0.108 1.89,-0.324c0.59,-0.228 1.16,-0.588 1.71,-1.08l0.65,1.494c-0.51,0.492 -1.14,0.876 -1.89,1.152c-0.75,0.276 -1.55,0.414 -2.42,0.414zM726.37,41.5v-7.326h-3.1v-1.458h8.03v1.458h-3.11v7.326zM736.54,41.662c-0.89,0 -1.66,-0.186 -2.3,-0.558c-0.65,-0.372 -1.16,-0.894 -1.52,-1.566c-0.34,-0.684 -0.52,-1.494 -0.52,-2.43c0,-0.936 0.18,-1.74 0.52,-2.412c0.36,-0.684 0.87,-1.212 1.52,-1.584c0.64,-0.372 1.41,-0.558 2.3,-0.558c0.86,0 1.62,0.186 2.27,0.558c0.65,0.372 1.15,0.9 1.51,1.584c0.36,0.672 0.54,1.476 0.54,2.412c0,0.936 -0.18,1.746 -0.54,2.43c-0.36,0.672 -0.86,1.194 -1.51,1.566c-0.65,0.372 -1.41,0.558 -2.27,0.558zM736.54,40.258c0.74,0 1.34,-0.27 1.8,-0.81c0.46,-0.54 0.68,-1.32 0.68,-2.34c0,-1.02 -0.22,-1.794 -0.68,-2.322c-0.46,-0.54 -1.06,-0.81 -1.8,-0.81c-0.76,0 -1.36,0.27 -1.82,0.81c-0.45,0.528 -0.68,1.302 -0.68,2.322c0,1.02 0.23,1.8 0.68,2.34c0.46,0.54 1.06,0.81 1.82,0.81zM743.09,41.5v-8.784h1.66v6.372l4.75,-6.372h1.53v8.784h-1.65v-6.354l-4.76,6.354zM753.76,41.5v-8.784h1.5l3.18,5.562l3.17,-5.562h1.5v8.784h-1.61v-5.958l-2.62,4.536h-0.89l-2.62,-4.536v5.958zM769.67,41.662c-0.88,0 -1.65,-0.186 -2.3,-0.558c-0.65,-0.372 -1.15,-0.894 -1.51,-1.566c-0.35,-0.684 -0.52,-1.494 -0.52,-2.43c0,-0.936 0.17,-1.74 0.52,-2.412c0.36,-0.684 0.86,-1.212 1.51,-1.584c0.65,-0.372 1.42,-0.558 2.3,-0.558c0.87,0 1.62,0.186 2.27,0.558c0.65,0.372 1.15,0.9 1.51,1.584c0.36,0.672 0.54,1.476 0.54,2.412c0,0.936 -0.18,1.746 -0.54,2.43c-0.36,0.672 -0.86,1.194 -1.51,1.566c-0.65,0.372 -1.4,0.558 -2.27,0.558zM769.67,40.258c0.75,0 1.35,-0.27 1.8,-0.81c0.46,-0.54 0.69,-1.32 0.69,-2.34c0,-1.02 -0.23,-1.794 -0.69,-2.322c-0.45,-0.54 -1.05,-0.81 -1.8,-0.81c-0.75,0 -1.36,0.27 -1.81,0.81c-0.46,0.528 -0.69,1.302 -0.69,2.322c0,1.02 0.23,1.8 0.69,2.34c0.45,0.54 1.06,0.81 1.81,0.81zM780.12,41.662c-0.9,0 -1.68,-0.186 -2.34,-0.558c-0.65,-0.384 -1.15,-0.918 -1.51,-1.602c-0.36,-0.696 -0.54,-1.512 -0.54,-2.448c0,-1.392 0.39,-2.49 1.18,-3.294c0.8,-0.804 1.86,-1.206 3.21,-1.206c0.55,0 1.1,0.096 1.64,0.288c0.54,0.192 0.98,0.456 1.33,0.792l-0.58,1.278c-0.33,-0.312 -0.71,-0.54 -1.11,-0.684c-0.4,-0.156 -0.78,-0.234 -1.14,-0.234c-0.85,0 -1.51,0.27 -1.98,0.81c-0.45,0.528 -0.68,1.284 -0.68,2.268c0,0.984 0.23,1.758 0.68,2.322c0.47,0.552 1.13,0.828 1.98,0.828c0.36,0 0.74,-0.072 1.14,-0.216c0.4,-0.156 0.78,-0.39 1.11,-0.702l0.58,1.296c-0.35,0.324 -0.8,0.582 -1.35,0.774c-0.54,0.192 -1.08,0.288 -1.62,0.288zM786.68,41.5v-7.326h-3.1v-1.458h8.03v1.458h-3.11v7.326zM793.07,41.5v-8.784h1.82v3.042h2.5c1.13,0 1.99,0.246 2.57,0.738c0.59,0.48 0.89,1.182 0.89,2.106c0,0.888 -0.31,1.596 -0.92,2.124c-0.61,0.516 -1.46,0.774 -2.54,0.774zM794.89,40.258h2.27c0.62,0 1.11,-0.132 1.45,-0.396c0.35,-0.276 0.53,-0.696 0.53,-1.26c0,-0.552 -0.18,-0.954 -0.53,-1.206c-0.34,-0.264 -0.83,-0.396 -1.45,-0.396h-2.27z" fill="#FDFDFD"/><path id="Блог" data-node-id="1:178" d="M827.48,41.5v-12.69h8.55v1.512h-6.75v3.942h3.7c1.34,0 2.37,0.306 3.12,0.918c0.75,0.6 1.13,1.494 1.13,2.682c0,1.188 -0.38,2.094 -1.13,2.718c-0.75,0.612 -1.78,0.918 -3.12,0.918zM829.28,39.988h3.49c1.76,0 2.64,-0.702 2.64,-2.106c0,-1.404 -0.88,-2.106 -2.64,-2.106h-3.49zM838.98,41.734l-0.61,-1.44c0.52,-0.216 0.94,-0.51 1.24,-0.882c0.3,-0.384 0.51,-0.912 0.65,-1.584c0.13,-0.684 0.19,-1.566 0.19,-2.646v-2.466h6.7v8.784h-1.82v-7.326h-3.18v1.062c0,1.32 -0.11,2.418 -0.33,3.294c-0.21,0.876 -0.56,1.572 -1.02,2.088c-0.46,0.504 -1.07,0.876 -1.82,1.116zM853.72,41.662c-0.89,0 -1.66,-0.186 -2.3,-0.558c-0.65,-0.372 -1.16,-0.894 -1.52,-1.566c-0.34,-0.684 -0.52,-1.494 -0.52,-2.43c0,-0.936 0.18,-1.74 0.52,-2.412c0.36,-0.684 0.87,-1.212 1.52,-1.584c0.64,-0.372 1.41,-0.558 2.3,-0.558c0.86,0 1.62,0.186 2.27,0.558c0.65,0.372 1.15,0.9 1.51,1.584c0.36,0.672 0.54,1.476 0.54,2.412c0,0.936 -0.18,1.746 -0.54,2.43c-0.36,0.672 -0.86,1.194 -1.51,1.566c-0.65,0.372 -1.41,0.558 -2.27,0.558zM853.72,40.258c0.74,0 1.34,-0.27 1.8,-0.81c0.46,-0.54 0.68,-1.32 0.68,-2.34c0,-1.02 -0.22,-1.794 -0.68,-2.322c-0.46,-0.54 -1.06,-0.81 -1.8,-0.81c-0.76,0 -1.36,0.27 -1.82,0.81c-0.45,0.528 -0.68,1.302 -0.68,2.322c0,1.02 0.23,1.8 0.68,2.34c0.46,0.54 1.06,0.81 1.82,0.81zM860.27,41.5v-8.784h6.38v1.458h-4.56v7.326z" fill="#FDFDFD"/><path id="Контакты" data-node-id="1:179" d="M892.48,41.5v-12.69h1.87v5.526h2.03l3.57,-5.526h2.07l-3.87,5.832c0.5,0.192 0.94,0.492 1.33,0.9c0.38,0.396 0.72,0.894 1.02,1.494l2.18,4.464h-2.01l-1.73,-3.69c-0.33,-0.684 -0.7,-1.17 -1.14,-1.458c-0.43,-0.3 -0.96,-0.45 -1.6,-0.45h-1.85v5.598zM907.89,41.662c-0.89,0 -1.65,-0.186 -2.3,-0.558c-0.65,-0.372 -1.15,-0.894 -1.51,-1.566c-0.35,-0.684 -0.53,-1.494 -0.53,-2.43c0,-0.936 0.18,-1.74 0.53,-2.412c0.36,-0.684 0.86,-1.212 1.51,-1.584c0.65,-0.372 1.41,-0.558 2.3,-0.558c0.87,0 1.62,0.186 2.27,0.558c0.65,0.372 1.15,0.9 1.51,1.584c0.36,0.672 0.54,1.476 0.54,2.412c0,0.936 -0.18,1.746 -0.54,2.43c-0.36,0.672 -0.86,1.194 -1.51,1.566c-0.65,0.372 -1.4,0.558 -2.27,0.558zM907.89,40.258c0.75,0 1.35,-0.27 1.8,-0.81c0.46,-0.54 0.69,-1.32 0.69,-2.34c0,-1.02 -0.23,-1.794 -0.69,-2.322c-0.45,-0.54 -1.05,-0.81 -1.8,-0.81c-0.75,0 -1.36,0.27 -1.82,0.81c-0.45,0.528 -0.68,1.302 -0.68,2.322c0,1.02 0.23,1.8 0.68,2.34c0.46,0.54 1.07,0.81 1.82,0.81zM914.45,41.5v-8.784h1.81v3.546h4.38v-3.546h1.82v8.784h-1.82v-3.798h-4.38v3.798zM927,41.5v-7.326h-3.09v-1.458h8.03v1.458h-3.12v7.326zM936.22,41.662c-0.61,0 -1.16,-0.12 -1.64,-0.36c-0.48,-0.24 -0.86,-0.564 -1.15,-0.972c-0.27,-0.408 -0.41,-0.87 -0.41,-1.386c0,-0.648 0.16,-1.158 0.48,-1.53c0.34,-0.372 0.89,-0.642 1.64,-0.81c0.77,-0.168 1.8,-0.252 3.1,-0.252h0.61v-0.468c0,-0.684 -0.14,-1.176 -0.43,-1.476c-0.29,-0.3 -0.76,-0.45 -1.42,-0.45c-0.51,0 -1.01,0.078 -1.52,0.234c-0.5,0.144 -1.02,0.378 -1.54,0.702l-0.56,-1.278c0.45,-0.324 1.02,-0.582 1.71,-0.774c0.68,-0.192 1.34,-0.288 1.96,-0.288c1.2,0 2.09,0.288 2.66,0.864c0.58,0.564 0.87,1.452 0.87,2.664v5.418h-1.71v-1.458c-0.22,0.504 -0.55,0.9 -1.01,1.188c-0.46,0.288 -1,0.432 -1.64,0.432zM936.58,40.366c0.65,0 1.19,-0.228 1.62,-0.684c0.43,-0.456 0.65,-1.032 0.65,-1.728v-0.486h-0.59c-0.88,0 -1.57,0.042 -2.07,0.126c-0.5,0.084 -0.85,0.228 -1.07,0.432c-0.2,0.192 -0.3,0.462 -0.3,0.81c0,0.456 0.15,0.828 0.47,1.116c0.31,0.276 0.74,0.414 1.29,0.414zM943.27,41.5v-8.784h1.82v3.564h1.48l2.72,-3.564h1.98l-2.97,3.942c0.28,0.132 0.55,0.336 0.79,0.612c0.25,0.264 0.51,0.63 0.77,1.098l1.82,3.132h-1.94l-1.53,-2.628c-0.28,-0.468 -0.55,-0.78 -0.81,-0.936c-0.26,-0.156 -0.61,-0.234 -1.07,-0.234h-1.24v3.798zM954.85,41.5v-7.326h-3.1v-1.458h8.03v1.458h-3.11v7.326zM961.24,41.5v-8.784h1.82v3.042h2.5c1.13,0 1.99,0.246 2.57,0.738c0.59,0.48 0.89,1.182 0.89,2.106c0,0.888 -0.31,1.596 -0.92,2.124c-0.61,0.516 -1.46,0.774 -2.54,0.774zM970.2,41.5v-8.784h1.82v8.784zM963.06,40.258h2.27c0.62,0 1.11,-0.132 1.45,-0.396c0.35,-0.276 0.53,-0.696 0.53,-1.26c0,-0.552 -0.18,-0.954 -0.53,-1.206c-0.34,-0.264 -0.83,-0.396 -1.45,-0.396h-2.27z" fill="#FDFDFD"/></g><g id="button_6" data-node-id="1:180"><rect x="1023" y="14" width="157" height="44" rx="4" fill="#1A3E3E"/><path id="Консультация_6" data-node-id="I1:180;1:218" d="M1048.31,41v-11.28h1.67v4.912h1.8l3.17,-4.912h1.84l-3.44,5.184c0.45,0.1707 0.84,0.4373 1.19,0.8c0.34,0.352 0.64,0.7947 0.91,1.328l1.93,3.968h-1.79l-1.53,-3.28c-0.29,-0.608 -0.63,-1.04 -1.01,-1.296c-0.39,-0.2667 -0.86,-0.4 -1.43,-0.4h-1.64v4.976zM1062.21,41.144c-0.79,0 -1.48,-0.1653 -2.05,-0.496c-0.58,-0.3307 -1.03,-0.7947 -1.35,-1.392c-0.3,-0.608 -0.46,-1.328 -0.46,-2.16c0,-0.832 0.16,-1.5467 0.46,-2.144c0.32,-0.608 0.77,-1.0773 1.35,-1.408c0.57,-0.3307 1.26,-0.496 2.05,-0.496c0.76,0 1.44,0.1653 2.01,0.496c0.58,0.3307 1.03,0.8 1.35,1.408c0.32,0.5973 0.48,1.312 0.48,2.144c0,0.832 -0.16,1.552 -0.48,2.16c-0.32,0.5973 -0.77,1.0613 -1.35,1.392c-0.57,0.3307 -1.25,0.496 -2.01,0.496zM1062.21,39.896c0.66,0 1.19,-0.24 1.6,-0.72c0.4,-0.48 0.6,-1.1733 0.6,-2.08c0,-0.9067 -0.2,-1.5947 -0.6,-2.064c-0.41,-0.48 -0.94,-0.72 -1.6,-0.72c-0.68,0 -1.21,0.24 -1.62,0.72c-0.4,0.4693 -0.61,1.1573 -0.61,2.064c0,0.9067 0.21,1.6 0.61,2.08c0.41,0.48 0.94,0.72 1.62,0.72zM1068.23,41v-7.808h1.61v3.152h3.89v-3.152h1.62v7.808h-1.62v-3.376h-3.89v3.376zM1081.4,41.144c-0.8,0 -1.49,-0.1653 -2.08,-0.496c-0.57,-0.3413 -1.02,-0.816 -1.34,-1.424c-0.32,-0.6187 -0.48,-1.344 -0.48,-2.176c0,-1.2373 0.35,-2.2133 1.06,-2.928c0.7,-0.7147 1.65,-1.072 2.84,-1.072c0.49,0 0.98,0.0853 1.46,0.256c0.48,0.1707 0.87,0.4053 1.18,0.704l-0.51,1.136c-0.3,-0.2773 -0.63,-0.48 -0.99,-0.608c-0.35,-0.1387 -0.69,-0.208 -1.01,-0.208c-0.76,0 -1.34,0.24 -1.76,0.72c-0.4,0.4693 -0.61,1.1413 -0.61,2.016c0,0.8747 0.21,1.5627 0.61,2.064c0.42,0.4907 1,0.736 1.76,0.736c0.32,0 0.66,-0.064 1.01,-0.192c0.36,-0.1387 0.69,-0.3467 0.99,-0.624l0.51,1.152c-0.31,0.288 -0.71,0.5173 -1.2,0.688c-0.48,0.1707 -0.96,0.256 -1.44,0.256zM1086.61,43.88l1.39,-3.088l-3.26,-7.6h1.73l2.4,5.936l2.43,-5.936h1.66l-4.65,10.688zM1093.67,41.208l-0.55,-1.28c0.47,-0.192 0.84,-0.4533 1.11,-0.784c0.26,-0.3413 0.46,-0.8107 0.57,-1.408c0.12,-0.608 0.18,-1.392 0.18,-2.352v-2.192h5.95v7.808h-1.61v-6.512h-2.84v0.944c0,1.1733 -0.09,2.1493 -0.28,2.928c-0.2,0.7787 -0.5,1.3973 -0.92,1.856c-0.4,0.448 -0.94,0.7787 -1.61,0.992zM1103.56,41v-7.808h1.61v2.704h2.23c1,0 1.76,0.2187 2.28,0.656c0.53,0.4267 0.79,1.0507 0.79,1.872c0,0.7893 -0.27,1.4187 -0.82,1.888c-0.54,0.4587 -1.29,0.688 -2.25,0.688zM1105.17,39.896h2.02c0.55,0 0.98,-0.1173 1.29,-0.352c0.31,-0.2453 0.47,-0.6187 0.47,-1.12c0,-0.4907 -0.16,-0.848 -0.47,-1.072c-0.31,-0.2347 -0.74,-0.352 -1.29,-0.352h-2.02zM1113.66,41v-6.512h-2.75v-1.296h7.13v1.296h-2.76v6.512zM1122.05,41.144c-0.55,0 -1.03,-0.1067 -1.46,-0.32c-0.43,-0.2133 -0.77,-0.5013 -1.02,-0.864c-0.25,-0.3627 -0.37,-0.7733 -0.37,-1.232c0,-0.576 0.14,-1.0293 0.43,-1.36c0.3,-0.3307 0.78,-0.5707 1.46,-0.72c0.68,-0.1493 1.6,-0.224 2.75,-0.224h0.54v-0.416c0,-0.608 -0.13,-1.0453 -0.38,-1.312c-0.26,-0.2667 -0.68,-0.4 -1.27,-0.4c-0.44,0 -0.89,0.0693 -1.34,0.208c-0.45,0.128 -0.91,0.336 -1.38,0.624l-0.49,-1.136c0.4,-0.288 0.91,-0.5173 1.52,-0.688c0.61,-0.1707 1.19,-0.256 1.74,-0.256c1.07,0 1.86,0.256 2.37,0.768c0.51,0.5013 0.77,1.2907 0.77,2.368v4.816h-1.52v-1.296c-0.19,0.448 -0.49,0.8 -0.9,1.056c-0.4,0.256 -0.89,0.384 -1.45,0.384zM1122.37,39.992c0.57,0 1.05,-0.2027 1.44,-0.608c0.38,-0.4053 0.57,-0.9173 0.57,-1.536v-0.432h-0.53c-0.78,0 -1.39,0.0373 -1.84,0.112c-0.43,0.0747 -0.75,0.2027 -0.94,0.384c-0.18,0.1707 -0.27,0.4107 -0.27,0.72c0,0.4053 0.14,0.736 0.41,0.992c0.28,0.2453 0.66,0.368 1.16,0.368zM1135.26,43.08v-2.08h-6.75v-7.808h1.61v6.528h3.65v-6.528h1.62v6.528h1.24v3.36zM1138.45,41v-7.808h1.47v5.664l4.22,-5.664h1.36v7.808h-1.47v-5.648l-4.22,5.648zM1147.47,41l1.18,-2.048c0.31,-0.5547 0.72,-0.9227 1.22,-1.104c-0.66,-0.1067 -1.17,-0.352 -1.52,-0.736c-0.35,-0.3947 -0.53,-0.9067 -0.53,-1.536c0,-0.7253 0.25,-1.3013 0.74,-1.728c0.49,-0.4373 1.22,-0.656 2.19,-0.656h3.73v7.808h-1.51v-2.848h-1.01c-0.37,0 -0.69,0.1013 -0.96,0.304c-0.26,0.192 -0.48,0.432 -0.65,0.72l-1.04,1.824zM1151.08,37.048h1.89v-2.752h-1.89c-0.58,0 -1.01,0.1227 -1.29,0.368c-0.28,0.2347 -0.42,0.5653 -0.42,0.992c0,0.4373 0.14,0.7787 0.42,1.024c0.28,0.2453 0.71,0.368 1.29,0.368z" fill="#FDFDFD"/></g></g></g></svg>