<svg viewBox="0 0 417.889 58.64" x="0" y="0" fill="none" xmlns="http://www.w3.org/2000/svg"><g id="Frame 11" data-node-id="1:77" xmlns="http://www.w3.org/2000/svg"><path id="по версии отдыхающих" data-node-id="1:78" d="M77.289,12.38v-11.66h10.176v11.66h-1.944v-10.1h-6.288v10.1zM96.177,12.6c-1.136,0 -2.12,-0.25 -2.952,-0.75c-0.832,-0.49 -1.48,-1.19 -1.944,-2.09c-0.448,-0.91 -0.672,-1.98 -0.672,-3.21c0,-1.23 0.224,-2.3 0.672,-3.19c0.464,-0.92 1.112,-1.62 1.944,-2.12c0.832,-0.49 1.816,-0.74 2.952,-0.74c1.12,0 2.096,0.25 2.928,0.74c0.848,0.5 1.496,1.2 1.944,2.12c0.464,0.89 0.696,1.96 0.696,3.19c0,1.23 -0.232,2.3 -0.696,3.21c-0.448,0.9 -1.096,1.6 -1.944,2.09c-0.832,0.5 -1.808,0.75 -2.928,0.75zM96.177,11.04c1.088,0 1.96,-0.39 2.616,-1.16c0.656,-0.78 0.984,-1.89 0.984,-3.33c0,-1.46 -0.328,-2.57 -0.984,-3.34c-0.656,-0.77 -1.528,-1.15 -2.616,-1.15c-1.104,0 -1.984,0.38 -2.64,1.15c-0.64,0.77 -0.96,1.88 -0.96,3.34c0,1.44 0.32,2.55 0.96,3.33c0.656,0.77 1.536,1.16 2.64,1.16zM111.062,12.38v-11.66h5.688c1.376,0 2.392,0.26 3.048,0.79c0.656,0.51 0.984,1.27 0.984,2.28c0,0.61 -0.176,1.13 -0.528,1.58c-0.336,0.45 -0.8,0.78 -1.392,0.99c0.72,0.17 1.28,0.51 1.68,1c0.416,0.5 0.624,1.1 0.624,1.8c0,1 -0.368,1.78 -1.104,2.36c-0.736,0.57 -1.776,0.86 -3.12,0.86zM112.91,5.78h3.744c0.736,0 1.304,-0.16 1.704,-0.48c0.4,-0.34 0.6,-0.81 0.6,-1.42c0,-0.59 -0.2,-1.04 -0.6,-1.36c-0.4,-0.32 -0.968,-0.48 -1.704,-0.48h-3.744zM112.91,11.06h3.96c0.8,0 1.408,-0.17 1.824,-0.5c0.416,-0.34 0.624,-0.84 0.624,-1.49c0,-0.64 -0.208,-1.13 -0.624,-1.47c-0.416,-0.33 -1.024,-0.5 -1.824,-0.5h-3.96zM129.467,12.6c-1.84,0 -3.296,-0.54 -4.368,-1.61c-1.072,-1.09 -1.608,-2.56 -1.608,-4.42c0,-1.2 0.24,-2.25 0.72,-3.17c0.48,-0.92 1.136,-1.64 1.968,-2.13c0.848,-0.51 1.824,-0.77 2.928,-0.77c1.584,0 2.824,0.51 3.72,1.54c0.896,1 1.344,2.4 1.344,4.17v0.75h-8.784c0.064,1.32 0.448,2.34 1.152,3.04c0.704,0.69 1.68,1.04 2.928,1.04c0.704,0 1.376,-0.11 2.016,-0.32c0.64,-0.22 1.248,-0.58 1.824,-1.08l0.672,1.37c-0.528,0.5 -1.2,0.89 -2.016,1.18c-0.816,0.27 -1.648,0.41 -2.496,0.41zM129.155,1.94c-1.104,0 -1.976,0.34 -2.616,1.03c-0.64,0.69 -1.016,1.59 -1.128,2.71h7.08c-0.048,-1.18 -0.36,-2.1 -0.936,-2.76c-0.56,-0.65 -1.36,-0.98 -2.4,-0.98zM137.219,16.7v-15.98h1.896v2.08c0.352,-0.72 0.872,-1.28 1.56,-1.68c0.704,-0.41 1.52,-0.62 2.448,-0.62c1.04,0 1.944,0.25 2.712,0.74c0.784,0.48 1.384,1.18 1.8,2.09c0.432,0.9 0.648,1.97 0.648,3.22c0,1.23 -0.216,2.3 -0.648,3.21c-0.416,0.9 -1.016,1.6 -1.8,2.09c-0.768,0.5 -1.672,0.75 -2.712,0.75c-0.896,0 -1.696,-0.2 -2.4,-0.6c-0.704,-0.4 -1.224,-0.96 -1.56,-1.66v6.36zM142.715,11.04c1.088,0 1.96,-0.39 2.616,-1.16c0.656,-0.78 0.984,-1.89 0.984,-3.33c0,-1.46 -0.328,-2.57 -0.984,-3.34c-0.656,-0.77 -1.528,-1.15 -2.616,-1.15c-1.088,0 -1.96,0.38 -2.616,1.15c-0.656,0.77 -0.984,1.88 -0.984,3.34c0,1.44 0.328,2.55 0.984,3.33c0.656,0.77 1.528,1.16 2.616,1.16zM156.39,12.6c-1.168,0 -2.176,-0.25 -3.024,-0.75c-0.848,-0.51 -1.504,-1.22 -1.968,-2.13c-0.448,-0.93 -0.672,-2.01 -0.672,-3.24c0,-1.86 0.504,-3.32 1.512,-4.37c1.008,-1.07 2.392,-1.61 4.152,-1.61c0.72,0 1.432,0.13 2.136,0.38c0.704,0.26 1.288,0.62 1.752,1.08l-0.672,1.42c-0.464,-0.45 -0.976,-0.78 -1.536,-0.98c-0.544,-0.21 -1.064,-0.32 -1.56,-0.32c-1.216,0 -2.152,0.39 -2.808,1.16c-0.656,0.75 -0.984,1.84 -0.984,3.26c0,1.39 0.328,2.5 0.984,3.31c0.656,0.8 1.592,1.2 2.808,1.2c0.496,0 1.016,-0.1 1.56,-0.31c0.56,-0.21 1.072,-0.54 1.536,-1.01l0.672,1.42c-0.464,0.46 -1.056,0.83 -1.776,1.1c-0.704,0.26 -1.408,0.39 -2.112,0.39zM162.766,12.38v-11.66h1.776v9.02l6.744,-9.02h1.656v11.66h-1.776v-9.02l-6.744,9.02zM176.781,12.38v-11.66h1.776v9.02l6.744,-9.02h1.656v11.66h-1.776v-9.02l-6.744,9.02zM201.833,12.6c-1.136,0 -2.12,-0.25 -2.952,-0.75c-0.832,-0.49 -1.48,-1.19 -1.944,-2.09c-0.448,-0.91 -0.672,-1.98 -0.672,-3.21c0,-1.23 0.224,-2.3 0.672,-3.19c0.464,-0.92 1.112,-1.62 1.944,-2.12c0.832,-0.49 1.816,-0.74 2.952,-0.74c1.12,0 2.096,0.25 2.928,0.74c0.848,0.5 1.496,1.2 1.944,2.12c0.464,0.89 0.696,1.96 0.696,3.19c0,1.23 -0.232,2.3 -0.696,3.21c-0.448,0.9 -1.096,1.6 -1.944,2.09c-0.832,0.5 -1.808,0.75 -2.928,0.75zM201.833,11.04c1.088,0 1.96,-0.39 2.616,-1.16c0.656,-0.78 0.984,-1.89 0.984,-3.33c0,-1.46 -0.328,-2.57 -0.984,-3.34c-0.656,-0.77 -1.528,-1.15 -2.616,-1.15c-1.104,0 -1.984,0.38 -2.64,1.15c-0.64,0.77 -0.96,1.88 -0.96,3.34c0,1.44 0.32,2.55 0.96,3.33c0.656,0.77 1.536,1.16 2.64,1.16zM212.979,12.38v-10.1h-4.224v-1.56h10.416v1.56h-4.248v10.1zM219.876,15.5v-4.68h1.224c0.56,-0.82 0.96,-1.75 1.2,-2.81c0.24,-1.07 0.36,-2.36 0.36,-3.86v-3.43h8.256v10.1h1.848v4.68h-1.68v-3.12h-9.552v3.12zM222.972,10.82h6.096v-8.57h-4.68v2.23c0,1.2 -0.12,2.36 -0.36,3.48c-0.24,1.12 -0.592,2.08 -1.056,2.86zM235.352,12.38v-11.66h1.944v4.15h3.528c1.488,0 2.616,0.33 3.384,0.98c0.768,0.64 1.152,1.55 1.152,2.74c0,1.17 -0.4,2.09 -1.2,2.78c-0.784,0.67 -1.896,1.01 -3.336,1.01zM247.088,12.38v-11.66h1.941v11.66zM237.296,10.99h3.336c0.896,0 1.592,-0.19 2.088,-0.58c0.512,-0.38 0.768,-0.98 0.768,-1.8c0,-0.8 -0.248,-1.39 -0.744,-1.77c-0.496,-0.39 -1.2,-0.58 -2.112,-0.58h-3.336zM251.419,12.38l4.85,-6.02l-4.56,-5.64h2.3l3.39,4.29l3.4,-4.29h2.28l-4.56,5.64l4.85,6.02h-2.3l-3.7,-4.63l-3.65,4.63zM269.309,12.6c-0.8,0 -1.52,-0.16 -2.16,-0.46c-0.63,-0.32 -1.12,-0.75 -1.49,-1.3c-0.37,-0.54 -0.55,-1.15 -0.55,-1.82c0,-0.85 0.21,-1.52 0.64,-2.02c0.45,-0.49 1.18,-0.84 2.19,-1.05c1.02,-0.23 2.41,-0.34 4.17,-0.34h0.77v-0.74c0,-0.99 -0.21,-1.71 -0.62,-2.14c-0.4,-0.45 -1.05,-0.67 -1.95,-0.67c-0.7,0 -1.38,0.1 -2.04,0.31c-0.65,0.19 -1.32,0.51 -2.01,0.96l-0.67,-1.41c0.6,-0.44 1.34,-0.78 2.2,-1.04c0.88,-0.25 1.72,-0.38 2.52,-0.38c1.51,0 2.62,0.37 3.34,1.1c0.74,0.74 1.1,1.88 1.1,3.44v7.34h-1.82v-2.02c-0.3,0.69 -0.78,1.24 -1.42,1.64c-0.62,0.4 -1.36,0.6 -2.2,0.6zM269.619,11.13c0.96,0 1.74,-0.33 2.35,-0.98c0.61,-0.67 0.91,-1.52 0.91,-2.55v-0.72h-0.74c-1.3,0 -2.32,0.07 -3.07,0.2c-0.74,0.11 -1.26,0.32 -1.56,0.62c-0.29,0.29 -0.44,0.69 -0.44,1.2c0,0.66 0.23,1.19 0.68,1.61c0.46,0.41 1.08,0.62 1.87,0.62zM288.289,12.6c-1.6,0 -2.89,-0.49 -3.86,-1.47c-0.98,-0.99 -1.53,-2.32 -1.66,-3.98h-2.33v5.23h-1.89v-11.66h1.89v4.84h2.36c0.19,-1.56 0.76,-2.8 1.72,-3.69c0.98,-0.91 2.24,-1.37 3.77,-1.37c1.14,0 2.12,0.25 2.95,0.74c0.84,0.5 1.48,1.2 1.92,2.12c0.47,0.89 0.7,1.96 0.7,3.19c0,1.23 -0.23,2.3 -0.7,3.21c-0.44,0.9 -1.08,1.6 -1.92,2.09c-0.83,0.5 -1.81,0.75 -2.95,0.75zM288.289,11.04c1.11,0 1.98,-0.39 2.62,-1.16c0.65,-0.78 0.98,-1.89 0.98,-3.33c0,-1.46 -0.33,-2.57 -0.98,-3.34c-0.64,-0.77 -1.51,-1.15 -2.62,-1.15c-1.09,0 -1.96,0.38 -2.61,1.15c-0.66,0.77 -0.99,1.88 -0.99,3.34c0,1.44 0.33,2.55 0.99,3.33c0.65,0.77 1.52,1.16 2.61,1.16zM312.499,15.5v-3.12h-15.51v-11.66h1.88v10.1h4.87v-10.1h1.85v10.1h4.87v-10.1h1.87v10.1h1.85v4.68zM316.769,12.38v-11.66h1.78v9.02l6.74,-9.02h1.66v11.66h-1.78v-9.02l-6.74,9.02zM329.329,12.38l4.84,-6.02l-4.56,-5.64h2.31l3.38,4.29l3.41,-4.29h2.28l-4.56,5.64l4.85,6.02h-2.31l-3.69,-4.63l-3.65,4.63z" fill="#F2BE22"/><path id="Популярные направления" data-node-id="1:79" d="M0.5,52.38v-22.56h20.192v22.56h-4.96v-18.46h-10.272v18.46zM32.642,52.73c-1.685,0 -3.157,-0.33 -4.416,-0.99c-1.237,-0.68 -2.197,-1.63 -2.88,-2.85c-0.682,-1.24 -1.024,-2.7 -1.024,-4.38c0,-1.67 0.342,-3.11 1.024,-4.32c0.683,-1.24 1.643,-2.19 2.88,-2.85c1.259,-0.66 2.731,-0.99 4.416,-0.99c1.686,0 3.147,0.33 4.384,0.99c1.259,0.66 2.23,1.61 2.912,2.85c0.704,1.21 1.056,2.65 1.056,4.32c0,1.68 -0.352,3.14 -1.056,4.38c-0.682,1.22 -1.653,2.17 -2.912,2.85c-1.237,0.66 -2.698,0.99 -4.384,0.99zM32.642,49.12c1.024,0 1.856,-0.38 2.496,-1.12c0.662,-0.75 0.992,-1.91 0.992,-3.49c0,-1.56 -0.33,-2.7 -0.992,-3.43c-0.64,-0.74 -1.472,-1.12 -2.496,-1.12c-1.024,0 -1.856,0.38 -2.496,1.12c-0.64,0.73 -0.96,1.87 -0.96,3.43c0,1.58 0.32,2.74 0.96,3.49c0.64,0.74 1.472,1.12 2.496,1.12zM44.403,52.38v-15.71h15.552v15.71h-4.832v-11.97h-5.888v11.97zM65.369,58.14l3.008,-6.62l-6.464,-14.85h5.088l3.936,9.98l4.064,-9.98h4.8l-9.504,21.47zM80.587,52.86l-1.44,-3.81c1.301,-0.36 2.218,-1.06 2.752,-2.11c0.533,-1.07 0.8,-2.71 0.8,-4.93v-5.34h13.344v15.71h-4.832v-11.97h-4.096v1.76c0,3.22 -0.523,5.71 -1.568,7.46c-1.046,1.75 -2.699,2.82 -4.96,3.23zM98.87,52.38l2.304,-3.94c0.597,-1.08 1.387,-1.81 2.368,-2.17c-2.603,-0.51 -3.904,-2.05 -3.904,-4.61c0,-1.56 0.533,-2.77 1.6,-3.65c1.067,-0.89 2.624,-1.34 4.672,-1.34h8.512v15.71h-4.448v-5.09h-1.312c-0.512,0 -0.971,0.15 -1.376,0.45c-0.384,0.28 -0.704,0.64 -0.96,1.09l-2.016,3.55zM106.934,44.19h3.04v-4.42h-3.04c-0.917,0 -1.611,0.19 -2.08,0.58c-0.448,0.38 -0.672,0.92 -0.672,1.6c0,0.7 0.224,1.26 0.672,1.66c0.469,0.39 1.163,0.58 2.08,0.58zM118.653,58.14v-21.47h4.736v2.33c0.427,-0.81 1.077,-1.45 1.952,-1.92c0.896,-0.49 1.899,-0.73 3.008,-0.73c1.365,0 2.56,0.33 3.584,0.99c1.045,0.66 1.856,1.6 2.432,2.82c0.576,1.21 0.864,2.66 0.864,4.35c0,1.68 -0.288,3.14 -0.864,4.38c-0.576,1.22 -1.387,2.17 -2.432,2.85c-1.024,0.66 -2.219,0.99 -3.584,0.99c-1.045,0 -2.005,-0.22 -2.88,-0.67c-0.853,-0.45 -1.515,-1.05 -1.984,-1.79v7.87zM126.909,49.12c1.024,0 1.856,-0.38 2.496,-1.12c0.64,-0.75 0.96,-1.91 0.96,-3.49c0,-1.56 -0.32,-2.7 -0.96,-3.43c-0.64,-0.74 -1.472,-1.12 -2.496,-1.12c-1.045,0 -1.888,0.38 -2.528,1.12c-0.64,0.73 -0.96,1.87 -0.96,3.43c0,1.58 0.32,2.74 0.96,3.49c0.64,0.74 1.483,1.12 2.528,1.12zM138.684,52.38v-15.71h4.832v5.82h5.984v-5.82h4.832v15.71h-4.832v-6.14h-5.984v6.14zM158.528,52.38v-15.71h4.832v4.99h3.776c4.267,0 6.4,1.75 6.4,5.25c0,1.62 -0.587,2.94 -1.76,3.97c-1.152,1 -2.699,1.5 -4.64,1.5zM175.168,52.38v-15.71h4.832v15.71zM163.36,49.28h2.944c0.875,0 1.557,-0.2 2.048,-0.58c0.512,-0.38 0.768,-0.96 0.768,-1.73c0,-0.77 -0.245,-1.33 -0.736,-1.69c-0.491,-0.37 -1.184,-0.55 -2.08,-0.55h-2.944zM192.375,52.73c-1.856,0 -3.456,-0.33 -4.8,-0.99c-1.322,-0.68 -2.346,-1.63 -3.072,-2.85c-0.704,-1.24 -1.056,-2.69 -1.056,-4.35c0,-1.62 0.342,-3.04 1.024,-4.26c0.704,-1.23 1.654,-2.19 2.848,-2.88c1.216,-0.7 2.614,-1.05 4.192,-1.05c2.283,0 4.096,0.72 5.44,2.17c1.344,1.43 2.016,3.37 2.016,5.83v1.21h-10.912c0.171,1.24 0.619,2.15 1.344,2.72c0.747,0.56 1.771,0.84 3.072,0.84c0.854,0 1.718,-0.13 2.592,-0.39c0.875,-0.25 1.664,-0.65 2.368,-1.18l1.28,3.23c-0.789,0.6 -1.76,1.08 -2.912,1.44c-1.13,0.34 -2.272,0.51 -3.424,0.51zM191.703,39.55c-1.024,0 -1.856,0.31 -2.496,0.93c-0.618,0.61 -1.002,1.48 -1.152,2.59h6.912c-0.128,-2.35 -1.216,-3.52 -3.264,-3.52zM211.184,52.38v-15.71h4.832v5.82h5.984v-5.82h4.832v15.71h-4.832v-6.14h-5.984v6.14zM236.34,52.73c-1.173,0 -2.208,-0.22 -3.104,-0.67c-0.896,-0.45 -1.611,-1.06 -2.144,-1.82c-0.512,-0.77 -0.768,-1.64 -0.768,-2.6c0,-1.13 0.299,-2.03 0.896,-2.72c0.597,-0.68 1.568,-1.16 2.912,-1.44c1.344,-0.29 3.125,-0.44 5.344,-0.44h1.152v-0.55c0,-0.94 -0.213,-1.6 -0.64,-1.98c-0.427,-0.41 -1.152,-0.61 -2.176,-0.61c-0.853,0 -1.76,0.14 -2.72,0.42c-0.939,0.25 -1.877,0.65 -2.816,1.18l-1.312,-3.23c0.555,-0.36 1.227,-0.7 2.016,-0.99c0.811,-0.3 1.653,-0.53 2.528,-0.68c0.875,-0.17 1.707,-0.25 2.496,-0.25c2.432,0 4.245,0.55 5.44,1.66c1.195,1.09 1.792,2.79 1.792,5.09v9.28h-4.512v-2.37c-0.32,0.83 -0.864,1.5 -1.632,1.99c-0.747,0.49 -1.664,0.73 -2.752,0.73zM237.428,49.5c0.896,0 1.653,-0.31 2.272,-0.93c0.619,-0.62 0.928,-1.42 0.928,-2.4v-0.64h-1.12c-1.643,0 -2.805,0.15 -3.488,0.45c-0.683,0.28 -1.024,0.77 -1.024,1.47c0,0.6 0.203,1.09 0.608,1.47c0.427,0.39 1.035,0.58 1.824,0.58zM249.369,52.38v-15.71h15.55v15.71h-4.83v-11.97h-5.89v11.97zM269.119,58.14v-21.47h4.74v2.33c0.43,-0.81 1.08,-1.45 1.95,-1.92c0.9,-0.49 1.9,-0.73 3.01,-0.73c1.36,0 2.56,0.33 3.58,0.99c1.05,0.66 1.86,1.6 2.43,2.82c0.58,1.21 0.87,2.66 0.87,4.35c0,1.68 -0.29,3.14 -0.87,4.38c-0.57,1.22 -1.38,2.17 -2.43,2.85c-1.02,0.66 -2.22,0.99 -3.58,0.99c-1.05,0 -2.01,-0.22 -2.88,-0.67c-0.85,-0.45 -1.52,-1.05 -1.99,-1.79v7.87zM277.379,49.12c1.02,0 1.85,-0.38 2.49,-1.12c0.64,-0.75 0.96,-1.91 0.96,-3.49c0,-1.56 -0.32,-2.7 -0.96,-3.43c-0.64,-0.74 -1.47,-1.12 -2.49,-1.12c-1.05,0 -1.89,0.38 -2.53,1.12c-0.64,0.73 -0.96,1.87 -0.96,3.43c0,1.58 0.32,2.74 0.96,3.49c0.64,0.74 1.48,1.12 2.53,1.12zM294.469,52.73c-1.18,0 -2.21,-0.22 -3.11,-0.67c-0.89,-0.45 -1.61,-1.06 -2.14,-1.82c-0.51,-0.77 -0.77,-1.64 -0.77,-2.6c0,-1.13 0.3,-2.03 0.9,-2.72c0.59,-0.68 1.56,-1.16 2.91,-1.44c1.34,-0.29 3.12,-0.44 5.34,-0.44h1.15v-0.55c0,-0.94 -0.21,-1.6 -0.64,-1.98c-0.42,-0.41 -1.15,-0.61 -2.17,-0.61c-0.86,0 -1.76,0.14 -2.72,0.42c-0.94,0.25 -1.88,0.65 -2.82,1.18l-1.31,-3.23c0.55,-0.36 1.23,-0.7 2.02,-0.99c0.81,-0.3 1.65,-0.53 2.52,-0.68c0.88,-0.17 1.71,-0.25 2.5,-0.25c2.43,0 4.25,0.55 5.44,1.66c1.19,1.09 1.79,2.79 1.79,5.09v9.28h-4.51v-2.37c-0.32,0.83 -0.86,1.5 -1.63,1.99c-0.75,0.49 -1.67,0.73 -2.75,0.73zM295.549,49.5c0.9,0 1.66,-0.31 2.28,-0.93c0.61,-0.62 0.92,-1.42 0.92,-2.4v-0.64h-1.12c-1.64,0 -2.8,0.15 -3.48,0.45c-0.69,0.28 -1.03,0.77 -1.03,1.47c0,0.6 0.2,1.09 0.61,1.47c0.43,0.39 1.03,0.58 1.82,0.58zM307.499,52.38v-15.71h8.93c2.13,0 3.64,0.37 4.54,1.12c0.9,0.72 1.34,1.73 1.34,3.01c0,0.79 -0.22,1.48 -0.67,2.08c-0.43,0.59 -1.02,1.03 -1.79,1.31c1.04,0.25 1.81,0.71 2.3,1.37c0.49,0.67 0.74,1.47 0.74,2.4c0,1.35 -0.53,2.43 -1.6,3.24c-1.05,0.79 -2.58,1.18 -4.61,1.18zM311.949,42.94h3.96c0.64,0 1.14,-0.15 1.51,-0.45c0.36,-0.3 0.54,-0.72 0.54,-1.28c0,-0.55 -0.18,-0.97 -0.54,-1.25c-0.37,-0.27 -0.87,-0.41 -1.51,-0.41h-3.96zM311.949,49.5h4.25c1.56,0 2.34,-0.62 2.34,-1.86c0,-1.23 -0.78,-1.85 -2.34,-1.85h-4.25zM325.929,52.86l-1.44,-3.81c1.3,-0.36 2.22,-1.06 2.75,-2.11c0.54,-1.07 0.8,-2.71 0.8,-4.93v-5.34h13.35v15.71h-4.83v-11.97h-4.1v1.76c0,3.22 -0.52,5.71 -1.57,7.46c-1.04,1.75 -2.7,2.82 -4.96,3.23zM353.779,52.73c-1.85,0 -3.45,-0.33 -4.8,-0.99c-1.32,-0.68 -2.34,-1.63 -3.07,-2.85c-0.7,-1.24 -1.06,-2.69 -1.06,-4.35c0,-1.62 0.35,-3.04 1.03,-4.26c0.7,-1.23 1.65,-2.19 2.85,-2.88c1.21,-0.7 2.61,-1.05 4.19,-1.05c2.28,0 4.09,0.72 5.44,2.17c1.34,1.43 2.01,3.37 2.01,5.83v1.21h-10.91c0.17,1.24 0.62,2.15 1.35,2.72c0.74,0.56 1.77,0.84 3.07,0.84c0.85,0 1.72,-0.13 2.59,-0.39c0.88,-0.25 1.66,-0.65 2.37,-1.18l1.28,3.23c-0.79,0.6 -1.76,1.08 -2.91,1.44c-1.13,0.34 -2.28,0.51 -3.43,0.51zM353.109,39.55c-1.02,0 -1.86,0.31 -2.5,0.93c-0.61,0.61 -1,1.48 -1.15,2.59h6.91c-0.12,-2.35 -1.21,-3.52 -3.26,-3.52zM363.689,52.38v-15.71h4.83v5.82h5.98v-5.82h4.83v15.71h-4.83v-6.14h-5.98v6.14zM383.529,52.38v-15.71h4.35v9.5l7.17,-9.5h3.97v15.71h-4.36v-9.5l-7.16,9.5zM401.839,52.38l2.3,-3.94c0.6,-1.08 1.39,-1.81 2.37,-2.17c-2.6,-0.51 -3.9,-2.05 -3.9,-4.61c0,-1.56 0.53,-2.77 1.6,-3.65c1.06,-0.89 2.62,-1.34 4.67,-1.34h8.51v15.71h-4.45v-5.09h-1.31c-0.51,0 -0.97,0.15 -1.37,0.45c-0.39,0.28 -0.71,0.64 -0.96,1.09l-2.02,3.55zM409.899,44.19h3.04v-4.42h-3.04c-0.91,0 -1.61,0.19 -2.08,0.58c-0.44,0.38 -0.67,0.92 -0.67,1.6c0,0.7 0.23,1.26 0.67,1.66c0.47,0.39 1.17,0.58 2.08,0.58z" fill="#18121E"/></g></svg>