<svg viewBox="0 0 335.3834 58.64" x="0" y="0" fill="none" xmlns="http://www.w3.org/2000/svg"><g id="Frame 12" data-node-id="1:81" xmlns="http://www.w3.org/2000/svg"><path id="делимся впечатлениями" data-node-id="1:82" d="M28.813,15.5v-4.68h1.224c0.56,-0.82 0.96,-1.75 1.2,-2.81c0.24,-1.07 0.36,-2.36 0.36,-3.86v-3.43h8.256v10.1h1.848v4.68h-1.68v-3.12h-9.552v3.12zM31.909,10.82h6.096v-8.57h-4.68v2.23c0,1.2 -0.12,2.36 -0.36,3.48c-0.24,1.12 -0.592,2.08 -1.056,2.86zM49.568,12.6c-1.84,0 -3.296,-0.54 -4.368,-1.61c-1.072,-1.09 -1.608,-2.56 -1.608,-4.42c0,-1.2 0.24,-2.25 0.72,-3.17c0.48,-0.92 1.136,-1.64 1.968,-2.13c0.848,-0.51 1.824,-0.77 2.928,-0.77c1.584,0 2.824,0.51 3.72,1.54c0.896,1 1.344,2.4 1.344,4.17v0.75h-8.784c0.064,1.32 0.448,2.34 1.152,3.04c0.704,0.69 1.68,1.04 2.928,1.04c0.704,0 1.376,-0.11 2.016,-0.32c0.64,-0.22 1.248,-0.58 1.824,-1.08l0.672,1.37c-0.528,0.5 -1.2,0.89 -2.016,1.18c-0.816,0.27 -1.648,0.41 -2.496,0.41zM49.256,1.94c-1.104,0 -1.976,0.34 -2.616,1.03c-0.64,0.69 -1.016,1.59 -1.128,2.71h7.08c-0.048,-1.18 -0.36,-2.1 -0.936,-2.76c-0.56,-0.65 -1.36,-0.98 -2.4,-0.98zM56.648,12.64l-0.72,-1.53c0.72,-0.31 1.288,-0.73 1.704,-1.27c0.416,-0.56 0.704,-1.33 0.864,-2.31c0.176,-0.97 0.264,-2.25 0.264,-3.84v-2.97h8.472v11.66h-1.944v-10.1h-4.704v1.48c0,1.83 -0.136,3.33 -0.408,4.52c-0.256,1.18 -0.672,2.12 -1.248,2.8c-0.576,0.69 -1.336,1.21 -2.28,1.56zM71.077,12.38v-11.66h1.776v9.02l6.744,-9.02h1.656v11.66h-1.776v-9.02l-6.744,9.02zM85.093,12.38v-11.66h1.608l4.392,7.8l4.392,-7.8h1.584v11.66h-1.728v-8.5l-3.768,6.63h-0.984l-3.768,-6.63v8.5zM105.881,12.6c-1.168,0 -2.176,-0.25 -3.024,-0.75c-0.848,-0.51 -1.504,-1.22 -1.968,-2.13c-0.448,-0.93 -0.672,-2.01 -0.672,-3.24c0,-1.86 0.504,-3.32 1.512,-4.37c1.008,-1.07 2.392,-1.61 4.152,-1.61c0.72,0 1.432,0.13 2.136,0.38c0.704,0.26 1.288,0.62 1.752,1.08l-0.672,1.42c-0.464,-0.45 -0.976,-0.78 -1.536,-0.98c-0.544,-0.21 -1.064,-0.32 -1.56,-0.32c-1.216,0 -2.152,0.39 -2.808,1.16c-0.656,0.75 -0.984,1.84 -0.984,3.26c0,1.39 0.328,2.5 0.984,3.31c0.656,0.8 1.592,1.2 2.808,1.2c0.496,0 1.016,-0.1 1.56,-0.31c0.56,-0.21 1.072,-0.54 1.536,-1.01l0.672,1.42c-0.464,0.46 -1.056,0.83 -1.776,1.1c-0.704,0.26 -1.408,0.39 -2.112,0.39zM111.297,12.38l1.8,-3.12c0.48,-0.85 1.096,-1.4 1.848,-1.66c-0.992,-0.14 -1.76,-0.5 -2.304,-1.08c-0.544,-0.59 -0.816,-1.36 -0.816,-2.3c0,-1.07 0.352,-1.92 1.056,-2.54c0.72,-0.64 1.792,-0.96 3.216,-0.96h5.256v11.66h-1.848v-4.44h-1.704c-0.64,0 -1.184,0.16 -1.632,0.48c-0.432,0.32 -0.784,0.71 -1.056,1.18l-1.584,2.78zM116.457,6.52h3.048v-4.44h-3.048c-0.944,0 -1.64,0.2 -2.088,0.6c-0.448,0.39 -0.672,0.92 -0.672,1.61c0,0.71 0.224,1.26 0.672,1.66c0.448,0.38 1.144,0.57 2.088,0.57zM131.358,12.38v-11.66h5.688c1.376,0 2.392,0.26 3.048,0.79c0.656,0.51 0.984,1.27 0.984,2.28c0,0.61 -0.176,1.13 -0.528,1.58c-0.336,0.45 -0.8,0.78 -1.392,0.99c0.72,0.17 1.28,0.51 1.68,1c0.416,0.5 0.624,1.1 0.624,1.8c0,1 -0.368,1.78 -1.104,2.36c-0.736,0.57 -1.776,0.86 -3.12,0.86zM133.206,5.78h3.744c0.736,0 1.304,-0.16 1.704,-0.48c0.4,-0.34 0.6,-0.81 0.6,-1.42c0,-0.59 -0.2,-1.04 -0.6,-1.36c-0.4,-0.32 -0.968,-0.48 -1.704,-0.48h-3.744zM133.206,11.06h3.96c0.8,0 1.408,-0.17 1.824,-0.5c0.416,-0.34 0.624,-0.84 0.624,-1.49c0,-0.64 -0.208,-1.13 -0.624,-1.47c-0.416,-0.33 -1.024,-0.5 -1.824,-0.5h-3.96zM144.483,12.38v-11.66h10.176v11.66h-1.944v-10.1h-6.288v10.1zM163.779,12.6c-1.84,0 -3.296,-0.54 -4.368,-1.61c-1.072,-1.09 -1.608,-2.56 -1.608,-4.42c0,-1.2 0.24,-2.25 0.72,-3.17c0.48,-0.92 1.136,-1.64 1.968,-2.13c0.848,-0.51 1.824,-0.77 2.928,-0.77c1.584,0 2.824,0.51 3.72,1.54c0.896,1 1.344,2.4 1.344,4.17v0.75h-8.784c0.064,1.32 0.448,2.34 1.152,3.04c0.704,0.69 1.68,1.04 2.928,1.04c0.704,0 1.376,-0.11 2.016,-0.32c0.64,-0.22 1.248,-0.58 1.824,-1.08l0.672,1.37c-0.528,0.5 -1.2,0.89 -2.016,1.18c-0.816,0.27 -1.648,0.41 -2.496,0.41zM163.467,1.94c-1.104,0 -1.976,0.34 -2.616,1.03c-0.64,0.69 -1.016,1.59 -1.128,2.71h7.08c-0.048,-1.18 -0.36,-2.1 -0.936,-2.76c-0.56,-0.65 -1.36,-0.98 -2.4,-0.98zM178.995,12.38v-4.73c-0.896,0.55 -1.928,0.82 -3.096,0.82c-1.664,0 -2.896,-0.39 -3.696,-1.18c-0.8,-0.8 -1.2,-2.01 -1.2,-3.62v-2.95h1.944v2.8c0,1.16 0.248,2 0.744,2.52c0.512,0.53 1.328,0.8 2.448,0.8c0.576,0 1.08,-0.07 1.512,-0.2c0.448,-0.12 0.888,-0.33 1.32,-0.62v-5.3h1.944v11.66zM188.445,12.6c-0.8,0 -1.52,-0.16 -2.16,-0.46c-0.624,-0.32 -1.12,-0.75 -1.488,-1.3c-0.368,-0.54 -0.552,-1.15 -0.552,-1.82c0,-0.85 0.216,-1.52 0.648,-2.02c0.448,-0.49 1.176,-0.84 2.184,-1.05c1.024,-0.23 2.416,-0.34 4.176,-0.34h0.768v-0.74c0,-0.99 -0.208,-1.71 -0.624,-2.14c-0.4,-0.45 -1.048,-0.67 -1.944,-0.67c-0.704,0 -1.384,0.1 -2.04,0.31c-0.656,0.19 -1.328,0.51 -2.016,0.96l-0.672,-1.41c0.608,-0.44 1.344,-0.78 2.208,-1.04c0.88,-0.25 1.72,-0.38 2.52,-0.38c1.504,0 2.616,0.37 3.336,1.1c0.736,0.74 1.104,1.88 1.104,3.44v7.34h-1.824v-2.02c-0.304,0.69 -0.776,1.24 -1.416,1.64c-0.624,0.4 -1.36,0.6 -2.208,0.6zM188.757,11.13c0.96,0 1.744,-0.33 2.352,-0.98c0.608,-0.67 0.912,-1.52 0.912,-2.55v-0.72h-0.744c-1.296,0 -2.32,0.07 -3.072,0.2c-0.736,0.11 -1.256,0.32 -1.56,0.62c-0.288,0.29 -0.432,0.69 -0.432,1.2c0,0.66 0.224,1.19 0.672,1.61c0.464,0.41 1.088,0.62 1.872,0.62zM200.111,12.38v-10.1h-4.224v-1.56h10.418v1.56h-4.25v10.1zM207.655,12.64l-0.72,-1.53c0.72,-0.31 1.29,-0.73 1.7,-1.27c0.42,-0.56 0.71,-1.33 0.87,-2.31c0.17,-0.97 0.26,-2.25 0.26,-3.84v-2.97h8.47v11.66h-1.94v-10.1h-4.7v1.48c0,1.83 -0.14,3.33 -0.41,4.52c-0.26,1.18 -0.67,2.12 -1.25,2.8c-0.58,0.69 -1.34,1.21 -2.28,1.56zM227.365,12.6c-1.84,0 -3.3,-0.54 -4.37,-1.61c-1.07,-1.09 -1.61,-2.56 -1.61,-4.42c0,-1.2 0.24,-2.25 0.72,-3.17c0.48,-0.92 1.14,-1.64 1.97,-2.13c0.85,-0.51 1.83,-0.77 2.93,-0.77c1.58,0 2.82,0.51 3.72,1.54c0.9,1 1.34,2.4 1.34,4.17v0.75h-8.78c0.06,1.32 0.45,2.34 1.15,3.04c0.71,0.69 1.68,1.04 2.93,1.04c0.7,0 1.38,-0.11 2.02,-0.32c0.64,-0.22 1.24,-0.58 1.82,-1.08l0.67,1.37c-0.53,0.5 -1.2,0.89 -2.01,1.18c-0.82,0.27 -1.65,0.41 -2.5,0.41zM227.055,1.94c-1.11,0 -1.98,0.34 -2.62,1.03c-0.64,0.69 -1.01,1.59 -1.13,2.71h7.08c-0.04,-1.18 -0.36,-2.1 -0.93,-2.76c-0.56,-0.65 -1.36,-0.98 -2.4,-0.98zM235.095,12.38v-11.66h1.94v4.84h6.36v-4.84h1.95v11.66h-1.95v-5.23h-6.36v5.23zM249.175,12.38v-11.66h1.78v9.02l6.74,-9.02h1.66v11.66h-1.78v-9.02l-6.74,9.02zM262.235,12.38l1.8,-3.12c0.48,-0.85 1.1,-1.4 1.85,-1.66c-0.99,-0.14 -1.76,-0.5 -2.31,-1.08c-0.54,-0.59 -0.81,-1.36 -0.81,-2.3c0,-1.07 0.35,-1.92 1.05,-2.54c0.72,-0.64 1.8,-0.96 3.22,-0.96h5.26v11.66h-1.85v-4.44h-1.71c-0.64,0 -1.18,0.16 -1.63,0.48c-0.43,0.32 -0.78,0.71 -1.05,1.18l-1.59,2.78zM267.395,6.52h3.05v-4.44h-3.05c-0.94,0 -1.64,0.2 -2.09,0.6c-0.45,0.39 -0.67,0.92 -0.67,1.61c0,0.71 0.22,1.26 0.67,1.66c0.45,0.38 1.15,0.57 2.09,0.57zM276.135,12.38v-11.66h1.6l4.4,7.8l4.39,-7.8h1.58v11.66h-1.73v-8.5l-3.76,6.63h-0.99l-3.77,-6.63v8.5zM291.955,12.38v-11.66h1.77v9.02l6.75,-9.02h1.65v11.66h-1.77v-9.02l-6.75,9.02z" fill="#F2BE22"/><path id="Блог о путешествиях" data-node-id="1:83" d="M0.5,52.38v-22.56h16.224v3.87h-11.488v5.22h5.952c2.41,0 4.309,0.57 5.696,1.73c1.408,1.15 2.112,2.81 2.112,4.99c0,2.17 -0.704,3.85 -2.112,5.02c-1.387,1.15 -3.286,1.73 -5.696,1.73zM5.236,48.54h5.28c1.28,0 2.218,-0.23 2.816,-0.7c0.597,-0.47 0.895,-1.21 0.895,-2.21c0,-0.96 -0.298,-1.68 -0.895,-2.15c-0.598,-0.49 -1.536,-0.73 -2.816,-0.73h-5.28zM21.961,52.86l-1.44,-3.81c1.301,-0.36 2.218,-1.06 2.752,-2.11c0.533,-1.07 0.8,-2.71 0.8,-4.93v-5.34h13.344v15.71h-4.832v-11.97h-4.096v1.76c0,3.22 -0.523,5.71 -1.568,7.46c-1.046,1.75 -2.699,2.82 -4.96,3.23zM49.204,52.73c-1.685,0 -3.157,-0.33 -4.416,-0.99c-1.237,-0.68 -2.197,-1.63 -2.88,-2.85c-0.683,-1.24 -1.024,-2.7 -1.024,-4.38c0,-1.67 0.341,-3.11 1.024,-4.32c0.683,-1.24 1.643,-2.19 2.88,-2.85c1.259,-0.66 2.731,-0.99 4.416,-0.99c1.685,0 3.147,0.33 4.384,0.99c1.259,0.66 2.229,1.61 2.912,2.85c0.704,1.21 1.056,2.65 1.056,4.32c0,1.68 -0.352,3.14 -1.056,4.38c-0.683,1.22 -1.653,2.17 -2.912,2.85c-1.237,0.66 -2.699,0.99 -4.384,0.99zM49.204,49.12c1.024,0 1.856,-0.38 2.496,-1.12c0.661,-0.75 0.992,-1.91 0.992,-3.49c0,-1.56 -0.331,-2.7 -0.992,-3.43c-0.64,-0.74 -1.472,-1.12 -2.496,-1.12c-1.024,0 -1.856,0.38 -2.496,1.12c-0.64,0.73 -0.96,1.87 -0.96,3.43c0,1.58 0.32,2.74 0.96,3.49c0.64,0.74 1.472,1.12 2.496,1.12zM60.964,52.38v-15.71h12.385v3.77h-7.552v11.94zM92.454,52.73c-1.685,0 -3.157,-0.33 -4.416,-0.99c-1.237,-0.68 -2.197,-1.63 -2.88,-2.85c-0.683,-1.24 -1.024,-2.7 -1.024,-4.38c0,-1.67 0.341,-3.11 1.024,-4.32c0.683,-1.24 1.643,-2.19 2.88,-2.85c1.259,-0.66 2.731,-0.99 4.416,-0.99c1.685,0 3.147,0.33 4.384,0.99c1.259,0.66 2.229,1.61 2.912,2.85c0.704,1.21 1.056,2.65 1.056,4.32c0,1.68 -0.352,3.14 -1.056,4.38c-0.683,1.22 -1.653,2.17 -2.912,2.85c-1.237,0.66 -2.699,0.99 -4.384,0.99zM92.454,49.12c1.024,0 1.856,-0.38 2.496,-1.12c0.661,-0.75 0.992,-1.91 0.992,-3.49c0,-1.56 -0.331,-2.7 -0.992,-3.43c-0.64,-0.74 -1.472,-1.12 -2.496,-1.12c-1.024,0 -1.856,0.38 -2.496,1.12c-0.64,0.73 -0.96,1.87 -0.96,3.43c0,1.58 0.32,2.74 0.96,3.49c0.64,0.74 1.472,1.12 2.496,1.12zM113.121,52.38v-15.71h15.552v15.71h-4.832v-11.97h-5.888v11.97zM134.087,58.14l3.008,-6.62l-6.464,-14.85h5.088l3.936,9.98l4.064,-9.98h4.8l-9.504,21.47zM154.136,52.38v-11.94h-5.184v-3.77h15.2v3.77h-5.184v11.94zM174.437,52.73c-1.856,0 -3.456,-0.33 -4.8,-0.99c-1.323,-0.68 -2.347,-1.63 -3.072,-2.85c-0.704,-1.24 -1.056,-2.69 -1.056,-4.35c0,-1.62 0.341,-3.04 1.024,-4.26c0.704,-1.23 1.653,-2.19 2.848,-2.88c1.216,-0.7 2.613,-1.05 4.192,-1.05c2.283,0 4.096,0.72 5.44,2.17c1.344,1.43 2.016,3.37 2.016,5.83v1.21h-10.912c0.171,1.24 0.619,2.15 1.344,2.72c0.747,0.56 1.771,0.84 3.072,0.84c0.853,0 1.717,-0.13 2.592,-0.39c0.875,-0.25 1.664,-0.65 2.368,-1.18l1.28,3.23c-0.789,0.6 -1.76,1.08 -2.912,1.44c-1.131,0.34 -2.272,0.51 -3.424,0.51zM173.765,39.55c-1.024,0 -1.856,0.31 -2.496,0.93c-0.619,0.61 -1.003,1.48 -1.152,2.59h6.912c-0.128,-2.35 -1.216,-3.52 -3.264,-3.52zM184.339,52.38v-15.71h4.513v11.97h4.736v-11.97h4.512v11.97h4.736v-11.97h4.509v15.71zM219.715,52.73c-1.85,0 -3.45,-0.33 -4.8,-0.99c-1.32,-0.68 -2.34,-1.63 -3.07,-2.85c-0.7,-1.24 -1.05,-2.69 -1.05,-4.35c0,-1.62 0.34,-3.04 1.02,-4.26c0.7,-1.23 1.65,-2.19 2.85,-2.88c1.21,-0.7 2.61,-1.05 4.19,-1.05c2.28,0 4.1,0.72 5.44,2.17c1.34,1.43 2.02,3.37 2.02,5.83v1.21h-10.92c0.17,1.24 0.62,2.15 1.35,2.72c0.74,0.56 1.77,0.84 3.07,0.84c0.85,0 1.72,-0.13 2.59,-0.39c0.88,-0.25 1.67,-0.65 2.37,-1.18l1.28,3.23c-0.79,0.6 -1.76,1.08 -2.91,1.44c-1.13,0.34 -2.27,0.51 -3.43,0.51zM219.045,39.55c-1.02,0 -1.85,0.31 -2.49,0.93c-0.62,0.61 -1.01,1.48 -1.16,2.59h6.92c-0.13,-2.35 -1.22,-3.52 -3.27,-3.52zM237.265,52.73c-1.7,0 -3.2,-0.33 -4.48,-0.99c-1.25,-0.68 -2.23,-1.64 -2.91,-2.88c-0.68,-1.24 -1.02,-2.7 -1.02,-4.38c0,-1.69 0.34,-3.14 1.02,-4.36c0.68,-1.21 1.66,-2.14 2.91,-2.78c1.28,-0.66 2.78,-0.99 4.48,-0.99c1.01,0 2.02,0.15 3.04,0.45c1.03,0.29 1.86,0.72 2.5,1.28l-1.34,3.32c-0.54,-0.42 -1.13,-0.75 -1.8,-0.99c-0.66,-0.25 -1.3,-0.38 -1.92,-0.38c-1.25,0 -2.24,0.39 -2.94,1.18c-0.68,0.77 -1.02,1.87 -1.02,3.3c0,1.41 0.34,2.52 1.02,3.33c0.7,0.79 1.69,1.18 2.94,1.18c0.6,0 1.23,-0.12 1.89,-0.35c0.68,-0.24 1.29,-0.58 1.83,-1.03l1.34,3.33c-0.64,0.56 -1.47,0.99 -2.5,1.31c-1.02,0.3 -2.03,0.45 -3.04,0.45zM248.765,52.38v-11.94h-5.19v-3.77h15.2v3.77h-5.18v11.94zM261.125,52.38v-15.71h8.92c2.14,0 3.65,0.37 4.55,1.12c0.89,0.72 1.34,1.73 1.34,3.01c0,0.79 -0.22,1.48 -0.67,2.08c-0.43,0.59 -1.02,1.03 -1.79,1.31c1.04,0.25 1.81,0.71 2.3,1.37c0.49,0.67 0.74,1.47 0.74,2.4c0,1.35 -0.54,2.43 -1.6,3.24c-1.05,0.79 -2.58,1.18 -4.61,1.18zM265.565,42.94h3.97c0.64,0 1.14,-0.15 1.51,-0.45c0.36,-0.3 0.54,-0.72 0.54,-1.28c0,-0.55 -0.18,-0.97 -0.54,-1.25c-0.37,-0.27 -0.87,-0.41 -1.51,-0.41h-3.97zM265.565,49.5h4.26c1.56,0 2.34,-0.62 2.34,-1.86c0,-1.23 -0.78,-1.85 -2.34,-1.85h-4.26zM279.715,52.38v-15.71h4.35v9.5l7.17,-9.5h3.97v15.71h-4.35v-9.5l-7.17,9.5zM298.025,52.38l2.3,-3.94c0.6,-1.08 1.39,-1.81 2.37,-2.17c-2.6,-0.51 -3.9,-2.05 -3.9,-4.61c0,-1.56 0.53,-2.77 1.6,-3.65c1.06,-0.89 2.62,-1.34 4.67,-1.34h8.51v15.71h-4.45v-5.09h-1.31c-0.51,0 -0.97,0.15 -1.37,0.45c-0.39,0.28 -0.71,0.64 -0.96,1.09l-2.02,3.55zM306.085,44.19h3.04v-4.42h-3.04c-0.91,0 -1.61,0.19 -2.08,0.58c-0.44,0.38 -0.67,0.92 -0.67,1.6c0,0.7 0.23,1.26 0.67,1.66c0.47,0.39 1.17,0.58 2.08,0.58zM315.535,52.38l6.63,-8.1l-6.21,-7.61h5.63l3.33,4.32l3.33,-4.32h5.63l-6.21,7.61l6.66,8.1h-5.67l-3.74,-4.74l-3.75,4.74z" fill="#18121E"/></g></svg>