<svg viewBox="0 0 1181 162" x="0" y="0" fill="none" xmlns="http://www.w3.org/2000/svg"><defs><filter id="filter2_b_1_9" x="-5.5" y="-5.5" width="1192" height="173" filterUnits="userSpaceOnUse" color-interpolation-filters="sRGB" xmlns="http://www.w3.org/2000/svg"><feFlood flood-opacity="0" result="BackgroundImageFix"/><feGaussianBlur in="BackgroundImageFix" stdDeviation="3"/><feComposite in2="SourceAlpha" operator="in" result="effect1_backgroundBlur_1_9"/><feBlend mode="normal" in="SourceGraphic" in2="effect1_backgroundBlur_1_9" result="shape"/></filter><clipPath id="clip14_1_9" xmlns="http://www.w3.org/2000/svg"><rect width="18" height="18" fill="white" transform="translate(573.5, 57.5)"/></clipPath></defs><g id="Group 20" data-node-id="1:181" xmlns="http://www.w3.org/2000/svg"><g id="Rectangle 16" data-node-id="1:182" filter="url(#filter2_b_1_9)"><path d="M0.5,10.5c0,-5.523 4.477,-10 10,-10h1160c5.52,0 10,4.477 10,10v141c0,5.523 -4.48,10 -10,10h-1160c-5.523,0 -10,-4.477 -10,-10z" fill="white" fill-opacity="0.2"/></g><g id="Frame 32" data-node-id="1:183"><g id="text field" data-node-id="1:184"><g id="lable and text field" data-node-id="1:185"><g id="input field" data-node-id="1:186"><rect x="44" y="41" width="269" height="51" rx="7.5" stroke="#E1E3E4"/><path id="text" data-node-id="1:187" d="M60.732,71.772l-1.008,-1.52c0.427,-0.245 0.8,-0.528 1.12,-0.848c0.331,-0.331 0.603,-0.741 0.816,-1.232c0.224,-0.501 0.389,-1.12 0.496,-1.856c0.117,-0.736 0.176,-1.627 0.176,-2.672v-3.424h7.968v11.28h-2.048v-9.568h-4.032v2.24c0,1.44 -0.139,2.661 -0.416,3.664c-0.267,0.992 -0.661,1.803 -1.184,2.432c-0.523,0.629 -1.152,1.131 -1.888,1.504zM76.251,71.66c-0.81,0 -1.514,-0.165 -2.112,-0.496c-0.597,-0.331 -1.061,-0.8 -1.392,-1.408c-0.33,-0.619 -0.496,-1.344 -0.496,-2.176c0,-0.832 0.166,-1.552 0.496,-2.16c0.331,-0.608 0.795,-1.077 1.392,-1.408c0.598,-0.331 1.302,-0.496 2.112,-0.496c0.811,0 1.515,0.165 2.112,0.496c0.598,0.331 1.062,0.8 1.392,1.408c0.331,0.608 0.496,1.328 0.496,2.16c0,0.832 -0.165,1.557 -0.496,2.176c-0.33,0.608 -0.794,1.077 -1.392,1.408c-0.597,0.331 -1.301,0.496 -2.112,0.496zM76.251,70.14c0.598,0 1.078,-0.213 1.44,-0.64c0.363,-0.437 0.544,-1.077 0.544,-1.92c0,-0.853 -0.181,-1.488 -0.544,-1.904c-0.362,-0.427 -0.842,-0.64 -1.44,-0.64c-0.597,0 -1.077,0.213 -1.44,0.64c-0.362,0.416 -0.544,1.051 -0.544,1.904c0,0.843 0.182,1.483 0.544,1.92c0.363,0.427 0.843,0.64 1.44,0.64zM82.105,71.5v-7.824h2v3.04h1.136l2.272,-3.04h2.144l-2.56,3.504c0.245,0.128 0.464,0.309 0.656,0.544c0.202,0.224 0.405,0.512 0.608,0.864l1.648,2.912h-2.144l-1.312,-2.304c-0.203,-0.373 -0.411,-0.619 -0.624,-0.736c-0.203,-0.128 -0.48,-0.192 -0.832,-0.192h-0.992v3.232zM93.634,71.66c-0.565,0 -1.072,-0.107 -1.52,-0.32c-0.437,-0.224 -0.784,-0.523 -1.04,-0.896c-0.245,-0.373 -0.368,-0.795 -0.368,-1.264c0,-0.576 0.15,-1.029 0.448,-1.36c0.299,-0.341 0.784,-0.587 1.456,-0.736c0.672,-0.149 1.574,-0.224 2.704,-0.224h0.56v-0.336c0,-0.533 -0.117,-0.917 -0.352,-1.152c-0.234,-0.235 -0.629,-0.352 -1.184,-0.352c-0.437,0 -0.885,0.069 -1.344,0.208c-0.458,0.128 -0.922,0.331 -1.392,0.608l-0.576,-1.36c0.278,-0.192 0.603,-0.357 0.976,-0.496c0.384,-0.149 0.784,-0.261 1.2,-0.336c0.427,-0.085 0.827,-0.128 1.2,-0.128c1.142,0 1.99,0.267 2.544,0.8c0.555,0.523 0.832,1.339 0.832,2.448v4.736h-1.872v-1.248c-0.181,0.437 -0.469,0.784 -0.864,1.04c-0.394,0.245 -0.864,0.368 -1.408,0.368zM94.05,70.284c0.523,0 0.955,-0.181 1.296,-0.544c0.352,-0.363 0.528,-0.821 0.528,-1.376v-0.352h-0.544c-1.002,0 -1.701,0.08 -2.096,0.24c-0.384,0.149 -0.576,0.427 -0.576,0.832c0,0.352 0.123,0.64 0.368,0.864c0.246,0.224 0.587,0.336 1.024,0.336zM106.811,73.58v-2.08h-6.8v-7.824h2v6.256h3.216v-6.256h2v6.256h1.28v3.648zM109.98,71.5v-7.824h1.808v5.216l3.92,-5.216h1.664v7.824h-1.808v-5.216l-3.92,5.216zM118.964,71.5l1.168,-2.016c0.299,-0.544 0.693,-0.907 1.184,-1.088c-1.323,-0.245 -1.984,-1.008 -1.984,-2.288c0,-0.757 0.256,-1.349 0.768,-1.776c0.512,-0.437 1.264,-0.656 2.256,-0.656h3.984v7.824h-1.856v-2.704h-0.832c-0.32,0 -0.597,0.085 -0.832,0.256c-0.235,0.171 -0.427,0.384 -0.576,0.64l-1.024,1.808zM122.772,67.484h1.712v-2.496h-1.712c-0.523,0 -0.912,0.112 -1.168,0.336c-0.256,0.213 -0.384,0.512 -0.384,0.896c0,0.395 0.128,0.704 0.384,0.928c0.256,0.224 0.645,0.336 1.168,0.336zM132.197,73.58v-3.648h0.896c0.31,-0.491 0.528,-1.051 0.656,-1.68c0.139,-0.629 0.208,-1.413 0.208,-2.352v-2.224h6.096v6.256h1.28v3.648h-1.696v-2.08h-5.744v2.08zM134.901,69.932h3.28v-4.72h-2.512v1.152c0,0.672 -0.069,1.323 -0.208,1.952c-0.128,0.629 -0.314,1.168 -0.56,1.616zM142.6,71.724l-0.624,-1.584c0.448,-0.16 0.805,-0.389 1.072,-0.688c0.267,-0.309 0.453,-0.731 0.56,-1.264c0.117,-0.544 0.176,-1.243 0.176,-2.096v-2.416h6.304v7.824h-2v-6.256h-2.464v0.912c0,1.685 -0.24,2.971 -0.72,3.856c-0.469,0.875 -1.237,1.445 -2.304,1.712zM151.683,71.5l1.168,-2.016c0.298,-0.544 0.693,-0.907 1.184,-1.088c-1.323,-0.245 -1.984,-1.008 -1.984,-2.288c0,-0.757 0.256,-1.349 0.768,-1.776c0.512,-0.437 1.264,-0.656 2.256,-0.656h3.984v7.824h-1.856v-2.704h-0.832c-0.32,0 -0.598,0.085 -0.832,0.256c-0.235,0.171 -0.427,0.384 -0.576,0.64l-1.024,1.808zM155.491,67.484h1.712v-2.496h-1.712c-0.523,0 -0.912,0.112 -1.168,0.336c-0.256,0.213 -0.384,0.512 -0.384,0.896c0,0.395 0.128,0.704 0.384,0.928c0.256,0.224 0.645,0.336 1.168,0.336zM167.284,71.5v-6.256h-2.672v-1.568h7.36v1.568h-2.688v6.256zM173.997,74.38l1.44,-3.2l-3.248,-7.504h2.128l2.192,5.472l2.24,-5.472h2.016l-4.704,10.704zM181.933,74.38v-10.704h1.952v1.248c0.224,-0.427 0.56,-0.768 1.008,-1.024c0.459,-0.256 0.976,-0.384 1.552,-0.384c0.683,0 1.28,0.165 1.792,0.496c0.523,0.331 0.928,0.8 1.216,1.408c0.288,0.597 0.432,1.317 0.432,2.16c0,0.832 -0.144,1.557 -0.432,2.176c-0.288,0.608 -0.688,1.077 -1.2,1.408c-0.512,0.331 -1.114,0.496 -1.808,0.496c-0.554,0 -1.056,-0.117 -1.504,-0.352c-0.437,-0.245 -0.773,-0.571 -1.008,-0.976v4.048zM185.885,70.14c0.598,0 1.078,-0.213 1.44,-0.64c0.363,-0.437 0.544,-1.077 0.544,-1.92c0,-0.853 -0.181,-1.488 -0.544,-1.904c-0.362,-0.427 -0.842,-0.64 -1.44,-0.64c-0.597,0 -1.077,0.213 -1.44,0.64c-0.362,0.416 -0.544,1.051 -0.544,1.904c0,0.843 0.182,1.483 0.544,1.92c0.363,0.427 0.843,0.64 1.44,0.64zM194.337,71.66c-0.565,0 -1.072,-0.107 -1.52,-0.32c-0.437,-0.224 -0.784,-0.523 -1.04,-0.896c-0.245,-0.373 -0.368,-0.795 -0.368,-1.264c0,-0.576 0.15,-1.029 0.448,-1.36c0.299,-0.341 0.784,-0.587 1.456,-0.736c0.672,-0.149 1.574,-0.224 2.704,-0.224h0.56v-0.336c0,-0.533 -0.117,-0.917 -0.352,-1.152c-0.234,-0.235 -0.629,-0.352 -1.184,-0.352c-0.437,0 -0.885,0.069 -1.344,0.208c-0.458,0.128 -0.922,0.331 -1.392,0.608l-0.576,-1.36c0.278,-0.192 0.603,-0.357 0.976,-0.496c0.384,-0.149 0.784,-0.261 1.2,-0.336c0.427,-0.085 0.827,-0.128 1.2,-0.128c1.142,0 1.99,0.267 2.544,0.8c0.555,0.523 0.832,1.339 0.832,2.448v4.736h-1.872v-1.248c-0.181,0.437 -0.469,0.784 -0.864,1.04c-0.394,0.245 -0.864,0.368 -1.408,0.368zM194.753,70.284c0.523,0 0.955,-0.181 1.296,-0.544c0.352,-0.363 0.528,-0.821 0.528,-1.376v-0.352h-0.544c-1.002,0 -1.701,0.08 -2.096,0.24c-0.384,0.149 -0.576,0.427 -0.576,0.832c0,0.352 0.123,0.64 0.368,0.864c0.246,0.224 0.587,0.336 1.024,0.336z" fill="#FDFDFD"/><g id="ep:arrow-down" data-node-id="1:188"><path id="Vector_35" data-node-id="1:189" d="M293.748,63.157l-6.248,6.09l-6.248,-6.09c-0.111,-0.109 -0.261,-0.17 -0.417,-0.17c-0.156,0 -0.306,0.061 -0.418,0.17c-0.054,0.053 -0.096,0.117 -0.126,0.186c-0.029,0.07 -0.044,0.145 -0.044,0.221c0,0.075 0.015,0.15 0.044,0.22c0.03,0.07 0.072,0.133 0.126,0.186l6.647,6.48c0.116,0.114 0.273,0.177 0.436,0.177c0.163,0 0.32,-0.063 0.436,-0.177l6.647,-6.479c0.054,-0.053 0.097,-0.116 0.127,-0.186c0.029,-0.07 0.044,-0.145 0.044,-0.221c0,-0.076 -0.015,-0.152 -0.044,-0.222c-0.03,-0.069 -0.073,-0.133 -0.127,-0.186c-0.112,-0.109 -0.262,-0.17 -0.418,-0.17c-0.156,0 -0.306,0.061 -0.417,0.17z" fill="#FDFDFD"/></g></g></g><g id="Frame 21_4" data-node-id="1:190"><path id="Supporting Text" data-node-id="1:191" d="M52.62,115.5v-6.804h3.318c0.803,0 1.395,0.154 1.778,0.462c0.383,0.299 0.574,0.742 0.574,1.33c0,0.355 -0.103,0.663 -0.308,0.924c-0.196,0.261 -0.467,0.453 -0.812,0.574c0.42,0.103 0.747,0.299 0.98,0.588c0.243,0.289 0.364,0.639 0.364,1.05c0,0.579 -0.215,1.036 -0.644,1.372c-0.429,0.336 -1.036,0.504 -1.82,0.504zM53.698,111.65h2.184c0.429,0 0.761,-0.093 0.994,-0.28c0.233,-0.196 0.35,-0.471 0.35,-0.826c0,-0.345 -0.117,-0.611 -0.35,-0.798c-0.233,-0.187 -0.565,-0.28 -0.994,-0.28h-2.184zM53.698,114.73h2.31c0.467,0 0.821,-0.098 1.064,-0.294c0.243,-0.196 0.364,-0.485 0.364,-0.868c0,-0.373 -0.121,-0.658 -0.364,-0.854c-0.243,-0.196 -0.597,-0.294 -1.064,-0.294h-2.31zM60.276,115.5v-6.804h1.134v2.422h2.058c0.868,0 1.526,0.191 1.974,0.574c0.448,0.373 0.672,0.905 0.672,1.596c0,0.681 -0.233,1.223 -0.7,1.624c-0.457,0.392 -1.106,0.588 -1.946,0.588zM67.122,115.5v-6.804h1.134v6.804zM61.41,114.688h1.946c0.523,0 0.929,-0.112 1.218,-0.336c0.299,-0.224 0.448,-0.574 0.448,-1.05c0,-0.467 -0.144,-0.812 -0.434,-1.036c-0.289,-0.224 -0.7,-0.336 -1.232,-0.336h-1.946zM73.373,115.626c-1.008,0 -1.806,-0.331 -2.394,-0.994c-0.588,-0.663 -0.882,-1.624 -0.882,-2.884v-1.05c0,-1.353 0.27,-2.38 0.812,-3.08c0.541,-0.709 1.362,-1.213 2.464,-1.512l2.422,-0.686l0.378,0.938l-2.716,0.728c-0.756,0.205 -1.326,0.574 -1.708,1.106c-0.374,0.523 -0.56,1.167 -0.56,1.932v0.028c0.214,-0.457 0.532,-0.817 0.952,-1.078c0.42,-0.271 0.914,-0.406 1.484,-0.406c0.588,0 1.106,0.14 1.554,0.42c0.448,0.28 0.793,0.681 1.036,1.204c0.252,0.513 0.378,1.12 0.378,1.82c0,0.709 -0.136,1.33 -0.406,1.862c-0.262,0.523 -0.635,0.929 -1.12,1.218c-0.476,0.289 -1.041,0.434 -1.694,0.434zM73.331,114.716c0.662,0 1.18,-0.219 1.554,-0.658c0.373,-0.448 0.56,-1.087 0.56,-1.918c0,-0.812 -0.187,-1.442 -0.56,-1.89c-0.374,-0.448 -0.887,-0.672 -1.54,-0.672c-0.654,0 -1.167,0.219 -1.54,0.658c-0.374,0.439 -0.56,1.041 -0.56,1.806c0,0.877 0.182,1.545 0.546,2.002c0.364,0.448 0.877,0.672 1.54,0.672zM81.513,115.626c-1.074,0 -1.923,-0.313 -2.548,-0.938c-0.626,-0.635 -0.938,-1.493 -0.938,-2.576c0,-0.7 0.14,-1.316 0.42,-1.848c0.28,-0.541 0.662,-0.957 1.148,-1.246c0.494,-0.299 1.064,-0.448 1.708,-0.448c0.924,0 1.647,0.299 2.17,0.896c0.522,0.588 0.784,1.4 0.784,2.436v0.434h-5.124c0.037,0.775 0.261,1.367 0.672,1.778c0.41,0.401 0.98,0.602 1.708,0.602c0.41,0 0.802,-0.061 1.176,-0.182c0.373,-0.131 0.728,-0.341 1.064,-0.63l0.392,0.798c-0.308,0.289 -0.7,0.518 -1.176,0.686c-0.476,0.159 -0.962,0.238 -1.456,0.238zM81.331,109.41c-0.644,0 -1.153,0.201 -1.526,0.602c-0.374,0.401 -0.593,0.929 -0.658,1.582h4.13c-0.028,-0.691 -0.21,-1.227 -0.546,-1.61c-0.327,-0.383 -0.794,-0.574 -1.4,-0.574zM86.034,118.02v-9.324h1.106v1.218c0.206,-0.42 0.509,-0.747 0.91,-0.98c0.411,-0.243 0.887,-0.364 1.428,-0.364c0.607,0 1.134,0.145 1.582,0.434c0.458,0.28 0.808,0.686 1.05,1.218c0.252,0.523 0.378,1.148 0.378,1.876c0,0.719 -0.126,1.344 -0.378,1.876c-0.242,0.523 -0.592,0.929 -1.05,1.218c-0.448,0.289 -0.975,0.434 -1.582,0.434c-0.522,0 -0.989,-0.117 -1.4,-0.35c-0.41,-0.233 -0.714,-0.555 -0.91,-0.966v3.71zM89.24,114.716c0.635,0 1.144,-0.224 1.526,-0.672c0.383,-0.457 0.574,-1.106 0.574,-1.946c0,-0.849 -0.191,-1.498 -0.574,-1.946c-0.382,-0.448 -0.891,-0.672 -1.526,-0.672c-0.634,0 -1.143,0.224 -1.526,0.672c-0.382,0.448 -0.574,1.097 -0.574,1.946c0,0.84 0.192,1.489 0.574,1.946c0.383,0.448 0.892,0.672 1.526,0.672zM94.319,115.5v-6.804h1.036v5.264l3.934,-5.264h0.966v6.804h-1.036v-5.264l-3.934,5.264zM103.909,115.5v-5.894h-2.464v-0.91h6.076v0.91h-2.478v5.894zM111.768,115.626c-1.073,0 -1.922,-0.313 -2.548,-0.938c-0.625,-0.635 -0.938,-1.493 -0.938,-2.576c0,-0.7 0.14,-1.316 0.42,-1.848c0.28,-0.541 0.663,-0.957 1.148,-1.246c0.495,-0.299 1.064,-0.448 1.708,-0.448c0.924,0 1.648,0.299 2.17,0.896c0.523,0.588 0.784,1.4 0.784,2.436v0.434h-5.124c0.038,0.775 0.262,1.367 0.672,1.778c0.411,0.401 0.98,0.602 1.708,0.602c0.411,0 0.803,-0.061 1.176,-0.182c0.374,-0.131 0.728,-0.341 1.064,-0.63l0.392,0.798c-0.308,0.289 -0.7,0.518 -1.176,0.686c-0.476,0.159 -0.961,0.238 -1.456,0.238zM111.586,109.41c-0.644,0 -1.152,0.201 -1.526,0.602c-0.373,0.401 -0.592,0.929 -0.658,1.582h4.13c-0.028,-0.691 -0.21,-1.227 -0.546,-1.61c-0.326,-0.383 -0.793,-0.574 -1.4,-0.574zM119.872,115.5v-6.804h1.036v5.264l3.934,-5.264h0.966v6.804h-1.036v-5.264l-3.934,5.264zM130.302,115.626c-0.588,0 -1.144,-0.075 -1.666,-0.224c-0.514,-0.159 -0.929,-0.378 -1.246,-0.658l0.364,-0.798c0.326,0.261 0.709,0.462 1.148,0.602c0.438,0.131 0.896,0.196 1.372,0.196c0.672,0 1.152,-0.098 1.442,-0.294c0.298,-0.196 0.448,-0.485 0.448,-0.868c0,-0.737 -0.472,-1.106 -1.414,-1.106h-1.61v-0.854h1.47c0.401,0 0.718,-0.093 0.952,-0.28c0.242,-0.187 0.364,-0.448 0.364,-0.784c0,-0.336 -0.131,-0.602 -0.392,-0.798c-0.262,-0.205 -0.682,-0.308 -1.26,-0.308c-0.906,0 -1.708,0.247 -2.408,0.742l-0.364,-0.798c0.765,-0.551 1.736,-0.826 2.912,-0.826c0.868,0 1.516,0.168 1.946,0.504c0.429,0.336 0.644,0.807 0.644,1.414c0,0.345 -0.103,0.653 -0.308,0.924c-0.196,0.261 -0.467,0.453 -0.812,0.574c0.42,0.103 0.751,0.299 0.994,0.588c0.242,0.28 0.364,0.63 0.364,1.05c0,0.607 -0.248,1.092 -0.742,1.456c-0.495,0.364 -1.228,0.546 -2.198,0.546zM141.5,115.626c-0.681,0 -1.269,-0.145 -1.764,-0.434c-0.494,-0.299 -0.877,-0.714 -1.148,-1.246c-0.261,-0.541 -0.392,-1.171 -0.392,-1.89c0,-1.083 0.294,-1.932 0.882,-2.548c0.588,-0.625 1.396,-0.938 2.422,-0.938c0.42,0 0.836,0.075 1.246,0.224c0.411,0.149 0.752,0.359 1.022,0.63l-0.392,0.826c-0.27,-0.261 -0.569,-0.453 -0.896,-0.574c-0.317,-0.121 -0.62,-0.182 -0.91,-0.182c-0.709,0 -1.255,0.224 -1.638,0.672c-0.382,0.439 -0.574,1.073 -0.574,1.904c0,0.812 0.192,1.456 0.574,1.932c0.383,0.467 0.929,0.7 1.638,0.7c0.29,0 0.593,-0.061 0.91,-0.182c0.327,-0.121 0.626,-0.317 0.896,-0.588l0.392,0.826c-0.27,0.271 -0.616,0.485 -1.036,0.644c-0.41,0.149 -0.821,0.224 -1.232,0.224zM145.22,115.5v-6.804h5.936v6.804h-1.134v-5.894h-3.668v5.894zM153.395,115.5v-6.804h1.036v5.264l3.934,-5.264h0.966v6.804h-1.036v-5.264l-3.934,5.264zM164.469,115.626c-0.681,0 -1.269,-0.145 -1.764,-0.434c-0.494,-0.299 -0.877,-0.714 -1.148,-1.246c-0.261,-0.541 -0.392,-1.171 -0.392,-1.89c0,-1.083 0.294,-1.932 0.882,-2.548c0.588,-0.625 1.396,-0.938 2.422,-0.938c0.42,0 0.836,0.075 1.246,0.224c0.411,0.149 0.752,0.359 1.022,0.63l-0.392,0.826c-0.27,-0.261 -0.569,-0.453 -0.896,-0.574c-0.317,-0.121 -0.62,-0.182 -0.91,-0.182c-0.709,0 -1.255,0.224 -1.638,0.672c-0.382,0.439 -0.574,1.073 -0.574,1.904c0,0.812 0.192,1.456 0.574,1.932c0.383,0.467 0.929,0.7 1.638,0.7c0.29,0 0.593,-0.061 0.91,-0.182c0.327,-0.121 0.626,-0.317 0.896,-0.588l0.392,0.826c-0.27,0.271 -0.616,0.485 -1.036,0.644c-0.41,0.149 -0.821,0.224 -1.232,0.224zM168.188,115.5v-6.804h1.134v2.842h1.274l2.226,-2.842h1.246l-2.366,3.066c0.243,0.093 0.462,0.247 0.658,0.462c0.196,0.215 0.416,0.523 0.658,0.924l1.4,2.352h-1.218l-1.232,-2.058c-0.233,-0.401 -0.457,-0.667 -0.672,-0.798c-0.214,-0.131 -0.518,-0.196 -0.91,-0.196h-1.064v3.052zM177.714,115.626c-0.467,0 -0.887,-0.089 -1.26,-0.266c-0.364,-0.187 -0.654,-0.439 -0.868,-0.756c-0.215,-0.317 -0.322,-0.672 -0.322,-1.064c0,-0.495 0.126,-0.887 0.378,-1.176c0.261,-0.289 0.686,-0.495 1.274,-0.616c0.597,-0.131 1.409,-0.196 2.436,-0.196h0.448v-0.434c0,-0.579 -0.122,-0.994 -0.364,-1.246c-0.234,-0.261 -0.612,-0.392 -1.134,-0.392c-0.411,0 -0.808,0.061 -1.19,0.182c-0.383,0.112 -0.775,0.299 -1.176,0.56l-0.392,-0.826c0.354,-0.252 0.784,-0.453 1.288,-0.602c0.513,-0.149 1.003,-0.224 1.47,-0.224c0.877,0 1.526,0.215 1.946,0.644c0.429,0.429 0.644,1.097 0.644,2.002v4.284h-1.064v-1.176c-0.178,0.401 -0.453,0.719 -0.826,0.952c-0.364,0.233 -0.794,0.35 -1.288,0.35zM177.896,114.772c0.56,0 1.017,-0.191 1.372,-0.574c0.354,-0.392 0.532,-0.887 0.532,-1.484v-0.42h-0.434c-0.756,0 -1.354,0.037 -1.792,0.112c-0.43,0.065 -0.733,0.187 -0.91,0.364c-0.168,0.168 -0.252,0.401 -0.252,0.7c0,0.383 0.13,0.695 0.392,0.938c0.27,0.243 0.634,0.364 1.092,0.364z" fill="#FDFDFD"/></g></g><g id="text field_2" data-node-id="1:192"><g id="lable and text field_2" data-node-id="1:193"><g id="input field_2" data-node-id="1:194"><rect x="338" y="41" width="269" height="51" rx="7.5" stroke="#E1E3E4"/><path id="text_2" data-node-id="1:195" d="M353.724,74.14v-4.272h1.12c1.003,-1.259 1.504,-3.493 1.504,-6.704v-2.944h7.984v9.648h1.6v4.272h-1.824v-2.64h-8.56v2.64zM356.924,69.868h5.344v-8.016h-4.016v1.504c0,1.536 -0.112,2.832 -0.336,3.888c-0.213,1.056 -0.544,1.931 -0.992,2.624zM370.009,71.66c-0.565,0 -1.072,-0.107 -1.52,-0.32c-0.437,-0.224 -0.784,-0.523 -1.04,-0.896c-0.245,-0.373 -0.368,-0.795 -0.368,-1.264c0,-0.576 0.15,-1.029 0.448,-1.36c0.299,-0.341 0.784,-0.587 1.456,-0.736c0.672,-0.149 1.574,-0.224 2.704,-0.224h0.56v-0.336c0,-0.533 -0.117,-0.917 -0.352,-1.152c-0.234,-0.235 -0.629,-0.352 -1.184,-0.352c-0.437,0 -0.885,0.069 -1.344,0.208c-0.458,0.128 -0.922,0.331 -1.392,0.608l-0.576,-1.36c0.278,-0.192 0.603,-0.357 0.976,-0.496c0.384,-0.149 0.784,-0.261 1.2,-0.336c0.427,-0.085 0.827,-0.128 1.2,-0.128c1.142,0 1.99,0.267 2.544,0.8c0.555,0.523 0.832,1.339 0.832,2.448v4.736h-1.872v-1.248c-0.181,0.437 -0.469,0.784 -0.864,1.04c-0.394,0.245 -0.864,0.368 -1.408,0.368zM370.425,70.284c0.523,0 0.955,-0.181 1.296,-0.544c0.352,-0.363 0.528,-0.821 0.528,-1.376v-0.352h-0.544c-1.002,0 -1.701,0.08 -2.096,0.24c-0.384,0.149 -0.576,0.427 -0.576,0.832c0,0.352 0.123,0.64 0.368,0.864c0.246,0.224 0.587,0.336 1.024,0.336zM378.034,71.5v-6.256h-2.672v-1.568h7.36v1.568h-2.688v6.256zM386.541,71.66c-0.566,0 -1.072,-0.107 -1.52,-0.32c-0.438,-0.224 -0.784,-0.523 -1.04,-0.896c-0.246,-0.373 -0.368,-0.795 -0.368,-1.264c0,-0.576 0.149,-1.029 0.448,-1.36c0.298,-0.341 0.784,-0.587 1.456,-0.736c0.672,-0.149 1.573,-0.224 2.704,-0.224h0.56v-0.336c0,-0.533 -0.118,-0.917 -0.352,-1.152c-0.235,-0.235 -0.63,-0.352 -1.184,-0.352c-0.438,0 -0.886,0.069 -1.344,0.208c-0.459,0.128 -0.923,0.331 -1.392,0.608l-0.576,-1.36c0.277,-0.192 0.602,-0.357 0.976,-0.496c0.384,-0.149 0.784,-0.261 1.2,-0.336c0.426,-0.085 0.826,-0.128 1.2,-0.128c1.141,0 1.989,0.267 2.544,0.8c0.554,0.523 0.832,1.339 0.832,2.448v4.736h-1.872v-1.248c-0.182,0.437 -0.47,0.784 -0.864,1.04c-0.395,0.245 -0.864,0.368 -1.408,0.368zM386.957,70.284c0.522,0 0.954,-0.181 1.296,-0.544c0.352,-0.363 0.528,-0.821 0.528,-1.376v-0.352h-0.544c-1.003,0 -1.702,0.08 -2.096,0.24c-0.384,0.149 -0.576,0.427 -0.576,0.832c0,0.352 0.122,0.64 0.368,0.864c0.245,0.224 0.586,0.336 1.024,0.336zM397.23,71.5v-7.824h7.408v7.824h-2v-6.256h-3.408v6.256zM410.501,71.66c-0.81,0 -1.514,-0.165 -2.112,-0.496c-0.597,-0.331 -1.061,-0.8 -1.392,-1.408c-0.33,-0.619 -0.496,-1.344 -0.496,-2.176c0,-0.832 0.166,-1.552 0.496,-2.16c0.331,-0.608 0.795,-1.077 1.392,-1.408c0.598,-0.331 1.302,-0.496 2.112,-0.496c0.811,0 1.515,0.165 2.112,0.496c0.598,0.331 1.062,0.8 1.392,1.408c0.331,0.608 0.496,1.328 0.496,2.16c0,0.832 -0.165,1.557 -0.496,2.176c-0.33,0.608 -0.794,1.077 -1.392,1.408c-0.597,0.331 -1.301,0.496 -2.112,0.496zM410.501,70.14c0.598,0 1.078,-0.213 1.44,-0.64c0.363,-0.437 0.544,-1.077 0.544,-1.92c0,-0.853 -0.181,-1.488 -0.544,-1.904c-0.362,-0.427 -0.842,-0.64 -1.44,-0.64c-0.597,0 -1.077,0.213 -1.44,0.64c-0.362,0.416 -0.544,1.051 -0.544,1.904c0,0.843 0.182,1.483 0.544,1.92c0.363,0.427 0.843,0.64 1.44,0.64zM415.127,71.5l3.28,-4.048l-3.072,-3.776h2.336l1.888,2.416l1.888,-2.416h2.336l-3.088,3.792l3.296,4.032h-2.352l-2.096,-2.64l-2.08,2.64zM428.579,71.66c-0.81,0 -1.514,-0.165 -2.112,-0.496c-0.597,-0.331 -1.061,-0.8 -1.392,-1.408c-0.33,-0.619 -0.496,-1.344 -0.496,-2.176c0,-0.832 0.166,-1.552 0.496,-2.16c0.331,-0.608 0.795,-1.077 1.392,-1.408c0.598,-0.331 1.302,-0.496 2.112,-0.496c0.811,0 1.515,0.165 2.112,0.496c0.598,0.331 1.062,0.8 1.392,1.408c0.331,0.608 0.496,1.328 0.496,2.16c0,0.832 -0.165,1.557 -0.496,2.176c-0.33,0.608 -0.794,1.077 -1.392,1.408c-0.597,0.331 -1.301,0.496 -2.112,0.496zM428.579,70.14c0.598,0 1.078,-0.213 1.44,-0.64c0.363,-0.437 0.544,-1.077 0.544,-1.92c0,-0.853 -0.181,-1.488 -0.544,-1.904c-0.362,-0.427 -0.842,-0.64 -1.44,-0.64c-0.597,0 -1.077,0.213 -1.44,0.64c-0.362,0.416 -0.544,1.051 -0.544,1.904c0,0.843 0.182,1.483 0.544,1.92c0.363,0.427 0.843,0.64 1.44,0.64zM433.713,73.58v-3.648h0.896c0.309,-0.491 0.528,-1.051 0.656,-1.68c0.139,-0.629 0.208,-1.413 0.208,-2.352v-2.224h6.096v6.256h1.28v3.648h-1.696v-2.08h-5.744v2.08zM436.417,69.932h3.28v-4.72h-2.512v1.152c0,0.672 -0.069,1.323 -0.208,1.952c-0.128,0.629 -0.315,1.168 -0.56,1.616zM446.916,71.66c-0.566,0 -1.072,-0.107 -1.52,-0.32c-0.438,-0.224 -0.784,-0.523 -1.04,-0.896c-0.246,-0.373 -0.368,-0.795 -0.368,-1.264c0,-0.576 0.149,-1.029 0.448,-1.36c0.298,-0.341 0.784,-0.587 1.456,-0.736c0.672,-0.149 1.573,-0.224 2.704,-0.224h0.56v-0.336c0,-0.533 -0.118,-0.917 -0.352,-1.152c-0.235,-0.235 -0.63,-0.352 -1.184,-0.352c-0.438,0 -0.886,0.069 -1.344,0.208c-0.459,0.128 -0.923,0.331 -1.392,0.608l-0.576,-1.36c0.277,-0.192 0.602,-0.357 0.976,-0.496c0.384,-0.149 0.784,-0.261 1.2,-0.336c0.426,-0.085 0.826,-0.128 1.2,-0.128c1.141,0 1.989,0.267 2.544,0.8c0.554,0.523 0.832,1.339 0.832,2.448v4.736h-1.872v-1.248c-0.182,0.437 -0.47,0.784 -0.864,1.04c-0.395,0.245 -0.864,0.368 -1.408,0.368zM447.332,70.284c0.522,0 0.954,-0.181 1.296,-0.544c0.352,-0.363 0.528,-0.821 0.528,-1.376v-0.352h-0.544c-1.003,0 -1.702,0.08 -2.096,0.24c-0.384,0.149 -0.576,0.427 -0.576,0.832c0,0.352 0.122,0.64 0.368,0.864c0.245,0.224 0.586,0.336 1.024,0.336z" fill="#FDFDFD"/><g id="formkit:date" data-node-id="1:196" clip-path="url(#clip14_1_9)"><path id="Vector_36" data-node-id="1:197" d="M589.812,75.5h-14.624c-0.934,0 -1.688,-0.754 -1.688,-1.688v-13.5c0,-0.933 0.754,-1.687 1.688,-1.687h14.624c0.934,0 1.688,0.754 1.688,1.687v13.5c0,0.934 -0.754,1.688 -1.688,1.688zM575.188,59.75c-0.316,0 -0.563,0.247 -0.563,0.562v13.5c0,0.315 0.247,0.563 0.563,0.563h14.624c0.316,0 0.563,-0.248 0.563,-0.563v-13.5c0,-0.315 -0.247,-0.562 -0.563,-0.562z" fill="#FDFDFD"/><path id="Vector_37" data-node-id="1:198" d="M578.562,62c-0.315,0 -0.562,-0.247 -0.562,-0.562v-3.376c0,-0.314 0.247,-0.562 0.562,-0.562c0.316,0 0.563,0.248 0.563,0.562v3.376c0,0.315 -0.247,0.562 -0.563,0.562zM586.438,62c-0.315,0 -0.563,-0.247 -0.563,-0.562v-3.376c0,-0.314 0.248,-0.562 0.563,-0.562c0.314,0 0.562,0.248 0.562,0.562v3.376c0,0.315 -0.248,0.562 -0.562,0.562zM590.938,64.25h-16.876c-0.314,0 -0.562,-0.247 -0.562,-0.562c0,-0.316 0.248,-0.563 0.562,-0.563h16.876c0.315,0 0.562,0.247 0.562,0.563c0,0.315 -0.247,0.562 -0.562,0.562z" fill="#FDFDFD"/></g></g></g><g id="Frame 21_5" data-node-id="1:199"><path id="Supporting Text_2" data-node-id="1:200" d="M347.418,118.02l1.162,-2.632l-2.87,-6.692h1.232l2.254,5.516l2.268,-5.516h1.19l-4.046,9.324zM353.962,115.5v-6.804h1.134v2.842h1.274l2.226,-2.842h1.246l-2.366,3.066c0.242,0.093 0.462,0.247 0.658,0.462c0.196,0.215 0.415,0.523 0.658,0.924l1.4,2.352h-1.218l-1.232,-2.058c-0.234,-0.401 -0.458,-0.667 -0.672,-0.798c-0.215,-0.131 -0.518,-0.196 -0.91,-0.196h-1.064v3.052zM363.487,115.626c-0.467,0 -0.887,-0.089 -1.26,-0.266c-0.364,-0.187 -0.653,-0.439 -0.868,-0.756c-0.215,-0.317 -0.322,-0.672 -0.322,-1.064c0,-0.495 0.126,-0.887 0.378,-1.176c0.261,-0.289 0.686,-0.495 1.274,-0.616c0.597,-0.131 1.409,-0.196 2.436,-0.196h0.448v-0.434c0,-0.579 -0.121,-0.994 -0.364,-1.246c-0.233,-0.261 -0.611,-0.392 -1.134,-0.392c-0.411,0 -0.807,0.061 -1.19,0.182c-0.383,0.112 -0.775,0.299 -1.176,0.56l-0.392,-0.826c0.355,-0.252 0.784,-0.453 1.288,-0.602c0.513,-0.149 1.003,-0.224 1.47,-0.224c0.877,0 1.526,0.215 1.946,0.644c0.429,0.429 0.644,1.097 0.644,2.002v4.284h-1.064v-1.176c-0.177,0.401 -0.453,0.719 -0.826,0.952c-0.364,0.233 -0.793,0.35 -1.288,0.35zM363.669,114.772c0.56,0 1.017,-0.191 1.372,-0.574c0.355,-0.392 0.532,-0.887 0.532,-1.484v-0.42h-0.434c-0.756,0 -1.353,0.037 -1.792,0.112c-0.429,0.065 -0.733,0.187 -0.91,0.364c-0.168,0.168 -0.252,0.401 -0.252,0.7c0,0.383 0.131,0.695 0.392,0.938c0.271,0.243 0.635,0.364 1.092,0.364zM367.772,115.5l1.4,-2.352c0.242,-0.411 0.462,-0.723 0.658,-0.938c0.205,-0.215 0.434,-0.369 0.686,-0.462l-2.394,-3.052h1.246l2.24,2.842h1.078v-2.842h1.134v2.842h1.092l2.226,-2.842h1.246l-2.394,3.052c0.252,0.093 0.476,0.247 0.672,0.462c0.205,0.215 0.429,0.527 0.672,0.938l1.4,2.352h-1.218l-1.232,-2.058c-0.234,-0.401 -0.462,-0.667 -0.686,-0.798c-0.215,-0.131 -0.514,-0.196 -0.896,-0.196h-0.882v3.052h-1.134v-3.052h-0.882c-0.383,0 -0.682,0.065 -0.896,0.196c-0.215,0.131 -0.444,0.397 -0.686,0.798l-1.232,2.058zM379.87,115.5v-6.804h1.036v5.264l3.934,-5.264h0.966v6.804h-1.036v-5.264l-3.934,5.264zM389.46,115.5v-5.894h-2.464v-0.91h6.076v0.91h-2.478v5.894zM397.319,115.626c-1.073,0 -1.923,-0.313 -2.548,-0.938c-0.625,-0.635 -0.938,-1.493 -0.938,-2.576c0,-0.7 0.14,-1.316 0.42,-1.848c0.28,-0.541 0.663,-0.957 1.148,-1.246c0.495,-0.299 1.064,-0.448 1.708,-0.448c0.924,0 1.647,0.299 2.17,0.896c0.523,0.588 0.784,1.4 0.784,2.436v0.434h-5.124c0.037,0.775 0.261,1.367 0.672,1.778c0.411,0.401 0.98,0.602 1.708,0.602c0.411,0 0.803,-0.061 1.176,-0.182c0.373,-0.131 0.728,-0.341 1.064,-0.63l0.392,0.798c-0.308,0.289 -0.7,0.518 -1.176,0.686c-0.476,0.159 -0.961,0.238 -1.456,0.238zM397.137,109.41c-0.644,0 -1.153,0.201 -1.526,0.602c-0.373,0.401 -0.593,0.929 -0.658,1.582h4.13c-0.028,-0.691 -0.21,-1.227 -0.546,-1.61c-0.327,-0.383 -0.793,-0.574 -1.4,-0.574zM404.681,117.32v-2.73h0.714c0.326,-0.476 0.56,-1.022 0.7,-1.638c0.14,-0.625 0.21,-1.377 0.21,-2.254v-2.002h4.816v5.894h1.078v2.73h-0.98v-1.82h-5.572v1.82zM406.487,114.59h3.556v-4.998h-2.73v1.302c0,0.7 -0.07,1.377 -0.21,2.03c-0.14,0.653 -0.346,1.209 -0.616,1.666zM413.708,115.5v-6.804h1.036v5.264l3.934,-5.264h0.966v6.804h-1.036v-5.264l-3.934,5.264zM424.04,115.626c-0.467,0 -0.887,-0.089 -1.26,-0.266c-0.364,-0.187 -0.654,-0.439 -0.868,-0.756c-0.215,-0.317 -0.322,-0.672 -0.322,-1.064c0,-0.495 0.126,-0.887 0.378,-1.176c0.261,-0.289 0.686,-0.495 1.274,-0.616c0.597,-0.131 1.409,-0.196 2.436,-0.196h0.448v-0.434c0,-0.579 -0.122,-0.994 -0.364,-1.246c-0.234,-0.261 -0.612,-0.392 -1.134,-0.392c-0.411,0 -0.808,0.061 -1.19,0.182c-0.383,0.112 -0.775,0.299 -1.176,0.56l-0.392,-0.826c0.354,-0.252 0.784,-0.453 1.288,-0.602c0.513,-0.149 1.003,-0.224 1.47,-0.224c0.877,0 1.526,0.215 1.946,0.644c0.429,0.429 0.644,1.097 0.644,2.002v4.284h-1.064v-1.176c-0.178,0.401 -0.453,0.719 -0.826,0.952c-0.364,0.233 -0.794,0.35 -1.288,0.35zM424.222,114.772c0.56,0 1.017,-0.191 1.372,-0.574c0.354,-0.392 0.532,-0.887 0.532,-1.484v-0.42h-0.434c-0.756,0 -1.354,0.037 -1.792,0.112c-0.43,0.065 -0.733,0.187 -0.91,0.364c-0.168,0.168 -0.252,0.401 -0.252,0.7c0,0.383 0.13,0.695 0.392,0.938c0.27,0.243 0.634,0.364 1.092,0.364zM429.431,115.5v-6.804h5.936v6.804h-1.134v-5.894h-3.668v5.894zM439.762,115.626c-0.466,0 -0.886,-0.089 -1.26,-0.266c-0.364,-0.187 -0.653,-0.439 -0.868,-0.756c-0.214,-0.317 -0.322,-0.672 -0.322,-1.064c0,-0.495 0.126,-0.887 0.378,-1.176c0.262,-0.289 0.686,-0.495 1.274,-0.616c0.598,-0.131 1.41,-0.196 2.436,-0.196h0.448v-0.434c0,-0.579 -0.121,-0.994 -0.364,-1.246c-0.233,-0.261 -0.611,-0.392 -1.134,-0.392c-0.41,0 -0.807,0.061 -1.19,0.182c-0.382,0.112 -0.774,0.299 -1.176,0.56l-0.392,-0.826c0.355,-0.252 0.784,-0.453 1.288,-0.602c0.514,-0.149 1.004,-0.224 1.47,-0.224c0.878,0 1.526,0.215 1.946,0.644c0.43,0.429 0.644,1.097 0.644,2.002v4.284h-1.064v-1.176c-0.177,0.401 -0.452,0.719 -0.826,0.952c-0.364,0.233 -0.793,0.35 -1.288,0.35zM439.944,114.772c0.56,0 1.018,-0.191 1.372,-0.574c0.355,-0.392 0.532,-0.887 0.532,-1.484v-0.42h-0.434c-0.756,0 -1.353,0.037 -1.792,0.112c-0.429,0.065 -0.732,0.187 -0.91,0.364c-0.168,0.168 -0.252,0.401 -0.252,0.7c0,0.383 0.131,0.695 0.392,0.938c0.271,0.243 0.635,0.364 1.092,0.364zM447.407,115.626c-0.588,0 -1.143,-0.075 -1.666,-0.224c-0.513,-0.159 -0.928,-0.378 -1.246,-0.658l0.364,-0.798c0.327,0.261 0.71,0.462 1.148,0.602c0.439,0.131 0.896,0.196 1.372,0.196c0.672,0 1.153,-0.098 1.442,-0.294c0.299,-0.196 0.448,-0.485 0.448,-0.868c0,-0.737 -0.471,-1.106 -1.414,-1.106h-1.61v-0.854h1.47c0.402,0 0.719,-0.093 0.952,-0.28c0.243,-0.187 0.364,-0.448 0.364,-0.784c0,-0.336 -0.13,-0.602 -0.392,-0.798c-0.261,-0.205 -0.681,-0.308 -1.26,-0.308c-0.905,0 -1.708,0.247 -2.408,0.742l-0.364,-0.798c0.766,-0.551 1.736,-0.826 2.912,-0.826c0.868,0 1.517,0.168 1.946,0.504c0.43,0.336 0.644,0.807 0.644,1.414c0,0.345 -0.102,0.653 -0.308,0.924c-0.196,0.261 -0.466,0.453 -0.812,0.574c0.42,0.103 0.752,0.299 0.994,0.588c0.243,0.28 0.364,0.63 0.364,1.05c0,0.607 -0.247,1.092 -0.742,1.456c-0.494,0.364 -1.227,0.546 -2.198,0.546zM454.954,115.626c-0.662,0 -1.236,-0.145 -1.722,-0.434c-0.485,-0.289 -0.863,-0.695 -1.134,-1.218c-0.261,-0.532 -0.392,-1.157 -0.392,-1.876c0,-0.719 0.131,-1.339 0.392,-1.862c0.271,-0.532 0.649,-0.943 1.134,-1.232c0.486,-0.289 1.06,-0.434 1.722,-0.434c0.654,0 1.223,0.145 1.708,0.434c0.495,0.289 0.873,0.7 1.134,1.232c0.271,0.523 0.406,1.143 0.406,1.862c0,0.719 -0.135,1.344 -0.406,1.876c-0.261,0.523 -0.639,0.929 -1.134,1.218c-0.485,0.289 -1.054,0.434 -1.708,0.434zM454.954,114.716c0.635,0 1.144,-0.224 1.526,-0.672c0.383,-0.457 0.574,-1.106 0.574,-1.946c0,-0.849 -0.191,-1.498 -0.574,-1.946c-0.382,-0.448 -0.891,-0.672 -1.526,-0.672c-0.644,0 -1.157,0.224 -1.54,0.672c-0.373,0.448 -0.56,1.097 -0.56,1.946c0,0.84 0.187,1.489 0.56,1.946c0.383,0.448 0.896,0.672 1.54,0.672zM460.042,115.5v-6.804h1.134v2.828h3.71v-2.828h1.134v6.804h-1.134v-3.052h-3.71v3.052z" fill="#FDFDFD"/></g></g><g id="text field_3" data-node-id="1:201"><g id="lable and text field_3" data-node-id="1:202"><g id="input field_3" data-node-id="1:203"><rect x="632" y="41" width="269" height="51" rx="7.5" stroke="#E1E3E4"/><path id="text_3" data-node-id="1:204" d="M650.4,71.5l1.74,-3.408l-4.86,-7.872h2.19l3.63,5.984l3.06,-5.984h2.11l-5.75,11.28zM664.14,71.5v-2.832c-0.29,0.139 -0.58,0.245 -0.89,0.32c-0.3,0.064 -0.61,0.096 -0.93,0.096c-2.29,0 -3.44,-1.125 -3.44,-3.376v-2.032h2v1.856c0,0.683 0.14,1.179 0.41,1.488c0.28,0.299 0.74,0.448 1.38,0.448c0.29,0 0.55,-0.032 0.78,-0.096c0.24,-0.064 0.46,-0.165 0.66,-0.304v-3.392h2v7.824zM670.98,71.66c-0.57,0 -1.07,-0.107 -1.52,-0.32c-0.44,-0.224 -0.79,-0.523 -1.04,-0.896c-0.25,-0.373 -0.37,-0.795 -0.37,-1.264c0,-0.576 0.15,-1.029 0.45,-1.36c0.3,-0.341 0.78,-0.587 1.45,-0.736c0.68,-0.149 1.58,-0.224 2.71,-0.224h0.56v-0.336c0,-0.533 -0.12,-0.917 -0.35,-1.152c-0.24,-0.235 -0.63,-0.352 -1.19,-0.352c-0.44,0 -0.88,0.069 -1.34,0.208c-0.46,0.128 -0.92,0.331 -1.39,0.608l-0.58,-1.36c0.28,-0.192 0.6,-0.357 0.98,-0.496c0.38,-0.149 0.78,-0.261 1.2,-0.336c0.42,-0.085 0.82,-0.128 1.2,-0.128c1.14,0 1.99,0.267 2.54,0.8c0.55,0.523 0.83,1.339 0.83,2.448v4.736h-1.87v-1.248c-0.18,0.437 -0.47,0.784 -0.86,1.04c-0.4,0.245 -0.87,0.368 -1.41,0.368zM671.39,70.284c0.53,0 0.96,-0.181 1.3,-0.544c0.35,-0.363 0.53,-0.821 0.53,-1.376v-0.352h-0.55c-1,0 -1.7,0.08 -2.09,0.24c-0.39,0.149 -0.58,0.427 -0.58,0.832c0,0.352 0.12,0.64 0.37,0.864c0.25,0.224 0.59,0.336 1.02,0.336zM680.99,71.66c-0.82,0 -1.54,-0.165 -2.15,-0.496c-0.61,-0.341 -1.07,-0.821 -1.41,-1.44c-0.33,-0.619 -0.49,-1.344 -0.49,-2.176c0,-0.832 0.16,-1.547 0.49,-2.144c0.34,-0.608 0.8,-1.072 1.41,-1.392c0.61,-0.331 1.33,-0.496 2.15,-0.496c0.5,0 0.99,0.08 1.48,0.24c0.5,0.16 0.9,0.384 1.22,0.672l-0.59,1.392c-0.28,-0.245 -0.59,-0.432 -0.95,-0.56c-0.34,-0.128 -0.67,-0.192 -0.99,-0.192c-0.69,0 -1.23,0.219 -1.61,0.656c-0.38,0.427 -0.56,1.04 -0.56,1.84c0,0.789 0.18,1.413 0.56,1.872c0.38,0.448 0.92,0.672 1.61,0.672c0.31,0 0.64,-0.064 0.99,-0.192c0.36,-0.128 0.67,-0.32 0.95,-0.576l0.59,1.408c-0.32,0.277 -0.73,0.501 -1.23,0.672c-0.49,0.16 -0.98,0.24 -1.47,0.24zM686.78,71.5v-6.256h-2.67v-1.568h7.36v1.568h-2.69v6.256zM692.7,71.5v-7.824h2v3.024h3.45v-3.024h2v7.824h-2v-3.232h-3.45v3.232zM702.43,71.5v-7.824h1.81v5.216l3.92,-5.216h1.66v7.824h-1.8v-5.216l-3.92,5.216zM712.09,71.5v-7.824h2v3.04h1.14l2.27,-3.04h2.14l-2.56,3.504c0.25,0.128 0.47,0.309 0.66,0.544c0.2,0.224 0.4,0.512 0.61,0.864l1.64,2.912h-2.14l-1.31,-2.304c-0.21,-0.373 -0.41,-0.619 -0.63,-0.736c-0.2,-0.128 -0.48,-0.192 -0.83,-0.192h-0.99v3.232zM721.03,71.5v-7.824h1.8v5.216l3.92,-5.216h1.67v7.824h-1.81v-5.216l-3.92,5.216z" fill="#FDFDFD"/><g id="ep:arrow-down_2" data-node-id="1:205"><path id="Vector_38" data-node-id="1:206" d="M881.75,63.157l-6.25,6.09l-6.25,-6.09c-0.11,-0.109 -0.26,-0.17 -0.42,-0.17c-0.15,0 -0.3,0.061 -0.41,0.17c-0.06,0.053 -0.1,0.117 -0.13,0.186c-0.03,0.07 -0.04,0.145 -0.04,0.221c0,0.075 0.01,0.15 0.04,0.22c0.03,0.07 0.07,0.133 0.13,0.186l6.64,6.48c0.12,0.114 0.28,0.177 0.44,0.177c0.16,0 0.32,-0.063 0.44,-0.177l6.64,-6.479c0.06,-0.053 0.1,-0.116 0.13,-0.186c0.03,-0.07 0.04,-0.145 0.04,-0.221c0,-0.076 -0.01,-0.152 -0.04,-0.222c-0.03,-0.069 -0.07,-0.133 -0.13,-0.186c-0.11,-0.109 -0.26,-0.17 -0.42,-0.17c-0.15,0 -0.3,0.061 -0.41,0.17z" fill="#FDFDFD"/></g></g></g><g id="Frame 21_6" data-node-id="1:207"><path id="Supporting Text_3" data-node-id="1:208" d="M640.62,115.5v-6.804h0.94l2.56,4.55l2.56,-4.55h0.93v6.804h-1.01v-4.956l-2.2,3.864h-0.57l-2.2,-3.864v4.956zM649.85,115.5v-6.804h1.03v5.264l3.94,-5.264h0.96v6.804h-1.03v-5.264l-3.94,5.264zM658.02,115.5v-6.804h1.14v2.828h3.71v-2.828h1.13v6.804h-1.13v-3.052h-3.71v3.052zM666.24,115.5v-6.804h1.04v5.264l3.93,-5.264h0.97v6.804h-1.04v-5.264l-3.93,5.264zM674.42,115.5v-6.804h0.93l2.57,4.55l2.56,-4.55h0.92v6.804h-1.01v-4.956l-2.19,3.864h-0.58l-2.2,-3.864v4.956zM684.44,118.02l1.17,-2.632l-2.87,-6.692h1.23l2.25,5.516l2.27,-5.516h1.19l-4.05,9.324zM690.99,115.5v-6.804h0.94l2.56,4.55l2.56,-4.55h0.92v6.804h-1v-4.956l-2.2,3.864h-0.58l-2.19,-3.864v4.956zM707.97,115.5v-2.114h-4.55v-0.868l4.75,-6.888h0.96v6.776h1.47v0.98h-1.47v2.114zM707.97,112.406v-4.886l-3.36,4.886zM720.17,115.5v-2.758c-0.52,0.317 -1.13,0.476 -1.81,0.476c-0.97,0 -1.69,-0.229 -2.15,-0.686c-0.47,-0.467 -0.7,-1.171 -0.7,-2.114v-1.722h1.13v1.638c0,0.672 0.15,1.162 0.44,1.47c0.29,0.308 0.77,0.462 1.42,0.462c0.34,0 0.63,-0.037 0.89,-0.112c0.26,-0.075 0.51,-0.196 0.77,-0.364v-3.094h1.13v6.804zM726.61,115.626c-1.08,0 -1.93,-0.313 -2.55,-0.938c-0.63,-0.635 -0.94,-1.493 -0.94,-2.576c0,-0.7 0.14,-1.316 0.42,-1.848c0.28,-0.541 0.66,-0.957 1.15,-1.246c0.49,-0.299 1.06,-0.448 1.71,-0.448c0.92,0 1.64,0.299 2.17,0.896c0.52,0.588 0.78,1.4 0.78,2.436v0.434h-5.12c0.03,0.775 0.26,1.367 0.67,1.778c0.41,0.401 0.98,0.602 1.71,0.602c0.41,0 0.8,-0.061 1.17,-0.182c0.38,-0.131 0.73,-0.341 1.07,-0.63l0.39,0.798c-0.31,0.289 -0.7,0.518 -1.18,0.686c-0.47,0.159 -0.96,0.238 -1.45,0.238zM726.42,109.41c-0.64,0 -1.15,0.201 -1.52,0.602c-0.38,0.401 -0.59,0.929 -0.66,1.582h4.13c-0.03,-0.691 -0.21,-1.227 -0.55,-1.61c-0.32,-0.383 -0.79,-0.574 -1.4,-0.574zM730.74,115.654l-0.42,-0.896c0.42,-0.177 0.75,-0.425 0.99,-0.742c0.24,-0.327 0.41,-0.775 0.5,-1.344c0.11,-0.569 0.16,-1.316 0.16,-2.24v-1.736h4.94v6.804h-1.13v-5.894h-2.75v0.868c0,1.064 -0.08,1.941 -0.24,2.632c-0.15,0.691 -0.39,1.237 -0.72,1.638c-0.34,0.401 -0.78,0.705 -1.33,0.91zM742,115.626c-0.67,0 -1.24,-0.145 -1.73,-0.434c-0.48,-0.289 -0.86,-0.695 -1.13,-1.218c-0.26,-0.532 -0.39,-1.157 -0.39,-1.876c0,-0.719 0.13,-1.339 0.39,-1.862c0.27,-0.532 0.65,-0.943 1.13,-1.232c0.49,-0.289 1.06,-0.434 1.73,-0.434c0.65,0 1.22,0.145 1.7,0.434c0.5,0.289 0.88,0.7 1.14,1.232c0.27,0.523 0.4,1.143 0.4,1.862c0,0.719 -0.13,1.344 -0.4,1.876c-0.26,0.523 -0.64,0.929 -1.14,1.218c-0.48,0.289 -1.05,0.434 -1.7,0.434zM742,114.716c0.63,0 1.14,-0.224 1.52,-0.672c0.38,-0.457 0.58,-1.106 0.58,-1.946c0,-0.849 -0.2,-1.498 -0.58,-1.946c-0.38,-0.448 -0.89,-0.672 -1.52,-0.672c-0.65,0 -1.16,0.224 -1.54,0.672c-0.38,0.448 -0.56,1.097 -0.56,1.946c0,0.84 0.18,1.489 0.56,1.946c0.38,0.448 0.89,0.672 1.54,0.672zM747.08,115.5v-6.804h3.32c0.8,0 1.4,0.154 1.78,0.462c0.38,0.299 0.57,0.742 0.57,1.33c0,0.355 -0.1,0.663 -0.31,0.924c-0.19,0.261 -0.46,0.453 -0.81,0.574c0.42,0.103 0.75,0.299 0.98,0.588c0.25,0.289 0.37,0.639 0.37,1.05c0,0.579 -0.22,1.036 -0.65,1.372c-0.43,0.336 -1.03,0.504 -1.82,0.504zM748.16,111.65h2.18c0.43,0 0.77,-0.093 1,-0.28c0.23,-0.196 0.35,-0.471 0.35,-0.826c0,-0.345 -0.12,-0.611 -0.35,-0.798c-0.23,-0.187 -0.57,-0.28 -1,-0.28h-2.18zM748.16,114.73h2.31c0.47,0 0.82,-0.098 1.06,-0.294c0.25,-0.196 0.37,-0.485 0.37,-0.868c0,-0.373 -0.12,-0.658 -0.37,-0.854c-0.24,-0.196 -0.59,-0.294 -1.06,-0.294h-2.31zM757.82,115.626c-1.07,0 -1.92,-0.313 -2.55,-0.938c-0.62,-0.635 -0.94,-1.493 -0.94,-2.576c0,-0.7 0.14,-1.316 0.42,-1.848c0.28,-0.541 0.67,-0.957 1.15,-1.246c0.5,-0.299 1.07,-0.448 1.71,-0.448c0.92,0 1.65,0.299 2.17,0.896c0.52,0.588 0.78,1.4 0.78,2.436v0.434h-5.12c0.04,0.775 0.26,1.367 0.67,1.778c0.41,0.401 0.98,0.602 1.71,0.602c0.41,0 0.8,-0.061 1.18,-0.182c0.37,-0.131 0.72,-0.341 1.06,-0.63l0.39,0.798c-0.31,0.289 -0.7,0.518 -1.17,0.686c-0.48,0.159 -0.97,0.238 -1.46,0.238zM757.64,109.41c-0.65,0 -1.16,0.201 -1.53,0.602c-0.37,0.401 -0.59,0.929 -0.66,1.582h4.13c-0.02,-0.691 -0.21,-1.227 -0.54,-1.61c-0.33,-0.383 -0.8,-0.574 -1.4,-0.574zM762.33,115.5v-6.804h1.13v2.842h1.28l2.22,-2.842h1.25l-2.37,3.066c0.24,0.093 0.46,0.247 0.66,0.462c0.2,0.215 0.41,0.523 0.66,0.924l1.4,2.352h-1.22l-1.23,-2.058c-0.24,-0.401 -0.46,-0.667 -0.67,-0.798c-0.22,-0.131 -0.52,-0.196 -0.91,-0.196h-1.07v3.052zM771.85,115.626c-0.46,0 -0.88,-0.089 -1.26,-0.266c-0.36,-0.187 -0.65,-0.439 -0.87,-0.756c-0.21,-0.317 -0.32,-0.672 -0.32,-1.064c0,-0.495 0.13,-0.887 0.38,-1.176c0.26,-0.289 0.69,-0.495 1.27,-0.616c0.6,-0.131 1.41,-0.196 2.44,-0.196h0.45v-0.434c0,-0.579 -0.12,-0.994 -0.37,-1.246c-0.23,-0.261 -0.61,-0.392 -1.13,-0.392c-0.41,0 -0.81,0.061 -1.19,0.182c-0.38,0.112 -0.77,0.299 -1.18,0.56l-0.39,-0.826c0.36,-0.252 0.79,-0.453 1.29,-0.602c0.51,-0.149 1,-0.224 1.47,-0.224c0.88,0 1.53,0.215 1.95,0.644c0.43,0.429 0.64,1.097 0.64,2.002v4.284h-1.06v-1.176c-0.18,0.401 -0.46,0.719 -0.83,0.952c-0.36,0.233 -0.79,0.35 -1.29,0.35zM772.03,114.772c0.56,0 1.02,-0.191 1.38,-0.574c0.35,-0.392 0.53,-0.887 0.53,-1.484v-0.42h-0.44c-0.75,0 -1.35,0.037 -1.79,0.112c-0.43,0.065 -0.73,0.187 -0.91,0.364c-0.17,0.168 -0.25,0.401 -0.25,0.7c0,0.383 0.13,0.695 0.39,0.938c0.27,0.243 0.64,0.364 1.09,0.364z" fill="#FDFDFD"/></g></g><g id="button_7" data-node-id="1:209"><rect x="925.5" y="40.5" width="213" height="52" rx="4" fill="#FDFDFD"/><path id="Консультация_7" data-node-id="I1:209;1:222" d="M962.73,71.5v-11.28h2.05v4.704h5.81v-4.704h2.05v11.28h-2.05v-4.864h-5.81v4.864zM977.8,71.66c-0.57,0 -1.08,-0.107 -1.52,-0.32c-0.44,-0.224 -0.79,-0.523 -1.04,-0.896c-0.25,-0.373 -0.37,-0.795 -0.37,-1.264c0,-0.576 0.15,-1.029 0.45,-1.36c0.29,-0.341 0.78,-0.587 1.45,-0.736c0.67,-0.149 1.57,-0.224 2.71,-0.224h0.56v-0.336c0,-0.533 -0.12,-0.917 -0.36,-1.152c-0.23,-0.235 -0.63,-0.352 -1.18,-0.352c-0.44,0 -0.89,0.069 -1.34,0.208c-0.46,0.128 -0.93,0.331 -1.4,0.608l-0.57,-1.36c0.27,-0.192 0.6,-0.357 0.97,-0.496c0.39,-0.149 0.79,-0.261 1.2,-0.336c0.43,-0.085 0.83,-0.128 1.2,-0.128c1.14,0 1.99,0.267 2.55,0.8c0.55,0.523 0.83,1.339 0.83,2.448v4.736h-1.87v-1.248c-0.18,0.437 -0.47,0.784 -0.87,1.04c-0.39,0.245 -0.86,0.368 -1.4,0.368zM978.21,70.284c0.52,0 0.96,-0.181 1.3,-0.544c0.35,-0.363 0.53,-0.821 0.53,-1.376v-0.352h-0.55c-1,0 -1.7,0.08 -2.09,0.24c-0.39,0.149 -0.58,0.427 -0.58,0.832c0,0.352 0.12,0.64 0.37,0.864c0.24,0.224 0.58,0.336 1.02,0.336zM984.36,71.5v-7.824h1.81v5.216l3.92,-5.216h1.67v7.824h-1.81v-5.216l-3.92,5.216zM988.04,62.684c-0.77,0 -1.41,-0.197 -1.92,-0.592c-0.5,-0.405 -0.83,-0.949 -0.99,-1.632l1.03,-0.352c0.18,0.512 0.42,0.885 0.72,1.12c0.31,0.235 0.7,0.352 1.18,0.352c0.49,0 0.89,-0.117 1.18,-0.352c0.3,-0.245 0.55,-0.613 0.76,-1.104l0.97,0.336c-0.22,0.736 -0.59,1.291 -1.1,1.664c-0.5,0.373 -1.11,0.56 -1.83,0.56zM995.86,71.5v-6.256h-2.67v-1.568h7.36v1.568h-2.69v6.256zM1001.97,71.5v-7.824h1.8v5.216l3.92,-5.216h1.67v7.824h-1.81v-5.216l-3.92,5.216zM1016.32,71.5v-7.824h7.41v7.824h-2v-6.256h-3.41v6.256zM1026.21,74.38v-10.704h1.96v1.248c0.22,-0.427 0.56,-0.768 1,-1.024c0.46,-0.256 0.98,-0.384 1.56,-0.384c0.68,0 1.28,0.165 1.79,0.496c0.52,0.331 0.93,0.8 1.21,1.408c0.29,0.597 0.44,1.317 0.44,2.16c0,0.832 -0.15,1.557 -0.44,2.176c-0.28,0.608 -0.68,1.077 -1.2,1.408c-0.51,0.331 -1.11,0.496 -1.8,0.496c-0.56,0 -1.06,-0.117 -1.51,-0.352c-0.43,-0.245 -0.77,-0.571 -1.01,-0.976v4.048zM1030.17,70.14c0.59,0 1.07,-0.213 1.44,-0.64c0.36,-0.437 0.54,-1.077 0.54,-1.92c0,-0.853 -0.18,-1.488 -0.54,-1.904c-0.37,-0.427 -0.85,-0.64 -1.44,-0.64c-0.6,0 -1.08,0.213 -1.44,0.64c-0.37,0.416 -0.55,1.051 -0.55,1.904c0,0.843 0.18,1.483 0.55,1.92c0.36,0.427 0.84,0.64 1.44,0.64zM1039.8,71.66c-0.81,0 -1.51,-0.165 -2.11,-0.496c-0.6,-0.331 -1.06,-0.8 -1.39,-1.408c-0.33,-0.619 -0.5,-1.344 -0.5,-2.176c0,-0.832 0.17,-1.552 0.5,-2.16c0.33,-0.608 0.79,-1.077 1.39,-1.408c0.6,-0.331 1.3,-0.496 2.11,-0.496c0.81,0 1.52,0.165 2.11,0.496c0.6,0.331 1.07,0.8 1.4,1.408c0.33,0.608 0.49,1.328 0.49,2.16c0,0.832 -0.16,1.557 -0.49,2.176c-0.33,0.608 -0.8,1.077 -1.4,1.408c-0.59,0.331 -1.3,0.496 -2.11,0.496zM1039.8,70.14c0.6,0 1.08,-0.213 1.44,-0.64c0.37,-0.437 0.55,-1.077 0.55,-1.92c0,-0.853 -0.18,-1.488 -0.55,-1.904c-0.36,-0.427 -0.84,-0.64 -1.44,-0.64c-0.59,0 -1.07,0.213 -1.44,0.64c-0.36,0.416 -0.54,1.051 -0.54,1.904c0,0.843 0.18,1.483 0.54,1.92c0.37,0.427 0.85,0.64 1.44,0.64zM1045.85,71.5v-7.824h5.92v1.568h-3.92v6.256zM1053.37,74.38v-10.704h1.95v1.248c0.22,-0.427 0.56,-0.768 1.01,-1.024c0.46,-0.256 0.97,-0.384 1.55,-0.384c0.68,0 1.28,0.165 1.79,0.496c0.53,0.331 0.93,0.8 1.22,1.408c0.29,0.597 0.43,1.317 0.43,2.16c0,0.832 -0.14,1.557 -0.43,2.176c-0.29,0.608 -0.69,1.077 -1.2,1.408c-0.51,0.331 -1.12,0.496 -1.81,0.496c-0.55,0 -1.06,-0.117 -1.5,-0.352c-0.44,-0.245 -0.78,-0.571 -1.01,-0.976v4.048zM1057.32,70.14c0.6,0 1.08,-0.213 1.44,-0.64c0.36,-0.437 0.54,-1.077 0.54,-1.92c0,-0.853 -0.18,-1.488 -0.54,-1.904c-0.36,-0.427 -0.84,-0.64 -1.44,-0.64c-0.6,0 -1.08,0.213 -1.44,0.64c-0.36,0.416 -0.54,1.051 -0.54,1.904c0,0.843 0.18,1.483 0.54,1.92c0.36,0.427 0.84,0.64 1.44,0.64zM1065.96,71.66c-0.56,0 -1.07,-0.107 -1.52,-0.32c-0.43,-0.224 -0.78,-0.523 -1.04,-0.896c-0.24,-0.373 -0.36,-0.795 -0.36,-1.264c0,-0.576 0.15,-1.029 0.44,-1.36c0.3,-0.341 0.79,-0.587 1.46,-0.736c0.67,-0.149 1.57,-0.224 2.7,-0.224h0.56v-0.336c0,-0.533 -0.11,-0.917 -0.35,-1.152c-0.23,-0.235 -0.63,-0.352 -1.18,-0.352c-0.44,0 -0.89,0.069 -1.35,0.208c-0.45,0.128 -0.92,0.331 -1.39,0.608l-0.57,-1.36c0.27,-0.192 0.6,-0.357 0.97,-0.496c0.39,-0.149 0.79,-0.261 1.2,-0.336c0.43,-0.085 0.83,-0.128 1.2,-0.128c1.14,0 1.99,0.267 2.55,0.8c0.55,0.523 0.83,1.339 0.83,2.448v4.736h-1.87v-1.248c-0.18,0.437 -0.47,0.784 -0.87,1.04c-0.39,0.245 -0.86,0.368 -1.41,0.368zM1066.38,70.284c0.52,0 0.96,-0.181 1.3,-0.544c0.35,-0.363 0.52,-0.821 0.52,-1.376v-0.352h-0.54c-1,0 -1.7,0.08 -2.1,0.24c-0.38,0.149 -0.57,0.427 -0.57,0.832c0,0.352 0.12,0.64 0.37,0.864c0.24,0.224 0.58,0.336 1.02,0.336zM1072.53,71.5v-7.824h1.65l2.71,4.624l2.7,-4.624h1.63v7.824h-1.76v-4.864l-2.11,3.584h-0.94l-2.12,-3.584v4.864zM1083.68,71.5v-7.824h1.65l2.7,4.624l2.7,-4.624h1.64v7.824h-1.76v-4.864l-2.12,3.584h-0.94l-2.11,-3.584v4.864zM1095.54,74.38l1.44,-3.2l-3.24,-7.504h2.12l2.2,5.472l2.24,-5.472h2.01l-4.7,10.704z" fill="#1A3E3E"/></g></g></g></svg>