<svg viewBox="0 0 997.213 128.966" x="0" y="0" fill="none" xmlns="http://www.w3.org/2000/svg"><path id="Насладись прогулкой в горах с командой единомышленников" data-node-id="1:11" d="M25.207,11.254h7.324v35.01h-7.324v-15.796h-15.698v15.796h-7.3v-35.01h7.3v12.451h15.698zM64.22,46.264l-2.198,-5.835h-15.454l-2.148,5.835h-7.593l13.892,-34.985h7.226l13.867,34.985zM54.332,19.799l-5.249,14.014h10.425zM107.725,23.266l-6.91,2.246c-1.464,-4.761 -5.078,-7.617 -10.009,-7.617c-6.128,0 -10.328,4.736 -10.328,10.864c0,5.835 4.102,10.816 10.328,10.816c4.907,0 8.52,-2.808 10.034,-7.74l6.958,2.149c-2.1,7.348 -8.985,12.28 -16.992,12.28c-9.742,0 -17.847,-7.495 -17.847,-17.505c0,-9.814 7.739,-17.529 17.847,-17.529c7.739,0 14.575,4.248 16.919,12.036zM117.343,11.254h25.39v35.01h-7.299v-28.271h-10.792v13.037c0,4.15 -0.61,7.324 -2.392,10.009c-2.149,3.223 -5.371,5.225 -9.302,5.225c-1.977,0 -3.857,-0.488 -5.566,-1.44l3.515,-6.421c0.611,0.366 1.294,0.537 2.051,0.537c1.416,0 2.442,-0.684 3.198,-1.831c0.977,-1.465 1.197,-3.467 1.197,-6.763zM174.446,46.264l-2.197,-5.835h-15.454l-2.149,5.835h-7.592l13.891,-34.985h7.227l13.867,34.985zM164.559,19.799l-5.25,14.014h10.425zM210.114,18.017h-10.156c-0.024,3.393 -0.195,6.86 -0.757,10.449c-0.561,3.565 -1.489,7.227 -3.027,11.035h13.94zM217.438,11.254v28.247h4.786v13.965h-7.3v-7.202h-23.365v7.202h-7.324v-13.965h4.126c1.929,-3.589 2.979,-7.617 3.565,-11.792c0.781,-5.444 0.757,-11.133 0.879,-16.455zM259.527,46.264h-7.3v-22.168l-20.312,22.168h-4.028v-35.01h7.299v22.144l20.337,-22.144h4.004zM300.176,23.266l-6.909,2.246c-1.465,-4.761 -5.079,-7.617 -10.01,-7.617c-6.128,0 -10.327,4.736 -10.327,10.864c0,5.835 4.101,10.816 10.327,10.816c4.907,0 8.52,-2.808 10.034,-7.74l6.958,2.149c-2.1,7.348 -8.984,12.28 -16.992,12.28c-9.741,0 -17.847,-7.495 -17.847,-17.505c0,-9.814 7.739,-17.529 17.847,-17.529c7.739,0 14.575,4.248 16.919,12.036zM326.933,35.522c0,-1.807 -1.124,-3.028 -2.54,-3.638c-0.61,-0.268 -1.293,-0.366 -2.709,-0.366h-8.667v8.057h8.642c1.465,0 2.149,-0.147 2.734,-0.415c1.465,-0.611 2.54,-1.88 2.54,-3.638zM334.135,35.522c0,4.077 -1.856,7.251 -4.712,9.082c-1.709,1.074 -3.809,1.66 -6.812,1.66h-16.894v-34.985h7.3v13.549h9.594c3.003,0 5.078,0.586 6.763,1.685c2.905,1.831 4.761,5.078 4.761,9.009zM353.469,11.254h30.346v35.01h-7.324v-28.247h-15.698v28.247h-7.324zM398.731,25.463h8.887c1.392,0 2.051,-0.097 2.661,-0.342c1.367,-0.561 2.466,-1.684 2.466,-3.369c0,-1.635 -1.05,-2.807 -2.466,-3.369c-0.586,-0.244 -1.245,-0.366 -2.685,-0.366h-8.863zM398.731,46.264h-7.299v-34.985h17.138c2.979,0 5.03,0.561 6.714,1.635c2.832,1.758 4.663,4.859 4.663,8.838c0,3.833 -1.831,6.983 -4.712,8.789c-1.66,1.05 -3.686,1.636 -6.665,1.636h-9.839zM459.302,28.759c0,9.839 -7.569,17.505 -17.847,17.505c-10.254,0 -17.822,-7.666 -17.822,-17.505c0,-9.814 7.568,-17.505 17.822,-17.505c10.278,0 17.847,7.691 17.847,17.505zM451.807,28.759c0,-6.03 -4.053,-10.791 -10.352,-10.791c-6.274,0 -10.327,4.761 -10.327,10.791c0,6.055 4.053,10.767 10.327,10.767c6.299,0 10.352,-4.712 10.352,-10.767zM472.533,46.264h-7.324v-35.01h24.634v6.763h-17.31zM492.649,11.254h8.155l8.545,16.114l8.252,-16.114h8.105l-12.72,23.828c-1.904,3.565 -3.198,5.762 -4.98,7.642c-1.978,2.075 -4.37,3.589 -7.593,3.589c-2.222,0 -4.346,-0.708 -6.152,-2.027l3.735,-6.152c0.708,0.537 1.587,0.855 2.515,0.855c1.513,0 2.636,-0.855 4.614,-4.053c0.049,-0.098 0.268,-0.464 0.268,-0.464zM530.319,11.254h25.391v35.01h-7.3v-28.271h-10.791v13.037c0,4.15 -0.61,7.324 -2.393,10.009c-2.148,3.223 -5.371,5.225 -9.301,5.225c-1.978,0 -3.858,-0.488 -5.567,-1.44l3.516,-6.421c0.61,0.366 1.294,0.537 2.051,0.537c1.416,0 2.441,-0.684 3.198,-1.831c0.977,-1.465 1.196,-3.467 1.196,-6.763zM581.319,11.254h8.789l-12.744,15.259l15.43,19.751h-9.009l-13.135,-17.383v17.383h-7.324v-35.01h7.324v13.257zM628.413,28.759c0,9.839 -7.568,17.505 -17.847,17.505c-10.254,0 -17.822,-7.666 -17.822,-17.505c0,-9.814 7.568,-17.505 17.822,-17.505c10.279,0 17.847,7.691 17.847,17.505zM620.918,28.759c0,-6.03 -4.053,-10.791 -10.352,-10.791c-6.274,0 -10.327,4.761 -10.327,10.791c0,6.055 4.053,10.767 10.327,10.767c6.299,0 10.352,-4.712 10.352,-10.767zM658.733,5.273l-7.81,8.301l-4.84,-4.566l7.79,-8.301zM665.963,46.264h-7.3v-22.168l-20.31,22.168h-4.03v-35.01h7.3v22.144l20.33,-22.144h4.01zM694.793,25.268h6.2c1.39,0 2.03,-0.098 2.66,-0.342c1.42,-0.586 2.52,-1.684 2.52,-3.393c0,-1.661 -1.1,-2.784 -2.52,-3.394c-0.58,-0.269 -1.22,-0.366 -2.68,-0.366h-6.18zM694.793,39.623h8.47c1.51,0 2.25,-0.122 2.93,-0.39c1.49,-0.611 2.71,-1.831 2.71,-3.736c0,-1.782 -1.15,-3.076 -2.71,-3.686c-0.66,-0.269 -1.39,-0.391 -2.98,-0.391h-8.42zM687.493,46.264v-34.985h14.26c2.78,0 4.64,0.464 6.2,1.318c3.1,1.709 5.17,4.858 5.17,9.009c0,2.173 -0.83,4.126 -2.27,5.762c3.03,1.684 5.25,4.614 5.25,8.422c0,4.053 -2,7.251 -5,9.009c-1.61,0.928 -3.52,1.465 -6.4,1.465zM743.203,46.264h-7.32v-35.01h24.63v6.763h-17.31zM798.283,28.759c0,9.839 -7.57,17.505 -17.85,17.505c-10.25,0 -17.82,-7.666 -17.82,-17.505c0,-9.814 7.57,-17.505 17.82,-17.505c10.28,0 17.85,7.691 17.85,17.505zM790.783,28.759c0,-6.03 -4.05,-10.791 -10.35,-10.791c-6.27,0 -10.33,4.761 -10.33,10.791c0,6.055 4.06,10.767 10.33,10.767c6.3,0 10.35,-4.712 10.35,-10.767zM811.483,25.463h8.89c1.39,0 2.05,-0.097 2.66,-0.342c1.37,-0.561 2.47,-1.684 2.47,-3.369c0,-1.635 -1.05,-2.807 -2.47,-3.369c-0.58,-0.244 -1.24,-0.366 -2.68,-0.366h-8.87zM811.483,46.264h-7.3v-34.985h17.14c2.98,0 5.03,0.561 6.72,1.635c2.83,1.758 4.66,4.859 4.66,8.838c0,3.833 -1.83,6.983 -4.71,8.789c-1.66,1.05 -3.69,1.636 -6.67,1.636h-9.84zM858.973,46.264l-2.2,-5.835h-15.45l-2.15,5.835h-7.59l13.89,-34.985h7.22l13.87,34.985zM849.083,19.799l-5.25,14.014h10.43zM867.953,46.264l13.38,-18.481l-11.96,-16.504h8.96l7.22,10.571l7.23,-10.571h8.96l-11.96,16.504l13.4,18.481h-9.03l-8.6,-12.598l-8.59,12.598zM35.266,98.266l-6.91,2.246c-1.464,-4.761 -5.078,-7.617 -10.009,-7.617c-6.128,0 -10.328,4.736 -10.328,10.864c0,5.835 4.102,10.816 10.328,10.816c4.907,0 8.52,-2.808 10.034,-7.74l6.958,2.149c-2.1,7.348 -8.985,12.28 -16.992,12.28c-9.742,0 -17.847,-7.495 -17.847,-17.505c0,-9.814 7.739,-17.529 17.847,-17.529c7.739,0 14.575,4.248 16.919,12.036zM72.739,86.254h8.789l-12.744,15.259l15.43,19.751h-9.009l-13.135,-17.383v17.383h-7.324v-35.01h7.324v13.257zM119.833,103.759c0,9.839 -7.568,17.505 -17.847,17.505c-10.254,0 -17.822,-7.666 -17.822,-17.505c0,-9.814 7.568,-17.505 17.822,-17.505c10.279,0 17.847,7.691 17.847,17.505zM112.338,103.759c0,-6.03 -4.053,-10.791 -10.352,-10.791c-6.274,0 -10.327,4.761 -10.327,10.791c0,6.055 4.053,10.767 10.327,10.767c6.299,0 10.352,-4.712 10.352,-10.767zM125.74,86.254h3.98l14.965,17.359l14.966,-17.359h3.98v35.01h-7.3v-21.509l-11.646,13.697l-11.645,-13.697v21.509h-7.3zM195.319,121.264l-2.197,-5.835h-15.454l-2.149,5.835h-7.592l13.891,-34.985h7.227l13.867,34.985zM185.432,94.799l-5.249,14.014h10.424zM230.23,86.254h7.325v35.01h-7.325v-15.796h-15.698v15.796h-7.3v-35.01h7.3v12.451h15.698zM268.901,93.017h-10.156c-0.024,3.393 -0.195,6.86 -0.757,10.449c-0.561,3.565 -1.489,7.227 -3.027,11.035h13.94zM276.225,86.254v28.247h4.786v13.965h-7.3v-7.202h-23.364v7.202h-7.325v-13.965h4.126c1.929,-3.589 2.979,-7.617 3.565,-11.792c0.781,-5.444 0.757,-11.133 0.879,-16.455zM319.169,103.759c0,9.839 -7.568,17.505 -17.847,17.505c-10.254,0 -17.822,-7.666 -17.822,-17.505c0,-9.814 7.568,-17.505 17.822,-17.505c10.279,0 17.847,7.691 17.847,17.505zM311.674,103.759c0,-6.03 -4.053,-10.791 -10.352,-10.791c-6.274,0 -10.327,4.761 -10.327,10.791c0,6.055 4.053,10.767 10.327,10.767c6.299,0 10.352,-4.712 10.352,-10.767zM349.49,80.273l-7.812,8.301l-4.834,-4.566l7.788,-8.301zM356.717,121.264h-7.3v-22.168l-20.313,22.168h-4.028v-35.01h7.3v22.144l20.337,-22.144h4.004zM378.248,86.254h24.634v6.739h-17.31v5.761h13.208v6.665h-13.208v9.107h17.31v6.738h-24.634zM433.13,93.017h-10.156c-0.025,3.393 -0.196,6.86 -0.757,10.449c-0.562,3.565 -1.49,7.227 -3.028,11.035h13.941zM440.454,86.254v28.247h4.785v13.965h-7.3v-7.202h-23.364v7.202h-7.324v-13.965h4.126c1.929,-3.589 2.978,-7.617 3.564,-11.792c0.782,-5.444 0.757,-11.133 0.879,-16.455zM482.543,121.264h-7.3v-22.168l-20.312,22.168h-4.029v-35.01h7.3v22.144l20.337,-22.144h4.004zM513.133,86.254h7.324v35.01h-7.324v-15.796h-15.699v15.796h-7.299v-35.01h7.299v12.451h15.699zM562.009,103.759c0,9.839 -7.569,17.505 -17.847,17.505c-10.254,0 -17.822,-7.666 -17.822,-17.505c0,-9.814 7.568,-17.505 17.822,-17.505c10.278,0 17.847,7.691 17.847,17.505zM554.514,103.759c0,-6.03 -4.053,-10.791 -10.352,-10.791c-6.274,0 -10.327,4.761 -10.327,10.791c0,6.055 4.053,10.767 10.327,10.767c6.299,0 10.352,-4.712 10.352,-10.767zM567.916,86.254h3.979l14.966,17.359l14.966,-17.359h3.98v35.01h-7.3v-21.509l-11.646,13.697l-11.645,-13.697v21.509h-7.3zM653.263,86.279v34.985h-7.3v-34.985zM634.613,110.522c0,-1.807 -1.12,-3.028 -2.54,-3.638c-0.61,-0.268 -1.29,-0.366 -2.71,-0.366h-8.665v8.057h8.645c1.46,0 2.15,-0.147 2.73,-0.415c1.47,-0.611 2.54,-1.88 2.54,-3.638zM641.813,110.522c0,4.077 -1.85,7.251 -4.71,9.082c-1.71,1.074 -3.81,1.66 -6.81,1.66h-16.895v-34.985h7.3v13.549h9.595c3,0 5.08,0.586 6.76,1.685c2.91,1.831 4.76,5.078 4.76,9.009zM696.823,86.254h7.3v35.01h-43.24v-35.01h7.3v28.223h10.69v-28.223h7.25v28.223h10.7zM717.913,86.254h25.39v35.01h-7.3v-28.271h-10.79v13.037c0,4.15 -0.61,7.324 -2.39,10.009c-2.15,3.223 -5.37,5.225 -9.3,5.225c-1.98,0 -3.86,-0.488 -5.57,-1.44l3.51,-6.421c0.62,0.366 1.3,0.537 2.06,0.537c1.41,0 2.44,-0.684 3.19,-1.831c0.98,-1.465 1.2,-3.467 1.2,-6.763zM750.923,86.254h24.63v6.739h-17.31v5.761h13.21v6.665h-13.21v9.107h17.31v6.738h-24.63zM805.043,86.254h7.33v35.01h-7.33v-15.796h-15.7v15.796h-7.3v-35.01h7.3v12.451h15.7zM842.963,86.254h7.32v35.01h-7.32v-15.796h-15.7v15.796h-7.3v-35.01h7.3v12.451h15.7zM889.513,121.264h-7.3v-22.168l-20.31,22.168h-4.03v-35.01h7.3v22.144l20.34,-22.144h4zM915.103,86.254h8.79l-12.75,15.259l15.43,19.751h-9.01l-13.13,-17.383v17.383h-7.33v-35.01h7.33v13.257zM962.193,103.759c0,9.839 -7.57,17.505 -17.85,17.505c-10.25,0 -17.82,-7.666 -17.82,-17.505c0,-9.814 7.57,-17.505 17.82,-17.505c10.28,0 17.85,7.691 17.85,17.505zM954.703,103.759c0,-6.03 -4.06,-10.791 -10.36,-10.791c-6.27,0 -10.32,4.761 -10.32,10.791c0,6.055 4.05,10.767 10.32,10.767c6.3,0 10.36,-4.712 10.36,-10.767zM975.403,100.268h6.2c1.39,0 2.03,-0.098 2.66,-0.342c1.42,-0.586 2.52,-1.684 2.52,-3.393c0,-1.661 -1.1,-2.784 -2.52,-3.394c-0.59,-0.269 -1.22,-0.366 -2.68,-0.366h-6.18zM975.403,114.623h8.47c1.51,0 2.25,-0.122 2.93,-0.39c1.49,-0.611 2.71,-1.831 2.71,-3.736c0,-1.782 -1.15,-3.076 -2.71,-3.686c-0.66,-0.269 -1.39,-0.391 -2.98,-0.391h-8.42zM968.103,121.264v-34.985h14.26c2.78,0 4.63,0.464 6.2,1.318c3.1,1.709 5.17,4.858 5.17,9.009c0,2.173 -0.83,4.126 -2.27,5.762c3.03,1.684 5.25,4.614 5.25,8.422c0,4.053 -2,7.251 -5,9.009c-1.61,0.928 -3.52,1.465 -6.4,1.465z" fill="#FDFDFD" xmlns="http://www.w3.org/2000/svg"/></svg>