<svg viewBox="0 0 1181 197" x="0" y="0" fill="none" xmlns="http://www.w3.org/2000/svg"><defs><filter id="filter1_d_1_9" x="-14.5" y="-14.5" width="1210" height="226" filterUnits="userSpaceOnUse" color-interpolation-filters="sRGB" xmlns="http://www.w3.org/2000/svg"><feFlood flood-opacity="0" result="BackgroundImageFix"/><feColorMatrix in="SourceAlpha" type="matrix" values="0 0 0 0 0 0 0 0 0 0 0 0 0 0 0 0 0 0 127 0" result="hardAlpha"/><feOffset/><feGaussianBlur stdDeviation="7.5"/><feComposite in2="hardAlpha" operator="out"/><feColorMatrix type="matrix" values="0 0 0 0 0.0941176 0 0 0 0 0.0705882 0 0 0 0 0.117647 0 0 0 0.12 0"/><feBlend mode="normal" in2="BackgroundImageFix" result="effect1_dropShadow_1_9"/><feBlend mode="normal" in="SourceGraphic" in2="effect1_dropShadow_1_9" result="shape"/></filter></defs><g id="форма подписки" data-node-id="1:152" xmlns="http://www.w3.org/2000/svg"><g id="Rectangle 26" data-node-id="1:153" filter="url(#filter1_d_1_9)"><rect x="0.5" y="0.5" width="1180" height="196" rx="6" fill="#FDFDFD"/></g><g id="подписываясь на новости, вы автоматически соглашаетесь с условиями обработки персональных данных и правилами рекламных рассылок" data-node-id="1:154"><path d="M545.564,134.5v-6.83h6.188v6.83h-1.414v-5.7h-3.36v5.7zM556.845,134.63c-0.691,0 -1.288,-0.15 -1.792,-0.44c-0.504,-0.29 -0.896,-0.69 -1.176,-1.22c-0.271,-0.53 -0.406,-1.16 -0.406,-1.89c0,-0.72 0.135,-1.35 0.406,-1.87c0.28,-0.53 0.672,-0.94 1.176,-1.23c0.504,-0.29 1.101,-0.44 1.792,-0.44c0.672,0 1.26,0.15 1.764,0.44c0.504,0.29 0.896,0.7 1.176,1.23c0.28,0.52 0.42,1.15 0.42,1.87c0,0.73 -0.14,1.36 -0.42,1.89c-0.28,0.53 -0.672,0.93 -1.176,1.22c-0.504,0.29 -1.092,0.44 -1.764,0.44zM556.845,133.53c0.578,0 1.045,-0.21 1.4,-0.63c0.354,-0.42 0.532,-1.02 0.532,-1.82c0,-0.79 -0.178,-1.39 -0.532,-1.8c-0.355,-0.42 -0.822,-0.63 -1.4,-0.63c-0.588,0 -1.06,0.21 -1.414,0.63c-0.355,0.41 -0.532,1.01 -0.532,1.8c0,0.8 0.177,1.4 0.532,1.82c0.354,0.42 0.826,0.63 1.414,0.63zM561.243,136.32v-2.94h0.756c0.299,-0.45 0.513,-0.97 0.644,-1.55c0.131,-0.6 0.196,-1.32 0.196,-2.17v-1.99h5.054v5.71h1.092v2.94h-1.204v-1.82h-5.32v1.82zM563.315,133.38h3.234v-4.61h-2.478v1.18c0,0.64 -0.065,1.27 -0.196,1.88c-0.131,0.6 -0.317,1.12 -0.56,1.55zM570.392,134.5v-6.83h6.188v6.83h-1.414v-5.7h-3.36v5.7zM578.691,134.5v-6.83h1.288v4.95l3.696,-4.95h1.19v6.83h-1.288v-4.94l-3.696,4.94zM590.014,134.63c-0.7,0 -1.307,-0.15 -1.82,-0.44c-0.504,-0.3 -0.896,-0.71 -1.176,-1.24c-0.28,-0.55 -0.42,-1.18 -0.42,-1.91c0,-1.08 0.308,-1.93 0.924,-2.56c0.616,-0.63 1.446,-0.94 2.492,-0.94c0.429,0 0.854,0.08 1.274,0.23c0.42,0.15 0.765,0.35 1.036,0.61l-0.448,1c-0.262,-0.25 -0.551,-0.42 -0.868,-0.54c-0.308,-0.12 -0.602,-0.18 -0.882,-0.18c-0.663,0 -1.176,0.21 -1.54,0.63c-0.355,0.41 -0.532,1 -0.532,1.77c0,0.76 0.177,1.36 0.532,1.8c0.364,0.43 0.877,0.65 1.54,0.65c0.28,0 0.574,-0.06 0.882,-0.17c0.317,-0.12 0.606,-0.31 0.868,-0.55l0.448,1.01c-0.271,0.25 -0.621,0.45 -1.05,0.6c-0.42,0.15 -0.84,0.23 -1.26,0.23zM593.689,134.5v-6.83h1.414v2.36h1.946c0.877,0 1.545,0.2 2.002,0.58c0.457,0.37 0.686,0.92 0.686,1.64c0,0.69 -0.238,1.24 -0.714,1.65c-0.476,0.4 -1.134,0.6 -1.974,0.6zM600.661,134.5v-6.83h1.414v6.83zM595.103,133.53h1.764c0.485,0 0.863,-0.1 1.134,-0.3c0.271,-0.22 0.406,-0.55 0.406,-0.98c0,-0.43 -0.135,-0.75 -0.406,-0.94c-0.271,-0.21 -0.649,-0.31 -1.134,-0.31h-1.764zM604.203,134.5v-6.83h3.486c0.84,0 1.451,0.16 1.834,0.47c0.392,0.31 0.588,0.75 0.588,1.32c0,0.35 -0.103,0.67 -0.308,0.94c-0.196,0.26 -0.467,0.45 -0.812,0.57c0.429,0.1 0.76,0.3 0.994,0.59c0.233,0.29 0.35,0.63 0.35,1.04c0,0.58 -0.22,1.05 -0.658,1.4c-0.439,0.33 -1.064,0.5 -1.876,0.5zM605.533,130.57h2.058c0.382,0 0.676,-0.09 0.882,-0.27c0.214,-0.18 0.322,-0.42 0.322,-0.73c0,-0.32 -0.108,-0.56 -0.322,-0.73c-0.206,-0.16 -0.5,-0.25 -0.882,-0.25h-2.058zM605.533,133.59h2.184c0.877,0 1.316,-0.35 1.316,-1.06c0,-0.7 -0.439,-1.05 -1.316,-1.05h-2.184zM614.18,134.63c-0.476,0 -0.901,-0.1 -1.274,-0.28c-0.373,-0.19 -0.672,-0.44 -0.896,-0.76c-0.215,-0.32 -0.322,-0.68 -0.322,-1.08c0,-0.5 0.126,-0.9 0.378,-1.19c0.261,-0.29 0.686,-0.5 1.274,-0.63c0.597,-0.13 1.4,-0.19 2.408,-0.19h0.476v-0.37c0,-0.53 -0.112,-0.91 -0.336,-1.15c-0.224,-0.23 -0.593,-0.35 -1.106,-0.35c-0.392,0 -0.784,0.06 -1.176,0.19c-0.392,0.11 -0.793,0.29 -1.204,0.54l-0.434,-0.99c0.355,-0.25 0.798,-0.45 1.33,-0.6c0.532,-0.15 1.041,-0.23 1.526,-0.23c0.933,0 1.624,0.23 2.072,0.67c0.448,0.44 0.672,1.13 0.672,2.08v4.21h-1.33v-1.13c-0.168,0.39 -0.429,0.7 -0.784,0.92c-0.355,0.22 -0.779,0.34 -1.274,0.34zM614.46,133.62c0.504,0 0.924,-0.18 1.26,-0.53c0.336,-0.36 0.504,-0.81 0.504,-1.35v-0.38h-0.462c-0.681,0 -1.218,0.04 -1.61,0.1c-0.383,0.07 -0.658,0.18 -0.826,0.34c-0.159,0.15 -0.238,0.36 -0.238,0.63c0,0.35 0.121,0.64 0.364,0.87c0.243,0.21 0.579,0.32 1.008,0.32zM619.092,134.5l1.036,-1.79c0.27,-0.49 0.625,-0.81 1.064,-0.97c-0.579,-0.09 -1.022,-0.31 -1.33,-0.64c-0.308,-0.35 -0.462,-0.8 -0.462,-1.35c0,-0.63 0.214,-1.13 0.644,-1.51c0.429,-0.38 1.068,-0.57 1.918,-0.57h3.262v6.83h-1.316v-2.49h-0.882c-0.327,0 -0.607,0.09 -0.84,0.26c-0.234,0.17 -0.425,0.38 -0.574,0.63l-0.91,1.6zM622.256,131.04h1.652v-2.41h-1.652c-0.514,0 -0.892,0.11 -1.134,0.33c-0.243,0.2 -0.364,0.49 -0.364,0.86c0,0.39 0.121,0.69 0.364,0.9c0.242,0.21 0.62,0.32 1.134,0.32zM630.373,134.63c-0.7,0 -1.307,-0.15 -1.82,-0.44c-0.504,-0.3 -0.896,-0.71 -1.176,-1.24c-0.28,-0.55 -0.42,-1.18 -0.42,-1.91c0,-1.08 0.308,-1.93 0.924,-2.56c0.616,-0.63 1.447,-0.94 2.492,-0.94c0.427,0 0.857,0.08 1.277,0.23c0.42,0.15 0.76,0.35 1.03,0.61l-0.44,1c-0.27,-0.25 -0.56,-0.42 -0.87,-0.54c-0.31,-0.12 -0.6,-0.18 -0.885,-0.18c-0.663,0 -1.176,0.21 -1.54,0.63c-0.355,0.41 -0.532,1 -0.532,1.77c0,0.76 0.177,1.36 0.532,1.8c0.364,0.43 0.877,0.65 1.54,0.65c0.285,0 0.575,-0.06 0.885,-0.17c0.31,-0.12 0.6,-0.31 0.87,-0.55l0.44,1.01c-0.27,0.25 -0.62,0.45 -1.05,0.6c-0.42,0.15 -0.84,0.23 -1.257,0.23zM634.05,134.5v-6.83h1.41v2.36h1.95c0.88,0 1.54,0.2 2,0.58c0.46,0.37 0.69,0.92 0.69,1.64c0,0.69 -0.24,1.24 -0.72,1.65c-0.47,0.4 -1.13,0.6 -1.97,0.6zM635.46,133.53h1.77c0.48,0 0.86,-0.1 1.13,-0.3c0.27,-0.22 0.41,-0.55 0.41,-0.98c0,-0.43 -0.14,-0.75 -0.41,-0.94c-0.27,-0.21 -0.65,-0.31 -1.13,-0.31h-1.77zM645.34,134.5v-6.83h1.42v2.76h3.4v-2.76h1.41v6.83h-1.41v-2.95h-3.4v2.95zM655.88,134.63c-0.48,0 -0.9,-0.1 -1.27,-0.28c-0.38,-0.19 -0.68,-0.44 -0.9,-0.76c-0.22,-0.32 -0.32,-0.68 -0.32,-1.08c0,-0.5 0.12,-0.9 0.38,-1.19c0.26,-0.29 0.68,-0.5 1.27,-0.63c0.6,-0.13 1.4,-0.19 2.41,-0.19h0.47v-0.37c0,-0.53 -0.11,-0.91 -0.33,-1.15c-0.23,-0.23 -0.6,-0.35 -1.11,-0.35c-0.39,0 -0.78,0.06 -1.17,0.19c-0.4,0.11 -0.8,0.29 -1.21,0.54l-0.43,-0.99c0.35,-0.25 0.8,-0.45 1.33,-0.6c0.53,-0.15 1.04,-0.23 1.52,-0.23c0.94,0 1.63,0.23 2.08,0.67c0.44,0.44 0.67,1.13 0.67,2.08v4.21h-1.33v-1.13c-0.17,0.39 -0.43,0.7 -0.79,0.92c-0.35,0.22 -0.78,0.34 -1.27,0.34zM656.16,133.62c0.5,0 0.92,-0.18 1.26,-0.53c0.34,-0.36 0.5,-0.81 0.5,-1.35v-0.38h-0.46c-0.68,0 -1.22,0.04 -1.61,0.1c-0.38,0.07 -0.66,0.18 -0.82,0.34c-0.16,0.15 -0.24,0.36 -0.24,0.63c0,0.35 0.12,0.64 0.36,0.87c0.24,0.21 0.58,0.32 1.01,0.32zM665.04,134.5v-6.83h1.42v2.76h3.4v-2.76h1.41v6.83h-1.41v-2.95h-3.4v2.95zM676.36,134.63c-0.69,0 -1.28,-0.15 -1.79,-0.44c-0.5,-0.29 -0.89,-0.69 -1.17,-1.22c-0.27,-0.53 -0.41,-1.16 -0.41,-1.89c0,-0.72 0.14,-1.35 0.41,-1.87c0.28,-0.53 0.67,-0.94 1.17,-1.23c0.51,-0.29 1.1,-0.44 1.79,-0.44c0.68,0 1.26,0.15 1.77,0.44c0.5,0.29 0.89,0.7 1.17,1.23c0.28,0.52 0.42,1.15 0.42,1.87c0,0.73 -0.14,1.36 -0.42,1.89c-0.28,0.53 -0.67,0.93 -1.17,1.22c-0.51,0.29 -1.09,0.44 -1.77,0.44zM676.36,133.53c0.58,0 1.05,-0.21 1.4,-0.63c0.36,-0.42 0.54,-1.02 0.54,-1.82c0,-0.79 -0.18,-1.39 -0.54,-1.8c-0.35,-0.42 -0.82,-0.63 -1.4,-0.63c-0.58,0 -1.05,0.21 -1.41,0.63c-0.35,0.41 -0.53,1.01 -0.53,1.8c0,0.8 0.18,1.4 0.53,1.82c0.36,0.42 0.83,0.63 1.41,0.63zM681.46,134.5v-6.83h3.49c0.84,0 1.45,0.16 1.83,0.47c0.39,0.31 0.59,0.75 0.59,1.32c0,0.35 -0.1,0.67 -0.31,0.94c-0.19,0.26 -0.46,0.45 -0.81,0.57c0.43,0.1 0.76,0.3 0.99,0.59c0.24,0.29 0.35,0.63 0.35,1.04c0,0.58 -0.21,1.05 -0.65,1.4c-0.44,0.33 -1.07,0.5 -1.88,0.5zM682.79,130.57h2.06c0.38,0 0.68,-0.09 0.88,-0.27c0.22,-0.18 0.32,-0.42 0.32,-0.73c0,-0.32 -0.1,-0.56 -0.32,-0.73c-0.2,-0.16 -0.5,-0.25 -0.88,-0.25h-2.06zM682.79,133.59h2.19c0.87,0 1.31,-0.35 1.31,-1.06c0,-0.7 -0.44,-1.05 -1.31,-1.05h-2.19zM692.22,134.63c-0.69,0 -1.28,-0.15 -1.79,-0.44c-0.5,-0.29 -0.89,-0.69 -1.17,-1.22c-0.27,-0.53 -0.41,-1.16 -0.41,-1.89c0,-0.72 0.14,-1.35 0.41,-1.87c0.28,-0.53 0.67,-0.94 1.17,-1.23c0.51,-0.29 1.1,-0.44 1.79,-0.44c0.68,0 1.26,0.15 1.77,0.44c0.5,0.29 0.89,0.7 1.17,1.23c0.28,0.52 0.42,1.15 0.42,1.87c0,0.73 -0.14,1.36 -0.42,1.89c-0.28,0.53 -0.67,0.93 -1.17,1.22c-0.51,0.29 -1.09,0.44 -1.77,0.44zM692.22,133.53c0.58,0 1.05,-0.21 1.4,-0.63c0.36,-0.42 0.54,-1.02 0.54,-1.82c0,-0.79 -0.18,-1.39 -0.54,-1.8c-0.35,-0.42 -0.82,-0.63 -1.4,-0.63c-0.58,0 -1.06,0.21 -1.41,0.63c-0.35,0.41 -0.53,1.01 -0.53,1.8c0,0.8 0.18,1.4 0.53,1.82c0.35,0.42 0.83,0.63 1.41,0.63zM700.35,134.63c-0.7,0 -1.31,-0.15 -1.82,-0.44c-0.51,-0.3 -0.9,-0.71 -1.18,-1.24c-0.28,-0.55 -0.42,-1.18 -0.42,-1.91c0,-1.08 0.31,-1.93 0.92,-2.56c0.62,-0.63 1.45,-0.94 2.5,-0.94c0.43,0 0.85,0.08 1.27,0.23c0.42,0.15 0.77,0.35 1.04,0.61l-0.45,1c-0.26,-0.25 -0.55,-0.42 -0.87,-0.54c-0.31,-0.12 -0.6,-0.18 -0.88,-0.18c-0.66,0 -1.18,0.21 -1.54,0.63c-0.36,0.41 -0.53,1 -0.53,1.77c0,0.76 0.17,1.36 0.53,1.8c0.36,0.43 0.88,0.65 1.54,0.65c0.28,0 0.57,-0.06 0.88,-0.17c0.32,-0.12 0.61,-0.31 0.87,-0.55l0.45,1.01c-0.27,0.25 -0.62,0.45 -1.05,0.6c-0.42,0.15 -0.84,0.23 -1.26,0.23zM705.45,134.5v-5.7h-2.41v-1.13h6.25v1.13h-2.43v5.7zM710.42,134.5v-6.83h1.29v4.95l3.69,-4.95h1.19v6.83h-1.28v-4.94l-3.7,4.94zM719.19,136.22l-0.61,-0.47c0.21,-0.24 0.37,-0.45 0.47,-0.65c0.11,-0.19 0.17,-0.39 0.2,-0.6h-0.77v-1.67h1.67v1.14c0,0.43 -0.07,0.82 -0.21,1.17c-0.14,0.37 -0.39,0.73 -0.75,1.08zM725.72,134.5v-6.83h3.48c0.84,0 1.46,0.16 1.84,0.47c0.39,0.31 0.59,0.75 0.59,1.32c0,0.35 -0.11,0.67 -0.31,0.94c-0.2,0.26 -0.47,0.45 -0.81,0.57c0.43,0.1 0.76,0.3 0.99,0.59c0.23,0.29 0.35,0.63 0.35,1.04c0,0.58 -0.22,1.05 -0.66,1.4c-0.44,0.33 -1.06,0.5 -1.87,0.5zM727.05,130.57h2.06c0.38,0 0.67,-0.09 0.88,-0.27c0.21,-0.18 0.32,-0.42 0.32,-0.73c0,-0.32 -0.11,-0.56 -0.32,-0.73c-0.21,-0.16 -0.5,-0.25 -0.88,-0.25h-2.06zM727.05,133.59h2.18c0.88,0 1.32,-0.35 1.32,-1.06c0,-0.7 -0.44,-1.05 -1.32,-1.05h-2.18zM733.5,134.5v-6.83h1.41v2.36h1.95c0.87,0 1.54,0.2 2,0.58c0.46,0.37 0.69,0.92 0.69,1.64c0,0.69 -0.24,1.24 -0.72,1.65c-0.47,0.4 -1.13,0.6 -1.97,0.6zM740.47,134.5v-6.83h1.41v6.83zM734.91,133.53h1.77c0.48,0 0.86,-0.1 1.13,-0.3c0.27,-0.22 0.41,-0.55 0.41,-0.98c0,-0.43 -0.14,-0.75 -0.41,-0.94c-0.27,-0.21 -0.65,-0.31 -1.13,-0.31h-1.77zM749.89,134.63c-0.48,0 -0.9,-0.1 -1.28,-0.28c-0.37,-0.19 -0.67,-0.44 -0.89,-0.76c-0.22,-0.32 -0.32,-0.68 -0.32,-1.08c0,-0.5 0.12,-0.9 0.37,-1.19c0.26,-0.29 0.69,-0.5 1.28,-0.63c0.59,-0.13 1.4,-0.19 2.41,-0.19h0.47v-0.37c0,-0.53 -0.11,-0.91 -0.33,-1.15c-0.23,-0.23 -0.6,-0.35 -1.11,-0.35c-0.39,0 -0.78,0.06 -1.18,0.19c-0.39,0.11 -0.79,0.29 -1.2,0.54l-0.43,-0.99c0.35,-0.25 0.79,-0.45 1.33,-0.6c0.53,-0.15 1.04,-0.23 1.52,-0.23c0.93,0 1.63,0.23 2.07,0.67c0.45,0.44 0.68,1.13 0.68,2.08v4.21h-1.33v-1.13c-0.17,0.39 -0.43,0.7 -0.79,0.92c-0.35,0.22 -0.78,0.34 -1.27,0.34zM750.17,133.62c0.5,0 0.92,-0.18 1.26,-0.53c0.33,-0.36 0.5,-0.81 0.5,-1.35v-0.38h-0.46c-0.68,0 -1.22,0.04 -1.61,0.1c-0.38,0.07 -0.66,0.18 -0.83,0.34c-0.16,0.15 -0.23,0.36 -0.23,0.63c0,0.35 0.12,0.64 0.36,0.87c0.24,0.21 0.58,0.32 1.01,0.32zM755.37,134.5v-6.83h3.49c0.84,0 1.45,0.16 1.83,0.47c0.39,0.31 0.59,0.75 0.59,1.32c0,0.35 -0.1,0.67 -0.31,0.94c-0.19,0.26 -0.46,0.45 -0.81,0.57c0.43,0.1 0.76,0.3 0.99,0.59c0.24,0.29 0.35,0.63 0.35,1.04c0,0.58 -0.21,1.05 -0.65,1.4c-0.44,0.33 -1.07,0.5 -1.88,0.5zM756.7,130.57h2.06c0.38,0 0.68,-0.09 0.88,-0.27c0.22,-0.18 0.32,-0.42 0.32,-0.73c0,-0.32 -0.1,-0.56 -0.32,-0.73c-0.2,-0.16 -0.5,-0.25 -0.88,-0.25h-2.06zM756.7,133.59h2.19c0.87,0 1.31,-0.35 1.31,-1.06c0,-0.7 -0.44,-1.05 -1.31,-1.05h-2.19zM764.72,134.5v-5.7h-2.41v-1.13h6.24v1.13h-2.42v5.7zM772.63,134.63c-0.69,0 -1.29,-0.15 -1.79,-0.44c-0.51,-0.29 -0.9,-0.69 -1.18,-1.22c-0.27,-0.53 -0.41,-1.16 -0.41,-1.89c0,-0.72 0.14,-1.35 0.41,-1.87c0.28,-0.53 0.67,-0.94 1.18,-1.23c0.5,-0.29 1.1,-0.44 1.79,-0.44c0.67,0 1.26,0.15 1.76,0.44c0.51,0.29 0.9,0.7 1.18,1.23c0.28,0.52 0.42,1.15 0.42,1.87c0,0.73 -0.14,1.36 -0.42,1.89c-0.28,0.53 -0.67,0.93 -1.18,1.22c-0.5,0.29 -1.09,0.44 -1.76,0.44zM772.63,133.53c0.58,0 1.04,-0.21 1.4,-0.63c0.35,-0.42 0.53,-1.02 0.53,-1.82c0,-0.79 -0.18,-1.39 -0.53,-1.8c-0.36,-0.42 -0.82,-0.63 -1.4,-0.63c-0.59,0 -1.06,0.21 -1.42,0.63c-0.35,0.41 -0.53,1.01 -0.53,1.8c0,0.8 0.18,1.4 0.53,1.82c0.36,0.42 0.83,0.63 1.42,0.63zM777.73,134.5v-6.83h1.16l2.48,4.32l2.46,-4.32h1.16v6.83h-1.24v-4.63l-2.05,3.52h-0.68l-2.05,-3.52v4.63zM789.32,134.63c-0.48,0 -0.9,-0.1 -1.28,-0.28c-0.37,-0.19 -0.67,-0.44 -0.89,-0.76c-0.22,-0.32 -0.33,-0.68 -0.33,-1.08c0,-0.5 0.13,-0.9 0.38,-1.19c0.26,-0.29 0.69,-0.5 1.28,-0.63c0.59,-0.13 1.4,-0.19 2.4,-0.19h0.48v-0.37c0,-0.53 -0.11,-0.91 -0.34,-1.15c-0.22,-0.23 -0.59,-0.35 -1.1,-0.35c-0.39,0 -0.79,0.06 -1.18,0.19c-0.39,0.11 -0.79,0.29 -1.2,0.54l-0.44,-0.99c0.36,-0.25 0.8,-0.45 1.33,-0.6c0.54,-0.15 1.05,-0.23 1.53,-0.23c0.93,0 1.62,0.23 2.07,0.67c0.45,0.44 0.67,1.13 0.67,2.08v4.21h-1.33v-1.13c-0.16,0.39 -0.42,0.7 -0.78,0.92c-0.35,0.22 -0.78,0.34 -1.27,0.34zM789.6,133.62c0.5,0 0.92,-0.18 1.26,-0.53c0.33,-0.36 0.5,-0.81 0.5,-1.35v-0.38h-0.46c-0.68,0 -1.22,0.04 -1.61,0.1c-0.38,0.07 -0.66,0.18 -0.83,0.34c-0.16,0.15 -0.24,0.36 -0.24,0.63c0,0.35 0.13,0.64 0.37,0.87c0.24,0.21 0.58,0.32 1.01,0.32zM796.23,134.5v-5.7h-2.41v-1.13h6.25v1.13h-2.43v5.7zM801.2,134.5v-6.83h1.29v4.95l3.69,-4.95h1.19v6.83h-1.28v-4.94l-3.7,4.94zM813.84,134.5v-2.63c-0.5,0.29 -1.07,0.43 -1.71,0.43c-0.99,0 -1.72,-0.24 -2.2,-0.71c-0.47,-0.48 -0.71,-1.2 -0.71,-2.17v-1.75h1.41v1.64c0,0.64 0.13,1.11 0.4,1.4c0.27,0.29 0.71,0.43 1.33,0.43c0.29,0 0.56,-0.03 0.79,-0.1c0.24,-0.06 0.46,-0.18 0.68,-0.33v-3.04h1.41v6.83zM820.58,134.63c-1.12,0 -2,-0.32 -2.65,-0.94c-0.64,-0.64 -0.96,-1.5 -0.96,-2.59c0,-0.7 0.14,-1.32 0.42,-1.85c0.29,-0.54 0.68,-0.96 1.19,-1.26c0.5,-0.3 1.08,-0.45 1.73,-0.45c0.95,0 1.69,0.31 2.23,0.91c0.54,0.6 0.81,1.43 0.81,2.48v0.48h-5.01c0.1,1.41 0.85,2.12 2.25,2.12c0.4,0 0.78,-0.06 1.15,-0.18c0.39,-0.12 0.74,-0.32 1.08,-0.6l0.42,0.98c-0.31,0.28 -0.7,0.5 -1.19,0.66c-0.48,0.16 -0.97,0.24 -1.47,0.24zM820.37,128.54c-0.59,0 -1.05,0.18 -1.4,0.54c-0.34,0.37 -0.55,0.85 -0.63,1.46h3.82c-0.03,-0.64 -0.19,-1.13 -0.5,-1.47c-0.31,-0.36 -0.74,-0.53 -1.29,-0.53zM828.05,134.63c-0.7,0 -1.3,-0.15 -1.82,-0.44c-0.5,-0.3 -0.89,-0.71 -1.17,-1.24c-0.28,-0.55 -0.42,-1.18 -0.42,-1.91c0,-1.08 0.31,-1.93 0.92,-2.56c0.62,-0.63 1.45,-0.94 2.49,-0.94c0.43,0 0.86,0.08 1.28,0.23c0.42,0.15 0.76,0.35 1.03,0.61l-0.44,1c-0.26,-0.25 -0.55,-0.42 -0.87,-0.54c-0.31,-0.12 -0.6,-0.18 -0.88,-0.18c-0.67,0 -1.18,0.21 -1.54,0.63c-0.36,0.41 -0.54,1 -0.54,1.77c0,0.76 0.18,1.36 0.54,1.8c0.36,0.43 0.87,0.65 1.54,0.65c0.28,0 0.57,-0.06 0.88,-0.17c0.32,-0.12 0.61,-0.31 0.87,-0.55l0.44,1.01c-0.27,0.25 -0.62,0.45 -1.05,0.6c-0.42,0.15 -0.84,0.23 -1.26,0.23zM831.73,134.5v-6.83h1.41v2.77h1.15l2.12,-2.77h1.54l-2.31,3.06c0.22,0.11 0.43,0.27 0.61,0.48c0.2,0.21 0.4,0.49 0.6,0.85l1.42,2.44h-1.51l-1.19,-2.04c-0.22,-0.37 -0.43,-0.61 -0.63,-0.73c-0.2,-0.12 -0.48,-0.18 -0.83,-0.18h-0.97v2.95zM839.3,134.5v-6.83h1.29v4.95l3.7,-4.95h1.19v6.83h-1.29v-4.94l-3.7,4.94zM854.3,134.63c-0.7,0 -1.3,-0.15 -1.82,-0.44c-0.5,-0.3 -0.89,-0.71 -1.17,-1.24c-0.28,-0.55 -0.42,-1.18 -0.42,-1.91c0,-1.08 0.31,-1.93 0.92,-2.56c0.62,-0.63 1.45,-0.94 2.49,-0.94c0.43,0 0.86,0.08 1.28,0.23c0.42,0.15 0.76,0.35 1.03,0.61l-0.44,1c-0.26,-0.25 -0.55,-0.42 -0.87,-0.54c-0.31,-0.12 -0.6,-0.18 -0.88,-0.18c-0.67,0 -1.18,0.21 -1.54,0.63c-0.36,0.41 -0.54,1 -0.54,1.77c0,0.76 0.18,1.36 0.54,1.8c0.36,0.43 0.87,0.65 1.54,0.65c0.28,0 0.57,-0.06 0.88,-0.17c0.32,-0.12 0.61,-0.31 0.87,-0.55l0.44,1.01c-0.27,0.25 -0.62,0.45 -1.05,0.6c-0.42,0.15 -0.84,0.23 -1.26,0.23zM860.96,134.63c-0.69,0 -1.29,-0.15 -1.79,-0.44c-0.5,-0.29 -0.9,-0.69 -1.18,-1.22c-0.27,-0.53 -0.4,-1.16 -0.4,-1.89c0,-0.72 0.13,-1.35 0.4,-1.87c0.28,-0.53 0.68,-0.94 1.18,-1.23c0.5,-0.29 1.1,-0.44 1.79,-0.44c0.67,0 1.26,0.15 1.77,0.44c0.5,0.29 0.89,0.7 1.17,1.23c0.28,0.52 0.42,1.15 0.42,1.87c0,0.73 -0.14,1.36 -0.42,1.89c-0.28,0.53 -0.67,0.93 -1.17,1.22c-0.51,0.29 -1.1,0.44 -1.77,0.44zM860.96,133.53c0.58,0 1.05,-0.21 1.4,-0.63c0.36,-0.42 0.53,-1.02 0.53,-1.82c0,-0.79 -0.17,-1.39 -0.53,-1.8c-0.35,-0.42 -0.82,-0.63 -1.4,-0.63c-0.59,0 -1.06,0.21 -1.41,0.63c-0.36,0.41 -0.53,1.01 -0.53,1.8c0,0.8 0.17,1.4 0.53,1.82c0.35,0.42 0.82,0.63 1.41,0.63zM866.06,134.5v-6.83h4.96v1.13h-3.55v5.7zM871.73,134.68l-0.48,-1.12c0.41,-0.17 0.73,-0.39 0.97,-0.68c0.23,-0.3 0.4,-0.71 0.5,-1.24c0.1,-0.53 0.16,-1.21 0.16,-2.05v-1.92h5.2v6.83h-1.41v-5.7h-2.48v0.83c0,1.02 -0.08,1.88 -0.25,2.56c-0.17,0.68 -0.43,1.22 -0.8,1.62c-0.35,0.4 -0.82,0.69 -1.41,0.87zM882.41,134.63c-0.48,0 -0.9,-0.1 -1.28,-0.28c-0.37,-0.19 -0.67,-0.44 -0.89,-0.76c-0.22,-0.32 -0.32,-0.68 -0.32,-1.08c0,-0.5 0.12,-0.9 0.37,-1.19c0.27,-0.29 0.69,-0.5 1.28,-0.63c0.6,-0.13 1.4,-0.19 2.41,-0.19h0.47v-0.37c0,-0.53 -0.11,-0.91 -0.33,-1.15c-0.23,-0.23 -0.6,-0.35 -1.11,-0.35c-0.39,0 -0.78,0.06 -1.18,0.19c-0.39,0.11 -0.79,0.29 -1.2,0.54l-0.43,-0.99c0.35,-0.25 0.79,-0.45 1.33,-0.6c0.53,-0.15 1.04,-0.23 1.52,-0.23c0.94,0 1.63,0.23 2.07,0.67c0.45,0.44 0.68,1.13 0.68,2.08v4.21h-1.33v-1.13c-0.17,0.39 -0.43,0.7 -0.79,0.92c-0.35,0.22 -0.78,0.34 -1.27,0.34zM882.69,133.62c0.5,0 0.92,-0.18 1.26,-0.53c0.33,-0.36 0.5,-0.81 0.5,-1.35v-0.38h-0.46c-0.68,0 -1.22,0.04 -1.61,0.1c-0.38,0.07 -0.66,0.18 -0.83,0.34c-0.15,0.15 -0.23,0.36 -0.23,0.63c0,0.35 0.12,0.64 0.36,0.87c0.24,0.21 0.58,0.32 1.01,0.32zM887.89,134.5v-6.83h1.35v5.71h2.62v-5.71h1.34v5.71h2.62v-5.71h1.34v6.83zM901.49,134.63c-0.47,0 -0.9,-0.1 -1.27,-0.28c-0.37,-0.19 -0.67,-0.44 -0.9,-0.76c-0.21,-0.32 -0.32,-0.68 -0.32,-1.08c0,-0.5 0.13,-0.9 0.38,-1.19c0.26,-0.29 0.69,-0.5 1.27,-0.63c0.6,-0.13 1.4,-0.19 2.41,-0.19h0.48v-0.37c0,-0.53 -0.11,-0.91 -0.34,-1.15c-0.22,-0.23 -0.59,-0.35 -1.1,-0.35c-0.4,0 -0.79,0.06 -1.18,0.19c-0.39,0.11 -0.79,0.29 -1.2,0.54l-0.44,-0.99c0.36,-0.25 0.8,-0.45 1.33,-0.6c0.53,-0.15 1.04,-0.23 1.53,-0.23c0.93,0 1.62,0.23 2.07,0.67c0.45,0.44 0.67,1.13 0.67,2.08v4.21h-1.33v-1.13c-0.17,0.39 -0.43,0.7 -0.78,0.92c-0.36,0.22 -0.78,0.34 -1.28,0.34zM901.77,133.62c0.51,0 0.93,-0.18 1.26,-0.53c0.34,-0.36 0.51,-0.81 0.51,-1.35v-0.38h-0.46c-0.68,0 -1.22,0.04 -1.61,0.1c-0.39,0.07 -0.66,0.18 -0.83,0.34c-0.16,0.15 -0.24,0.36 -0.24,0.63c0,0.35 0.12,0.64 0.37,0.87c0.24,0.21 0.58,0.32 1,0.32zM910.2,134.63c-1.12,0 -2,-0.32 -2.65,-0.94c-0.64,-0.64 -0.96,-1.5 -0.96,-2.59c0,-0.7 0.14,-1.32 0.42,-1.85c0.29,-0.54 0.68,-0.96 1.19,-1.26c0.5,-0.3 1.08,-0.45 1.73,-0.45c0.95,0 1.69,0.31 2.23,0.91c0.54,0.6 0.81,1.43 0.81,2.48v0.48h-5.01c0.1,1.41 0.85,2.12 2.25,2.12c0.4,0 0.78,-0.06 1.15,-0.18c0.38,-0.12 0.74,-0.32 1.08,-0.6l0.42,0.98c-0.31,0.28 -0.7,0.5 -1.19,0.66c-0.49,0.16 -0.98,0.24 -1.47,0.24zM909.99,128.54c-0.59,0 -1.05,0.18 -1.4,0.54c-0.35,0.37 -0.56,0.85 -0.63,1.46h3.82c-0.03,-0.64 -0.19,-1.13 -0.5,-1.47c-0.31,-0.36 -0.74,-0.53 -1.29,-0.53zM916.08,134.5v-5.7h-2.41v-1.13h6.24v1.13h-2.42v5.7zM924.23,134.63c-1.12,0 -2,-0.32 -2.65,-0.94c-0.64,-0.64 -0.96,-1.5 -0.96,-2.59c0,-0.7 0.14,-1.32 0.42,-1.85c0.28,-0.54 0.68,-0.96 1.19,-1.26c0.5,-0.3 1.08,-0.45 1.73,-0.45c0.94,0 1.69,0.31 2.23,0.91c0.54,0.6 0.81,1.43 0.81,2.48v0.48h-5.01c0.1,1.41 0.85,2.12 2.25,2.12c0.39,0 0.78,-0.06 1.15,-0.18c0.38,-0.12 0.74,-0.32 1.08,-0.6l0.42,0.98c-0.31,0.28 -0.71,0.5 -1.19,0.66c-0.49,0.16 -0.98,0.24 -1.47,0.24zM924.02,128.54c-0.59,0 -1.06,0.18 -1.4,0.54c-0.35,0.37 -0.56,0.85 -0.63,1.46h3.82c-0.03,-0.64 -0.2,-1.13 -0.5,-1.47c-0.31,-0.36 -0.74,-0.53 -1.29,-0.53zM931.7,134.63c-0.7,0 -1.31,-0.15 -1.82,-0.44c-0.5,-0.3 -0.89,-0.71 -1.17,-1.24c-0.28,-0.55 -0.42,-1.18 -0.42,-1.91c0,-1.08 0.3,-1.93 0.92,-2.56c0.62,-0.63 1.45,-0.94 2.49,-0.94c0.43,0 0.86,0.08 1.28,0.23c0.42,0.15 0.76,0.35 1.03,0.61l-0.45,1c-0.26,-0.25 -0.55,-0.42 -0.86,-0.54c-0.31,-0.12 -0.61,-0.18 -0.89,-0.18c-0.66,0 -1.17,0.21 -1.54,0.63c-0.35,0.41 -0.53,1 -0.53,1.77c0,0.76 0.18,1.36 0.53,1.8c0.37,0.43 0.88,0.65 1.54,0.65c0.28,0 0.58,-0.06 0.89,-0.17c0.31,-0.12 0.6,-0.31 0.86,-0.55l0.45,1.01c-0.27,0.25 -0.62,0.45 -1.05,0.6c-0.42,0.15 -0.84,0.23 -1.26,0.23zM935.38,134.5v-6.83h1.41v2.36h1.95c0.87,0 1.54,0.2 2,0.58c0.46,0.37 0.68,0.92 0.68,1.64c0,0.69 -0.23,1.24 -0.71,1.65c-0.48,0.4 -1.13,0.6 -1.97,0.6zM936.79,133.53h1.76c0.49,0 0.87,-0.1 1.14,-0.3c0.27,-0.22 0.4,-0.55 0.4,-0.98c0,-0.43 -0.13,-0.75 -0.4,-0.94c-0.27,-0.21 -0.65,-0.31 -1.14,-0.31h-1.76zM949.69,134.63c-0.7,0 -1.3,-0.15 -1.82,-0.44c-0.5,-0.3 -0.89,-0.71 -1.17,-1.24c-0.28,-0.55 -0.42,-1.18 -0.42,-1.91c0,-1.08 0.31,-1.93 0.92,-2.56c0.62,-0.63 1.45,-0.94 2.49,-0.94c0.43,0 0.86,0.08 1.28,0.23c0.42,0.15 0.76,0.35 1.03,0.61l-0.44,1c-0.27,-0.25 -0.56,-0.42 -0.87,-0.54c-0.31,-0.12 -0.6,-0.18 -0.88,-0.18c-0.67,0 -1.18,0.21 -1.54,0.63c-0.36,0.41 -0.54,1 -0.54,1.77c0,0.76 0.18,1.36 0.54,1.8c0.36,0.43 0.87,0.65 1.54,0.65c0.28,0 0.57,-0.06 0.88,-0.17c0.31,-0.12 0.6,-0.31 0.87,-0.55l0.44,1.01c-0.27,0.25 -0.62,0.45 -1.05,0.6c-0.42,0.15 -0.84,0.23 -1.26,0.23zM957.76,137.02l1.22,-2.7l-2.86,-6.65h1.51l2.1,5.19l2.13,-5.19h1.46l-4.08,9.35zM967.41,134.63c-0.7,0 -1.3,-0.15 -1.82,-0.44c-0.5,-0.3 -0.89,-0.71 -1.17,-1.24c-0.28,-0.55 -0.42,-1.18 -0.42,-1.91c0,-1.08 0.3,-1.93 0.92,-2.56c0.62,-0.63 1.45,-0.94 2.49,-0.94c0.43,0 0.86,0.08 1.28,0.23c0.42,0.15 0.76,0.35 1.03,0.61l-0.45,1c-0.26,-0.25 -0.55,-0.42 -0.86,-0.54c-0.31,-0.12 -0.61,-0.18 -0.89,-0.18c-0.66,0 -1.17,0.21 -1.54,0.63c-0.35,0.41 -0.53,1 -0.53,1.77c0,0.76 0.18,1.36 0.53,1.8c0.37,0.43 0.88,0.65 1.54,0.65c0.28,0 0.58,-0.06 0.89,-0.17c0.31,-0.12 0.6,-0.31 0.86,-0.55l0.45,1.01c-0.27,0.25 -0.62,0.45 -1.05,0.6c-0.42,0.15 -0.84,0.23 -1.26,0.23zM970.79,134.68l-0.47,-1.12c0.41,-0.17 0.73,-0.39 0.96,-0.68c0.24,-0.3 0.4,-0.71 0.51,-1.24c0.1,-0.53 0.15,-1.21 0.15,-2.05v-1.92h5.21v6.83h-1.41v-5.7h-2.48v0.83c0,1.02 -0.09,1.88 -0.25,2.56c-0.17,0.68 -0.44,1.22 -0.8,1.62c-0.36,0.4 -0.83,0.69 -1.42,0.87zM982.26,134.63c-0.69,0 -1.29,-0.15 -1.79,-0.44c-0.51,-0.29 -0.9,-0.69 -1.18,-1.22c-0.27,-0.53 -0.41,-1.16 -0.41,-1.89c0,-0.72 0.14,-1.35 0.41,-1.87c0.28,-0.53 0.67,-0.94 1.18,-1.23c0.5,-0.29 1.1,-0.44 1.79,-0.44c0.67,0 1.26,0.15 1.76,0.44c0.51,0.29 0.9,0.7 1.18,1.23c0.28,0.52 0.42,1.15 0.42,1.87c0,0.73 -0.14,1.36 -0.42,1.89c-0.28,0.53 -0.67,0.93 -1.18,1.22c-0.5,0.29 -1.09,0.44 -1.76,0.44zM982.26,133.53c0.58,0 1.04,-0.21 1.4,-0.63c0.35,-0.42 0.53,-1.02 0.53,-1.82c0,-0.79 -0.18,-1.39 -0.53,-1.8c-0.36,-0.42 -0.82,-0.63 -1.4,-0.63c-0.59,0 -1.06,0.21 -1.42,0.63c-0.35,0.41 -0.53,1.01 -0.53,1.8c0,0.8 0.18,1.4 0.53,1.82c0.36,0.42 0.83,0.63 1.42,0.63zM987.36,134.5v-6.83h3.48c0.84,0 1.45,0.16 1.84,0.47c0.39,0.31 0.58,0.75 0.58,1.32c0,0.35 -0.1,0.67 -0.3,0.94c-0.2,0.26 -0.47,0.45 -0.82,0.57c0.43,0.1 0.77,0.3 1,0.59c0.23,0.29 0.35,0.63 0.35,1.04c0,0.58 -0.22,1.05 -0.66,1.4c-0.44,0.33 -1.06,0.5 -1.88,0.5zM988.69,130.57h2.05c0.39,0 0.68,-0.09 0.89,-0.27c0.21,-0.18 0.32,-0.42 0.32,-0.73c0,-0.32 -0.11,-0.56 -0.32,-0.73c-0.21,-0.16 -0.5,-0.25 -0.89,-0.25h-2.05zM988.69,133.59h2.18c0.88,0 1.32,-0.35 1.32,-1.06c0,-0.7 -0.44,-1.05 -1.32,-1.05h-2.18zM995.14,134.5v-6.83h1.28v4.95l3.7,-4.95h1.19v6.83h-1.29v-4.94l-3.69,4.94zM1002.86,134.5l1.04,-1.79c0.27,-0.49 0.62,-0.81 1.06,-0.97c-0.58,-0.09 -1.02,-0.31 -1.33,-0.64c-0.31,-0.35 -0.46,-0.8 -0.46,-1.35c0,-0.63 0.21,-1.13 0.64,-1.51c0.43,-0.38 1.07,-0.57 1.92,-0.57h3.26v6.83h-1.31v-2.49h-0.88c-0.33,0 -0.61,0.09 -0.84,0.26c-0.24,0.17 -0.43,0.38 -0.58,0.63l-0.91,1.6zM1006.03,131.04h1.65v-2.41h-1.65c-0.52,0 -0.9,0.11 -1.14,0.33c-0.24,0.2 -0.36,0.49 -0.36,0.86c0,0.39 0.12,0.69 0.36,0.9c0.24,0.21 0.62,0.32 1.14,0.32zM1011.12,134.5v-6.83h1.16l2.48,4.32l2.46,-4.32h1.16v6.83h-1.24v-4.63l-2.05,3.52h-0.68l-2.05,-3.52v4.63zM1020.51,134.5v-6.83h1.29v4.95l3.7,-4.95h1.19v6.83h-1.29v-4.94l-3.7,4.94zM548.546,152.63c-0.691,0 -1.288,-0.15 -1.792,-0.44c-0.504,-0.29 -0.896,-0.69 -1.176,-1.22c-0.271,-0.53 -0.406,-1.16 -0.406,-1.89c0,-0.72 0.135,-1.35 0.406,-1.87c0.28,-0.53 0.672,-0.94 1.176,-1.23c0.504,-0.29 1.101,-0.44 1.792,-0.44c0.672,0 1.26,0.15 1.764,0.44c0.504,0.29 0.896,0.7 1.176,1.23c0.28,0.52 0.42,1.15 0.42,1.87c0,0.73 -0.14,1.36 -0.42,1.89c-0.28,0.53 -0.672,0.93 -1.176,1.22c-0.504,0.29 -1.092,0.44 -1.764,0.44zM548.546,151.53c0.579,0 1.045,-0.21 1.4,-0.63c0.355,-0.42 0.532,-1.02 0.532,-1.82c0,-0.79 -0.177,-1.39 -0.532,-1.8c-0.355,-0.42 -0.821,-0.63 -1.4,-0.63c-0.588,0 -1.059,0.21 -1.414,0.63c-0.355,0.41 -0.532,1.01 -0.532,1.8c0,0.8 0.177,1.4 0.532,1.82c0.355,0.42 0.826,0.63 1.414,0.63zM556.668,152.63c-1.055,0 -1.89,-0.34 -2.506,-1c-0.607,-0.66 -0.91,-1.64 -0.91,-2.92v-1.04c0,-1.36 0.289,-2.4 0.868,-3.11c0.579,-0.72 1.442,-1.23 2.59,-1.52l2.408,-0.63l0.448,1.13l-2.758,0.7c-0.728,0.19 -1.279,0.53 -1.652,1.02c-0.373,0.5 -0.56,1.11 -0.56,1.84v0.05c0.215,-0.45 0.527,-0.8 0.938,-1.06c0.42,-0.26 0.919,-0.39 1.498,-0.39c0.579,0 1.087,0.14 1.526,0.42c0.448,0.27 0.798,0.66 1.05,1.17c0.252,0.52 0.378,1.12 0.378,1.82c0,0.72 -0.14,1.35 -0.42,1.88c-0.271,0.52 -0.658,0.93 -1.162,1.22c-0.495,0.28 -1.073,0.42 -1.736,0.42zM556.612,151.53c0.616,0 1.092,-0.2 1.428,-0.6c0.345,-0.41 0.518,-1 0.518,-1.76c0,-0.76 -0.173,-1.34 -0.518,-1.75c-0.345,-0.42 -0.821,-0.63 -1.428,-0.63c-0.597,0 -1.069,0.2 -1.414,0.61c-0.345,0.41 -0.518,0.96 -0.518,1.67c0,0.81 0.168,1.43 0.504,1.85c0.345,0.41 0.821,0.61 1.428,0.61zM561.738,155.02v-9.35h1.386v1.16c0.196,-0.39 0.495,-0.7 0.896,-0.94c0.401,-0.23 0.863,-0.35 1.386,-0.35c0.607,0 1.134,0.15 1.582,0.44c0.457,0.29 0.807,0.7 1.05,1.23c0.252,0.52 0.378,1.15 0.378,1.87c0,0.73 -0.126,1.36 -0.378,1.89c-0.243,0.54 -0.593,0.95 -1.05,1.24c-0.448,0.28 -0.975,0.42 -1.582,0.42c-0.504,0 -0.957,-0.11 -1.358,-0.33c-0.392,-0.22 -0.691,-0.52 -0.896,-0.91v3.63zM565.056,151.53c0.588,0 1.055,-0.21 1.4,-0.63c0.355,-0.42 0.532,-1.02 0.532,-1.82c0,-0.79 -0.177,-1.39 -0.532,-1.8c-0.345,-0.42 -0.812,-0.63 -1.4,-0.63c-0.588,0 -1.059,0.21 -1.414,0.63c-0.345,0.41 -0.518,1.01 -0.518,1.8c0,0.8 0.173,1.4 0.518,1.82c0.355,0.42 0.826,0.63 1.414,0.63zM572.344,152.63c-0.476,0 -0.901,-0.1 -1.274,-0.28c-0.373,-0.19 -0.672,-0.44 -0.896,-0.76c-0.215,-0.32 -0.322,-0.68 -0.322,-1.08c0,-0.5 0.126,-0.9 0.378,-1.19c0.261,-0.29 0.686,-0.5 1.274,-0.63c0.597,-0.13 1.4,-0.19 2.408,-0.19h0.476v-0.37c0,-0.53 -0.112,-0.91 -0.336,-1.15c-0.224,-0.23 -0.593,-0.35 -1.106,-0.35c-0.392,0 -0.784,0.06 -1.176,0.19c-0.392,0.11 -0.793,0.29 -1.204,0.54l-0.434,-0.99c0.355,-0.25 0.798,-0.45 1.33,-0.6c0.532,-0.15 1.041,-0.23 1.526,-0.23c0.933,0 1.624,0.23 2.072,0.67c0.448,0.44 0.672,1.13 0.672,2.08v4.21h-1.33v-1.13c-0.168,0.39 -0.429,0.7 -0.784,0.92c-0.355,0.22 -0.779,0.34 -1.274,0.34zM572.624,151.62c0.504,0 0.924,-0.18 1.26,-0.53c0.336,-0.36 0.504,-0.81 0.504,-1.35v-0.38h-0.462c-0.681,0 -1.218,0.04 -1.61,0.1c-0.383,0.07 -0.658,0.18 -0.826,0.34c-0.159,0.15 -0.238,0.36 -0.238,0.63c0,0.35 0.121,0.64 0.364,0.87c0.243,0.21 0.579,0.32 1.008,0.32zM580.854,152.63c-1.055,0 -1.89,-0.34 -2.506,-1c-0.607,-0.66 -0.91,-1.64 -0.91,-2.92v-1.04c0,-1.36 0.289,-2.4 0.868,-3.11c0.578,-0.72 1.442,-1.23 2.59,-1.52l2.408,-0.63l0.448,1.13l-2.758,0.7c-0.728,0.19 -1.279,0.53 -1.652,1.02c-0.374,0.5 -0.56,1.11 -0.56,1.84v0.05c0.214,-0.45 0.527,-0.8 0.938,-1.06c0.42,-0.26 0.919,-0.39 1.498,-0.39c0.578,0 1.087,0.14 1.526,0.42c0.448,0.27 0.798,0.66 1.05,1.17c0.252,0.52 0.378,1.12 0.378,1.82c0,0.72 -0.14,1.35 -0.42,1.88c-0.271,0.52 -0.658,0.93 -1.162,1.22c-0.495,0.28 -1.074,0.42 -1.736,0.42zM580.798,151.53c0.616,0 1.092,-0.2 1.428,-0.6c0.345,-0.41 0.518,-1 0.518,-1.76c0,-0.76 -0.173,-1.34 -0.518,-1.75c-0.346,-0.42 -0.822,-0.63 -1.428,-0.63c-0.598,0 -1.069,0.2 -1.414,0.61c-0.346,0.41 -0.518,0.96 -0.518,1.67c0,0.81 0.168,1.43 0.504,1.85c0.345,0.41 0.821,0.61 1.428,0.61zM588.892,152.63c-0.691,0 -1.288,-0.15 -1.792,-0.44c-0.504,-0.29 -0.896,-0.69 -1.176,-1.22c-0.271,-0.53 -0.406,-1.16 -0.406,-1.89c0,-0.72 0.135,-1.35 0.406,-1.87c0.28,-0.53 0.672,-0.94 1.176,-1.23c0.504,-0.29 1.101,-0.44 1.792,-0.44c0.672,0 1.26,0.15 1.764,0.44c0.504,0.29 0.896,0.7 1.176,1.23c0.28,0.52 0.42,1.15 0.42,1.87c0,0.73 -0.14,1.36 -0.42,1.89c-0.28,0.53 -0.672,0.93 -1.176,1.22c-0.504,0.29 -1.092,0.44 -1.764,0.44zM588.892,151.53c0.578,0 1.045,-0.21 1.4,-0.63c0.354,-0.42 0.532,-1.02 0.532,-1.82c0,-0.79 -0.178,-1.39 -0.532,-1.8c-0.355,-0.42 -0.822,-0.63 -1.4,-0.63c-0.588,0 -1.06,0.21 -1.414,0.63c-0.355,0.41 -0.532,1.01 -0.532,1.8c0,0.8 0.177,1.4 0.532,1.82c0.354,0.42 0.826,0.63 1.414,0.63zM595.418,152.5v-5.7h-2.408v-1.13h6.244v1.13h-2.422v5.7zM600.388,152.5v-6.83h1.414v2.77h1.148l2.114,-2.77h1.54l-2.31,3.06c0.224,0.11 0.43,0.27 0.616,0.48c0.196,0.21 0.397,0.49 0.602,0.85l1.414,2.44h-1.512l-1.19,-2.04c-0.214,-0.37 -0.424,-0.61 -0.63,-0.73c-0.196,-0.12 -0.471,-0.18 -0.826,-0.18h-0.966v2.95zM607.962,152.5v-6.83h1.288v4.95l3.696,-4.95h1.19v6.83h-1.288v-4.94l-3.696,4.94zM619.939,152.5v-6.83h6.188v6.83h-1.414v-5.7h-3.36v5.7zM631.46,152.63c-1.122,0 -2.004,-0.32 -2.648,-0.94c-0.644,-0.64 -0.966,-1.5 -0.966,-2.59c0,-0.7 0.14,-1.32 0.42,-1.85c0.289,-0.54 0.686,-0.96 1.19,-1.26c0.504,-0.3 1.084,-0.45 1.734,-0.45c0.94,0 1.69,0.31 2.23,0.91c0.54,0.6 0.81,1.43 0.81,2.48v0.48h-5.012c0.102,1.41 0.854,2.12 2.252,2.12c0.39,0 0.78,-0.06 1.15,-0.18c0.38,-0.12 0.74,-0.32 1.08,-0.6l0.42,0.98c-0.31,0.28 -0.71,0.5 -1.19,0.66c-0.49,0.16 -0.98,0.24 -1.47,0.24zM631.25,146.54c-0.59,0 -1.057,0.18 -1.402,0.54c-0.346,0.37 -0.556,0.85 -0.63,1.46h3.822c-0.03,-0.64 -0.2,-1.13 -0.5,-1.47c-0.31,-0.36 -0.74,-0.53 -1.29,-0.53zM635.92,155.02v-9.35h1.39v1.16c0.19,-0.39 0.49,-0.7 0.89,-0.94c0.41,-0.23 0.87,-0.35 1.39,-0.35c0.61,0 1.13,0.15 1.58,0.44c0.46,0.29 0.81,0.7 1.05,1.23c0.25,0.52 0.38,1.15 0.38,1.87c0,0.73 -0.13,1.36 -0.38,1.89c-0.24,0.54 -0.59,0.95 -1.05,1.24c-0.45,0.28 -0.97,0.42 -1.58,0.42c-0.5,0 -0.96,-0.11 -1.36,-0.33c-0.39,-0.22 -0.69,-0.52 -0.89,-0.91v3.63zM639.24,151.53c0.59,0 1.05,-0.21 1.4,-0.63c0.35,-0.42 0.53,-1.02 0.53,-1.82c0,-0.79 -0.18,-1.39 -0.53,-1.8c-0.35,-0.42 -0.81,-0.63 -1.4,-0.63c-0.59,0 -1.06,0.21 -1.41,0.63c-0.35,0.41 -0.52,1.01 -0.52,1.8c0,0.8 0.17,1.4 0.52,1.82c0.35,0.42 0.82,0.63 1.41,0.63zM647.35,152.63c-0.7,0 -1.3,-0.15 -1.82,-0.44c-0.5,-0.3 -0.89,-0.71 -1.17,-1.24c-0.28,-0.55 -0.42,-1.18 -0.42,-1.91c0,-1.08 0.31,-1.93 0.92,-2.56c0.62,-0.63 1.45,-0.94 2.49,-0.94c0.43,0 0.86,0.08 1.28,0.23c0.42,0.15 0.76,0.35 1.03,0.61l-0.44,1c-0.27,-0.25 -0.56,-0.42 -0.87,-0.54c-0.31,-0.12 -0.6,-0.18 -0.88,-0.18c-0.67,0 -1.18,0.21 -1.54,0.63c-0.36,0.41 -0.54,1 -0.54,1.77c0,0.76 0.18,1.36 0.54,1.8c0.36,0.43 0.87,0.65 1.54,0.65c0.28,0 0.57,-0.06 0.88,-0.17c0.31,-0.12 0.6,-0.31 0.87,-0.55l0.44,1.01c-0.27,0.25 -0.62,0.45 -1.05,0.6c-0.42,0.15 -0.84,0.23 -1.26,0.23zM654.01,152.63c-0.69,0 -1.29,-0.15 -1.79,-0.44c-0.51,-0.29 -0.9,-0.69 -1.18,-1.22c-0.27,-0.53 -0.4,-1.16 -0.4,-1.89c0,-0.72 0.13,-1.35 0.4,-1.87c0.28,-0.53 0.67,-0.94 1.18,-1.23c0.5,-0.29 1.1,-0.44 1.79,-0.44c0.67,0 1.26,0.15 1.76,0.44c0.51,0.29 0.9,0.7 1.18,1.23c0.28,0.52 0.42,1.15 0.42,1.87c0,0.73 -0.14,1.36 -0.42,1.89c-0.28,0.53 -0.67,0.93 -1.18,1.22c-0.5,0.29 -1.09,0.44 -1.76,0.44zM654.01,151.53c0.58,0 1.05,-0.21 1.4,-0.63c0.36,-0.42 0.53,-1.02 0.53,-1.82c0,-0.79 -0.17,-1.39 -0.53,-1.8c-0.35,-0.42 -0.82,-0.63 -1.4,-0.63c-0.59,0 -1.06,0.21 -1.41,0.63c-0.36,0.41 -0.54,1.01 -0.54,1.8c0,0.8 0.18,1.4 0.54,1.82c0.35,0.42 0.82,0.63 1.41,0.63zM659.11,152.5v-6.83h1.41v2.76h3.4v-2.76h1.42v6.83h-1.42v-2.95h-3.4v2.95zM669.65,152.63c-0.48,0 -0.9,-0.1 -1.28,-0.28c-0.37,-0.19 -0.67,-0.44 -0.89,-0.76c-0.22,-0.32 -0.33,-0.68 -0.33,-1.08c0,-0.5 0.13,-0.9 0.38,-1.19c0.26,-0.29 0.69,-0.5 1.28,-0.63c0.59,-0.13 1.4,-0.19 2.4,-0.19h0.48v-0.37c0,-0.53 -0.11,-0.91 -0.34,-1.15c-0.22,-0.23 -0.59,-0.35 -1.1,-0.35c-0.39,0 -0.79,0.06 -1.18,0.19c-0.39,0.11 -0.79,0.29 -1.2,0.54l-0.44,-0.99c0.36,-0.25 0.8,-0.45 1.33,-0.6c0.54,-0.15 1.05,-0.23 1.53,-0.23c0.93,0 1.62,0.23 2.07,0.67c0.45,0.44 0.67,1.13 0.67,2.08v4.21h-1.33v-1.13c-0.16,0.39 -0.42,0.7 -0.78,0.92c-0.35,0.22 -0.78,0.34 -1.27,0.34zM669.93,151.62c0.5,0 0.92,-0.18 1.26,-0.53c0.33,-0.36 0.5,-0.81 0.5,-1.35v-0.38h-0.46c-0.68,0 -1.22,0.04 -1.61,0.1c-0.38,0.07 -0.66,0.18 -0.83,0.34c-0.16,0.15 -0.24,0.36 -0.24,0.63c0,0.35 0.13,0.64 0.37,0.87c0.24,0.21 0.58,0.32 1.01,0.32zM674.84,152.68l-0.48,-1.12c0.41,-0.17 0.74,-0.39 0.97,-0.68c0.23,-0.3 0.4,-0.71 0.5,-1.24c0.11,-0.53 0.16,-1.21 0.16,-2.05v-1.92h5.2v6.83h-1.41v-5.7h-2.48v0.83c0,1.02 -0.08,1.88 -0.25,2.56c-0.17,0.68 -0.43,1.22 -0.8,1.62c-0.35,0.4 -0.82,0.69 -1.41,0.87zM683.32,152.5v-6.83h1.42v2.36h1.94c0.88,0 1.55,0.2 2,0.58c0.46,0.37 0.69,0.92 0.69,1.64c0,0.69 -0.24,1.24 -0.71,1.65c-0.48,0.4 -1.14,0.6 -1.98,0.6zM684.74,151.53h1.76c0.49,0 0.86,-0.1 1.13,-0.3c0.27,-0.22 0.41,-0.55 0.41,-0.98c0,-0.43 -0.14,-0.75 -0.41,-0.94c-0.27,-0.21 -0.64,-0.31 -1.13,-0.31h-1.76zM690.94,152.5v-6.83h1.41v2.76h3.4v-2.76h1.42v6.83h-1.42v-2.95h-3.4v2.95zM699.28,152.5v-6.83h1.41v2.36h1.95c0.87,0 1.54,0.2 2,0.58c0.46,0.37 0.68,0.92 0.68,1.64c0,0.69 -0.23,1.24 -0.71,1.65c-0.48,0.4 -1.13,0.6 -1.97,0.6zM706.25,152.5v-6.83h1.41v6.83zM700.69,151.53h1.76c0.49,0 0.87,-0.1 1.14,-0.3c0.27,-0.22 0.4,-0.55 0.4,-0.98c0,-0.43 -0.13,-0.75 -0.4,-0.94c-0.27,-0.21 -0.65,-0.31 -1.14,-0.31h-1.76zM708.89,152.5l2.85,-3.53l-2.66,-3.3h1.65l1.83,2.34l1.84,-2.34h1.65l-2.68,3.32l2.86,3.51h-1.68l-2,-2.52l-1.99,2.52zM720.41,154.32v-2.94h0.76c0.3,-0.45 0.51,-0.97 0.64,-1.55c0.13,-0.6 0.2,-1.32 0.2,-2.17v-1.99h5.05v5.71h1.09v2.94h-1.2v-1.82h-5.32v1.82zM722.48,151.38h3.24v-4.61h-2.48v1.18c0,0.64 -0.07,1.27 -0.2,1.88c-0.13,0.6 -0.31,1.12 -0.56,1.55zM731.76,152.63c-0.48,0 -0.9,-0.1 -1.28,-0.28c-0.37,-0.19 -0.67,-0.44 -0.89,-0.76c-0.22,-0.32 -0.32,-0.68 -0.32,-1.08c0,-0.5 0.12,-0.9 0.37,-1.19c0.27,-0.29 0.69,-0.5 1.28,-0.63c0.6,-0.13 1.4,-0.19 2.41,-0.19h0.47v-0.37c0,-0.53 -0.11,-0.91 -0.33,-1.15c-0.23,-0.23 -0.6,-0.35 -1.11,-0.35c-0.39,0 -0.78,0.06 -1.18,0.19c-0.39,0.11 -0.79,0.29 -1.2,0.54l-0.43,-0.99c0.35,-0.25 0.79,-0.45 1.33,-0.6c0.53,-0.15 1.04,-0.23 1.52,-0.23c0.94,0 1.63,0.23 2.07,0.67c0.45,0.44 0.68,1.13 0.68,2.08v4.21h-1.33v-1.13c-0.17,0.39 -0.43,0.7 -0.79,0.92c-0.35,0.22 -0.78,0.34 -1.27,0.34zM732.04,151.62c0.5,0 0.92,-0.18 1.26,-0.53c0.33,-0.36 0.5,-0.81 0.5,-1.35v-0.38h-0.46c-0.68,0 -1.22,0.04 -1.61,0.1c-0.38,0.07 -0.66,0.18 -0.83,0.34c-0.15,0.15 -0.23,0.36 -0.23,0.63c0,0.35 0.12,0.64 0.36,0.87c0.24,0.21 0.58,0.32 1.01,0.32zM737.24,152.5v-6.83h1.42v2.76h3.4v-2.76h1.41v6.83h-1.41v-2.95h-3.4v2.95zM745.58,152.5v-6.83h1.42v2.76h3.4v-2.76h1.41v6.83h-1.41v-2.95h-3.4v2.95zM753.92,152.5v-6.83h1.42v2.36h1.94c0.88,0 1.55,0.2 2.01,0.58c0.45,0.37 0.68,0.92 0.68,1.64c0,0.69 -0.24,1.24 -0.71,1.65c-0.48,0.4 -1.14,0.6 -1.98,0.6zM760.9,152.5v-6.83h1.41v6.83zM755.34,151.53h1.76c0.49,0 0.86,-0.1 1.14,-0.3c0.27,-0.22 0.4,-0.55 0.4,-0.98c0,-0.43 -0.13,-0.75 -0.4,-0.94c-0.28,-0.21 -0.65,-0.31 -1.14,-0.31h-1.76zM763.54,152.5l2.84,-3.53l-2.66,-3.3h1.66l1.83,2.34l1.83,-2.34h1.66l-2.68,3.32l2.86,3.51h-1.68l-2,-2.52l-1.99,2.52zM775.76,152.5v-6.83h1.29v4.95l3.69,-4.95h1.19v6.83h-1.29v-4.94l-3.69,4.94zM787.73,152.5v-6.83h6.19v6.83h-1.41v-5.7h-3.36v5.7zM796.05,155.02v-9.35h1.38v1.16c0.2,-0.39 0.5,-0.7 0.9,-0.94c0.4,-0.23 0.86,-0.35 1.38,-0.35c0.61,0 1.14,0.15 1.59,0.44c0.45,0.29 0.8,0.7 1.05,1.23c0.25,0.52 0.37,1.15 0.37,1.87c0,0.73 -0.12,1.36 -0.37,1.89c-0.25,0.54 -0.6,0.95 -1.05,1.24c-0.45,0.28 -0.98,0.42 -1.59,0.42c-0.5,0 -0.95,-0.11 -1.35,-0.33c-0.4,-0.22 -0.69,-0.52 -0.9,-0.91v3.63zM799.36,151.53c0.59,0 1.06,-0.21 1.4,-0.63c0.36,-0.42 0.54,-1.02 0.54,-1.82c0,-0.79 -0.18,-1.39 -0.54,-1.8c-0.34,-0.42 -0.81,-0.63 -1.4,-0.63c-0.58,0 -1.05,0.21 -1.41,0.63c-0.34,0.41 -0.52,1.01 -0.52,1.8c0,0.8 0.18,1.4 0.52,1.82c0.36,0.42 0.83,0.63 1.41,0.63zM806.65,152.63c-0.47,0 -0.9,-0.1 -1.27,-0.28c-0.37,-0.19 -0.67,-0.44 -0.9,-0.76c-0.21,-0.32 -0.32,-0.68 -0.32,-1.08c0,-0.5 0.13,-0.9 0.38,-1.19c0.26,-0.29 0.68,-0.5 1.27,-0.63c0.6,-0.13 1.4,-0.19 2.41,-0.19h0.48v-0.37c0,-0.53 -0.12,-0.91 -0.34,-1.15c-0.22,-0.23 -0.59,-0.35 -1.11,-0.35c-0.39,0 -0.78,0.06 -1.17,0.19c-0.39,0.11 -0.79,0.29 -1.21,0.54l-0.43,-0.99c0.36,-0.25 0.8,-0.45 1.33,-0.6c0.53,-0.15 1.04,-0.23 1.53,-0.23c0.93,0 1.62,0.23 2.07,0.67c0.45,0.44 0.67,1.13 0.67,2.08v4.21h-1.33v-1.13c-0.17,0.39 -0.43,0.7 -0.78,0.92c-0.36,0.22 -0.78,0.34 -1.28,0.34zM806.93,151.62c0.51,0 0.93,-0.18 1.26,-0.53c0.34,-0.36 0.51,-0.81 0.51,-1.35v-0.38h-0.47c-0.68,0 -1.21,0.04 -1.61,0.1c-0.38,0.07 -0.65,0.18 -0.82,0.34c-0.16,0.15 -0.24,0.36 -0.24,0.63c0,0.35 0.12,0.64 0.36,0.87c0.25,0.21 0.58,0.32 1.01,0.32zM812.14,152.5v-6.83h3.48c0.84,0 1.46,0.16 1.84,0.47c0.39,0.31 0.59,0.75 0.59,1.32c0,0.35 -0.11,0.67 -0.31,0.94c-0.2,0.26 -0.47,0.45 -0.81,0.57c0.43,0.1 0.76,0.3 0.99,0.59c0.23,0.29 0.35,0.63 0.35,1.04c0,0.58 -0.22,1.05 -0.66,1.4c-0.44,0.33 -1.06,0.5 -1.87,0.5zM813.47,148.57h2.06c0.38,0 0.67,-0.09 0.88,-0.27c0.21,-0.18 0.32,-0.42 0.32,-0.73c0,-0.32 -0.11,-0.56 -0.32,-0.73c-0.21,-0.16 -0.5,-0.25 -0.88,-0.25h-2.06zM813.47,151.59h2.18c0.88,0 1.32,-0.35 1.32,-1.06c0,-0.7 -0.44,-1.05 -1.32,-1.05h-2.18zM819.92,152.5v-6.83h1.29v4.95l3.69,-4.95h1.19v6.83h-1.29v-4.94l-3.69,4.94zM827.92,152.68l-0.47,-1.12c0.41,-0.17 0.73,-0.39 0.96,-0.68c0.24,-0.3 0.4,-0.71 0.51,-1.24c0.1,-0.53 0.15,-1.21 0.15,-2.05v-1.92h5.21v6.83h-1.42v-5.7h-2.47v0.83c0,1.02 -0.09,1.88 -0.26,2.56c-0.16,0.68 -0.43,1.22 -0.79,1.62c-0.36,0.4 -0.83,0.69 -1.42,0.87zM838.6,152.63c-0.47,0 -0.9,-0.1 -1.27,-0.28c-0.37,-0.19 -0.67,-0.44 -0.9,-0.76c-0.21,-0.32 -0.32,-0.68 -0.32,-1.08c0,-0.5 0.13,-0.9 0.38,-1.19c0.26,-0.29 0.69,-0.5 1.27,-0.63c0.6,-0.13 1.4,-0.19 2.41,-0.19h0.48v-0.37c0,-0.53 -0.11,-0.91 -0.34,-1.15c-0.22,-0.23 -0.59,-0.35 -1.1,-0.35c-0.4,0 -0.79,0.06 -1.18,0.19c-0.39,0.11 -0.79,0.29 -1.2,0.54l-0.44,-0.99c0.36,-0.25 0.8,-0.45 1.33,-0.6c0.53,-0.15 1.04,-0.23 1.53,-0.23c0.93,0 1.62,0.23 2.07,0.67c0.45,0.44 0.67,1.13 0.67,2.08v4.21h-1.33v-1.13c-0.17,0.39 -0.43,0.7 -0.78,0.92c-0.36,0.22 -0.78,0.34 -1.28,0.34zM838.88,151.62c0.51,0 0.93,-0.18 1.26,-0.53c0.34,-0.36 0.51,-0.81 0.51,-1.35v-0.38h-0.46c-0.69,0 -1.22,0.04 -1.61,0.1c-0.39,0.07 -0.66,0.18 -0.83,0.34c-0.16,0.15 -0.24,0.36 -0.24,0.63c0,0.35 0.12,0.64 0.37,0.87c0.24,0.21 0.57,0.32 1,0.32zM844.09,152.5v-6.83h1.16l2.48,4.32l2.46,-4.32h1.17v6.83h-1.25v-4.63l-2.04,3.52h-0.69l-2.04,-3.52v4.63zM853.48,152.5v-6.83h1.29v4.95l3.7,-4.95h1.19v6.83h-1.29v-4.94l-3.7,4.94zM865.47,155.02v-9.35h1.39v1.16c0.19,-0.39 0.49,-0.7 0.89,-0.94c0.41,-0.23 0.87,-0.35 1.39,-0.35c0.61,0 1.13,0.15 1.58,0.44c0.46,0.29 0.81,0.7 1.05,1.23c0.25,0.52 0.38,1.15 0.38,1.87c0,0.73 -0.13,1.36 -0.38,1.89c-0.24,0.54 -0.59,0.95 -1.05,1.24c-0.45,0.28 -0.97,0.42 -1.58,0.42c-0.5,0 -0.96,-0.11 -1.36,-0.33c-0.39,-0.22 -0.69,-0.52 -0.89,-0.91v3.63zM868.79,151.53c0.59,0 1.06,-0.21 1.4,-0.63c0.36,-0.42 0.53,-1.02 0.53,-1.82c0,-0.79 -0.17,-1.39 -0.53,-1.8c-0.34,-0.42 -0.81,-0.63 -1.4,-0.63c-0.59,0 -1.06,0.21 -1.41,0.63c-0.35,0.41 -0.52,1.01 -0.52,1.8c0,0.8 0.17,1.4 0.52,1.82c0.35,0.42 0.82,0.63 1.41,0.63zM877.1,152.63c-1.12,0 -2,-0.32 -2.65,-0.94c-0.64,-0.64 -0.96,-1.5 -0.96,-2.59c0,-0.7 0.14,-1.32 0.42,-1.85c0.29,-0.54 0.68,-0.96 1.19,-1.26c0.5,-0.3 1.08,-0.45 1.73,-0.45c0.95,0 1.69,0.31 2.23,0.91c0.54,0.6 0.81,1.43 0.81,2.48v0.48h-5.01c0.1,1.41 0.85,2.12 2.25,2.12c0.4,0 0.78,-0.06 1.15,-0.18c0.39,-0.12 0.74,-0.32 1.08,-0.6l0.42,0.98c-0.31,0.28 -0.7,0.5 -1.19,0.66c-0.48,0.16 -0.97,0.24 -1.47,0.24zM876.89,146.54c-0.59,0 -1.05,0.18 -1.4,0.54c-0.34,0.37 -0.55,0.85 -0.63,1.46h3.82c-0.03,-0.64 -0.19,-1.13 -0.5,-1.47c-0.31,-0.36 -0.74,-0.53 -1.29,-0.53zM881.55,152.5v-6.83h1.41v2.77h1.15l2.12,-2.77h1.54l-2.31,3.06c0.22,0.11 0.43,0.27 0.61,0.48c0.2,0.21 0.4,0.49 0.6,0.85l1.42,2.44h-1.51l-1.19,-2.04c-0.22,-0.37 -0.43,-0.61 -0.63,-0.73c-0.2,-0.12 -0.48,-0.18 -0.83,-0.18h-0.97v2.95zM888.83,152.68l-0.48,-1.12c0.42,-0.17 0.74,-0.39 0.97,-0.68c0.23,-0.3 0.4,-0.71 0.5,-1.24c0.11,-0.53 0.16,-1.21 0.16,-2.05v-1.92h5.21v6.83h-1.42v-5.7h-2.48v0.83c0,1.02 -0.08,1.88 -0.25,2.56c-0.17,0.68 -0.43,1.22 -0.8,1.62c-0.35,0.4 -0.82,0.69 -1.41,0.87zM899.51,152.63c-0.47,0 -0.9,-0.1 -1.27,-0.28c-0.38,-0.19 -0.67,-0.44 -0.9,-0.76c-0.21,-0.32 -0.32,-0.68 -0.32,-1.08c0,-0.5 0.13,-0.9 0.38,-1.19c0.26,-0.29 0.68,-0.5 1.27,-0.63c0.6,-0.13 1.4,-0.19 2.41,-0.19h0.48v-0.37c0,-0.53 -0.12,-0.91 -0.34,-1.15c-0.22,-0.23 -0.59,-0.35 -1.11,-0.35c-0.39,0 -0.78,0.06 -1.17,0.19c-0.39,0.11 -0.8,0.29 -1.21,0.54l-0.43,-0.99c0.35,-0.25 0.8,-0.45 1.33,-0.6c0.53,-0.15 1.04,-0.23 1.53,-0.23c0.93,0 1.62,0.23 2.07,0.67c0.45,0.44 0.67,1.13 0.67,2.08v4.21h-1.33v-1.13c-0.17,0.39 -0.43,0.7 -0.78,0.92c-0.36,0.22 -0.78,0.34 -1.28,0.34zM899.79,151.62c0.51,0 0.93,-0.18 1.26,-0.53c0.34,-0.36 0.51,-0.81 0.51,-1.35v-0.38h-0.47c-0.68,0 -1.21,0.04 -1.61,0.1c-0.38,0.07 -0.65,0.18 -0.82,0.34c-0.16,0.15 -0.24,0.36 -0.24,0.63c0,0.35 0.12,0.64 0.36,0.87c0.25,0.21 0.58,0.32 1.01,0.32zM905,152.5v-6.83h1.16l2.48,4.32l2.46,-4.32h1.16v6.83h-1.24v-4.63l-2.05,3.52h-0.68l-2.05,-3.52v4.63zM914.39,152.5v-6.83h1.41v2.76h3.41v-2.76h1.41v6.83h-1.41v-2.95h-3.41v2.95zM922.73,152.5v-6.83h1.41v2.36h1.95c0.88,0 1.54,0.2 2,0.58c0.46,0.37 0.69,0.92 0.69,1.64c0,0.69 -0.24,1.24 -0.72,1.65c-0.47,0.4 -1.13,0.6 -1.97,0.6zM929.7,152.5v-6.83h1.42v6.83zM924.14,151.53h1.77c0.48,0 0.86,-0.1 1.13,-0.3c0.27,-0.22 0.41,-0.55 0.41,-0.98c0,-0.43 -0.14,-0.75 -0.41,-0.94c-0.27,-0.21 -0.65,-0.31 -1.13,-0.31h-1.77zM932.35,152.5l2.84,-3.53l-2.66,-3.3h1.65l1.84,2.34l1.83,-2.34h1.65l-2.67,3.32l2.85,3.51h-1.68l-2,-2.52l-1.99,2.52zM944.58,155.02v-9.35h1.38v1.16c0.2,-0.39 0.5,-0.7 0.9,-0.94c0.4,-0.23 0.86,-0.35 1.39,-0.35c0.6,0 1.13,0.15 1.58,0.44c0.46,0.29 0.81,0.7 1.05,1.23c0.25,0.52 0.38,1.15 0.38,1.87c0,0.73 -0.13,1.36 -0.38,1.89c-0.24,0.54 -0.59,0.95 -1.05,1.24c-0.45,0.28 -0.98,0.42 -1.58,0.42c-0.51,0 -0.96,-0.11 -1.36,-0.33c-0.39,-0.22 -0.69,-0.52 -0.9,-0.91v3.63zM947.9,151.53c0.58,0 1.05,-0.21 1.4,-0.63c0.35,-0.42 0.53,-1.02 0.53,-1.82c0,-0.79 -0.18,-1.39 -0.53,-1.8c-0.35,-0.42 -0.82,-0.63 -1.4,-0.63c-0.59,0 -1.06,0.21 -1.42,0.63c-0.34,0.41 -0.52,1.01 -0.52,1.8c0,0.8 0.18,1.4 0.52,1.82c0.36,0.42 0.83,0.63 1.42,0.63zM955.18,152.63c-0.47,0 -0.9,-0.1 -1.27,-0.28c-0.37,-0.19 -0.67,-0.44 -0.9,-0.76c-0.21,-0.32 -0.32,-0.68 -0.32,-1.08c0,-0.5 0.13,-0.9 0.38,-1.19c0.26,-0.29 0.69,-0.5 1.27,-0.63c0.6,-0.13 1.4,-0.19 2.41,-0.19h0.48v-0.37c0,-0.53 -0.11,-0.91 -0.34,-1.15c-0.22,-0.23 -0.59,-0.35 -1.1,-0.35c-0.4,0 -0.79,0.06 -1.18,0.19c-0.39,0.11 -0.79,0.29 -1.2,0.54l-0.44,-0.99c0.36,-0.25 0.8,-0.45 1.33,-0.6c0.53,-0.15 1.04,-0.23 1.53,-0.23c0.93,0 1.62,0.23 2.07,0.67c0.45,0.44 0.67,1.13 0.67,2.08v4.21h-1.33v-1.13c-0.17,0.39 -0.43,0.7 -0.78,0.92c-0.36,0.22 -0.78,0.34 -1.28,0.34zM955.46,151.62c0.51,0 0.93,-0.18 1.26,-0.53c0.34,-0.36 0.51,-0.81 0.51,-1.35v-0.38h-0.46c-0.69,0 -1.22,0.04 -1.61,0.1c-0.39,0.07 -0.66,0.18 -0.83,0.34c-0.16,0.15 -0.24,0.36 -0.24,0.63c0,0.35 0.12,0.64 0.37,0.87c0.24,0.21 0.57,0.32 1,0.32zM963.69,152.63c-0.7,0 -1.3,-0.15 -1.82,-0.44c-0.5,-0.3 -0.89,-0.71 -1.17,-1.24c-0.28,-0.55 -0.42,-1.18 -0.42,-1.91c0,-1.08 0.31,-1.93 0.92,-2.56c0.62,-0.63 1.45,-0.94 2.49,-0.94c0.43,0 0.86,0.08 1.28,0.23c0.42,0.15 0.76,0.35 1.03,0.61l-0.44,1c-0.27,-0.25 -0.56,-0.42 -0.87,-0.54c-0.31,-0.12 -0.6,-0.18 -0.88,-0.18c-0.67,0 -1.18,0.21 -1.54,0.63c-0.36,0.41 -0.54,1 -0.54,1.77c0,0.76 0.18,1.36 0.54,1.8c0.36,0.43 0.87,0.65 1.54,0.65c0.28,0 0.57,-0.06 0.88,-0.17c0.31,-0.12 0.6,-0.31 0.87,-0.55l0.44,1.01c-0.27,0.25 -0.62,0.45 -1.05,0.6c-0.42,0.15 -0.84,0.23 -1.26,0.23zM970.39,152.63c-0.7,0 -1.3,-0.15 -1.82,-0.44c-0.5,-0.3 -0.89,-0.71 -1.17,-1.24c-0.28,-0.55 -0.42,-1.18 -0.42,-1.91c0,-1.08 0.3,-1.93 0.92,-2.56c0.62,-0.63 1.45,-0.94 2.49,-0.94c0.43,0 0.86,0.08 1.28,0.23c0.42,0.15 0.76,0.35 1.03,0.61l-0.45,1c-0.26,-0.25 -0.55,-0.42 -0.86,-0.54c-0.31,-0.12 -0.61,-0.18 -0.89,-0.18c-0.66,0 -1.17,0.21 -1.54,0.63c-0.35,0.41 -0.53,1 -0.53,1.77c0,0.76 0.18,1.36 0.53,1.8c0.37,0.43 0.88,0.65 1.54,0.65c0.28,0 0.58,-0.06 0.89,-0.17c0.31,-0.12 0.6,-0.31 0.86,-0.55l0.45,1.01c-0.27,0.25 -0.62,0.45 -1.05,0.6c-0.42,0.15 -0.84,0.23 -1.26,0.23zM974.07,152.5v-6.83h1.41v2.36h1.95c0.88,0 1.54,0.2 2,0.58c0.46,0.37 0.69,0.92 0.69,1.64c0,0.69 -0.24,1.24 -0.72,1.65c-0.47,0.4 -1.13,0.6 -1.97,0.6zM981.04,152.5v-6.83h1.41v6.83zM975.48,151.53h1.77c0.48,0 0.86,-0.1 1.13,-0.3c0.27,-0.22 0.41,-0.55 0.41,-0.98c0,-0.43 -0.14,-0.75 -0.41,-0.94c-0.27,-0.21 -0.65,-0.31 -1.13,-0.31h-1.77zM984.29,152.68l-0.48,-1.12c0.41,-0.17 0.73,-0.39 0.97,-0.68c0.23,-0.3 0.4,-0.71 0.5,-1.24c0.1,-0.53 0.16,-1.21 0.16,-2.05v-1.92h5.2v6.83h-1.41v-5.7h-2.48v0.83c0,1.02 -0.08,1.88 -0.25,2.56c-0.17,0.68 -0.43,1.22 -0.8,1.62c-0.35,0.4 -0.82,0.69 -1.41,0.87zM995.75,152.63c-0.69,0 -1.28,-0.15 -1.79,-0.44c-0.5,-0.29 -0.89,-0.69 -1.17,-1.22c-0.28,-0.53 -0.41,-1.16 -0.41,-1.89c0,-0.72 0.13,-1.35 0.41,-1.87c0.28,-0.53 0.67,-0.94 1.17,-1.23c0.51,-0.29 1.1,-0.44 1.79,-0.44c0.68,0 1.26,0.15 1.77,0.44c0.5,0.29 0.89,0.7 1.17,1.23c0.28,0.52 0.42,1.15 0.42,1.87c0,0.73 -0.14,1.36 -0.42,1.89c-0.28,0.53 -0.67,0.93 -1.17,1.22c-0.51,0.29 -1.09,0.44 -1.77,0.44zM995.75,151.53c0.58,0 1.05,-0.21 1.4,-0.63c0.36,-0.42 0.54,-1.02 0.54,-1.82c0,-0.79 -0.18,-1.39 -0.54,-1.8c-0.35,-0.42 -0.82,-0.63 -1.4,-0.63c-0.58,0 -1.06,0.21 -1.41,0.63c-0.36,0.41 -0.53,1.01 -0.53,1.8c0,0.8 0.17,1.4 0.53,1.82c0.35,0.42 0.83,0.63 1.41,0.63zM1000.85,152.5v-6.83h1.42v2.77h1.14l2.12,-2.77h1.54l-2.31,3.06c0.22,0.11 0.43,0.27 0.61,0.48c0.2,0.21 0.4,0.49 0.61,0.85l1.41,2.44h-1.51l-1.19,-2.04c-0.22,-0.37 -0.43,-0.61 -0.63,-0.73c-0.2,-0.12 -0.47,-0.18 -0.83,-0.18h-0.96v2.95z" fill="#18121E"/><path d="M955.98,135.94h71.77v0.55h-71.77zM544.5,153.94h226.52v0.55h-226.52zM786.67,153.94h220.69v0.55h-220.69z" fill="#18121E"/></g><g id="Frame 14" data-node-id="1:155"><path id="актуально" data-node-id="1:156" d="M104.712,56.66c-0.6,0 -1.14,-0.11 -1.62,-0.34c-0.468,-0.24 -0.84,-0.56 -1.116,-0.97c-0.276,-0.41 -0.414,-0.87 -0.414,-1.37c0,-0.64 0.162,-1.14 0.486,-1.51c0.336,-0.37 0.882,-0.64 1.638,-0.79c0.768,-0.17 1.812,-0.26 3.132,-0.26h0.576v-0.55c0,-0.75 -0.156,-1.28 -0.468,-1.61c-0.3,-0.33 -0.786,-0.5 -1.458,-0.5c-0.528,0 -1.038,0.08 -1.53,0.23c-0.492,0.15 -0.996,0.39 -1.512,0.72l-0.504,-1.06c0.456,-0.32 1.008,-0.58 1.656,-0.77c0.66,-0.19 1.29,-0.29 1.89,-0.29c1.128,0 1.962,0.28 2.502,0.83c0.552,0.55 0.828,1.41 0.828,2.57v5.51h-1.368v-1.51c-0.228,0.51 -0.582,0.92 -1.062,1.22c-0.468,0.3 -1.02,0.45 -1.656,0.45zM104.946,55.56c0.72,0 1.308,-0.24 1.764,-0.73c0.456,-0.51 0.684,-1.14 0.684,-1.91v-0.54h-0.558c-0.972,0 -1.74,0.05 -2.304,0.14c-0.552,0.09 -0.942,0.24 -1.17,0.47c-0.216,0.22 -0.324,0.52 -0.324,0.9c0,0.49 0.168,0.89 0.504,1.21c0.348,0.31 0.816,0.46 1.404,0.46zM111.643,56.5v-8.75h1.458v3.66h1.638l2.862,-3.66h1.602l-3.042,3.94c0.312,0.12 0.594,0.32 0.846,0.6c0.252,0.27 0.534,0.67 0.846,1.19l1.8,3.02h-1.566l-1.584,-2.65c-0.3,-0.51 -0.588,-0.85 -0.864,-1.02c-0.276,-0.17 -0.666,-0.25 -1.17,-0.25h-1.368v3.92zM122.936,56.5v-7.58h-3.168v-1.17h7.812v1.17h-3.186v7.58zM130.177,59.74l1.494,-3.38l-3.69,-8.61h1.584l2.898,7.09l2.916,-7.09h1.53l-5.202,11.99zM141.204,56.66c-0.6,0 -1.14,-0.11 -1.62,-0.34c-0.468,-0.24 -0.84,-0.56 -1.116,-0.97c-0.276,-0.41 -0.414,-0.87 -0.414,-1.37c0,-0.64 0.162,-1.14 0.486,-1.51c0.336,-0.37 0.882,-0.64 1.638,-0.79c0.768,-0.17 1.812,-0.26 3.132,-0.26h0.576v-0.55c0,-0.75 -0.156,-1.28 -0.468,-1.61c-0.3,-0.33 -0.786,-0.5 -1.458,-0.5c-0.528,0 -1.038,0.08 -1.53,0.23c-0.492,0.15 -0.996,0.39 -1.512,0.72l-0.504,-1.06c0.456,-0.32 1.008,-0.58 1.656,-0.77c0.66,-0.19 1.29,-0.29 1.89,-0.29c1.128,0 1.962,0.28 2.502,0.83c0.552,0.55 0.828,1.41 0.828,2.57v5.51h-1.368v-1.51c-0.228,0.51 -0.582,0.92 -1.062,1.22c-0.468,0.3 -1.02,0.45 -1.656,0.45zM141.438,55.56c0.72,0 1.308,-0.24 1.764,-0.73c0.456,-0.51 0.684,-1.14 0.684,-1.91v-0.54h-0.558c-0.972,0 -1.74,0.05 -2.304,0.14c-0.552,0.09 -0.942,0.24 -1.17,0.47c-0.216,0.22 -0.324,0.52 -0.324,0.9c0,0.49 0.168,0.89 0.504,1.21c0.348,0.31 0.816,0.46 1.404,0.46zM147.649,56.7l-0.54,-1.15c0.54,-0.23 0.966,-0.55 1.278,-0.96c0.312,-0.42 0.528,-0.99 0.648,-1.73c0.132,-0.73 0.198,-1.69 0.198,-2.88v-2.23h6.354v8.75h-1.458v-7.58h-3.528v1.12c0,1.37 -0.102,2.49 -0.306,3.38c-0.192,0.89 -0.504,1.59 -0.936,2.11c-0.432,0.51 -1.002,0.9 -1.71,1.17zM158.471,56.5v-8.75h1.458v3.12h2.646c1.116,0 1.962,0.24 2.538,0.73c0.576,0.48 0.864,1.17 0.864,2.06c0,0.87 -0.3,1.57 -0.9,2.08c-0.588,0.51 -1.422,0.76 -2.502,0.76zM159.929,55.46h2.502c0.672,0 1.194,-0.15 1.566,-0.44c0.384,-0.28 0.576,-0.73 0.576,-1.35c0,-0.6 -0.186,-1.04 -0.558,-1.33c-0.372,-0.29 -0.9,-0.43 -1.584,-0.43h-2.502zM168.139,56.5v-8.75h1.458v3.64h4.77v-3.64h1.458v8.75h-1.458v-3.92h-4.77v3.92zM182.358,56.66c-0.852,0 -1.59,-0.18 -2.214,-0.56c-0.624,-0.37 -1.11,-0.89 -1.458,-1.56c-0.336,-0.69 -0.504,-1.49 -0.504,-2.41c0,-0.93 0.168,-1.73 0.504,-2.4c0.348,-0.68 0.834,-1.21 1.458,-1.58c0.624,-0.37 1.362,-0.56 2.214,-0.56c0.84,0 1.572,0.19 2.196,0.56c0.636,0.37 1.122,0.9 1.458,1.58c0.348,0.67 0.522,1.47 0.522,2.4c0,0.92 -0.174,1.72 -0.522,2.41c-0.336,0.67 -0.822,1.19 -1.458,1.56c-0.624,0.38 -1.356,0.56 -2.196,0.56zM182.358,55.49c0.816,0 1.47,-0.29 1.962,-0.86c0.492,-0.59 0.738,-1.42 0.738,-2.5c0,-1.1 -0.246,-1.93 -0.738,-2.51c-0.492,-0.57 -1.146,-0.86 -1.962,-0.86c-0.828,0 -1.488,0.29 -1.98,0.86c-0.48,0.58 -0.72,1.41 -0.72,2.51c0,1.08 0.24,1.91 0.72,2.5c0.492,0.57 1.152,0.86 1.98,0.86z" fill="#F2BE22"/><path id="Получайте полезные рассылки о путешествиях" data-node-id="1:157" d="M102.346,92.5v-18.33h16.406v18.33h-4.03v-15h-8.346v15zM128.461,92.79c-1.369,0 -2.565,-0.27 -3.588,-0.81c-1.005,-0.55 -1.785,-1.33 -2.34,-2.31c-0.554,-1.01 -0.832,-2.2 -0.832,-3.57c0,-1.35 0.278,-2.52 0.832,-3.51c0.555,-1 1.335,-1.77 2.34,-2.31c1.023,-0.54 2.219,-0.81 3.588,-0.81c1.37,0 2.557,0.27 3.562,0.81c1.023,0.54 1.812,1.31 2.366,2.31c0.572,0.99 0.858,2.16 0.858,3.51c0,1.37 -0.286,2.56 -0.858,3.57c-0.554,0.98 -1.343,1.76 -2.366,2.31c-1.005,0.54 -2.192,0.81 -3.562,0.81zM128.461,89.85c0.832,0 1.508,-0.31 2.028,-0.91c0.538,-0.61 0.806,-1.55 0.806,-2.84c0,-1.26 -0.268,-2.19 -0.806,-2.78c-0.52,-0.6 -1.196,-0.91 -2.028,-0.91c-0.832,0 -1.508,0.31 -2.028,0.91c-0.52,0.59 -0.78,1.52 -0.78,2.78c0,1.29 0.26,2.23 0.78,2.84c0.52,0.6 1.196,0.91 2.028,0.91zM137.633,92.89l-1.17,-3.09c1.057,-0.3 1.803,-0.87 2.236,-1.72c0.433,-0.87 0.65,-2.2 0.65,-4v-4.35h10.842v12.77h-3.926v-9.72h-3.328v1.43c0,2.61 -0.425,4.63 -1.274,6.05c-0.849,1.43 -2.193,2.3 -4.03,2.63zM154.62,97.18l2.444,-5.38l-5.252,-12.07h4.134l3.198,8.12l3.302,-8.12h3.9l-7.722,17.45zM175.884,92.5v-4.29c-0.451,0.19 -0.91,0.33 -1.378,0.42c-0.451,0.08 -0.902,0.13 -1.352,0.13c-3.848,0 -5.772,-1.88 -5.772,-5.65v-3.38h3.926v3.02c0,1.01 0.19,1.73 0.572,2.18c0.398,0.45 1.074,0.68 2.028,0.68c0.762,0 1.395,-0.16 1.898,-0.49v-5.39h3.926v12.77zM187.477,92.79c-0.953,0 -1.794,-0.19 -2.522,-0.55c-0.728,-0.36 -1.308,-0.86 -1.742,-1.48c-0.416,-0.63 -0.624,-1.33 -0.624,-2.11c0,-0.92 0.243,-1.65 0.728,-2.21c0.486,-0.55 1.274,-0.94 2.366,-1.17c1.092,-0.24 2.54,-0.36 4.342,-0.36h0.936v-0.44c0,-0.77 -0.173,-1.3 -0.52,-1.62c-0.346,-0.33 -0.936,-0.49 -1.768,-0.49c-0.693,0 -1.43,0.11 -2.21,0.34c-0.762,0.21 -1.525,0.53 -2.288,0.96l-1.066,-2.63c0.451,-0.29 0.997,-0.56 1.638,-0.8c0.659,-0.24 1.344,-0.43 2.054,-0.55c0.711,-0.14 1.387,-0.21 2.028,-0.21c1.976,0 3.45,0.45 4.42,1.36c0.971,0.88 1.456,2.26 1.456,4.13v7.54h-3.666v-1.92c-0.26,0.67 -0.702,1.21 -1.326,1.61c-0.606,0.4 -1.352,0.6 -2.236,0.6zM188.361,90.16c0.728,0 1.344,-0.25 1.846,-0.75c0.503,-0.51 0.754,-1.16 0.754,-1.95v-0.52h-0.91c-1.334,0 -2.279,0.12 -2.834,0.36c-0.554,0.23 -0.832,0.62 -0.832,1.2c0,0.48 0.165,0.88 0.494,1.19c0.347,0.31 0.841,0.47 1.482,0.47zM198.066,92.5v-12.77h3.536v7.73l5.824,-7.73h3.224v12.77h-3.536v-7.72l-5.824,7.72zM204.332,78.15c-1.439,0 -2.566,-0.36 -3.38,-1.07c-0.815,-0.71 -1.326,-1.6 -1.534,-2.68l1.924,-0.62c0.277,0.8 0.65,1.38 1.118,1.74c0.485,0.37 1.118,0.55 1.898,0.55c0.797,0 1.43,-0.19 1.898,-0.57c0.468,-0.39 0.84,-0.95 1.118,-1.69l1.82,0.59c-0.295,1.18 -0.867,2.1 -1.716,2.76c-0.85,0.66 -1.898,0.99 -3.146,0.99zM216.791,92.5v-9.7h-4.212v-3.07h12.35v3.07h-4.212v9.7zM233.285,92.79c-1.508,0 -2.808,-0.27 -3.9,-0.81c-1.074,-0.55 -1.906,-1.33 -2.496,-2.31c-0.572,-1.01 -0.858,-2.19 -0.858,-3.54c0,-1.32 0.278,-2.47 0.832,-3.46c0.572,-1 1.344,-1.78 2.314,-2.34c0.988,-0.57 2.124,-0.86 3.406,-0.86c1.855,0 3.328,0.59 4.42,1.77c1.092,1.16 1.638,2.74 1.638,4.73v0.99h-8.866c0.139,1.01 0.503,1.74 1.092,2.21c0.607,0.45 1.439,0.68 2.496,0.68c0.694,0 1.396,-0.11 2.106,-0.31c0.711,-0.21 1.352,-0.53 1.924,-0.97l1.04,2.63c-0.641,0.49 -1.43,0.88 -2.366,1.17c-0.918,0.28 -1.846,0.42 -2.782,0.42zM232.739,82.07c-0.832,0 -1.508,0.26 -2.028,0.76c-0.502,0.5 -0.814,1.2 -0.936,2.1h5.616c-0.104,-1.9 -0.988,-2.86 -2.652,-2.86zM248.568,92.5v-12.77h12.636v12.77h-3.926v-9.72h-4.784v9.72zM270.75,92.79c-1.369,0 -2.565,-0.27 -3.588,-0.81c-1.005,-0.55 -1.785,-1.33 -2.34,-2.31c-0.554,-1.01 -0.832,-2.2 -0.832,-3.57c0,-1.35 0.278,-2.52 0.832,-3.51c0.555,-1 1.335,-1.77 2.34,-2.31c1.023,-0.54 2.219,-0.81 3.588,-0.81c1.37,0 2.557,0.27 3.562,0.81c1.023,0.54 1.812,1.31 2.366,2.31c0.572,0.99 0.858,2.16 0.858,3.51c0,1.37 -0.286,2.56 -0.858,3.57c-0.554,0.98 -1.343,1.76 -2.366,2.31c-1.005,0.54 -2.192,0.81 -3.562,0.81zM270.75,89.85c0.832,0 1.508,-0.31 2.028,-0.91c0.538,-0.61 0.806,-1.55 0.806,-2.84c0,-1.26 -0.268,-2.19 -0.806,-2.78c-0.52,-0.6 -1.196,-0.91 -2.028,-0.91c-0.832,0 -1.508,0.31 -2.028,0.91c-0.52,0.59 -0.78,1.52 -0.78,2.78c0,1.29 0.26,2.23 0.78,2.84c0.52,0.6 1.196,0.91 2.028,0.91zM279.922,92.89l-1.17,-3.09c1.057,-0.3 1.803,-0.87 2.236,-1.72c0.433,-0.87 0.65,-2.2 0.65,-4v-4.35h10.842v12.77h-3.926v-9.72h-3.328v1.43c0,2.61 -0.425,4.63 -1.274,6.05c-0.849,1.43 -2.193,2.3 -4.03,2.63zM302.551,92.79c-1.508,0 -2.808,-0.27 -3.9,-0.81c-1.075,-0.55 -1.907,-1.33 -2.496,-2.31c-0.572,-1.01 -0.858,-2.19 -0.858,-3.54c0,-1.32 0.277,-2.47 0.832,-3.46c0.572,-1 1.343,-1.78 2.314,-2.34c0.988,-0.57 2.123,-0.86 3.406,-0.86c1.855,0 3.328,0.59 4.42,1.77c1.092,1.16 1.638,2.74 1.638,4.73v0.99h-8.866c0.139,1.01 0.503,1.74 1.092,2.21c0.607,0.45 1.439,0.68 2.496,0.68c0.693,0 1.395,-0.11 2.106,-0.31c0.711,-0.21 1.352,-0.53 1.924,-0.97l1.04,2.63c-0.641,0.49 -1.43,0.88 -2.366,1.17c-0.919,0.28 -1.846,0.42 -2.782,0.42zM302.005,82.07c-0.832,0 -1.508,0.26 -2.028,0.76c-0.503,0.5 -0.815,1.2 -0.936,2.1h5.616c-0.104,-1.9 -0.988,-2.86 -2.652,-2.86zM315.589,92.79c-1.179,0 -2.288,-0.13 -3.328,-0.37c-1.04,-0.26 -1.924,-0.63 -2.652,-1.12l0.962,-2.49c0.607,0.38 1.361,0.68 2.262,0.91c0.901,0.21 1.794,0.31 2.678,0.31c0.953,0 1.655,-0.1 2.106,-0.31c0.468,-0.21 0.702,-0.55 0.702,-1.02c0,-0.85 -0.598,-1.27 -1.794,-1.27h-3.614v-2.73h3.276c1.092,0 1.638,-0.39 1.638,-1.17c0,-0.42 -0.199,-0.74 -0.598,-0.96c-0.381,-0.23 -1.066,-0.34 -2.054,-0.34c-0.884,0 -1.69,0.1 -2.418,0.31c-0.728,0.19 -1.395,0.45 -2.002,0.78l-0.962,-2.44c0.711,-0.44 1.586,-0.77 2.626,-1.02c1.04,-0.26 2.193,-0.39 3.458,-0.39c1.768,0 3.12,0.32 4.056,0.97c0.953,0.62 1.43,1.5 1.43,2.65c0,0.64 -0.182,1.2 -0.546,1.69c-0.347,0.48 -0.832,0.84 -1.456,1.06c1.664,0.4 2.496,1.43 2.496,3.07c0,1.18 -0.546,2.13 -1.638,2.84c-1.092,0.69 -2.635,1.04 -4.628,1.04zM324.435,92.5v-12.77h3.926v4.74h4.862v-4.74h3.926v12.77h-3.926v-4.99h-4.862v4.99zM340.558,92.5v-12.77h3.926v4.06h3.068c3.466,0 5.2,1.42 5.2,4.26c0,1.32 -0.477,2.4 -1.43,3.23c-0.936,0.81 -2.193,1.22 -3.77,1.22zM354.078,92.5v-12.77h3.926v12.77zM344.484,89.98h2.392c0.71,0 1.265,-0.16 1.664,-0.47c0.416,-0.31 0.624,-0.78 0.624,-1.4c0,-0.63 -0.2,-1.09 -0.598,-1.38c-0.399,-0.3 -0.962,-0.44 -1.69,-0.44h-2.392zM368.059,92.79c-1.508,0 -2.808,-0.27 -3.9,-0.81c-1.075,-0.55 -1.907,-1.33 -2.496,-2.31c-0.572,-1.01 -0.858,-2.19 -0.858,-3.54c0,-1.32 0.277,-2.47 0.832,-3.46c0.572,-1 1.343,-1.78 2.314,-2.34c0.988,-0.57 2.123,-0.86 3.406,-0.86c1.855,0 3.328,0.59 4.42,1.77c1.092,1.16 1.638,2.74 1.638,4.73v0.99h-8.866c0.139,1.01 0.503,1.74 1.092,2.21c0.607,0.45 1.439,0.68 2.496,0.68c0.693,0 1.395,-0.11 2.106,-0.31c0.711,-0.21 1.352,-0.53 1.924,-0.97l1.04,2.63c-0.641,0.49 -1.43,0.88 -2.366,1.17c-0.919,0.28 -1.846,0.42 -2.782,0.42zM367.513,82.07c-0.832,0 -1.508,0.26 -2.028,0.76c-0.503,0.5 -0.815,1.2 -0.936,2.1h5.616c-0.104,-1.9 -0.988,-2.86 -2.652,-2.86zM102.216,128.18v-17.45h3.848v1.9c0.347,-0.66 0.875,-1.18 1.586,-1.56c0.728,-0.4 1.543,-0.6 2.444,-0.6c1.109,0 2.08,0.27 2.912,0.81c0.849,0.54 1.508,1.3 1.976,2.29c0.468,0.99 0.702,2.16 0.702,3.53c0,1.37 -0.234,2.56 -0.702,3.57c-0.468,0.98 -1.127,1.76 -1.976,2.31c-0.832,0.54 -1.803,0.81 -2.912,0.81c-0.849,0 -1.629,-0.19 -2.34,-0.55c-0.693,-0.36 -1.231,-0.85 -1.612,-1.46v6.4zM108.924,120.85c0.832,0 1.508,-0.31 2.028,-0.91c0.52,-0.61 0.78,-1.55 0.78,-2.84c0,-1.26 -0.26,-2.19 -0.78,-2.78c-0.52,-0.6 -1.196,-0.91 -2.028,-0.91c-0.849,0 -1.534,0.31 -2.054,0.91c-0.52,0.59 -0.78,1.52 -0.78,2.78c0,1.29 0.26,2.23 0.78,2.84c0.52,0.6 1.205,0.91 2.054,0.91zM122.807,123.79c-0.953,0 -1.794,-0.19 -2.522,-0.55c-0.728,-0.36 -1.308,-0.86 -1.742,-1.48c-0.416,-0.63 -0.624,-1.33 -0.624,-2.11c0,-0.92 0.243,-1.65 0.728,-2.21c0.486,-0.55 1.274,-0.94 2.366,-1.17c1.092,-0.24 2.54,-0.36 4.342,-0.36h0.936v-0.44c0,-0.77 -0.173,-1.3 -0.52,-1.62c-0.346,-0.33 -0.936,-0.49 -1.768,-0.49c-0.693,0 -1.43,0.11 -2.21,0.34c-0.762,0.21 -1.525,0.53 -2.288,0.96l-1.066,-2.63c0.451,-0.29 0.997,-0.56 1.638,-0.8c0.659,-0.24 1.344,-0.43 2.054,-0.55c0.711,-0.14 1.387,-0.21 2.028,-0.21c1.976,0 3.45,0.45 4.42,1.36c0.971,0.88 1.456,2.26 1.456,4.13v7.54h-3.666v-1.92c-0.26,0.67 -0.702,1.21 -1.326,1.61c-0.606,0.4 -1.352,0.6 -2.236,0.6zM123.691,121.16c0.728,0 1.344,-0.25 1.846,-0.75c0.503,-0.51 0.754,-1.16 0.754,-1.95v-0.52h-0.91c-1.334,0 -2.279,0.12 -2.834,0.36c-0.554,0.23 -0.832,0.62 -0.832,1.2c0,0.48 0.165,0.88 0.494,1.19c0.347,0.31 0.841,0.47 1.482,0.47zM139.61,123.79c-1.387,0 -2.6,-0.27 -3.64,-0.81c-1.023,-0.55 -1.812,-1.33 -2.366,-2.34c-0.555,-1.01 -0.832,-2.19 -0.832,-3.56c0,-1.37 0.277,-2.55 0.832,-3.54c0.554,-0.99 1.343,-1.74 2.366,-2.26c1.04,-0.54 2.253,-0.81 3.64,-0.81c0.814,0 1.638,0.13 2.47,0.37c0.832,0.24 1.508,0.59 2.028,1.04l-1.092,2.7c-0.434,-0.34 -0.919,-0.61 -1.456,-0.8c-0.538,-0.21 -1.058,-0.32 -1.56,-0.32c-1.023,0 -1.82,0.32 -2.392,0.97c-0.555,0.62 -0.832,1.51 -0.832,2.67c0,1.15 0.277,2.05 0.832,2.71c0.572,0.64 1.369,0.96 2.392,0.96c0.485,0 0.996,-0.1 1.534,-0.29c0.554,-0.19 1.048,-0.46 1.482,-0.83l1.092,2.71c-0.52,0.45 -1.196,0.8 -2.028,1.06c-0.832,0.24 -1.656,0.37 -2.47,0.37zM152.457,123.79c-1.386,0 -2.6,-0.27 -3.64,-0.81c-1.022,-0.55 -1.811,-1.33 -2.366,-2.34c-0.554,-1.01 -0.832,-2.19 -0.832,-3.56c0,-1.37 0.278,-2.55 0.832,-3.54c0.555,-0.99 1.344,-1.74 2.366,-2.26c1.04,-0.54 2.254,-0.81 3.64,-0.81c0.815,0 1.638,0.13 2.47,0.37c0.832,0.24 1.508,0.59 2.028,1.04l-1.092,2.7c-0.433,-0.34 -0.918,-0.61 -1.456,-0.8c-0.537,-0.21 -1.057,-0.32 -1.56,-0.32c-1.022,0 -1.82,0.32 -2.392,0.97c-0.554,0.62 -0.832,1.51 -0.832,2.67c0,1.15 0.278,2.05 0.832,2.71c0.572,0.64 1.37,0.96 2.392,0.96c0.486,0 0.997,-0.1 1.534,-0.29c0.555,-0.19 1.049,-0.46 1.482,-0.83l1.092,2.71c-0.52,0.45 -1.196,0.8 -2.028,1.06c-0.832,0.24 -1.655,0.37 -2.47,0.37zM159.091,123.5v-12.77h3.926v4.06h3.068c3.467,0 5.2,1.42 5.2,4.26c0,1.32 -0.477,2.4 -1.43,3.23c-0.936,0.81 -2.193,1.22 -3.77,1.22zM172.611,123.5v-12.77h3.926v12.77zM163.017,120.98h2.392c0.711,0 1.265,-0.16 1.664,-0.47c0.416,-0.31 0.624,-0.78 0.624,-1.4c0,-0.63 -0.199,-1.09 -0.598,-1.38c-0.399,-0.3 -0.962,-0.44 -1.69,-0.44h-2.392zM179.832,123.89l-1.17,-3.09c1.057,-0.3 1.803,-0.87 2.236,-1.72c0.433,-0.87 0.65,-2.2 0.65,-4v-4.35h10.842v12.77h-3.926v-9.72h-3.328v1.43c0,2.61 -0.425,4.63 -1.274,6.05c-0.849,1.43 -2.193,2.3 -4.03,2.63zM195.831,123.5v-12.77h3.926v4.76h1.534l3.406,-4.76h4.186l-4.03,5.72c0.364,0.23 0.694,0.52 0.988,0.89c0.312,0.34 0.598,0.75 0.858,1.22l2.704,4.94h-4.186l-2.054,-3.69c-0.277,-0.5 -0.563,-0.84 -0.858,-1.02c-0.294,-0.19 -0.676,-0.28 -1.144,-0.28h-1.404v4.99zM210.888,123.5v-12.77h3.536v7.73l5.824,-7.73h3.224v12.77h-3.536v-7.72l-5.824,7.72zM240.282,123.79c-1.37,0 -2.566,-0.27 -3.588,-0.81c-1.006,-0.55 -1.786,-1.33 -2.34,-2.31c-0.555,-1.01 -0.832,-2.2 -0.832,-3.57c0,-1.35 0.277,-2.52 0.832,-3.51c0.554,-1 1.334,-1.77 2.34,-2.31c1.022,-0.54 2.218,-0.81 3.588,-0.81c1.369,0 2.556,0.27 3.562,0.81c1.022,0.54 1.811,1.31 2.366,2.31c0.572,0.99 0.858,2.16 0.858,3.51c0,1.37 -0.286,2.56 -0.858,3.57c-0.555,0.98 -1.344,1.76 -2.366,2.31c-1.006,0.54 -2.193,0.81 -3.562,0.81zM240.282,120.85c0.832,0 1.508,-0.31 2.028,-0.91c0.537,-0.61 0.806,-1.55 0.806,-2.84c0,-1.26 -0.269,-2.19 -0.806,-2.78c-0.52,-0.6 -1.196,-0.91 -2.028,-0.91c-0.832,0 -1.508,0.31 -2.028,0.91c-0.52,0.59 -0.78,1.52 -0.78,2.78c0,1.29 0.26,2.23 0.78,2.84c0.52,0.6 1.196,0.91 2.028,0.91zM257.073,123.5v-12.77h12.636v12.77h-3.926v-9.72h-4.784v9.72zM274.108,128.18l2.444,-5.38l-5.252,-12.07h4.134l3.198,8.12l3.302,-8.12h3.9l-7.722,17.45zM290.399,123.5v-9.7h-4.212v-3.07h12.35v3.07h-4.212v9.7zM306.893,123.79c-1.508,0 -2.808,-0.27 -3.9,-0.81c-1.075,-0.55 -1.907,-1.33 -2.496,-2.31c-0.572,-1.01 -0.858,-2.19 -0.858,-3.54c0,-1.32 0.277,-2.47 0.832,-3.46c0.572,-1 1.343,-1.78 2.314,-2.34c0.988,-0.57 2.123,-0.86 3.406,-0.86c1.855,0 3.328,0.59 4.42,1.77c1.092,1.16 1.638,2.74 1.638,4.73v0.99h-8.866c0.139,1.01 0.503,1.74 1.092,2.21c0.607,0.45 1.439,0.68 2.496,0.68c0.693,0 1.395,-0.11 2.106,-0.31c0.711,-0.21 1.352,-0.53 1.924,-0.97l1.04,2.63c-0.641,0.49 -1.43,0.88 -2.366,1.17c-0.919,0.28 -1.846,0.42 -2.782,0.42zM306.347,113.07c-0.832,0 -1.508,0.26 -2.028,0.76c-0.503,0.5 -0.815,1.2 -0.936,2.1h5.616c-0.104,-1.9 -0.988,-2.86 -2.652,-2.86zM314.939,123.5v-12.77h3.666v9.73h3.848v-9.73h3.666v9.73h3.848v-9.73h3.666v12.77zM343.684,123.79c-1.508,0 -2.808,-0.27 -3.9,-0.81c-1.075,-0.55 -1.907,-1.33 -2.496,-2.31c-0.572,-1.01 -0.858,-2.19 -0.858,-3.54c0,-1.32 0.277,-2.47 0.832,-3.46c0.572,-1 1.343,-1.78 2.314,-2.34c0.988,-0.57 2.123,-0.86 3.406,-0.86c1.855,0 3.328,0.59 4.42,1.77c1.092,1.16 1.638,2.74 1.638,4.73v0.99h-8.866c0.139,1.01 0.503,1.74 1.092,2.21c0.607,0.45 1.439,0.68 2.496,0.68c0.693,0 1.395,-0.11 2.106,-0.31c0.711,-0.21 1.352,-0.53 1.924,-0.97l1.04,2.63c-0.641,0.49 -1.43,0.88 -2.366,1.17c-0.919,0.28 -1.846,0.42 -2.782,0.42zM343.138,113.07c-0.832,0 -1.508,0.26 -2.028,0.76c-0.503,0.5 -0.815,1.2 -0.936,2.1h5.616c-0.104,-1.9 -0.988,-2.86 -2.652,-2.86zM357.944,123.79c-1.387,0 -2.6,-0.27 -3.64,-0.81c-1.023,-0.55 -1.812,-1.33 -2.366,-2.34c-0.555,-1.01 -0.832,-2.19 -0.832,-3.56c0,-1.37 0.277,-2.55 0.832,-3.54c0.554,-0.99 1.343,-1.74 2.366,-2.26c1.04,-0.54 2.253,-0.81 3.64,-0.81c0.814,0 1.638,0.13 2.47,0.37c0.832,0.24 1.508,0.59 2.028,1.04l-1.092,2.7c-0.434,-0.34 -0.919,-0.61 -1.456,-0.8c-0.538,-0.21 -1.058,-0.32 -1.56,-0.32c-1.023,0 -1.82,0.32 -2.392,0.97c-0.555,0.62 -0.832,1.51 -0.832,2.67c0,1.15 0.277,2.05 0.832,2.71c0.572,0.64 1.369,0.96 2.392,0.96c0.485,0 0.996,-0.1 1.534,-0.29c0.554,-0.19 1.048,-0.46 1.482,-0.83l1.092,2.71c-0.52,0.45 -1.196,0.8 -2.028,1.06c-0.832,0.24 -1.656,0.37 -2.47,0.37zM367.281,123.5v-9.7h-4.212v-3.07h12.35v3.07h-4.212v9.7zM377.323,123.5v-12.77h7.254c1.734,0 2.964,0.31 3.692,0.91c0.728,0.59 1.092,1.41 1.092,2.45c0,0.64 -0.182,1.2 -0.546,1.69c-0.346,0.48 -0.832,0.84 -1.456,1.06c0.85,0.21 1.474,0.58 1.872,1.12c0.399,0.54 0.598,1.19 0.598,1.95c0,1.09 -0.433,1.97 -1.3,2.63c-0.849,0.64 -2.097,0.96 -3.744,0.96zM380.937,115.83h3.224c0.52,0 0.928,-0.12 1.222,-0.36c0.295,-0.25 0.442,-0.59 0.442,-1.04c0,-0.45 -0.147,-0.79 -0.442,-1.02c-0.294,-0.22 -0.702,-0.34 -1.222,-0.34h-3.224zM380.937,121.16h3.458c1.266,0 1.898,-0.5 1.898,-1.51c0,-1 -0.632,-1.51 -1.898,-1.51h-3.458zM392.431,123.5v-12.77h3.536v7.73l5.824,-7.73h3.224v12.77h-3.536v-7.72l-5.824,7.72zM407.308,123.5l1.872,-3.2c0.486,-0.88 1.127,-1.47 1.924,-1.77c-2.114,-0.41 -3.172,-1.66 -3.172,-3.74c0,-1.27 0.434,-2.25 1.3,-2.96c0.867,-0.73 2.132,-1.1 3.796,-1.1h6.916v12.77h-3.614v-4.13h-1.066c-0.416,0 -0.788,0.12 -1.118,0.36c-0.312,0.23 -0.572,0.52 -0.78,0.88l-1.638,2.89zM413.86,116.84h2.47v-3.58h-2.47c-0.745,0 -1.308,0.15 -1.69,0.46c-0.364,0.32 -0.546,0.75 -0.546,1.3c0,0.58 0.182,1.03 0.546,1.36c0.382,0.31 0.945,0.46 1.69,0.46zM421.536,123.5l5.382,-6.58l-5.044,-6.19h4.576l2.704,3.51l2.704,-3.51h4.576l-5.044,6.19l5.408,6.58h-4.602l-3.042,-3.85l-3.042,3.85z" fill="#18121E"/></g><g id="Frame 23_3" data-node-id="1:158"><g id="Frame 22_3" data-node-id="1:159"><path id="Введите e-mail адрес" data-node-id="1:160" d="M545.812,55.5v-11.28h4.704c1.173,0 2.08,0.26 2.72,0.78c0.651,0.52 0.976,1.24 0.976,2.16c0,0.61 -0.16,1.13 -0.48,1.57c-0.32,0.44 -0.757,0.76 -1.312,0.96c0.651,0.17 1.157,0.49 1.52,0.95c0.363,0.45 0.544,1.04 0.544,1.74c0,1 -0.336,1.78 -1.008,2.32c-0.661,0.53 -1.584,0.8 -2.768,0.8zM547.412,49.15h2.848c1.557,0 2.336,-0.61 2.336,-1.83c0,-1.21 -0.779,-1.82 -2.336,-1.82h-2.848zM547.412,54.22h3.104c1.568,0 2.352,-0.63 2.352,-1.9c0,-1.26 -0.784,-1.89 -2.352,-1.89h-3.104zM556.622,55.5v-7.81h3.984c0.96,0 1.659,0.18 2.096,0.55c0.448,0.35 0.672,0.85 0.672,1.5c0,0.41 -0.117,0.76 -0.352,1.07c-0.224,0.3 -0.533,0.52 -0.928,0.66c0.491,0.12 0.87,0.34 1.136,0.67c0.267,0.33 0.4,0.73 0.4,1.18c0,0.68 -0.25,1.21 -0.752,1.6c-0.501,0.39 -1.216,0.58 -2.144,0.58zM558.142,51h2.352c0.438,0 0.774,-0.1 1.008,-0.3c0.246,-0.2 0.368,-0.48 0.368,-0.83c0,-0.36 -0.122,-0.64 -0.368,-0.83c-0.234,-0.2 -0.57,-0.29 -1.008,-0.29h-2.352zM558.142,54.46h2.496c1.003,0 1.504,-0.41 1.504,-1.22c0,-0.8 -0.501,-1.2 -1.504,-1.2h-2.496zM569.193,55.64c-1.28,0 -2.288,-0.35 -3.024,-1.07c-0.736,-0.72 -1.104,-1.71 -1.104,-2.96c0,-0.8 0.16,-1.5 0.48,-2.11c0.331,-0.62 0.784,-1.1 1.36,-1.44c0.576,-0.34 1.237,-0.51 1.984,-0.51c1.077,0 1.925,0.34 2.544,1.04c0.619,0.68 0.928,1.62 0.928,2.83v0.54h-5.728c0.117,1.63 0.976,2.44 2.576,2.44c0.448,0 0.885,-0.07 1.312,-0.21c0.437,-0.14 0.848,-0.37 1.232,-0.69l0.48,1.12c-0.352,0.32 -0.805,0.57 -1.36,0.75c-0.555,0.18 -1.115,0.27 -1.68,0.27zM568.953,48.68c-0.672,0 -1.205,0.21 -1.6,0.63c-0.395,0.41 -0.635,0.97 -0.72,1.66h4.368c-0.032,-0.72 -0.224,-1.28 -0.576,-1.68c-0.352,-0.4 -0.843,-0.61 -1.472,-0.61zM573.479,57.58v-3.36h0.864c0.341,-0.51 0.586,-1.1 0.736,-1.78c0.149,-0.68 0.224,-1.51 0.224,-2.48v-2.27h5.776v6.53h1.248v3.36h-1.376v-2.08h-6.08v2.08zM575.847,54.22h3.696v-5.26h-2.832v1.34c0,0.74 -0.075,1.45 -0.224,2.14c-0.15,0.7 -0.363,1.29 -0.64,1.78zM583.935,55.5v-7.81h1.472v5.67l4.224,-5.67h1.36v7.81h-1.472v-5.65l-4.224,5.65zM595.051,55.5v-6.51h-2.752v-1.3h7.136v1.3h-2.768v6.51zM604.365,55.64c-1.28,0 -2.288,-0.35 -3.024,-1.07c-0.736,-0.72 -1.104,-1.71 -1.104,-2.96c0,-0.8 0.16,-1.5 0.48,-2.11c0.33,-0.62 0.784,-1.1 1.36,-1.44c0.576,-0.34 1.237,-0.51 1.984,-0.51c1.077,0 1.925,0.34 2.544,1.04c0.618,0.68 0.928,1.62 0.928,2.83v0.54h-5.728c0.117,1.63 0.976,2.44 2.576,2.44c0.448,0 0.885,-0.07 1.312,-0.21c0.437,-0.14 0.848,-0.37 1.232,-0.69l0.48,1.12c-0.352,0.32 -0.806,0.57 -1.36,0.75c-0.555,0.18 -1.115,0.27 -1.68,0.27zM604.125,48.68c-0.672,0 -1.206,0.21 -1.6,0.63c-0.395,0.41 -0.635,0.97 -0.72,1.66h4.368c-0.032,-0.72 -0.224,-1.28 -0.576,-1.68c-0.352,-0.4 -0.843,-0.61 -1.472,-0.61zM617.238,55.64c-1.28,0 -2.288,-0.35 -3.024,-1.07c-0.736,-0.72 -1.104,-1.71 -1.104,-2.96c0,-0.8 0.16,-1.5 0.48,-2.11c0.33,-0.62 0.784,-1.1 1.36,-1.44c0.576,-0.34 1.237,-0.51 1.984,-0.51c1.077,0 1.925,0.34 2.544,1.04c0.618,0.68 0.928,1.62 0.928,2.83v0.54h-5.728c0.117,1.63 0.976,2.44 2.576,2.44c0.448,0 0.885,-0.07 1.312,-0.21c0.437,-0.14 0.848,-0.37 1.232,-0.69l0.48,1.12c-0.352,0.32 -0.806,0.57 -1.36,0.75c-0.555,0.18 -1.115,0.27 -1.68,0.27zM616.998,48.68c-0.672,0 -1.206,0.21 -1.6,0.63c-0.395,0.41 -0.635,0.97 -0.72,1.66h4.368c-0.032,-0.72 -0.224,-1.28 -0.576,-1.68c-0.352,-0.4 -0.843,-0.61 -1.472,-0.61zM622.339,51.88v-1.31h4.608v1.31zM629.246,55.5v-7.81h1.564v1.27c0.24,-0.45 0.56,-0.8 0.98,-1.04c0.42,-0.25 0.9,-0.37 1.46,-0.37c1.19,0 1.96,0.52 2.32,1.57c0.24,-0.49 0.59,-0.88 1.05,-1.16c0.46,-0.27 0.98,-0.41 1.57,-0.41c1.75,0 2.62,1.04 2.62,3.13v4.82h-1.61v-4.74c0,-0.66 -0.12,-1.14 -0.35,-1.45c-0.23,-0.31 -0.6,-0.47 -1.12,-0.47c-0.59,0 -1.05,0.21 -1.4,0.63c-0.34,0.4 -0.51,0.96 -0.51,1.66v4.37h-1.61v-4.74c0,-0.66 -0.12,-1.14 -0.34,-1.45c-0.22,-0.31 -0.6,-0.47 -1.12,-0.47c-0.59,0 -1.05,0.21 -1.39,0.63c-0.33,0.4 -0.5,0.96 -0.5,1.66v4.37zM645.57,55.64c-0.54,0 -1.03,-0.1 -1.46,-0.32c-0.42,-0.21 -0.76,-0.5 -1.02,-0.86c-0.25,-0.36 -0.37,-0.77 -0.37,-1.23c0,-0.58 0.15,-1.03 0.43,-1.36c0.3,-0.33 0.79,-0.57 1.46,-0.72c0.68,-0.15 1.6,-0.23 2.75,-0.23h0.55v-0.41c0,-0.61 -0.13,-1.05 -0.39,-1.31c-0.25,-0.27 -0.68,-0.4 -1.26,-0.4c-0.45,0 -0.9,0.07 -1.35,0.2c-0.44,0.13 -0.9,0.34 -1.37,0.63l-0.5,-1.14c0.41,-0.29 0.91,-0.52 1.52,-0.69c0.61,-0.17 1.19,-0.25 1.75,-0.25c1.06,0 1.85,0.25 2.36,0.77c0.52,0.5 0.77,1.29 0.77,2.36v4.82h-1.52v-1.3c-0.19,0.45 -0.49,0.8 -0.89,1.06c-0.41,0.26 -0.9,0.38 -1.46,0.38zM645.89,54.49c0.58,0 1.06,-0.2 1.44,-0.61c0.38,-0.4 0.58,-0.91 0.58,-1.53v-0.43h-0.53c-0.78,0 -1.39,0.03 -1.84,0.11c-0.44,0.07 -0.75,0.2 -0.95,0.38c-0.18,0.17 -0.27,0.41 -0.27,0.72c0,0.41 0.14,0.74 0.42,0.99c0.27,0.25 0.66,0.37 1.15,0.37zM651.52,45.88v-1.68h1.89v1.68zM651.67,55.5v-7.81h1.61v7.81zM658.1,55.64c-0.85,0 -1.49,-0.24 -1.92,-0.72c-0.41,-0.48 -0.62,-1.18 -0.62,-2.11v-8.59h1.61v8.5c0,1.05 0.44,1.58 1.3,1.58c0.13,0 0.25,-0.01 0.35,-0.02c0.12,-0.01 0.24,-0.03 0.35,-0.06l-0.03,1.3c-0.36,0.08 -0.71,0.12 -1.04,0.12zM667.24,55.64c-0.54,0 -1.03,-0.1 -1.45,-0.32c-0.43,-0.21 -0.77,-0.5 -1.03,-0.86c-0.24,-0.36 -0.36,-0.77 -0.36,-1.23c0,-0.58 0.14,-1.03 0.43,-1.36c0.3,-0.33 0.78,-0.57 1.45,-0.72c0.69,-0.15 1.6,-0.23 2.76,-0.23h0.54v-0.41c0,-0.61 -0.13,-1.05 -0.38,-1.31c-0.26,-0.27 -0.68,-0.4 -1.27,-0.4c-0.45,0 -0.89,0.07 -1.34,0.2c-0.45,0.13 -0.91,0.34 -1.38,0.63l-0.49,-1.14c0.4,-0.29 0.91,-0.52 1.52,-0.69c0.6,-0.17 1.18,-0.25 1.74,-0.25c1.07,0 1.86,0.25 2.37,0.77c0.51,0.5 0.77,1.29 0.77,2.36v4.82h-1.52v-1.3c-0.2,0.45 -0.5,0.8 -0.9,1.06c-0.41,0.26 -0.89,0.38 -1.46,0.38zM667.56,54.49c0.58,0 1.06,-0.2 1.44,-0.61c0.39,-0.4 0.58,-0.91 0.58,-1.53v-0.43h-0.53c-0.78,0 -1.39,0.03 -1.84,0.11c-0.44,0.07 -0.75,0.2 -0.94,0.38c-0.18,0.17 -0.27,0.41 -0.27,0.72c0,0.41 0.13,0.74 0.41,0.99c0.28,0.25 0.66,0.37 1.15,0.37zM672.71,57.58v-3.36h0.87c0.34,-0.51 0.58,-1.1 0.73,-1.78c0.15,-0.68 0.23,-1.51 0.23,-2.48v-2.27h5.77v6.53h1.25v3.36h-1.38v-2.08h-6.08v2.08zM675.08,54.22h3.7v-5.26h-2.84v1.34c0,0.74 -0.07,1.45 -0.22,2.14c-0.15,0.7 -0.36,1.29 -0.64,1.78zM683.19,58.38v-10.69h1.58v1.33c0.22,-0.45 0.56,-0.81 1.02,-1.07c0.46,-0.27 0.99,-0.4 1.59,-0.4c0.69,0 1.29,0.16 1.81,0.49c0.52,0.33 0.92,0.8 1.2,1.41c0.28,0.6 0.43,1.31 0.43,2.15c0,0.83 -0.15,1.55 -0.43,2.16c-0.28,0.6 -0.68,1.07 -1.2,1.4c-0.52,0.32 -1.12,0.48 -1.81,0.48c-0.58,0 -1.1,-0.12 -1.55,-0.36c-0.45,-0.26 -0.79,-0.61 -1.03,-1.04v4.14zM686.98,54.4c0.67,0 1.2,-0.24 1.6,-0.72c0.4,-0.48 0.61,-1.18 0.61,-2.08c0,-0.91 -0.21,-1.6 -0.61,-2.07c-0.4,-0.48 -0.93,-0.72 -1.6,-0.72c-0.67,0 -1.21,0.24 -1.62,0.72c-0.39,0.47 -0.59,1.16 -0.59,2.07c0,0.9 0.2,1.6 0.59,2.08c0.41,0.48 0.95,0.72 1.62,0.72zM696.47,55.64c-1.28,0 -2.28,-0.35 -3.02,-1.07c-0.74,-0.72 -1.1,-1.71 -1.1,-2.96c0,-0.8 0.16,-1.5 0.48,-2.11c0.33,-0.62 0.78,-1.1 1.36,-1.44c0.57,-0.34 1.23,-0.51 1.98,-0.51c1.08,0 1.93,0.34 2.54,1.04c0.62,0.68 0.93,1.62 0.93,2.83v0.54h-5.73c0.12,1.63 0.98,2.44 2.58,2.44c0.45,0 0.89,-0.07 1.31,-0.21c0.44,-0.14 0.85,-0.37 1.23,-0.69l0.48,1.12c-0.35,0.32 -0.8,0.57 -1.36,0.75c-0.55,0.18 -1.11,0.27 -1.68,0.27zM696.23,48.68c-0.67,0 -1.2,0.21 -1.6,0.63c-0.39,0.41 -0.63,0.97 -0.72,1.66h4.37c-0.03,-0.72 -0.22,-1.28 -0.57,-1.68c-0.36,-0.4 -0.85,-0.61 -1.48,-0.61zM705.02,55.64c-0.8,0 -1.5,-0.16 -2.08,-0.49c-0.58,-0.34 -1.03,-0.82 -1.35,-1.43c-0.32,-0.61 -0.48,-1.34 -0.48,-2.17c0,-1.24 0.35,-2.22 1.06,-2.93c0.7,-0.71 1.65,-1.07 2.85,-1.07c0.49,0 0.97,0.08 1.45,0.25c0.48,0.17 0.88,0.41 1.19,0.71l-0.52,1.13c-0.29,-0.27 -0.63,-0.48 -0.99,-0.6c-0.35,-0.14 -0.69,-0.21 -1.01,-0.21c-0.75,0 -1.34,0.24 -1.76,0.72c-0.4,0.47 -0.6,1.14 -0.6,2.01c0,0.88 0.2,1.57 0.6,2.07c0.42,0.49 1.01,0.73 1.76,0.73c0.32,0 0.66,-0.06 1.01,-0.19c0.36,-0.14 0.7,-0.34 0.99,-0.62l0.52,1.15c-0.31,0.29 -0.71,0.52 -1.2,0.69c-0.48,0.17 -0.96,0.25 -1.44,0.25z" fill="#18121E"/><g id="Frame 21_3" data-node-id="1:161"><rect x="544.5" y="68.5" width="280" height="44" rx="4" fill="#F3F5F4"/><path id="name@domain.com" data-node-id="1:162" d="M561.62,95.5v-6.79h0.84v1.22c0.224,-0.45 0.546,-0.79 0.966,-1.01c0.42,-0.22 0.887,-0.34 1.4,-0.34c1.615,0 2.422,0.88 2.422,2.64v4.28h-0.854v-4.21c0,-0.68 -0.135,-1.17 -0.406,-1.49c-0.271,-0.32 -0.7,-0.47 -1.288,-0.47c-0.672,0 -1.213,0.21 -1.624,0.63c-0.401,0.41 -0.602,0.96 -0.602,1.66v3.88zM571.554,95.61c-0.457,0 -0.868,-0.09 -1.232,-0.26c-0.355,-0.18 -0.639,-0.42 -0.854,-0.73c-0.205,-0.31 -0.308,-0.66 -0.308,-1.04c0,-0.5 0.126,-0.89 0.378,-1.17c0.252,-0.29 0.677,-0.5 1.274,-0.62c0.597,-0.12 1.419,-0.18 2.464,-0.18h0.434v-0.51c0,-0.62 -0.126,-1.07 -0.378,-1.35c-0.252,-0.29 -0.653,-0.44 -1.204,-0.44c-0.411,0 -0.807,0.06 -1.19,0.18c-0.373,0.13 -0.761,0.32 -1.162,0.58l-0.336,-0.66c0.355,-0.25 0.775,-0.45 1.26,-0.6c0.485,-0.15 0.957,-0.23 1.414,-0.23c0.821,0 1.428,0.21 1.82,0.63c0.401,0.42 0.602,1.07 0.602,1.94v4.35h-0.812v-1.22c-0.187,0.42 -0.471,0.75 -0.854,0.98c-0.373,0.24 -0.812,0.35 -1.316,0.35zM571.666,94.93c0.401,0 0.751,-0.1 1.05,-0.28c0.308,-0.2 0.551,-0.47 0.728,-0.8c0.177,-0.34 0.266,-0.72 0.266,-1.15v-0.46h-0.42c-0.84,0 -1.498,0.04 -1.974,0.11c-0.467,0.07 -0.793,0.21 -0.98,0.39c-0.187,0.19 -0.28,0.45 -0.28,0.77c0,0.42 0.145,0.76 0.434,1.02c0.289,0.27 0.681,0.4 1.176,0.4zM576.796,95.5v-6.79h0.84v1.19c0.42,-0.88 1.134,-1.32 2.142,-1.32c1.083,0 1.769,0.48 2.058,1.42c0.196,-0.44 0.495,-0.79 0.896,-1.04c0.402,-0.25 0.868,-0.38 1.4,-0.38c1.503,0 2.254,0.88 2.254,2.64v4.28h-0.854v-4.21c0,-0.68 -0.121,-1.17 -0.364,-1.49c-0.233,-0.32 -0.63,-0.47 -1.19,-0.47c-0.597,0 -1.073,0.21 -1.428,0.63c-0.354,0.41 -0.532,0.97 -0.532,1.68v3.86h-0.854v-4.21c0,-0.68 -0.121,-1.17 -0.364,-1.49c-0.233,-0.32 -0.625,-0.47 -1.176,-0.47c-0.606,0 -1.087,0.21 -1.442,0.63c-0.354,0.41 -0.532,0.97 -0.532,1.68v3.86zM591.576,95.61c-1.045,0 -1.871,-0.31 -2.478,-0.92c-0.597,-0.63 -0.896,-1.48 -0.896,-2.56c0,-0.7 0.135,-1.32 0.406,-1.85c0.271,-0.53 0.644,-0.95 1.12,-1.25c0.485,-0.3 1.041,-0.45 1.666,-0.45c0.905,0 1.61,0.3 2.114,0.89c0.504,0.58 0.756,1.39 0.756,2.42v0.39h-5.222c0.028,0.84 0.257,1.49 0.686,1.95c0.439,0.44 1.045,0.67 1.82,0.67c0.42,0 0.812,-0.07 1.176,-0.2c0.373,-0.13 0.737,-0.35 1.092,-0.66l0.336,0.65c-0.299,0.29 -0.681,0.52 -1.148,0.68c-0.467,0.16 -0.943,0.24 -1.428,0.24zM591.408,89.27c-0.709,0 -1.265,0.22 -1.666,0.67c-0.392,0.44 -0.621,1.01 -0.686,1.71h4.438c-0.019,-0.75 -0.205,-1.33 -0.56,-1.75c-0.355,-0.42 -0.863,-0.63 -1.526,-0.63zM601.661,97.78c-1.176,0 -2.208,-0.25 -3.094,-0.75c-0.887,-0.5 -1.573,-1.2 -2.058,-2.12c-0.486,-0.92 -0.728,-2.01 -0.728,-3.26c0,-0.91 0.144,-1.73 0.434,-2.48c0.298,-0.75 0.714,-1.4 1.246,-1.94c0.541,-0.55 1.18,-0.97 1.918,-1.26c0.737,-0.3 1.554,-0.45 2.45,-0.45c1.064,0 1.997,0.21 2.8,0.64c0.812,0.43 1.446,1.03 1.904,1.81c0.457,0.77 0.686,1.67 0.686,2.7c0,0.81 -0.112,1.52 -0.336,2.11c-0.224,0.6 -0.537,1.07 -0.938,1.4c-0.392,0.33 -0.854,0.49 -1.386,0.49c-0.448,0 -0.808,-0.11 -1.078,-0.33c-0.271,-0.23 -0.425,-0.53 -0.462,-0.93c-0.262,0.41 -0.584,0.72 -0.966,0.94c-0.374,0.22 -0.766,0.32 -1.176,0.32c-0.71,0 -1.26,-0.22 -1.652,-0.65c-0.392,-0.45 -0.588,-1.07 -0.588,-1.85c0,-0.69 0.13,-1.3 0.392,-1.84c0.27,-0.54 0.634,-0.96 1.092,-1.27c0.457,-0.32 0.975,-0.48 1.554,-0.48c0.457,0 0.84,0.11 1.148,0.31c0.317,0.21 0.541,0.49 0.672,0.86l0.168,-1.04h0.756l-0.644,3.74c-0.019,0.12 -0.033,0.23 -0.042,0.33c-0.01,0.11 -0.014,0.2 -0.014,0.28c0,0.66 0.298,0.98 0.896,0.98c0.382,0 0.718,-0.14 1.008,-0.42c0.289,-0.28 0.513,-0.67 0.672,-1.17c0.168,-0.52 0.252,-1.11 0.252,-1.78c0,-0.9 -0.201,-1.68 -0.602,-2.35c-0.402,-0.67 -0.957,-1.2 -1.666,-1.57c-0.71,-0.38 -1.531,-0.57 -2.464,-0.57c-1.055,0 -1.979,0.22 -2.772,0.68c-0.794,0.46 -1.414,1.1 -1.862,1.92c-0.448,0.82 -0.672,1.78 -0.672,2.87c0,1.14 0.21,2.12 0.63,2.94c0.42,0.81 1.017,1.43 1.792,1.86c0.774,0.44 1.684,0.66 2.73,0.66c0.784,0 1.488,-0.13 2.114,-0.38c0.625,-0.25 1.134,-0.6 1.526,-1.05l0.42,0.55c-0.448,0.5 -1.027,0.88 -1.736,1.15c-0.7,0.27 -1.475,0.4 -2.324,0.4zM600.947,94c0.438,0 0.83,-0.13 1.176,-0.39c0.354,-0.27 0.63,-0.63 0.826,-1.09c0.205,-0.47 0.308,-1 0.308,-1.58c0,-1.11 -0.509,-1.67 -1.526,-1.67c-0.439,0 -0.836,0.13 -1.19,0.38c-0.346,0.24 -0.621,0.58 -0.826,1.02c-0.206,0.44 -0.308,0.93 -0.308,1.48c0,0.6 0.135,1.06 0.406,1.38c0.27,0.31 0.648,0.47 1.134,0.47zM611.829,95.61c-0.616,0 -1.148,-0.14 -1.596,-0.42c-0.448,-0.29 -0.798,-0.69 -1.05,-1.22c-0.243,-0.53 -0.364,-1.15 -0.364,-1.87c0,-1.08 0.271,-1.93 0.812,-2.56c0.541,-0.64 1.274,-0.96 2.198,-0.96c0.541,0 1.017,0.13 1.428,0.38c0.42,0.24 0.733,0.58 0.938,1.01v-4.34h0.854v9.87h-0.84v-1.29c-0.205,0.44 -0.518,0.79 -0.938,1.04c-0.411,0.24 -0.891,0.36 -1.442,0.36zM611.941,94.9c0.691,0 1.241,-0.24 1.652,-0.73c0.411,-0.49 0.616,-1.19 0.616,-2.07c0,-0.89 -0.205,-1.57 -0.616,-2.06c-0.411,-0.49 -0.961,-0.73 -1.652,-0.73c-0.691,0 -1.241,0.24 -1.652,0.73c-0.401,0.49 -0.602,1.17 -0.602,2.06c0,0.88 0.201,1.58 0.602,2.07c0.411,0.49 0.961,0.73 1.652,0.73zM619.994,95.61c-0.635,0 -1.185,-0.14 -1.652,-0.42c-0.467,-0.29 -0.831,-0.69 -1.092,-1.22c-0.252,-0.53 -0.378,-1.15 -0.378,-1.87c0,-0.71 0.126,-1.33 0.378,-1.85c0.261,-0.53 0.625,-0.94 1.092,-1.23c0.467,-0.29 1.017,-0.44 1.652,-0.44c0.644,0 1.199,0.15 1.666,0.44c0.467,0.29 0.826,0.7 1.078,1.23c0.261,0.52 0.392,1.14 0.392,1.85c0,0.72 -0.131,1.34 -0.392,1.87c-0.252,0.53 -0.611,0.93 -1.078,1.22c-0.467,0.28 -1.022,0.42 -1.666,0.42zM619.994,94.9c0.691,0 1.241,-0.24 1.652,-0.73c0.411,-0.49 0.616,-1.19 0.616,-2.07c0,-0.89 -0.205,-1.57 -0.616,-2.06c-0.411,-0.49 -0.961,-0.73 -1.652,-0.73c-0.691,0 -1.241,0.24 -1.652,0.73c-0.401,0.49 -0.602,1.17 -0.602,2.06c0,0.88 0.201,1.58 0.602,2.07c0.411,0.49 0.961,0.73 1.652,0.73zM624.976,95.5v-6.79h0.84v1.19c0.42,-0.88 1.134,-1.32 2.142,-1.32c1.083,0 1.769,0.48 2.058,1.42c0.196,-0.44 0.494,-0.79 0.894,-1.04c0.4,-0.25 0.87,-0.38 1.4,-0.38c1.5,0 2.26,0.88 2.26,2.64v4.28h-0.86v-4.21c0,-0.68 -0.12,-1.17 -0.36,-1.49c-0.24,-0.32 -0.63,-0.47 -1.19,-0.47c-0.6,0 -1.08,0.21 -1.43,0.63c-0.355,0.41 -0.532,0.97 -0.532,1.68v3.86h-0.854v-4.21c0,-0.68 -0.121,-1.17 -0.364,-1.49c-0.233,-0.32 -0.625,-0.47 -1.176,-0.47c-0.607,0 -1.087,0.21 -1.442,0.63c-0.355,0.41 -0.532,0.97 -0.532,1.68v3.86zM638.9,95.61c-0.46,0 -0.87,-0.09 -1.23,-0.26c-0.36,-0.18 -0.64,-0.42 -0.85,-0.73c-0.21,-0.31 -0.31,-0.66 -0.31,-1.04c0,-0.5 0.12,-0.89 0.38,-1.17c0.25,-0.29 0.67,-0.5 1.27,-0.62c0.6,-0.12 1.42,-0.18 2.46,-0.18h0.44v-0.51c0,-0.62 -0.13,-1.07 -0.38,-1.35c-0.25,-0.29 -0.65,-0.44 -1.2,-0.44c-0.42,0 -0.81,0.06 -1.19,0.18c-0.38,0.13 -0.77,0.32 -1.17,0.58l-0.33,-0.66c0.35,-0.25 0.77,-0.45 1.26,-0.6c0.48,-0.15 0.95,-0.23 1.41,-0.23c0.82,0 1.43,0.21 1.82,0.63c0.4,0.42 0.6,1.07 0.6,1.94v4.35h-0.81v-1.22c-0.19,0.42 -0.47,0.75 -0.85,0.98c-0.38,0.24 -0.81,0.35 -1.32,0.35zM639.01,94.93c0.4,0 0.75,-0.1 1.05,-0.28c0.31,-0.2 0.55,-0.47 0.73,-0.8c0.18,-0.34 0.27,-0.72 0.27,-1.15v-0.46h-0.42c-0.84,0 -1.5,0.04 -1.98,0.11c-0.46,0.07 -0.79,0.21 -0.98,0.39c-0.18,0.19 -0.28,0.45 -0.28,0.77c0,0.42 0.15,0.76 0.44,1.02c0.29,0.27 0.68,0.4 1.17,0.4zM643.98,86.92v-1.08h1.14v1.08zM644.12,95.5v-6.79h0.85v6.79zM647.22,95.5v-6.79h0.84v1.22c0.22,-0.45 0.55,-0.79 0.97,-1.01c0.42,-0.22 0.88,-0.34 1.4,-0.34c1.61,0 2.42,0.88 2.42,2.64v4.28h-0.86v-4.21c0,-0.68 -0.13,-1.17 -0.4,-1.49c-0.27,-0.32 -0.7,-0.47 -1.29,-0.47c-0.67,0 -1.21,0.21 -1.62,0.63c-0.41,0.41 -0.61,0.96 -0.61,1.66v3.88zM654.87,95.5v-1.2h1.19v1.2zM660.56,95.61c-0.66,0 -1.23,-0.14 -1.71,-0.43c-0.47,-0.3 -0.84,-0.72 -1.1,-1.25c-0.26,-0.54 -0.38,-1.16 -0.38,-1.87c0,-1.08 0.28,-1.92 0.84,-2.54c0.57,-0.62 1.35,-0.94 2.35,-0.94c0.41,0 0.82,0.08 1.22,0.24c0.4,0.16 0.74,0.38 1.01,0.66l-0.34,0.64c-0.29,-0.28 -0.6,-0.48 -0.92,-0.6c-0.33,-0.13 -0.64,-0.19 -0.94,-0.19c-0.76,0 -1.34,0.23 -1.75,0.71c-0.4,0.48 -0.6,1.15 -0.6,2.03c0,0.88 0.2,1.57 0.6,2.07c0.41,0.5 0.99,0.74 1.75,0.74c0.3,0 0.61,-0.06 0.94,-0.18c0.32,-0.13 0.63,-0.33 0.92,-0.61l0.34,0.64c-0.27,0.27 -0.62,0.49 -1.03,0.64c-0.4,0.16 -0.8,0.24 -1.2,0.24zM666.78,95.61c-0.64,0 -1.19,-0.14 -1.65,-0.42c-0.47,-0.29 -0.83,-0.69 -1.09,-1.22c-0.26,-0.53 -0.38,-1.15 -0.38,-1.87c0,-0.71 0.12,-1.33 0.38,-1.85c0.26,-0.53 0.62,-0.94 1.09,-1.23c0.46,-0.29 1.01,-0.44 1.65,-0.44c0.64,0 1.2,0.15 1.67,0.44c0.46,0.29 0.82,0.7 1.07,1.23c0.26,0.52 0.4,1.14 0.4,1.85c0,0.72 -0.14,1.34 -0.4,1.87c-0.25,0.53 -0.61,0.93 -1.07,1.22c-0.47,0.28 -1.03,0.42 -1.67,0.42zM666.78,94.9c0.69,0 1.24,-0.24 1.65,-0.73c0.41,-0.49 0.62,-1.19 0.62,-2.07c0,-0.89 -0.21,-1.57 -0.62,-2.06c-0.41,-0.49 -0.96,-0.73 -1.65,-0.73c-0.69,0 -1.24,0.24 -1.65,0.73c-0.4,0.49 -0.6,1.17 -0.6,2.06c0,0.88 0.2,1.58 0.6,2.07c0.41,0.49 0.96,0.73 1.65,0.73zM671.76,95.5v-6.79h0.84v1.19c0.42,-0.88 1.14,-1.32 2.14,-1.32c1.09,0 1.77,0.48 2.06,1.42c0.2,-0.44 0.5,-0.79 0.9,-1.04c0.4,-0.25 0.87,-0.38 1.4,-0.38c1.5,0 2.25,0.88 2.25,2.64v4.28h-0.85v-4.21c0,-0.68 -0.12,-1.17 -0.37,-1.49c-0.23,-0.32 -0.63,-0.47 -1.19,-0.47c-0.59,0 -1.07,0.21 -1.42,0.63c-0.36,0.41 -0.54,0.97 -0.54,1.68v3.86h-0.85v-4.21c0,-0.68 -0.12,-1.17 -0.36,-1.49c-0.24,-0.32 -0.63,-0.47 -1.18,-0.47c-0.61,0 -1.09,0.21 -1.44,0.63c-0.36,0.41 -0.53,0.97 -0.53,1.68v3.86z" fill="#18121E"/></g></g><g id="button_5" data-node-id="1:163"><rect x="840.5" y="68.5" width="240" height="44" rx="4" fill="#1A3E3E"/><path id="Консультация_5" data-node-id="I1:163;1:218" d="M865.81,95.5v-11.28h9.54v11.28h-1.65v-9.89h-6.22v9.89zM881.49,95.64c-0.79,0 -1.47,-0.16 -2.05,-0.49c-0.58,-0.33 -1.02,-0.8 -1.34,-1.39c-0.31,-0.61 -0.47,-1.33 -0.47,-2.16c0,-0.84 0.16,-1.55 0.47,-2.15c0.32,-0.61 0.76,-1.08 1.34,-1.41c0.58,-0.33 1.26,-0.49 2.05,-0.49c0.77,0 1.44,0.16 2.01,0.49c0.58,0.33 1.03,0.8 1.35,1.41c0.32,0.6 0.48,1.31 0.48,2.15c0,0.83 -0.16,1.55 -0.48,2.16c-0.32,0.59 -0.77,1.06 -1.35,1.39c-0.57,0.33 -1.24,0.49 -2.01,0.49zM881.49,94.4c0.66,0 1.19,-0.24 1.6,-0.72c0.4,-0.48 0.61,-1.18 0.61,-2.08c0,-0.91 -0.21,-1.6 -0.61,-2.07c-0.41,-0.48 -0.94,-0.72 -1.6,-0.72c-0.67,0 -1.21,0.24 -1.62,0.72c-0.4,0.47 -0.61,1.16 -0.61,2.07c0,0.9 0.21,1.6 0.61,2.08c0.41,0.48 0.95,0.72 1.62,0.72zM886.71,97.58v-3.36h0.86c0.34,-0.51 0.59,-1.1 0.74,-1.78c0.15,-0.68 0.22,-1.51 0.22,-2.48v-2.27h5.78v6.53h1.24v3.36h-1.37v-2.08h-6.08v2.08zM889.07,94.22h3.7v-5.26h-2.83v1.34c0,0.74 -0.08,1.45 -0.23,2.14c-0.15,0.7 -0.36,1.29 -0.64,1.78zM897.35,95.5v-7.81h7.08v7.81h-1.62v-6.51h-3.84v6.51zM907.03,95.5v-7.81h1.47v5.67l4.23,-5.67h1.36v7.81h-1.48v-5.65l-4.22,5.65zM920.16,95.64c-0.8,0 -1.49,-0.16 -2.08,-0.49c-0.57,-0.34 -1.02,-0.82 -1.34,-1.43c-0.32,-0.61 -0.48,-1.34 -0.48,-2.17c0,-1.24 0.35,-2.22 1.06,-2.93c0.7,-0.71 1.65,-1.07 2.84,-1.07c0.49,0 0.98,0.08 1.46,0.25c0.48,0.17 0.87,0.41 1.18,0.71l-0.51,1.13c-0.3,-0.27 -0.63,-0.48 -0.99,-0.6c-0.35,-0.14 -0.69,-0.21 -1.01,-0.21c-0.76,0 -1.34,0.24 -1.76,0.72c-0.4,0.47 -0.61,1.14 -0.61,2.01c0,0.88 0.21,1.57 0.61,2.07c0.42,0.49 1,0.73 1.76,0.73c0.32,0 0.66,-0.06 1.01,-0.19c0.36,-0.14 0.69,-0.34 0.99,-0.62l0.51,1.15c-0.31,0.29 -0.71,0.52 -1.2,0.69c-0.48,0.17 -0.96,0.25 -1.44,0.25zM927.07,95.64c-0.55,0 -1.03,-0.1 -1.46,-0.32c-0.43,-0.21 -0.77,-0.5 -1.02,-0.86c-0.25,-0.36 -0.37,-0.77 -0.37,-1.23c0,-0.58 0.14,-1.03 0.43,-1.36c0.3,-0.33 0.79,-0.57 1.46,-0.72c0.68,-0.15 1.6,-0.23 2.75,-0.23h0.54v-0.41c0,-0.61 -0.12,-1.05 -0.38,-1.31c-0.26,-0.27 -0.68,-0.4 -1.26,-0.4c-0.45,0 -0.9,0.07 -1.35,0.2c-0.45,0.13 -0.91,0.34 -1.37,0.63l-0.5,-1.14c0.4,-0.29 0.91,-0.52 1.52,-0.69c0.61,-0.17 1.19,-0.25 1.74,-0.25c1.07,0 1.86,0.25 2.37,0.77c0.51,0.5 0.77,1.29 0.77,2.36v4.82h-1.52v-1.3c-0.19,0.45 -0.49,0.8 -0.9,1.06c-0.4,0.26 -0.89,0.38 -1.45,0.38zM927.39,94.49c0.57,0 1.05,-0.2 1.44,-0.61c0.38,-0.4 0.57,-0.91 0.57,-1.53v-0.43h-0.52c-0.78,0 -1.4,0.03 -1.84,0.11c-0.44,0.07 -0.76,0.2 -0.95,0.38c-0.18,0.17 -0.27,0.41 -0.27,0.72c0,0.41 0.14,0.74 0.42,0.99c0.27,0.25 0.66,0.37 1.15,0.37zM935.16,95.5v-6.51h-2.75v-1.3h7.13v1.3h-2.76v6.51zM941.03,95.5v-7.81h1.62v2.71h2.22c1.01,0 1.77,0.21 2.29,0.65c0.52,0.43 0.79,1.05 0.79,1.87c0,0.79 -0.28,1.42 -0.82,1.89c-0.54,0.46 -1.3,0.69 -2.26,0.69zM942.65,94.4h2.02c0.55,0 0.98,-0.12 1.29,-0.36c0.31,-0.24 0.47,-0.61 0.47,-1.12c0,-0.49 -0.16,-0.84 -0.47,-1.07c-0.31,-0.23 -0.74,-0.35 -1.29,-0.35h-2.02zM953.38,95.64c-0.8,0 -1.49,-0.16 -2.08,-0.49c-0.57,-0.34 -1.02,-0.82 -1.34,-1.43c-0.32,-0.61 -0.48,-1.34 -0.48,-2.17c0,-1.24 0.35,-2.22 1.06,-2.93c0.7,-0.71 1.65,-1.07 2.84,-1.07c0.5,0 0.98,0.08 1.46,0.25c0.48,0.17 0.88,0.41 1.18,0.71l-0.51,1.13c-0.3,-0.27 -0.63,-0.48 -0.99,-0.6c-0.35,-0.14 -0.69,-0.21 -1.01,-0.21c-0.75,0 -1.34,0.24 -1.76,0.72c-0.4,0.47 -0.61,1.14 -0.61,2.01c0,0.88 0.21,1.57 0.61,2.07c0.42,0.49 1.01,0.73 1.76,0.73c0.32,0 0.66,-0.06 1.01,-0.19c0.36,-0.14 0.69,-0.34 0.99,-0.62l0.51,1.15c-0.3,0.29 -0.7,0.52 -1.2,0.69c-0.48,0.17 -0.96,0.25 -1.44,0.25zM957.12,95.5l1.18,-2.05c0.31,-0.55 0.72,-0.92 1.22,-1.1c-0.66,-0.11 -1.17,-0.35 -1.52,-0.74c-0.35,-0.39 -0.53,-0.9 -0.53,-1.53c0,-0.73 0.25,-1.31 0.74,-1.73c0.49,-0.44 1.22,-0.66 2.19,-0.66h3.73v7.81h-1.51v-2.85h-1c-0.38,0 -0.7,0.1 -0.96,0.31c-0.27,0.19 -0.49,0.43 -0.66,0.72l-1.04,1.82zM960.74,91.55h1.88v-2.75h-1.88c-0.59,0 -1.02,0.12 -1.3,0.36c-0.28,0.24 -0.42,0.57 -0.42,1c0,0.43 0.14,0.77 0.42,1.02c0.28,0.25 0.71,0.37 1.3,0.37zM971.15,95.5v-7.81h1.61v3.15h3.89v-3.15h1.62v7.81h-1.62v-3.38h-3.89v3.38zM983.38,95.64c-0.54,0 -1.03,-0.1 -1.46,-0.32c-0.42,-0.21 -0.76,-0.5 -1.02,-0.86c-0.25,-0.36 -0.37,-0.77 -0.37,-1.23c0,-0.58 0.15,-1.03 0.43,-1.36c0.3,-0.33 0.79,-0.57 1.46,-0.72c0.68,-0.15 1.6,-0.23 2.75,-0.23h0.55v-0.41c0,-0.61 -0.13,-1.05 -0.39,-1.31c-0.25,-0.27 -0.68,-0.4 -1.26,-0.4c-0.45,0 -0.9,0.07 -1.35,0.2c-0.44,0.13 -0.9,0.34 -1.37,0.63l-0.5,-1.14c0.41,-0.29 0.91,-0.52 1.52,-0.69c0.61,-0.17 1.19,-0.25 1.75,-0.25c1.06,0 1.85,0.25 2.36,0.77c0.52,0.5 0.77,1.29 0.77,2.36v4.82h-1.52v-1.3c-0.19,0.45 -0.49,0.8 -0.89,1.06c-0.41,0.26 -0.89,0.38 -1.46,0.38zM983.7,94.49c0.58,0 1.06,-0.2 1.44,-0.61c0.38,-0.4 0.58,-0.91 0.58,-1.53v-0.43h-0.53c-0.78,0 -1.39,0.03 -1.84,0.11c-0.44,0.07 -0.75,0.2 -0.95,0.38c-0.18,0.17 -0.27,0.41 -0.27,0.72c0,0.41 0.14,0.74 0.42,0.99c0.28,0.25 0.66,0.37 1.15,0.37zM994.24,95.5v-7.81h1.61v3.15h3.89v-3.15h1.62v7.81h-1.62v-3.38h-3.89v3.38zM1007.37,95.64c-0.79,0 -1.47,-0.16 -2.05,-0.49c-0.58,-0.33 -1.02,-0.8 -1.34,-1.39c-0.31,-0.61 -0.47,-1.33 -0.47,-2.16c0,-0.84 0.16,-1.55 0.47,-2.15c0.32,-0.61 0.76,-1.08 1.34,-1.41c0.58,-0.33 1.26,-0.49 2.05,-0.49c0.77,0 1.44,0.16 2.01,0.49c0.58,0.33 1.03,0.8 1.35,1.41c0.32,0.6 0.48,1.31 0.48,2.15c0,0.83 -0.16,1.55 -0.48,2.16c-0.32,0.59 -0.77,1.06 -1.35,1.39c-0.57,0.33 -1.24,0.49 -2.01,0.49zM1007.37,94.4c0.66,0 1.19,-0.24 1.6,-0.72c0.4,-0.48 0.61,-1.18 0.61,-2.08c0,-0.91 -0.21,-1.6 -0.61,-2.07c-0.41,-0.48 -0.94,-0.72 -1.6,-0.72c-0.67,0 -1.21,0.24 -1.62,0.72c-0.4,0.47 -0.61,1.16 -0.61,2.07c0,0.9 0.21,1.6 0.61,2.08c0.41,0.48 0.95,0.72 1.62,0.72zM1013.39,95.5v-7.81h3.98c0.96,0 1.66,0.18 2.1,0.55c0.44,0.35 0.67,0.85 0.67,1.5c0,0.41 -0.12,0.76 -0.35,1.07c-0.23,0.3 -0.54,0.52 -0.93,0.66c0.49,0.12 0.87,0.34 1.13,0.67c0.27,0.33 0.4,0.73 0.4,1.18c0,0.68 -0.25,1.21 -0.75,1.6c-0.5,0.39 -1.21,0.58 -2.14,0.58zM1014.91,91h2.35c0.44,0 0.77,-0.1 1.01,-0.3c0.24,-0.2 0.36,-0.48 0.36,-0.83c0,-0.36 -0.12,-0.64 -0.36,-0.83c-0.24,-0.2 -0.57,-0.29 -1.01,-0.29h-2.35zM1014.91,94.46h2.49c1,0 1.51,-0.41 1.51,-1.22c0,-0.8 -0.51,-1.2 -1.51,-1.2h-2.49zM1025.88,95.64c-0.79,0 -1.48,-0.16 -2.05,-0.49c-0.58,-0.33 -1.03,-0.8 -1.35,-1.39c-0.3,-0.61 -0.46,-1.33 -0.46,-2.16c0,-0.84 0.16,-1.55 0.46,-2.15c0.32,-0.61 0.77,-1.08 1.35,-1.41c0.57,-0.33 1.26,-0.49 2.05,-0.49c0.76,0 1.44,0.16 2.01,0.49c0.58,0.33 1.03,0.8 1.35,1.41c0.32,0.6 0.48,1.31 0.48,2.15c0,0.83 -0.16,1.55 -0.48,2.16c-0.32,0.59 -0.77,1.06 -1.35,1.39c-0.57,0.33 -1.25,0.49 -2.01,0.49zM1025.88,94.4c0.66,0 1.19,-0.24 1.6,-0.72c0.4,-0.48 0.6,-1.18 0.6,-2.08c0,-0.91 -0.2,-1.6 -0.6,-2.07c-0.41,-0.48 -0.94,-0.72 -1.6,-0.72c-0.68,0 -1.21,0.24 -1.62,0.72c-0.4,0.47 -0.61,1.16 -0.61,2.07c0,0.9 0.21,1.6 0.61,2.08c0.41,0.48 0.94,0.72 1.62,0.72zM1035.35,95.64c-0.8,0 -1.49,-0.16 -2.08,-0.49c-0.57,-0.34 -1.02,-0.82 -1.34,-1.43c-0.32,-0.61 -0.48,-1.34 -0.48,-2.17c0,-1.24 0.35,-2.22 1.05,-2.93c0.71,-0.71 1.66,-1.07 2.85,-1.07c0.49,0 0.98,0.08 1.46,0.25c0.48,0.17 0.87,0.41 1.18,0.71l-0.51,1.13c-0.3,-0.27 -0.63,-0.48 -0.99,-0.6c-0.35,-0.14 -0.69,-0.21 -1.01,-0.21c-0.76,0 -1.34,0.24 -1.76,0.72c-0.41,0.47 -0.61,1.14 -0.61,2.01c0,0.88 0.2,1.57 0.61,2.07c0.42,0.49 1,0.73 1.76,0.73c0.32,0 0.66,-0.06 1.01,-0.19c0.36,-0.14 0.69,-0.34 0.99,-0.62l0.51,1.15c-0.31,0.29 -0.71,0.52 -1.2,0.69c-0.48,0.17 -0.96,0.25 -1.44,0.25zM1041.38,95.5v-6.51h-2.76v-1.3h7.14v1.3h-2.77v6.51zM1047.25,95.5v-7.81h1.47v5.67l4.22,-5.67h1.36v7.81h-1.47v-5.65l-4.22,5.65z" fill="#FDFDFD"/></g></g></g></svg>