<svg viewBox="0 0 221 53" x="0" y="0" fill="none" xmlns="http://www.w3.org/2000/svg"><g id="button_3" data-node-id="1:792" xmlns="http://www.w3.org/2000/svg"><rect x="0.5" y="0.5" width="220" height="52" rx="4" fill="#1A3E3E"/><path id="Консультация_3" data-node-id="I1:792;1:222" d="M36.74,34.08v-3.92h1.12c0.533,-0.68 0.928,-1.58 1.184,-2.72c0.256,-1.16 0.384,-2.59 0.384,-4.29v-2.93h7.712v9.94h1.6v3.92h-1.472v-2.58h-9.04v2.58zM39.556,30.16h5.936v-8.6h-4.512v1.72c0,1.64 -0.117,3.01 -0.352,4.12c-0.235,1.1 -0.592,2.02 -1.072,2.76zM50.533,34.38v-10.69h1.584v1.33c0.224,-0.45 0.566,-0.81 1.024,-1.07c0.459,-0.27 0.987,-0.4 1.584,-0.4c0.694,0 1.296,0.16 1.808,0.49c0.523,0.33 0.923,0.8 1.2,1.41c0.288,0.6 0.432,1.31 0.432,2.15c0,0.83 -0.144,1.55 -0.432,2.16c-0.277,0.6 -0.677,1.07 -1.2,1.4c-0.512,0.32 -1.114,0.48 -1.808,0.48c-0.576,0 -1.093,-0.12 -1.552,-0.36c-0.448,-0.26 -0.789,-0.61 -1.024,-1.04v4.14zM54.325,30.4c0.672,0 1.206,-0.24 1.6,-0.72c0.406,-0.48 0.608,-1.18 0.608,-2.08c0,-0.91 -0.202,-1.6 -0.608,-2.07c-0.394,-0.48 -0.928,-0.72 -1.6,-0.72c-0.672,0 -1.21,0.24 -1.616,0.72c-0.394,0.47 -0.592,1.16 -0.592,2.07c0,0.9 0.198,1.6 0.592,2.08c0.406,0.48 0.944,0.72 1.616,0.72zM61.041,34.38l1.392,-3.09l-3.264,-7.6h1.728l2.4,5.94l2.432,-5.94h1.664l-4.656,10.69zM68.917,31.5v-7.81h5.664v1.3h-4.048v6.51zM76.234,31.5v-7.81h1.472v5.67l4.224,-5.67h1.36v7.81h-1.472v-5.65l-4.224,5.65zM89.59,31.64c-1.28,0 -2.288,-0.35 -3.024,-1.07c-0.736,-0.72 -1.104,-1.71 -1.104,-2.96c0,-0.8 0.16,-1.5 0.48,-2.11c0.331,-0.62 0.784,-1.1 1.36,-1.44c0.576,-0.34 1.238,-0.51 1.984,-0.51c1.078,0 1.926,0.34 2.544,1.04c0.619,0.68 0.928,1.62 0.928,2.83v0.54h-5.728c0.118,1.63 0.976,2.44 2.576,2.44c0.448,0 0.886,-0.07 1.312,-0.21c0.438,-0.14 0.848,-0.37 1.232,-0.69l0.48,1.12c-0.352,0.32 -0.805,0.57 -1.36,0.75c-0.554,0.18 -1.114,0.27 -1.68,0.27zM89.35,24.68c-0.672,0 -1.205,0.21 -1.6,0.63c-0.394,0.41 -0.634,0.97 -0.72,1.66h4.368c-0.032,-0.72 -0.224,-1.28 -0.576,-1.68c-0.352,-0.4 -0.842,-0.61 -1.472,-0.61zM99.263,31.5v-7.81h1.328l2.832,4.95l2.816,-4.95h1.328v7.81h-1.424v-5.3l-2.336,4.04h-0.784l-2.336,-4.04v5.3zM112.702,31.64c-0.544,0 -1.03,-0.1 -1.456,-0.32c-0.427,-0.21 -0.768,-0.5 -1.024,-0.86c-0.246,-0.36 -0.368,-0.77 -0.368,-1.23c0,-0.58 0.144,-1.03 0.432,-1.36c0.298,-0.33 0.784,-0.57 1.456,-0.72c0.682,-0.15 1.6,-0.23 2.752,-0.23h0.544v-0.41c0,-0.61 -0.128,-1.05 -0.384,-1.31c-0.256,-0.27 -0.678,-0.4 -1.264,-0.4c-0.448,0 -0.896,0.07 -1.344,0.2c-0.448,0.13 -0.907,0.34 -1.376,0.63l-0.496,-1.14c0.405,-0.29 0.912,-0.52 1.52,-0.69c0.608,-0.17 1.189,-0.25 1.744,-0.25c1.066,0 1.856,0.25 2.368,0.77c0.512,0.5 0.768,1.29 0.768,2.36v4.82h-1.52v-1.3c-0.192,0.45 -0.491,0.8 -0.896,1.06c-0.406,0.26 -0.891,0.38 -1.456,0.38zM113.022,30.49c0.576,0 1.056,-0.2 1.44,-0.61c0.384,-0.4 0.576,-0.91 0.576,-1.53v-0.43h-0.528c-0.779,0 -1.392,0.03 -1.84,0.11c-0.438,0.07 -0.752,0.2 -0.944,0.38c-0.182,0.17 -0.272,0.41 -0.272,0.72c0,0.41 0.138,0.74 0.416,0.99c0.277,0.25 0.661,0.37 1.152,0.37zM120.795,31.5v-6.51h-2.752v-1.3h7.136v1.3h-2.768v6.51zM130.3,31.64c-1.28,0 -2.288,-0.35 -3.024,-1.07c-0.736,-0.72 -1.104,-1.71 -1.104,-2.96c0,-0.8 0.16,-1.5 0.48,-2.11c0.331,-0.62 0.784,-1.1 1.36,-1.44c0.576,-0.34 1.238,-0.51 1.984,-0.51c1.078,0 1.926,0.34 2.544,1.04c0.619,0.68 0.928,1.62 0.928,2.83v0.54h-5.728c0.118,1.63 0.976,2.44 2.576,2.44c0.448,0 0.886,-0.07 1.312,-0.21c0.438,-0.14 0.848,-0.37 1.232,-0.69l0.48,1.12c-0.352,0.32 -0.805,0.57 -1.36,0.75c-0.554,0.18 -1.114,0.27 -1.68,0.27zM130.06,24.68c-0.672,0 -1.205,0.21 -1.6,0.63c-0.394,0.41 -0.634,0.97 -0.72,1.66h4.368c-0.032,-0.72 -0.224,-1.28 -0.576,-1.68c-0.352,-0.4 -0.842,-0.61 -1.472,-0.61zM135.594,34.38v-10.69h1.584v1.33c0.224,-0.45 0.565,-0.81 1.024,-1.07c0.459,-0.27 0.987,-0.4 1.584,-0.4c0.693,0 1.296,0.16 1.808,0.49c0.523,0.33 0.923,0.8 1.2,1.41c0.288,0.6 0.432,1.31 0.432,2.15c0,0.83 -0.144,1.55 -0.432,2.16c-0.277,0.6 -0.677,1.07 -1.2,1.4c-0.512,0.32 -1.115,0.48 -1.808,0.48c-0.576,0 -1.093,-0.12 -1.552,-0.36c-0.448,-0.26 -0.789,-0.61 -1.024,-1.04v4.14zM139.386,30.4c0.672,0 1.205,-0.24 1.6,-0.72c0.405,-0.48 0.608,-1.18 0.608,-2.08c0,-0.91 -0.203,-1.6 -0.608,-2.07c-0.395,-0.48 -0.928,-0.72 -1.6,-0.72c-0.672,0 -1.211,0.24 -1.616,0.72c-0.395,0.47 -0.592,1.16 -0.592,2.07c0,0.9 0.197,1.6 0.592,2.08c0.405,0.48 0.944,0.72 1.616,0.72zM145.395,31.5v-7.81h1.472v5.67l4.223,-5.67h1.36v7.81h-1.47v-5.65l-4.225,5.65zM157.58,31.64c-0.54,0 -1.03,-0.1 -1.45,-0.32c-0.43,-0.21 -0.77,-0.5 -1.03,-0.86c-0.24,-0.36 -0.36,-0.77 -0.36,-1.23c0,-0.58 0.14,-1.03 0.43,-1.36c0.3,-0.33 0.78,-0.57 1.45,-0.72c0.69,-0.15 1.6,-0.23 2.76,-0.23h0.54v-0.41c0,-0.61 -0.13,-1.05 -0.38,-1.31c-0.26,-0.27 -0.68,-0.4 -1.27,-0.4c-0.45,0 -0.89,0.07 -1.34,0.2c-0.45,0.13 -0.91,0.34 -1.38,0.63l-0.49,-1.14c0.4,-0.29 0.91,-0.52 1.52,-0.69c0.6,-0.17 1.18,-0.25 1.74,-0.25c1.07,0 1.86,0.25 2.37,0.77c0.51,0.5 0.77,1.29 0.77,2.36v4.82h-1.52v-1.3c-0.2,0.45 -0.5,0.8 -0.9,1.06c-0.41,0.26 -0.89,0.38 -1.46,0.38zM157.9,30.49c0.58,0 1.06,-0.2 1.44,-0.61c0.39,-0.4 0.58,-0.91 0.58,-1.53v-0.43h-0.53c-0.78,0 -1.39,0.03 -1.84,0.11c-0.44,0.07 -0.75,0.2 -0.94,0.38c-0.18,0.17 -0.27,0.41 -0.27,0.72c0,0.41 0.13,0.74 0.41,0.99c0.28,0.25 0.66,0.37 1.15,0.37zM163.71,31.71l-0.55,-1.28c0.47,-0.19 0.84,-0.46 1.11,-0.79c0.27,-0.34 0.46,-0.81 0.57,-1.4c0.12,-0.61 0.18,-1.4 0.18,-2.36v-2.19h5.95v7.81h-1.61v-6.51h-2.84v0.94c0,1.18 -0.09,2.15 -0.28,2.93c-0.2,0.78 -0.5,1.4 -0.92,1.86c-0.4,0.44 -0.94,0.77 -1.61,0.99zM173.6,31.5v-7.81h1.61v2.71h2.23c1,0 1.76,0.21 2.28,0.65c0.53,0.43 0.79,1.05 0.79,1.87c0,0.79 -0.27,1.42 -0.82,1.89c-0.54,0.46 -1.29,0.69 -2.25,0.69zM181.56,31.5v-7.81h1.62v7.81zM175.21,30.4h2.02c0.55,0 0.98,-0.12 1.29,-0.36c0.31,-0.24 0.47,-0.61 0.47,-1.12c0,-0.49 -0.16,-0.84 -0.47,-1.07c-0.31,-0.23 -0.74,-0.35 -1.29,-0.35h-2.02z" fill="#FDFDFD"/></g></svg>