<svg viewBox="0 0 179 53" x="0" y="0" fill="none" xmlns="http://www.w3.org/2000/svg"><g id="button_4" data-node-id="1:103" xmlns="http://www.w3.org/2000/svg"><rect x="0.5" y="0.5" width="178" height="52" rx="4" fill="#1A3E3E"/><path id="Консультация_4" data-node-id="I1:103;1:222" d="M37.812,31.5v-11.28h1.664v4.86h6.32v-4.86h1.648v11.28h-1.648v-5.02h-6.32v5.02zM52.686,31.64c-0.544,0 -1.03,-0.1 -1.456,-0.32c-0.427,-0.21 -0.768,-0.5 -1.024,-0.86c-0.246,-0.36 -0.368,-0.77 -0.368,-1.23c0,-0.58 0.144,-1.03 0.432,-1.36c0.298,-0.33 0.784,-0.57 1.456,-0.72c0.682,-0.15 1.6,-0.23 2.752,-0.23h0.544v-0.41c0,-0.61 -0.128,-1.05 -0.384,-1.31c-0.256,-0.27 -0.678,-0.4 -1.264,-0.4c-0.448,0 -0.896,0.07 -1.344,0.2c-0.448,0.13 -0.907,0.34 -1.376,0.63l-0.496,-1.14c0.405,-0.29 0.912,-0.52 1.52,-0.69c0.608,-0.17 1.189,-0.25 1.744,-0.25c1.066,0 1.856,0.25 2.368,0.77c0.512,0.5 0.768,1.29 0.768,2.36v4.82h-1.52v-1.3c-0.192,0.45 -0.491,0.8 -0.896,1.06c-0.406,0.26 -0.891,0.38 -1.456,0.38zM53.006,30.49c0.576,0 1.056,-0.2 1.44,-0.61c0.384,-0.4 0.576,-0.91 0.576,-1.53v-0.43h-0.528c-0.779,0 -1.392,0.03 -1.84,0.11c-0.438,0.07 -0.752,0.2 -0.944,0.38c-0.182,0.17 -0.272,0.41 -0.272,0.72c0,0.41 0.138,0.74 0.416,0.99c0.277,0.25 0.661,0.37 1.152,0.37zM59.147,31.5v-7.81h1.536v6.53h2.992v-6.53h1.536v6.53h2.992v-6.53h1.536v7.81zM76.685,34.38v-10.69h1.584v1.33c0.224,-0.45 0.566,-0.81 1.024,-1.07c0.459,-0.27 0.987,-0.4 1.584,-0.4c0.694,0 1.296,0.16 1.808,0.49c0.523,0.33 0.923,0.8 1.2,1.41c0.288,0.6 0.432,1.31 0.432,2.15c0,0.83 -0.144,1.55 -0.432,2.16c-0.277,0.6 -0.677,1.07 -1.2,1.4c-0.512,0.32 -1.114,0.48 -1.808,0.48c-0.576,0 -1.093,-0.12 -1.552,-0.36c-0.448,-0.26 -0.789,-0.61 -1.024,-1.04v4.14zM80.477,30.4c0.672,0 1.206,-0.24 1.6,-0.72c0.406,-0.48 0.608,-1.18 0.608,-2.08c0,-0.91 -0.202,-1.6 -0.608,-2.07c-0.394,-0.48 -0.928,-0.72 -1.6,-0.72c-0.672,0 -1.21,0.24 -1.616,0.72c-0.394,0.47 -0.592,1.16 -0.592,2.07c0,0.9 0.198,1.6 0.592,2.08c0.406,0.48 0.944,0.72 1.616,0.72zM86.186,21.88v-1.68h1.888v1.68zM86.33,31.5v-7.81h1.616v7.81zM90.413,31.5v-7.81h1.568v1.3c0.267,-0.47 0.629,-0.83 1.088,-1.07c0.469,-0.25 0.992,-0.37 1.568,-0.37c1.845,0 2.768,1.04 2.768,3.13v4.82h-1.616v-4.72c0,-0.67 -0.133,-1.16 -0.4,-1.47c-0.256,-0.31 -0.661,-0.47 -1.216,-0.47c-0.651,0 -1.173,0.21 -1.568,0.63c-0.384,0.4 -0.576,0.94 -0.576,1.61v4.42zM103.152,31.64c-0.982,0 -1.712,-0.25 -2.192,-0.75c-0.48,-0.5 -0.72,-1.22 -0.72,-2.17v-3.78h-1.52v-1.25h1.52v-2.35h1.616v2.35h2.416v1.25h-2.416v3.65c0,0.56 0.117,0.99 0.352,1.28c0.245,0.29 0.64,0.43 1.184,0.43c0.17,0 0.336,-0.02 0.496,-0.05c0.16,-0.04 0.32,-0.09 0.48,-0.14l0.256,1.21c-0.16,0.1 -0.384,0.17 -0.672,0.23c-0.278,0.06 -0.544,0.09 -0.8,0.09zM109.445,31.64c-1.28,0 -2.288,-0.35 -3.024,-1.07c-0.736,-0.72 -1.104,-1.71 -1.104,-2.96c0,-0.8 0.16,-1.5 0.48,-2.11c0.331,-0.62 0.784,-1.1 1.36,-1.44c0.576,-0.34 1.238,-0.51 1.984,-0.51c1.078,0 1.926,0.34 2.544,1.04c0.619,0.68 0.928,1.62 0.928,2.83v0.54h-5.728c0.118,1.63 0.976,2.44 2.576,2.44c0.448,0 0.886,-0.07 1.312,-0.21c0.438,-0.14 0.848,-0.37 1.232,-0.69l0.48,1.12c-0.352,0.32 -0.805,0.57 -1.36,0.75c-0.554,0.18 -1.114,0.27 -1.68,0.27zM109.205,24.68c-0.672,0 -1.205,0.21 -1.6,0.63c-0.394,0.41 -0.634,0.97 -0.72,1.66h4.368c-0.032,-0.72 -0.224,-1.28 -0.576,-1.68c-0.352,-0.4 -0.842,-0.61 -1.472,-0.61zM114.567,31.5v-7.81h1.568v1.39c0.405,-0.92 1.248,-1.44 2.528,-1.55l0.528,-0.03l0.112,1.38l-0.976,0.09c-1.419,0.14 -2.128,0.87 -2.128,2.19v4.34zM124.282,31.64c-1.28,0 -2.288,-0.35 -3.024,-1.07c-0.736,-0.72 -1.104,-1.71 -1.104,-2.96c0,-0.8 0.16,-1.5 0.48,-2.11c0.331,-0.62 0.784,-1.1 1.36,-1.44c0.576,-0.34 1.238,-0.51 1.984,-0.51c1.078,0 1.926,0.34 2.544,1.04c0.619,0.68 0.928,1.62 0.928,2.83v0.54h-5.728c0.118,1.63 0.976,2.44 2.576,2.44c0.448,0 0.886,-0.07 1.312,-0.21c0.438,-0.14 0.848,-0.37 1.232,-0.69l0.48,1.12c-0.352,0.32 -0.805,0.57 -1.36,0.75c-0.554,0.18 -1.114,0.27 -1.68,0.27zM124.042,24.68c-0.672,0 -1.205,0.21 -1.6,0.63c-0.394,0.41 -0.634,0.97 -0.72,1.66h4.368c-0.032,-0.72 -0.224,-1.28 -0.576,-1.68c-0.352,-0.4 -0.842,-0.61 -1.472,-0.61zM132.14,31.64c-0.64,0 -1.24,-0.08 -1.79,-0.24c-0.56,-0.17 -1.02,-0.4 -1.394,-0.7l0.464,-1.09c0.39,0.28 0.83,0.49 1.3,0.64c0.48,0.15 0.96,0.23 1.44,0.23c0.56,0 0.99,-0.11 1.28,-0.31c0.28,-0.2 0.43,-0.47 0.43,-0.81c0,-0.28 -0.1,-0.49 -0.29,-0.64c-0.19,-0.16 -0.48,-0.29 -0.86,-0.37l-1.52,-0.31c-1.35,-0.27 -2.02,-0.97 -2.02,-2.08c0,-0.73 0.29,-1.32 0.88,-1.76c0.59,-0.43 1.35,-0.65 2.3,-0.65c0.55,0 1.07,0.08 1.56,0.24c0.5,0.16 0.91,0.4 1.24,0.72l-0.46,1.09c-0.32,-0.28 -0.69,-0.49 -1.1,-0.64c-0.42,-0.15 -0.83,-0.23 -1.24,-0.23c-0.55,0 -0.97,0.11 -1.26,0.32c-0.29,0.2 -0.43,0.48 -0.43,0.83c0,0.54 0.35,0.88 1.05,1.03l1.52,0.3c0.7,0.14 1.22,0.38 1.57,0.71c0.36,0.33 0.55,0.77 0.55,1.34c0,0.75 -0.3,1.33 -0.88,1.76c-0.59,0.42 -1.37,0.62 -2.34,0.62zM140.6,31.64c-0.99,0 -1.72,-0.25 -2.2,-0.75c-0.48,-0.5 -0.72,-1.22 -0.72,-2.17v-3.78h-1.52v-1.25h1.52v-2.35h1.62v2.35h2.42v1.25h-2.42v3.65c0,0.56 0.12,0.99 0.35,1.28c0.25,0.29 0.64,0.43 1.19,0.43c0.17,0 0.33,-0.02 0.49,-0.05c0.16,-0.04 0.32,-0.09 0.48,-0.14l0.26,1.21c-0.16,0.1 -0.39,0.17 -0.67,0.23c-0.28,0.06 -0.55,0.09 -0.8,0.09z" fill="#FDFDFD"/></g></svg>