<svg viewBox="0 0 393.899 63.36" x="0" y="0" fill="none" xmlns="http://www.w3.org/2000/svg"><g id="Frame 13_5" data-node-id="1:89" xmlns="http://www.w3.org/2000/svg"><path id="фото-отчет" data-node-id="1:90" d="M141.887,21.74v-6.22c-0.288,0.68 -0.696,1.2 -1.224,1.56c-0.528,0.37 -1.16,0.56 -1.896,0.56c-0.848,0 -1.592,-0.25 -2.232,-0.75c-0.624,-0.49 -1.112,-1.19 -1.464,-2.09c-0.352,-0.91 -0.528,-1.98 -0.528,-3.21c0,-1.86 0.384,-3.33 1.152,-4.42c0.768,-1.09 1.792,-1.63 3.072,-1.63c0.736,0 1.368,0.18 1.896,0.55c0.528,0.37 0.936,0.89 1.224,1.56v-7.15h1.944v7.13c0.288,-0.67 0.696,-1.19 1.224,-1.54c0.528,-0.37 1.16,-0.55 1.896,-0.55c1.264,0 2.28,0.54 3.048,1.63c0.784,1.09 1.176,2.56 1.176,4.42c0,1.84 -0.384,3.31 -1.152,4.41c-0.768,1.09 -1.792,1.64 -3.072,1.64c-0.736,0 -1.368,-0.19 -1.896,-0.56c-0.528,-0.36 -0.936,-0.88 -1.224,-1.53v6.19zM139.199,16.1c0.848,0 1.512,-0.38 1.992,-1.15c0.48,-0.77 0.72,-1.89 0.72,-3.36c0,-1.47 -0.248,-2.59 -0.744,-3.36c-0.48,-0.77 -1.136,-1.15 -1.968,-1.15c-0.832,0 -1.496,0.38 -1.992,1.15c-0.48,0.77 -0.72,1.89 -0.72,3.36c0,1.47 0.24,2.59 0.72,3.36c0.496,0.77 1.16,1.15 1.992,1.15zM146.495,16.1c0.832,0 1.496,-0.38 1.992,-1.15c0.496,-0.77 0.744,-1.89 0.744,-3.36c0,-1.47 -0.248,-2.59 -0.744,-3.36c-0.496,-0.77 -1.16,-1.15 -1.992,-1.15c-0.832,0 -1.488,0.38 -1.968,1.15c-0.48,0.77 -0.72,1.89 -0.72,3.36c0,1.47 0.232,2.59 0.696,3.36c0.48,0.77 1.144,1.15 1.992,1.15zM159.189,17.64c-1.136,0 -2.12,-0.25 -2.952,-0.75c-0.832,-0.49 -1.48,-1.19 -1.944,-2.09c-0.448,-0.91 -0.672,-1.98 -0.672,-3.21c0,-1.23 0.224,-2.3 0.672,-3.19c0.464,-0.92 1.112,-1.62 1.944,-2.12c0.832,-0.49 1.816,-0.74 2.952,-0.74c1.12,0 2.096,0.25 2.928,0.74c0.848,0.5 1.496,1.2 1.944,2.12c0.464,0.89 0.696,1.96 0.696,3.19c0,1.23 -0.232,2.3 -0.696,3.21c-0.448,0.9 -1.096,1.6 -1.944,2.09c-0.832,0.5 -1.808,0.75 -2.928,0.75zM159.189,16.08c1.088,0 1.96,-0.39 2.616,-1.16c0.656,-0.78 0.984,-1.89 0.984,-3.33c0,-1.46 -0.328,-2.57 -0.984,-3.34c-0.656,-0.77 -1.528,-1.15 -2.616,-1.15c-1.104,0 -1.984,0.38 -2.64,1.15c-0.64,0.77 -0.96,1.88 -0.96,3.34c0,1.44 0.32,2.55 0.96,3.33c0.656,0.77 1.536,1.16 2.64,1.16zM170.335,17.42v-10.1h-4.224v-1.56h10.416v1.56h-4.248v10.1zM183.4,17.64c-1.136,0 -2.12,-0.25 -2.952,-0.75c-0.832,-0.49 -1.48,-1.19 -1.944,-2.09c-0.448,-0.91 -0.672,-1.98 -0.672,-3.21c0,-1.23 0.224,-2.3 0.672,-3.19c0.464,-0.92 1.112,-1.62 1.944,-2.12c0.832,-0.49 1.816,-0.74 2.952,-0.74c1.12,0 2.096,0.25 2.928,0.74c0.848,0.5 1.496,1.2 1.944,2.12c0.464,0.89 0.696,1.96 0.696,3.19c0,1.23 -0.232,2.3 -0.696,3.21c-0.448,0.9 -1.096,1.6 -1.944,2.09c-0.832,0.5 -1.808,0.75 -2.928,0.75zM183.4,16.08c1.088,0 1.96,-0.39 2.616,-1.16c0.656,-0.78 0.984,-1.89 0.984,-3.33c0,-1.46 -0.328,-2.57 -0.984,-3.34c-0.656,-0.77 -1.528,-1.15 -2.616,-1.15c-1.104,0 -1.984,0.38 -2.64,1.15c-0.64,0.77 -0.96,1.88 -0.96,3.34c0,1.44 0.32,2.55 0.96,3.33c0.656,0.77 1.536,1.16 2.64,1.16zM192.281,11.83v-1.61h6.72v1.61zM207.869,17.64c-1.136,0 -2.12,-0.25 -2.952,-0.75c-0.832,-0.49 -1.48,-1.19 -1.944,-2.09c-0.448,-0.91 -0.672,-1.98 -0.672,-3.21c0,-1.23 0.224,-2.3 0.672,-3.19c0.464,-0.92 1.112,-1.62 1.944,-2.12c0.832,-0.49 1.816,-0.74 2.952,-0.74c1.12,0 2.096,0.25 2.928,0.74c0.848,0.5 1.496,1.2 1.944,2.12c0.464,0.89 0.696,1.96 0.696,3.19c0,1.23 -0.232,2.3 -0.696,3.21c-0.448,0.9 -1.096,1.6 -1.944,2.09c-0.832,0.5 -1.808,0.75 -2.928,0.75zM207.869,16.08c1.088,0 1.96,-0.39 2.616,-1.16c0.656,-0.78 0.984,-1.89 0.984,-3.33c0,-1.46 -0.328,-2.57 -0.984,-3.34c-0.656,-0.77 -1.528,-1.15 -2.616,-1.15c-1.104,0 -1.984,0.38 -2.64,1.15c-0.64,0.77 -0.96,1.88 -0.96,3.34c0,1.44 0.32,2.55 0.96,3.33c0.656,0.77 1.536,1.16 2.64,1.16zM219.015,17.42v-10.1h-4.224v-1.56h10.416v1.56h-4.248v10.1zM234.743,17.42v-4.73c-0.896,0.55 -1.928,0.82 -3.096,0.82c-1.664,0 -2.896,-0.39 -3.696,-1.18c-0.8,-0.8 -1.2,-2.01 -1.2,-3.62v-2.95h1.944v2.8c0,1.16 0.248,2 0.744,2.52c0.512,0.53 1.328,0.8 2.448,0.8c0.576,0 1.08,-0.07 1.512,-0.2c0.448,-0.12 0.888,-0.33 1.32,-0.62v-5.3h1.944v11.66zM245.777,17.64c-1.84,0 -3.296,-0.54 -4.368,-1.61c-1.072,-1.09 -1.608,-2.56 -1.608,-4.42c0,-1.2 0.24,-2.25 0.72,-3.17c0.48,-0.92 1.136,-1.64 1.968,-2.13c0.848,-0.51 1.824,-0.77 2.928,-0.77c1.584,0 2.822,0.51 3.722,1.54c0.89,1 1.34,2.4 1.34,4.17v0.75h-8.782c0.064,1.32 0.448,2.34 1.152,3.04c0.704,0.69 1.68,1.04 2.928,1.04c0.704,0 1.376,-0.11 2.016,-0.32c0.636,-0.22 1.246,-0.58 1.826,-1.08l0.67,1.37c-0.53,0.5 -1.2,0.89 -2.02,1.18c-0.812,0.27 -1.644,0.41 -2.492,0.41zM245.465,6.98c-1.104,0 -1.976,0.34 -2.616,1.03c-0.64,0.69 -1.016,1.59 -1.128,2.71h7.078c-0.05,-1.18 -0.36,-2.1 -0.93,-2.76c-0.564,-0.65 -1.364,-0.98 -2.404,-0.98zM255.929,17.42v-10.1h-4.22v-1.56h10.41v1.56h-4.25v10.1z" fill="#F2BE22"/><path id="Делимся впечатлениями" data-node-id="1:91" d="M0.5,62.86v-9.34h2.272c1.899,-2.37 2.848,-6.61 2.848,-12.71v-5.95h16.544v18.66h3.2v9.34h-4.352v-5.44h-16.128v5.44zM7.764,53.52h9.408v-14.79h-6.976v2.56c0,2.86 -0.203,5.29 -0.608,7.3c-0.405,1.98 -1.013,3.62 -1.824,4.93zM36.325,57.77c-1.856,0 -3.456,-0.33 -4.8,-0.99c-1.322,-0.68 -2.346,-1.63 -3.072,-2.85c-0.704,-1.24 -1.056,-2.69 -1.056,-4.35c0,-1.62 0.342,-3.04 1.024,-4.26c0.704,-1.23 1.654,-2.19 2.848,-2.88c1.216,-0.7 2.614,-1.05 4.192,-1.05c2.283,0 4.096,0.72 5.44,2.17c1.344,1.43 2.016,3.37 2.016,5.83v1.21h-10.912c0.171,1.24 0.619,2.15 1.344,2.72c0.747,0.56 1.771,0.84 3.072,0.84c0.854,0 1.718,-0.13 2.592,-0.39c0.875,-0.25 1.664,-0.65 2.368,-1.18l1.28,3.23c-0.789,0.6 -1.76,1.08 -2.912,1.44c-1.13,0.34 -2.272,0.51 -3.424,0.51zM35.653,44.59c-1.024,0 -1.856,0.31 -2.496,0.93c-0.618,0.61 -1.002,1.48 -1.152,2.59h6.912c-0.128,-2.35 -1.216,-3.52 -3.264,-3.52zM46.068,57.9l-1.44,-3.81c1.301,-0.36 2.219,-1.06 2.752,-2.11c0.533,-1.07 0.8,-2.71 0.8,-4.93v-5.34h13.344v15.71h-4.832v-11.97h-4.096v1.76c0,3.22 -0.523,5.71 -1.568,7.46c-1.045,1.75 -2.699,2.82 -4.96,3.23zM65.759,57.42v-15.71h4.352v9.5l7.168,-9.5h3.968v15.71h-4.352v-9.5l-7.168,9.5zM85.478,57.42v-15.71h3.968l5.152,8.57l5.12,-8.57h3.968v15.71h-4.256v-8.8l-3.744,6.21h-2.208l-3.776,-6.21v8.8zM115.532,57.77c-1.707,0 -3.2,-0.33 -4.48,-0.99c-1.259,-0.68 -2.229,-1.64 -2.912,-2.88c-0.683,-1.24 -1.024,-2.7 -1.024,-4.38c0,-1.69 0.341,-3.14 1.024,-4.36c0.683,-1.21 1.653,-2.14 2.912,-2.78c1.28,-0.66 2.773,-0.99 4.48,-0.99c1.003,0 2.016,0.15 3.04,0.45c1.024,0.29 1.856,0.72 2.496,1.28l-1.344,3.32c-0.533,-0.42 -1.131,-0.75 -1.792,-0.99c-0.661,-0.25 -1.301,-0.38 -1.92,-0.38c-1.259,0 -2.24,0.39 -2.944,1.18c-0.683,0.77 -1.024,1.87 -1.024,3.3c0,1.41 0.341,2.52 1.024,3.33c0.704,0.79 1.685,1.18 2.944,1.18c0.597,0 1.227,-0.12 1.888,-0.35c0.683,-0.24 1.291,-0.58 1.824,-1.03l1.344,3.33c-0.64,0.56 -1.472,0.99 -2.496,1.31c-1.024,0.3 -2.037,0.45 -3.04,0.45zM122.289,57.42l2.304,-3.94c0.597,-1.08 1.386,-1.81 2.368,-2.17c-2.603,-0.51 -3.904,-2.05 -3.904,-4.61c0,-1.56 0.533,-2.77 1.6,-3.65c1.066,-0.89 2.624,-1.34 4.672,-1.34h8.512v15.71h-4.448v-5.09h-1.312c-0.512,0 -0.971,0.15 -1.376,0.45c-0.384,0.28 -0.704,0.64 -0.96,1.09l-2.016,3.55zM130.353,49.23h3.04v-4.42h-3.04c-0.918,0 -1.611,0.19 -2.08,0.58c-0.448,0.38 -0.672,0.92 -0.672,1.6c0,0.7 0.224,1.26 0.672,1.66c0.469,0.39 1.162,0.58 2.08,0.58zM150.978,57.42v-15.71h8.928c2.133,0 3.648,0.37 4.544,1.12c0.896,0.72 1.344,1.73 1.344,3.01c0,0.79 -0.224,1.48 -0.672,2.08c-0.427,0.59 -1.024,1.03 -1.792,1.31c1.045,0.25 1.813,0.71 2.304,1.37c0.491,0.67 0.736,1.47 0.736,2.4c0,1.35 -0.533,2.43 -1.6,3.24c-1.045,0.79 -2.581,1.18 -4.608,1.18zM155.426,47.98h3.968c0.64,0 1.141,-0.15 1.504,-0.45c0.363,-0.3 0.544,-0.72 0.544,-1.28c0,-0.55 -0.181,-0.97 -0.544,-1.25c-0.363,-0.27 -0.864,-0.41 -1.504,-0.41h-3.968zM155.426,54.54h4.256c1.557,0 2.336,-0.62 2.336,-1.86c0,-1.23 -0.779,-1.85 -2.336,-1.85h-4.256zM169.572,57.42v-15.71h15.552v15.71h-4.832v-11.97h-5.888v11.97zM197.482,57.77c-1.856,0 -3.456,-0.33 -4.8,-0.99c-1.323,-0.68 -2.347,-1.63 -3.072,-2.85c-0.704,-1.24 -1.056,-2.69 -1.056,-4.35c0,-1.62 0.341,-3.04 1.024,-4.26c0.704,-1.23 1.653,-2.19 2.848,-2.88c1.216,-0.7 2.613,-1.05 4.192,-1.05c2.282,0 4.096,0.72 5.44,2.17c1.344,1.43 2.016,3.37 2.016,5.83v1.21h-10.912c0.17,1.24 0.618,2.15 1.344,2.72c0.746,0.56 1.77,0.84 3.072,0.84c0.853,0 1.717,-0.13 2.592,-0.39c0.874,-0.25 1.664,-0.65 2.368,-1.18l1.28,3.23c-0.79,0.6 -1.76,1.08 -2.912,1.44c-1.131,0.34 -2.272,0.51 -3.424,0.51zM196.81,44.59c-1.024,0 -1.856,0.31 -2.496,0.93c-0.619,0.61 -1.003,1.48 -1.152,2.59h6.912c-0.128,-2.35 -1.216,-3.52 -3.264,-3.52zM217.208,57.42v-5.28c-0.555,0.23 -1.12,0.41 -1.696,0.51c-0.555,0.11 -1.109,0.16 -1.664,0.16c-4.736,0 -7.104,-2.31 -7.104,-6.94v-4.16h4.832v3.71c0,1.24 0.235,2.13 0.704,2.69c0.491,0.55 1.323,0.83 2.496,0.83c0.939,0 1.717,-0.2 2.336,-0.61v-6.62h4.832v15.71zM231.477,57.77c-1.173,0 -2.208,-0.22 -3.104,-0.67c-0.896,-0.45 -1.61,-1.06 -2.144,-1.82c-0.512,-0.77 -0.768,-1.64 -0.768,-2.6c0,-1.13 0.299,-2.03 0.896,-2.72c0.598,-0.68 1.568,-1.16 2.912,-1.44c1.344,-0.29 3.126,-0.44 5.344,-0.44h1.152v-0.55c0,-0.94 -0.213,-1.6 -0.64,-1.98c-0.426,-0.41 -1.152,-0.61 -2.176,-0.61c-0.853,0 -1.76,0.14 -2.72,0.42c-0.938,0.25 -1.877,0.65 -2.816,1.18l-1.312,-3.23c0.555,-0.36 1.227,-0.7 2.016,-0.99c0.811,-0.3 1.654,-0.53 2.528,-0.68c0.875,-0.17 1.707,-0.25 2.496,-0.25c2.432,0 4.246,0.55 5.44,1.66c1.195,1.09 1.792,2.79 1.792,5.09v9.28h-4.512v-2.37c-0.32,0.83 -0.864,1.5 -1.632,1.99c-0.746,0.49 -1.664,0.73 -2.752,0.73zM232.565,54.54c0.896,0 1.654,-0.31 2.272,-0.93c0.619,-0.62 0.928,-1.42 0.928,-2.4v-0.64h-1.12c-1.642,0 -2.805,0.15 -3.488,0.45c-0.682,0.28 -1.024,0.77 -1.024,1.47c0,0.6 0.203,1.09 0.608,1.47c0.427,0.39 1.035,0.58 1.824,0.58zM247.839,57.42v-11.94h-5.186v-3.77h15.196v3.77h-5.18v11.94zM259.819,57.9l-1.44,-3.81c1.3,-0.36 2.22,-1.06 2.75,-2.11c0.53,-1.07 0.8,-2.71 0.8,-4.93v-5.34h13.34v15.71h-4.83v-11.97h-4.09v1.76c0,3.22 -0.53,5.71 -1.57,7.46c-1.05,1.75 -2.7,2.82 -4.96,3.23zM287.669,57.77c-1.86,0 -3.46,-0.33 -4.8,-0.99c-1.32,-0.68 -2.35,-1.63 -3.07,-2.85c-0.71,-1.24 -1.06,-2.69 -1.06,-4.35c0,-1.62 0.34,-3.04 1.03,-4.26c0.7,-1.23 1.65,-2.19 2.84,-2.88c1.22,-0.7 2.62,-1.05 4.2,-1.05c2.28,0 4.09,0.72 5.44,2.17c1.34,1.43 2.01,3.37 2.01,5.83v1.21h-10.91c0.17,1.24 0.62,2.15 1.34,2.72c0.75,0.56 1.77,0.84 3.08,0.84c0.85,0 1.71,-0.13 2.59,-0.39c0.87,-0.25 1.66,-0.65 2.37,-1.18l1.28,3.23c-0.79,0.6 -1.76,1.08 -2.92,1.44c-1.13,0.34 -2.27,0.51 -3.42,0.51zM286.999,44.59c-1.03,0 -1.86,0.31 -2.5,0.93c-0.62,0.61 -1,1.48 -1.15,2.59h6.91c-0.13,-2.35 -1.21,-3.52 -3.26,-3.52zM297.569,57.42v-15.71h4.83v5.82h5.99v-5.82h4.83v15.71h-4.83v-6.14h-5.99v6.14zM317.419,57.42v-15.71h4.35v9.5l7.17,-9.5h3.96v15.71h-4.35v-9.5l-7.17,9.5zM335.729,57.42l2.3,-3.94c0.6,-1.08 1.39,-1.81 2.37,-2.17c-2.6,-0.51 -3.9,-2.05 -3.9,-4.61c0,-1.56 0.53,-2.77 1.6,-3.65c1.06,-0.89 2.62,-1.34 4.67,-1.34h8.51v15.71h-4.45v-5.09h-1.31c-0.51,0 -0.97,0.15 -1.38,0.45c-0.38,0.28 -0.7,0.64 -0.96,1.09l-2.01,3.55zM343.789,49.23h3.04v-4.42h-3.04c-0.92,0 -1.61,0.19 -2.08,0.58c-0.45,0.38 -0.67,0.92 -0.67,1.6c0,0.7 0.22,1.26 0.67,1.66c0.47,0.39 1.16,0.58 2.08,0.58zM355.509,57.42v-15.71h3.97l5.15,8.57l5.12,-8.57h3.97v15.71h-4.26v-8.8l-3.74,6.21h-2.21l-3.78,-6.21v8.8zM377.919,57.42v-15.71h4.35v9.5l7.17,-9.5h3.96v15.71h-4.35v-9.5l-7.17,9.5z" fill="#18121E"/></g></svg>