<svg viewBox="0 0 22 25" x="0" y="0" fill="none" xmlns="http://www.w3.org/2000/svg"><defs><clipPath id="clip15_1_9" xmlns="http://www.w3.org/2000/svg"><rect width="21" height="24" fill="white" transform="translate(0.5, 0.5)"/></clipPath></defs><g id="fa6-solid:hand-pointer_3" data-node-id="1:214" clip-path="url(#clip15_1_9)" xmlns="http://www.w3.org/2000/svg"><path id="Vector_42" data-node-id="1:215" d="M6.5,2.38c0,-1.04 0.84,-1.88 1.87,-1.88c1.04,0 1.88,0.84 1.88,1.88v6.94c0.4,-0.35 0.92,-0.57 1.5,-0.57c0.97,0 1.79,0.61 2.11,1.46c0.41,-0.43 0.99,-0.71 1.64,-0.71c1.19,0 2.16,0.91 2.25,2.08c0.39,-0.36 0.92,-0.58 1.5,-0.58c1.24,0 2.25,1.01 2.25,2.25v5.25c0,3.31 -2.69,6 -6,6h-4c-0.23,0 -0.46,-0.01 -0.69,-0.05c-2.59,-0.26 -4.98,-1.59 -6.56,-3.7l-3.38,-4.5c-0.62,-0.83 -0.45,-2 0.38,-2.63c0.83,-0.62 2,-0.45 2.62,0.38l2.63,3.5zM11.75,14.75c0,-0.41 -0.34,-0.75 -0.75,-0.75c-0.41,0 -0.75,0.34 -0.75,0.75v4.5c0,0.41 0.34,0.75 0.75,0.75c0.41,0 0.75,-0.34 0.75,-0.75zM14,14c-0.41,0 -0.75,0.34 -0.75,0.75v4.5c0,0.41 0.34,0.75 0.75,0.75c0.41,0 0.75,-0.34 0.75,-0.75v-4.5c0,-0.41 -0.34,-0.75 -0.75,-0.75zM17.75,14.75c0,-0.41 -0.34,-0.75 -0.75,-0.75c-0.41,0 -0.75,0.34 -0.75,0.75v4.5c0,0.41 0.34,0.75 0.75,0.75c0.41,0 0.75,-0.34 0.75,-0.75z" fill="#FDFDFD"/></g></svg>