<svg viewBox="0 0 245 53" x="0" y="0" fill="none" xmlns="http://www.w3.org/2000/svg"><g id="button_8" data-node-id="1:790" xmlns="http://www.w3.org/2000/svg"><rect x="0.5" y="0.5" width="244" height="52" rx="4" fill="#1A3E3E"/><path id="Консультация_8" data-node-id="I1:790;1:222" d="M37.812,31.5v-11.28h4.672c1.216,0 2.155,0.3 2.816,0.91c0.661,0.6 0.992,1.44 0.992,2.53c0,1.1 -0.331,1.95 -0.992,2.56c-0.661,0.6 -1.6,0.9 -2.816,0.9h-3.008v4.38zM39.476,25.79h2.768c1.621,0 2.432,-0.71 2.432,-2.13c0,-1.41 -0.811,-2.11 -2.432,-2.11h-2.768zM51.588,31.64c-1.28,0 -2.288,-0.35 -3.024,-1.07c-0.736,-0.72 -1.104,-1.71 -1.104,-2.96c0,-0.8 0.16,-1.5 0.48,-2.11c0.331,-0.62 0.784,-1.1 1.36,-1.44c0.576,-0.34 1.237,-0.51 1.984,-0.51c1.077,0 1.925,0.34 2.544,1.04c0.619,0.68 0.928,1.62 0.928,2.83v0.54h-5.728c0.117,1.63 0.976,2.44 2.576,2.44c0.448,0 0.885,-0.07 1.312,-0.21c0.437,-0.14 0.848,-0.37 1.232,-0.69l0.48,1.12c-0.352,0.32 -0.805,0.57 -1.36,0.75c-0.555,0.18 -1.115,0.27 -1.68,0.27zM51.348,24.68c-0.672,0 -1.205,0.21 -1.6,0.63c-0.395,0.41 -0.635,0.97 -0.72,1.66h4.368c-0.032,-0.72 -0.224,-1.28 -0.576,-1.68c-0.352,-0.4 -0.843,-0.61 -1.472,-0.61zM56.866,31.5v-7.81h1.472v5.67l4.224,-5.67h1.36v7.81h-1.472v-5.65l-4.224,5.65zM60.386,22.7c-0.694,0 -1.291,-0.18 -1.792,-0.54c-0.491,-0.38 -0.832,-0.92 -1.024,-1.62l0.88,-0.3c0.192,0.52 0.442,0.9 0.752,1.15c0.32,0.24 0.72,0.37 1.2,0.37c0.49,0 0.885,-0.12 1.184,-0.36c0.309,-0.23 0.581,-0.61 0.816,-1.15l0.848,0.29c-0.256,0.76 -0.635,1.31 -1.136,1.65c-0.502,0.34 -1.078,0.51 -1.728,0.51zM68.174,31.5v-6.51h-2.752v-1.3h7.136v1.3h-2.768v6.51zM74.047,31.5v-7.81h1.472v5.67l4.224,-5.67h1.36v7.81h-1.472v-5.65l-4.224,5.65zM83.723,31.5v-7.81h1.616v3.15h3.888v-3.15h1.616v7.81h-1.616v-3.38h-3.888v3.38zM93.446,31.5v-7.81h5.664v1.3h-4.048v6.51zM105.158,31.5v-7.81h1.616v3.15h3.888v-3.15h1.616v7.81h-1.616v-3.38h-3.888v3.38zM117.393,31.64c-0.544,0 -1.029,-0.1 -1.456,-0.32c-0.426,-0.21 -0.768,-0.5 -1.024,-0.86c-0.245,-0.36 -0.368,-0.77 -0.368,-1.23c0,-0.58 0.144,-1.03 0.432,-1.36c0.299,-0.33 0.784,-0.57 1.456,-0.72c0.683,-0.15 1.6,-0.23 2.752,-0.23h0.544v-0.41c0,-0.61 -0.128,-1.05 -0.384,-1.31c-0.256,-0.27 -0.677,-0.4 -1.264,-0.4c-0.448,0 -0.896,0.07 -1.344,0.2c-0.448,0.13 -0.906,0.34 -1.376,0.63l-0.496,-1.14c0.406,-0.29 0.912,-0.52 1.52,-0.69c0.608,-0.17 1.19,-0.25 1.744,-0.25c1.067,0 1.856,0.25 2.368,0.77c0.512,0.5 0.768,1.29 0.768,2.36v4.82h-1.52v-1.3c-0.192,0.45 -0.49,0.8 -0.896,1.06c-0.405,0.26 -0.89,0.38 -1.456,0.38zM117.713,30.49c0.576,0 1.056,-0.2 1.44,-0.61c0.384,-0.4 0.576,-0.91 0.576,-1.53v-0.43h-0.528c-0.778,0 -1.392,0.03 -1.84,0.11c-0.437,0.07 -0.752,0.2 -0.944,0.38c-0.181,0.17 -0.272,0.41 -0.272,0.72c0,0.41 0.139,0.74 0.416,0.99c0.278,0.25 0.662,0.37 1.152,0.37zM123.855,31.5v-7.81h7.072v7.81h-1.616v-6.51h-3.84v6.51zM133.547,34.38v-10.69h1.584v1.33c0.224,-0.45 0.565,-0.81 1.024,-1.07c0.459,-0.27 0.987,-0.4 1.584,-0.4c0.693,0 1.296,0.16 1.808,0.49c0.523,0.33 0.923,0.8 1.2,1.41c0.288,0.6 0.432,1.31 0.432,2.15c0,0.83 -0.144,1.55 -0.432,2.16c-0.277,0.6 -0.677,1.07 -1.2,1.4c-0.512,0.32 -1.115,0.48 -1.808,0.48c-0.576,0 -1.093,-0.12 -1.552,-0.36c-0.448,-0.26 -0.789,-0.61 -1.024,-1.04v4.14zM137.339,30.4c0.672,0 1.205,-0.24 1.6,-0.72c0.405,-0.48 0.608,-1.18 0.608,-2.08c0,-0.91 -0.203,-1.6 -0.608,-2.07c-0.395,-0.48 -0.928,-0.72 -1.6,-0.72c-0.672,0 -1.211,0.24 -1.616,0.72c-0.395,0.47 -0.592,1.16 -0.592,2.07c0,0.9 0.197,1.6 0.592,2.08c0.405,0.48 0.944,0.72 1.616,0.72zM145.86,31.64c-0.544,0 -1.029,-0.1 -1.456,-0.32c-0.427,-0.21 -0.768,-0.5 -1.024,-0.86c-0.245,-0.36 -0.368,-0.77 -0.368,-1.23c0,-0.58 0.144,-1.03 0.432,-1.36c0.299,-0.33 0.784,-0.57 1.456,-0.72c0.683,-0.15 1.6,-0.23 2.752,-0.23h0.544v-0.41c0,-0.61 -0.128,-1.05 -0.384,-1.31c-0.256,-0.27 -0.677,-0.4 -1.264,-0.4c-0.448,0 -0.896,0.07 -1.344,0.2c-0.448,0.13 -0.907,0.34 -1.376,0.63l-0.496,-1.14c0.405,-0.29 0.912,-0.52 1.52,-0.69c0.608,-0.17 1.189,-0.25 1.744,-0.25c1.067,0 1.856,0.25 2.368,0.77c0.512,0.5 0.768,1.29 0.768,2.36v4.82h-1.52v-1.3c-0.192,0.45 -0.491,0.8 -0.896,1.06c-0.405,0.26 -0.891,0.38 -1.456,0.38zM146.18,30.49c0.576,0 1.056,-0.2 1.44,-0.61c0.384,-0.4 0.576,-0.91 0.576,-1.53v-0.43h-0.528c-0.779,0 -1.392,0.03 -1.84,0.11c-0.437,0.07 -0.752,0.2 -0.944,0.38c-0.181,0.17 -0.272,0.41 -0.272,0.72c0,0.41 0.139,0.74 0.416,0.99c0.277,0.25 0.661,0.37 1.152,0.37zM152.321,31.5v-7.81h3.984c0.96,0 1.659,0.18 2.096,0.55c0.448,0.35 0.672,0.85 0.672,1.5c0,0.41 -0.117,0.76 -0.352,1.07c-0.224,0.3 -0.533,0.52 -0.928,0.66c0.491,0.12 0.87,0.34 1.136,0.67c0.267,0.33 0.4,0.73 0.4,1.18c0,0.68 -0.25,1.21 -0.752,1.6c-0.501,0.39 -1.216,0.58 -2.144,0.58zM153.841,27h2.352c0.438,0 0.774,-0.1 1.008,-0.3c0.246,-0.2 0.368,-0.48 0.368,-0.83c0,-0.36 -0.122,-0.64 -0.368,-0.83c-0.234,-0.2 -0.57,-0.29 -1.008,-0.29h-2.352zM153.841,30.46h2.496c1.003,0 1.504,-0.41 1.504,-1.22c0,-0.8 -0.501,-1.2 -1.504,-1.2h-2.496zM161.068,31.71l-0.544,-1.28c0.469,-0.19 0.837,-0.46 1.104,-0.79c0.267,-0.34 0.459,-0.81 0.576,-1.4c0.117,-0.61 0.176,-1.4 0.176,-2.36v-2.19h5.95v7.81h-1.61v-6.51h-2.84v0.94c0,1.18 -0.09,2.15 -0.28,2.93c-0.2,0.78 -0.5,1.4 -0.92,1.86c-0.401,0.44 -0.94,0.77 -1.612,0.99zM174.64,31.64c-1.28,0 -2.29,-0.35 -3.03,-1.07c-0.73,-0.72 -1.1,-1.71 -1.1,-2.96c0,-0.8 0.16,-1.5 0.48,-2.11c0.33,-0.62 0.78,-1.1 1.36,-1.44c0.57,-0.34 1.23,-0.51 1.98,-0.51c1.08,0 1.93,0.34 2.55,1.04c0.61,0.68 0.92,1.62 0.92,2.83v0.54h-5.72c0.11,1.63 0.97,2.44 2.57,2.44c0.45,0 0.89,-0.07 1.31,-0.21c0.44,-0.14 0.85,-0.37 1.24,-0.69l0.48,1.12c-0.36,0.32 -0.81,0.57 -1.36,0.75c-0.56,0.18 -1.12,0.27 -1.68,0.27zM174.4,24.68c-0.68,0 -1.21,0.21 -1.6,0.63c-0.4,0.41 -0.64,0.97 -0.72,1.66h4.36c-0.03,-0.72 -0.22,-1.28 -0.57,-1.68c-0.35,-0.4 -0.85,-0.61 -1.47,-0.61zM179.91,31.5v-7.81h1.62v3.15h3.89v-3.15h1.61v7.81h-1.61v-3.38h-3.89v3.38zM189.64,31.5v-7.81h1.47v5.67l4.22,-5.67h1.36v7.81h-1.47v-5.65l-4.22,5.65zM199.31,31.5v-7.81h1.47v5.67l4.23,-5.67h1.36v7.81h-1.47v-5.65l-4.23,5.65zM202.83,22.7c-0.69,0 -1.29,-0.18 -1.79,-0.54c-0.49,-0.38 -0.83,-0.92 -1.02,-1.62l0.88,-0.3c0.19,0.52 0.44,0.9 0.75,1.15c0.32,0.24 0.72,0.37 1.2,0.37c0.49,0 0.88,-0.12 1.18,-0.36c0.31,-0.23 0.58,-0.61 0.82,-1.15l0.85,0.29c-0.26,0.76 -0.64,1.31 -1.14,1.65c-0.5,0.34 -1.08,0.51 -1.73,0.51z" fill="#FDFDFD"/></g></svg>